<?xml version="1.0" encoding="utf-8"?>
<!-- Generator: Adobe Illustrator 24.2.3, SVG Export Plug-In . SVG Version: 6.00 Build 0)  -->
<svg version="1.1" xmlns="http://www.w3.org/2000/svg" xmlns:xlink="http://www.w3.org/1999/xlink" x="0px" y="0px"
	 viewBox="0 0 130 100" style="enable-background:new 0 0 130 100;" xml:space="preserve">
<style type="text/css">
	.st0{display:none;}
	.st1{display:inline;fill:#4AD000;}
	.st2{fill:#FFFFFF;}
	.st3{fill:#FFFFFF;stroke:#FFFFFF;stroke-width:0.3254;stroke-miterlimit:3.8636;}
	.st4{fill:#FFFFFF;stroke:#FFFFFF;stroke-width:0.2703;stroke-miterlimit:3.8636;}
</style>
<g id="erase" class="st0">
	<rect class="st1" width="130" height="100"/>
</g>
<g id="Layer_1">
	<g>
		<g>
			<g>
				<path class="st2" d="M87.5,10.3c-0.6,0.2-1.2,0.9-2.2,1.2c-0.3,0.1-1,0.3-1.3,0.2c-0.9-0.1-1.3-0.4-1.5-1.2
					c-0.1-0.4-0.6-1-1-0.6c-0.2,0.2,0.4,2.1-0.2,3.4c-0.7,1.3-1.3,3.3-4.8,8.1c-0.3,0.4-0.8,1.5-1.8,1.7c-1,0.2-2,0.2-2.6,1
					C71.5,25,71,24.6,71,24.3c0-0.3,0-0.6,0.7-1.1c0.9-0.7,2.6-2.3,3.3-3.9c0.4-0.8,0.8-1.6-0.1-2.7c-0.3-0.3-0.3-1,0.3-1.1
					c0.4-0.1,1-0.2,1.6-0.3c0.5-0.3-0.4-0.4-0.7-0.4c-0.1,0-1,0.1-0.9-0.7c0-0.3,0.5-0.6,0.6-0.9c0.2-0.3,0.1-0.5-0.5-0.2
					c-0.3,0.1-0.5,0.3-0.6,0.3c-0.2,0-0.4,0.1-0.5-0.1c-0.1-0.2-0.2-0.7-0.3-0.9c-0.1-0.2-0.2-0.2-0.3,0c-0.1,0.3-0.1,0.8-0.3,1
					c-0.4,0.1-0.7-0.1-0.6-0.5c0.2-1.1,0.6-2.3-0.2-3.4c-0.2-0.4-1.1-1-2.1,0c-0.2,0.2,0,0.3-1.1,0.2c-1-0.1-2.1,1.3-2.3,1.4
					c-0.5,0.4-0.3,0.6-1.3,0.1c-1.3-0.7-3.4-0.2-4.5,0.7c-0.3,0.2-0.7,0.7-1.4,0.1c-0.2-0.2-1.1-0.7-1.8-0.8
					c-0.8-0.1-0.8-0.1-0.9-0.4c-0.1-0.4,0.1-0.9,0-1.1c0-0.3-0.6,0.1-0.7,0.8c-0.1,0.1-0.2,0.2-0.5,0c-0.2-0.2-0.4-0.3-0.6-0.4
					c-0.1-0.1-0.4-0.1-0.3,0.2c0.4,0.7,0.3,0.8,0.2,1c-0.1,0.2-1.3,0-1.5,0c-0.2,0-0.2,0.1-0.1,0.1c0.6,0.2,0.6,0.5,0.9,0.6
					c0.2,0.1-0.4,0.3-0.8,0.2c-0.8-0.3-2.7-0.6-4.1-0.3c-0.8,0.2-2,1.4-1,2.4c0.2,0.2,0.6,0.4,0.9,0.4c0.6,0.2,0.7,0.3,0.3,0.4
					c-0.9,0.2-2.3,1.5-2.7,2.2c-0.7,1-1,1.9,0.4,2.4c0.5,0.2,2,0.1,2.6-0.1c0.6-0.3,1.5-0.9,1.7,0.4c0.2,1.2,1.2,2.4,1.8,3
					c0.5,0.5,1.5,1.1,2.4,1.6c0.7,0.4,1.2,0.7,1.3,1.7c0.1,1,0.5,1.5,0.8,1.7c0.3,0.3,0.6,0.7,0.1,1.6c-0.2,0.4-0.6,1.1-0.2,1.5
					c0.4,0.5,1.5,0.6,1.7,0c0.4-1,0.6-1,1-0.4c0.2,0.3,0.2,0.7,0.2,1.2c-0.1,0.8-0.1,1.4-1.5,1.6c-1.9,0.2-2.1-0.7-3.7-1
					c-0.6-0.1-2.2-0.3-3.6,0.3c-0.7,0.3-1.4,0.5-1.2,1.3c0.1,0.3,0.6,1-0.1,1.1c-0.5,0.1-1.5,0.2-2.2,1.2c-0.3,0.3-0.2,0.7,0,1
					c0.2,0.3,0.6,0.4-0.2,0.5c-0.9,0.2-1.8,0.8-2.1,1.6c-0.3,0.9-0.2,2.2,1,2.8c0.4,0.2,1.8,0.1,2.4,0c0.8-0.1,0.9,0.2,0.5,0.8
					c-0.1,0.1-0.2,0.5-0.4,0.8c-0.2,0.3-0.4,0.7,0.1,1.5c1.4,2.1,3.3,4.1,5.8,6c1.7,1.3,2.6,2,3.3,2.4c0.3,0.2,1,0.8,1.3,0.9
					c0.4,0.2,1.3,0.3,2.3-0.3c1-0.6,1.7-1.1,3.6-1c0.6,0,0.7-0.4-0.2-0.7c-0.8-0.3-1.9-0.9-3.2-0.8c-0.4,0-1.2,0.3-1.5,0.4
					c-0.4,0.1-1.1,0.2-1.7-0.3c-0.4-0.3-1.6-1.4-2.2-2.1c-0.4-0.5-2.6-3.3-3-3.8c-0.6-0.8-1.2-1.3-0.5-2.3c0.3-0.7,0.6-0.9,1.4-0.2
					c0.2,0.2,0.9,0.3,1.8,0.1c0.4-0.1,1.2,0.2,1.7,1.1c0.3,0.5,1.2,0.7,3.2,0.5c1.3-0.1,2.5-2.7,1.5-4.6c-0.3-0.5-0.9-0.7-0.9-1.3
					c0-0.6,0.2-0.8,1-0.5c0.4,0.1,0.5-0.5,0-1.2c-0.2-0.3-0.4-0.7-1.1-1c-0.6-0.2-1-0.7,0.3-0.6c0.7,0,1.5-0.8,1.5-1.4
					c0.1-0.7,0-1.4-0.6-2.3c-0.2-0.2-0.2-0.8,0.3-0.7c0.8,0.1,1.1,0.2,1.4,0.2c0.2,0,1,0.1,1.5-1c0-0.1,0.1-0.3,0.1-0.4
					c0-0.1-0.5-0.1-0.8-0.1c-0.2,0-0.3-0.1-0.7-0.3c-0.2-0.1-0.4-0.3-0.6-0.6c-0.3-0.4-0.4-0.6,0.1-0.6c0.5-0.1,0.7-0.1,1-0.3
					c0.2-0.1,0.6-0.3,1.4-0.2c-0.2-0.5-0.1-0.6,0.3-1c-1.1-1.5-0.5-2.5-0.3-2.7c0.4-0.3,0.6-0.4,0.8-0.6c0.1-0.1,0.2-0.6-0.1-0.9
					c-0.2-0.3-0.8-0.6-1.5-0.6c-0.7,0-2.7,0.1-3.1,0.1c-1.9,0-2.3,2.8-2.4,3.5c-0.1,0.7,0.1,0.5,0.1,2.2c0,0.6-0.4,1.3-0.6,0.4
					c-0.1-0.4-0.5-0.5-0.6-0.5c-0.1-0.1-1-1-1.5-2.7c-0.4-1.4-0.6-1-2-1.8c-1-0.6-2.5-1.7-3.2-3.8c-0.4-1.3,0.6-1.2,1.1-1.2
					c8.2,1,13.4,0.5,17.7-0.7c1-0.2,2.4-0.5,1.8,1.1c-0.6,1.6-1.5,2.7-3.8,4.1c-0.4,0.2-1.4,0.9-0.8,1.2c0.1,0.1,0.7-0.1,0.7-0.1
					s-0.1,0.2-0.5,0.5c-0.1,0.1-0.1,0.1,0,0.2c0.3,0.1,0.7,0,0.7,0c0,0,0,0.1-0.1,0.2c-0.1,0.1-0.9,0.3-0.9,0.5
					c-0.1,0.9,0,0.1,0.2,1.4c0.2,1.2-1.2,3.2-2,4.7c-0.4,0.7-0.8,1.2,0,2.1c0.9,1,2,2.4,2.5,3.1c0.4,0.7,1,2.6,0.1,5.1
					c-0.2,0.5-0.1,1-1.2,2.7c-0.5,0.9-0.6,1.9-0.1,3.3c0.4,0.9,1.7,3.9,3,4.8c1.1,0.7,1.8-0.3,0.8-1c-0.5-0.3-2.5-3.2-3-4.7
					c-0.3-0.8-0.4-1.5,0.2-2.4c0.5-0.7,1.5-0.5,2.5-0.1c0.6,0.2,1.8,0.3,2.6-0.6c0.3-0.4,0.5-0.5,0.5-2c0-0.5,0-0.7,0.4-0.7
					c1.6,0.1,2.5-0.4,2.8-1.9c0.4-1.5,0.1-2.4,0-2.9c-0.1-0.4-0.1-0.7,0.3-0.8c0.4-0.1,2.1-0.2,2.7-1.5c0.6-1.3,0.8-3.6-0.2-5.3
					c-0.3-0.5-0.8-0.6-1.1-1.7c-0.1-0.3-0.1-0.6-0.5-1.1c-0.1-0.2-0.6-0.7-1.2-0.9c-0.2-0.1-0.4-0.2-0.4-0.4c0-0.2,0-0.7,0.3-1.3
					c0.1-0.2,1-2.3,1.7-3.6c0.5-0.9,2.1-4.5,2.5-5.2c0.3-0.4,0.5-0.9,1.1-1.2c1-0.5,1.5-0.9,1.9-1.1c0.3-0.2,1.9-1.1,2.6-2
					C88.5,10.4,88.1,10.1,87.5,10.3z M66.3,27.2c0.1,0,0.2,0.1,0.2,0.2c0,0.1,0,0.2-0.2,0.2c-0.1,0-0.1-0.2-0.1-0.3
					C66.1,27.3,66.1,27.2,66.3,27.2z M64.1,23.1c0.5-0.1,1,0.2,1.1,0.3c0.2,0.2,0.1,0.6-0.2,0.4c-0.3-0.2-0.6-0.6-1.6-0.1
					C62.6,24,63.3,23.2,64.1,23.1z M62.4,25.1c0.4,0.1,0.6,0,0.7-0.1c0.1-0.2-0.3-0.4-0.1-0.5c0.6,0.1,0.6,0.1,0.8-0.2
					c0.2-0.2,0.5-0.3,0.8-0.2c0.5,0.1,0.7,0.6,0.8,0.8c0.1,0.3,0,0.4,0,0.6c-0.1,0.3-0.3,0.4-0.3,0.2c0-0.2,0.2-0.4,0.1-0.8
					c-0.1-0.2-0.2-0.6-0.8-0.6c-0.2,0.1,0,0.5-0.2,0.8c-0.3,0.5-0.8,0.5-1.4,0.4C62.5,25.4,62,25,62.4,25.1z M50.7,36.4
					c0.4-0.5,1.3-0.8,1.8-0.8c0.8-0.1,2.2,0.1,3.1,0.8c0.9,0.6,1.4,0.5,1.9,0.5c0.5-0.1,0.7-0.5,1.4-0.5c0.7,0,1.1,0.1,1.9,0.5
					c0.7,0.4,0.9,1.1,0.6,1.6c-0.3,0.4-1,0.6-2,0.5c-0.9-0.1-1.6-0.3-2.5-0.2c-0.8,0-1.8-0.1-2.7-0.6c-0.9-0.5-1.9-0.6-2.8-0.7
					C50.9,37.2,50.4,36.9,50.7,36.4z M62.3,41.7c0.2,0.7,0.4,1.2-0.4,1.9c-1.2,1-2.4-0.2-2.8-0.5c-1.3-0.9-2.7-0.9-3.3-0.9
					c-1.2,0-2.8-0.8-3.4-1.2c-0.6-0.5-1.5-0.5-1.9-0.4c-0.5,0.1-0.9,0.4-1.5,0.4c-0.9,0-1.3-0.7-1-1.3c0.2-0.6,1.2-1.1,1.7-1.3
					c0.6-0.2,1.9-0.4,2.7-0.2c0.7,0.2,1.1,0.4,2.3,1.2c1.2,0.7,2.2,0.7,2.8,0.5c1.4-0.4,2.4-0.2,3,0.2C60.7,40.2,62,40.8,62.3,41.7z
					 M61.3,35.7c-0.3,0.5-0.5,0.4-1.3,0.2c-1.1-0.6-1.9,0-2.6,0c-0.7,0-1.5,0.1-2.4-0.5c-0.6-0.4-1.3-0.4-2-0.5
					c-0.9-0.1-0.9-0.7-0.6-1c0.2-0.2,0.2-0.3,0.9-0.6c0.7-0.3,2.6-0.1,3.3,0.4c0.5,0.3,1.3,0.1,2.2,0.2c0.9,0.2,1.4,0.2,2.1,0.5
					C61.7,34.8,61.6,35.4,61.3,35.7z M58.8,29.2c0.1-0.7,0.7-0.3,0.7,0.1c0,0.2,0.1,0.5-0.1,0.9c-0.3,0.4-0.8,0.2-0.8-0.1
					C58.7,29.8,58.8,29.5,58.8,29.2z M49.9,13.8c-0.3-0.1-0.4-0.6-0.3-0.8c0.1-0.2,0.3-0.4,0.7-0.5c0.6-0.1,3.1,0.1,3.9,0.5
					c0.3,0.2,0.4,0.5,0.3,0.9c-0.1,0.5-0.4,0.5-0.9,0.5C53.1,14.3,50.2,13.9,49.9,13.8z M53.8,17.5c-0.7,0-1.8,0.3-2.6,0.4
					c-0.7,0.1-1.5,0.5-2.1,0.7c-0.9,0.3-1.4-0.4-1-1.1c0.2-0.3,0.9-1,1.5-1.4c1-0.7,1.8-1,3.6-0.9c1.2,0,0.8,0.6,1.1,1.3
					C54.8,17.2,54.5,17.5,53.8,17.5z M70.9,9.9c0.5-1,1-0.3,1,0.2c0,0.6,0,1.9,0,2c0,0.2,0.1,0.5-0.2,0.6c-0.3,0.2-1.5,0.5-1.9,0.6
					c-0.4,0.1-0.5,0.3-0.2-0.4C69.8,12.4,70.5,10.6,70.9,9.9z M68.4,10.7c0.6-0.6,1.4,0.1,0.9,1.1c-0.5,1.2-1.4,2.6-1.5,2.8
					c-0.1,0.2-0.4,0.1-0.6,0.1c-0.2-0.1-0.8-0.3-1.1-0.3c-0.6-0.2-0.2-0.5,0-0.9C66.4,13.3,67.8,11.3,68.4,10.7z M61.2,16.8
					c-0.1,0.2-0.5,1-0.6,1.1c-0.1,0.1-0.7,0.1-1,0.1c-0.2,0-2.8-0.4-3-0.4c-0.2,0-0.2-0.2-0.4-0.4c-0.4-0.5-0.8-1.6-0.8-2.7
					c0-1.1,0.4-1.7,1.3-2.2c0.9-0.5,2.2,0.2,2.6,0.5c1.3,0.9,1.9,2.6,1.9,3.1C61.2,16.1,61.3,16.5,61.2,16.8z M61.5,12.8
					c0.3-0.3,0.8-0.6,1.4-0.8c1.2-0.3,1.6-0.2,2.3,0c0.8,0.3,0.5,0.7,0.4,0.9c-0.2,0.3-0.7,1.3-0.7,1.4c-0.1,0.1-0.4,0.2-0.8,0.3
					c-0.7,0.3-1.3,0.7-1.4,0.7c-0.1,0-0.1,0.1-0.3-0.1c-0.1-0.2-0.8-1.3-1-1.6C61.3,13.2,61.5,12.9,61.5,12.8z M66.5,15.8
					c-0.1,0.3-0.7,1.6-0.8,1.8c-0.1,0.2-0.3,0.4-0.6,0.4c-0.3,0-2.1,0.1-2.9,0.1c-0.8,0-0.1-0.9,0.1-1.2c0.6-1,2.2-1.5,2.8-1.6
					c0.6-0.1,0.9,0,1.2,0.1C66.7,15.4,66.6,15.6,66.5,15.8z M73.5,16.5c-0.3,0.2-1.7,0.6-2.2,0.8c-0.5,0.1-2.6,0.4-3.1,0.4
					c-0.7,0-1.1-0.2-0.9-1c0.7-2.1,2.7-2.6,4.2-2.6c1.5,0,1.9,1,2.2,1.5C73.9,16,73.7,16.3,73.5,16.5z M74.4,42.1
					c-0.1,0.3-0.6,1.2-1.4,1.3c-0.8,0.1-1.7-0.3-1.8-0.9c-0.1-0.5,0.1-1.7,0.5-2.5c0.4-0.8,0.3-1.3-0.1-1.7c-0.4-0.4-0.7-1-0.7-1.4
					c0-1.1-1.1-1.6-1.4-2c-0.3-0.4-0.5-1.5-0.4-1.9c0.1-0.4,0.3-1,0.9-1.3c0.8-0.4,1.3-0.3,1.8,0.2c0.4,0.4,0.5,1,0.5,1.2
					c0,0.8,0.2,0.9,1,1.4c0.7,0.4,0.8,2.2,0.3,3.2c-0.4,0.9,0,1.2,0.5,2.1C74.5,40.7,74.5,41.8,74.4,42.1z M77.3,39.1
					c-0.3,1.2-2.1,1-2.5,0.5c-0.6-0.9-0.2-1.8-0.2-2.2c0.2-1,0.1-1.8-0.3-2.4c-0.4-0.6-0.4-1.5-0.4-2.1c0-1.6-1.7-2.3-2.4-2.3
					c-0.6-0.1-1.2-0.8-1.2-1c-0.4-1.2,0.4-1.5,0.8-1.7c0.8-0.2,2.3,0.1,2.7,0.7c0.3,0.7,0.7,1.1,1.7,1.3c0.8,0.1,1.1,1.3,0.9,2
					c-0.4,1.5,0.3,1.8,0.8,2.6C77.8,35.4,77.6,38,77.3,39.1z M79.4,28.7c0.1,0.9,0.1,1.2,0.5,1.5c0.5,0.3,1.1,1.1,1.1,1.6
					c0.1,0.4-0.1,1.4-0.2,1.8c-0.3,0.7-0.7,1.3-1.4,1.4c-0.4,0.1-1.6,0-1.7-1.4c0-0.5,0-1,0.2-1.5c0.3-0.5-0.2-1.1-0.5-1.3
					c-0.3-0.3-0.4-0.5-0.6-1c-0.2-0.5-0.7-0.5-0.9-0.5c-0.2,0-0.4-0.2-0.7-0.5c-0.2-0.3-0.4-0.7-0.9-1.4c-0.5-0.7-1,0-1.4,0
					c-1,0.1-1.5-0.8-1-1.6c0.8-1.3,1.8-1.3,2.7-1.3c0.9,0,2.2,0.8,2.3,1.6c0.1,0.9,0.4,0.7,1.1,0.8C78.8,26.9,79.3,27.8,79.4,28.7z"
					/>
				<path class="st2" d="M67.9,25.7c0.2,0.1,0.1,0.2,0.5,0.1c0.1-0.3,0.4-0.6,0.2-1.3c-0.1,0-0.3,0.3-0.3,0.3S68.3,25.2,67.9,25.7z"
					/>
				<path class="st3" d="M67.5,28.8c-0.4-0.3-0.9-0.3-1.2,0C65.9,29,65.6,29,65.3,29c0.3,0.2,0.3,0.5,0.7,0.5c0.4,0,0.5,0.1,0.9,0.1
					C67.3,29.5,67.4,29.1,67.5,28.8z"/>
			</g>
			<g>
				<path class="st4" d="M29.3,50.4c-0.3-30.1,9.3-46.9,36-47.1C92,3,102,19.5,102.3,49.6c0,1.7,0,3.4,0,5c0.3,0,0.6-0.1,0.9-0.1
					c0.7,0,1.4,0.1,2,0.4c0.1-1.8,0.1-3.6,0.1-5.4C105,17.6,93.2,0.1,65.3,0.4c-27.9,0.3-39.3,18.1-39,50.1c0,2,0.1,3.9,0.2,5.8
					c0,0,0,0,0,0.1c0.4-0.7,1-1.3,1.8-1.8c0.3-0.2,0.7-0.4,1.1-0.6c0,0,0,0,0,0C29.3,52.8,29.3,51.6,29.3,50.4z"/>
				<path class="st4" d="M101,78c-1.1,0.4-2.2,0.4-2.4,0.4h0l-0.7,0c-5.2,11.8-15.1,18.2-31.5,18.4C49.6,97,39.4,90.6,34.1,78.4
					c-1.3,0-2.4-0.1-3.3-0.4c5.7,14.4,17.1,22,35.6,21.8C84.4,99.6,95.6,92,101.1,78C101.1,78,101,78,101,78z"/>
			</g>
			<g>
				<path class="st2" d="M39.3,68.7H37c-0.3,0-0.6,0.3-0.6,0.8v3.3c0,0.9-0.9,1.9-2.2,1.9c-1.3,0-2.4-0.8-2.4-1.9V58.4
					c0-1.2,1-1.4,2.3-1.4c1.3,0,2.1,0.4,2.1,1.4v3.4c0,0.3,0.3,0.6,0.6,0.6h2.2c0.4,0,0.6-0.3,0.7-0.7v-2.9c0-3.2-3-3.6-5.9-3.6
					c-3.7,0-6.2,1.4-6.2,4.1v12.8c0,2,1.6,4.1,6.4,4.1c4.2,0,5.8-1.5,5.8-4.1v-2.9C39.9,69,39.6,68.8,39.3,68.7z"/>
				<path class="st2" d="M54.8,59.1c1.3,0,1.8-0.4,1.8-2.3c0-1.8-0.5-2.3-1.8-2.3c-1.6,0-1.8,0.8-1.8,2.3
					C53.1,58.8,53.6,59.1,54.8,59.1z"/>
				<path class="st2" d="M50.8,73.3c0,0-0.1,1.8,0.4,2.1c0,0,0.2,0.2,0.2,0.4v0c0,0,0,0.3-0.2,0.3h-3c0,0-0.6,0.2-0.6-2.1v-3.4
					l0-7.5c0-0.5-0.3-1.1-0.8-1.1c-1.6,0-1.9,2.3-1.9,2.3v11.2c-0.1,0.3-0.3,0.6-0.6,0.6H42c-0.3,0-0.6-0.3-0.6-0.6V58.3
					c0,0-0.1-2.3,2.7-2.7c0.4-0.1,0.6,0.1,0.6,0.4v5.9c1-1.8,2.5-2.1,3-2.1c1.6,0,3.1,0.8,3.1,3.2L50.8,73.3z"/>
				<path class="st2" d="M84,59.1c1.3,0,1.8-0.4,1.8-2.3c0-1.8-0.5-2.3-1.8-2.3c-1.6,0-1.8,0.8-1.8,2.3C82.2,58.8,82.7,59.1,84,59.1
					z"/>
				<path class="st2" d="M56.3,59.8c0.2,0,0.3,0.1,0.4,0.3v4.3l0,8.8c0,0-0.1,1.8,0.4,2.1c0,0,0.2,0.2,0.2,0.4v0c0,0,0,0.3-0.2,0.3
					h-3.4c0,0-0.6,0.2-0.6-2.2V62.5c0,0-0.3-2.3,2.9-2.7C56,59.8,56.3,59.8,56.3,59.8z"/>
				<path class="st2" d="M80,73.3c0,0-0.1,1.8,0.4,2.1c0,0,0.2,0.1,0.2,0.4v0c0,0,0,0.3-0.2,0.3h-2l0,0c0,0-0.5,0.1-0.5-0.7
					c-0.7,0.8-1.9,1-2.8,1c-3.5,0-4.8-1.2-4.8-2.8l0-11.1c0,0-0.2-2.3,2.6-2.7c0.4-0.1,0.6,0.1,0.6,0.4v13l0,0.6c0,0.5,0.8,1,1.6,1
					c0.9,0,1.6-0.4,1.6-1V60.6c0-0.3,0.3-0.6,0.6-0.6h2.2c0.3,0,0.5,0.1,0.5,0.6L80,73.3L80,73.3z"/>
				<path class="st2" d="M85.7,64.4l0-4.3c0-0.2-0.2-0.3-0.4-0.3c-0.1,0-0.2,0-0.4,0c-3.1,0.4-2.9,2.7-2.9,2.7v11.3
					c0,2.3,0.6,2.2,0.6,2.2h3.4c0.3,0,0.2-0.3,0.2-0.3v0c0-0.2-0.2-0.4-0.2-0.4c-0.4-0.4-0.4-2.1-0.4-2.1L85.7,64.4L85.7,64.4z"/>
				<path class="st2" d="M91.6,62.1h0.9c0.3,0,0.6-0.2,0.6-0.5v-1c0-0.3-0.3-0.5-0.6-0.5h-0.9v-4.1c0-0.2-0.1-0.3-0.3-0.3
					c-0.2,0-0.2,0-0.4,0c-2.9,0.3-2.7,2.7-2.7,2.7l0,1.7h-0.9c-0.3,0-0.6,0.3-0.6,0.6v1c0,0.3,0.3,0.6,0.6,0.6h0.9v11.7
					c0,2.2,0.6,2.2,0.6,2.2H92c0.3,0,0.3-0.3,0.3-0.3v0c0-0.2-0.2-0.4-0.2-0.4c-0.4-0.3-0.4-2.1-0.4-2.1L91.6,62.1L91.6,62.1z"/>
				<path class="st2" d="M61.9,73.7c0,0.5,0.8,1,1.6,1c0.9,0,1.6-0.4,1.6-1V61.8c0-0.7-1.2-0.7-1.2-0.7c-1.9,0.2-2,2.9-2,3.5
					L61.9,73.7L61.9,73.7z M58.7,65.9v-0.9c0-2.5,1.1-4.9,4.5-5.1c0,0,2.3-0.2,3.5,0.8c0,0,0.3-0.9,1.2-0.8c0,0,0.5,0,0.5,1V80
					c0,0-0.1,1.8,0.4,2.1c0,0,0.2,0.1,0.2,0.4v0c0,0,0,0.3-0.2,0.3h-3c0,0-0.6,0.2-0.6-2.1l0-1V76c-0.6,0.2-1.2,0.3-1.7,0.3
					c-3.5,0.1-4.8-1.2-4.8-2.7V65.9z"/>
				<path class="st2" d="M97.2,76.4c-0.9-0.1-3-0.3-3.2-2.7c-0.1-0.6-0.1-1.2-0.1-2c0-2.9,0.4-3.6,1.8-4.3c1-0.5,3.5-1.7,3.8-1.9
					c0.3-0.2,0.5-0.4,0.5-0.7v-2.7c0-0.5-0.5-1.1-1.3-1.1c-0.9,0-1.3,0.6-1.3,1.1v2.4c0,0.3-0.3,0.5-0.6,0.6h-2
					c-0.3,0-0.5-0.3-0.6-0.6V63c0-1.6,1.3-3.1,4.4-3.1c3.1,0,4.8,1,4.8,4.9v8.6c0,0-0.1,1.7,0.4,2.1c0,0,0.2,0.1,0.2,0.4v0
					c0,0,0,0.3-0.2,0.3h-1.3l-0.7,0c0,0-0.5,0.1-0.5-0.6c-1,0.9-2.8,0.9-2.8,0.9L97.2,76.4L97.2,76.4z M100,72.7v-5.2l-1.6,0.8
					c-0.4,0.2-0.8,0.7-0.8,1.4v3.8c0,0.6,0.6,1,1.1,0.9C98.6,74.4,100,74.3,100,72.7z"/>
			</g>
			<path class="st2" d="M102.3,56.8c-0.3,0.3-0.4,0.6-0.4,1c0,0.4,0.1,0.7,0.4,1c0.3,0.3,0.6,0.4,1,0.4c0.4,0,0.7-0.1,1-0.4
				c0.3-0.3,0.4-0.6,0.4-1c0-0.4-0.1-0.7-0.4-1c-0.3-0.3-0.6-0.4-1-0.4C102.9,56.4,102.6,56.5,102.3,56.8z M104.6,59
				c-0.3,0.3-0.7,0.5-1.2,0.5c-0.5,0-0.9-0.2-1.2-0.5c-0.3-0.3-0.5-0.7-0.5-1.2c0-0.5,0.2-0.9,0.5-1.3c0.3-0.3,0.7-0.5,1.2-0.5
				c0.5,0,0.9,0.2,1.2,0.5c0.3,0.3,0.5,0.7,0.5,1.2C105.1,58.3,104.9,58.7,104.6,59z M103.5,57.2c-0.1,0-0.2,0-0.3,0h-0.1l0,0.6
				l0.2,0c0.1,0,0.2,0,0.3-0.1c0.1-0.1,0.1-0.1,0.1-0.2C103.6,57.3,103.6,57.3,103.5,57.2z M102.6,58.8l0-1.9c0.1,0,0.3,0,0.5,0
				c0.2,0,0.4,0,0.4,0c0.2,0,0.3,0,0.4,0.1c0.2,0.1,0.3,0.2,0.3,0.5c0,0.2,0,0.3-0.1,0.4c-0.1,0.1-0.2,0.1-0.3,0.1
				c0.1,0,0.2,0.1,0.3,0.1c0.1,0.1,0.2,0.2,0.2,0.4l0,0.2c0,0,0,0,0,0.1c0,0,0,0,0,0.1l0,0.1l-0.5,0c0-0.1,0-0.1,0-0.3
				c0-0.1,0-0.2,0-0.2c0-0.1-0.1-0.1-0.1-0.1c0,0-0.1,0-0.2,0l-0.1,0h-0.1l0,0.7H102.6z"/>
		</g>
	</g>
</g>
</svg>
