<?xml version="1.0" encoding="utf-8"?>
<!-- Generator: Adobe Illustrator 24.2.3, SVG Export Plug-In . SVG Version: 6.00 Build 0)  -->
<svg version="1.1" id="Layer_1" xmlns="http://www.w3.org/2000/svg" xmlns:xlink="http://www.w3.org/1999/xlink" x="0px" y="0px"
	 viewBox="0 0 612 792" style="enable-background:new 0 0 612 792;" xml:space="preserve">
<style type="text/css">
	.Arched_x0020_Green{fill:url(#SVGID_1_);stroke:#FFFFFF;stroke-width:0.25;stroke-miterlimit:1;}
	.st0{fill:#FFFFFF;}
	.st1{fill:#FFFFFF;stroke:#FFFFFF;stroke-width:0.3254;stroke-miterlimit:3.8636;}
	.st2{fill:#FFFFFF;stroke:#FFFFFF;stroke-width:0.2703;stroke-miterlimit:3.8636;}
</style>
<linearGradient id="SVGID_1_" gradientUnits="userSpaceOnUse" x1="0" y1="792" x2="0.7071" y2="791.2929">
	<stop  offset="0" style="stop-color:#20AC4B"/>
	<stop  offset="0.9831" style="stop-color:#19361A"/>
</linearGradient>
<g>
	<g>
		<g>
			<path class="st0" d="M431.15,115.86c-3.28,1.2-7.11,4.92-12.75,6.88c-1.78,0.65-5.78,1.46-7.47,1.26
				c-5.09-0.55-7.22-2.5-8.38-6.86c-0.71-2.47-3.66-5.84-5.59-3.2c-0.97,1.36,2.45,12.36-1.42,19.77
				c-3.89,7.41-7.73,19.21-27.66,46.61c-1.89,2.5-4.47,8.57-10.5,9.55c-6.03,1.05-11.63,1.39-14.88,5.52
				c-4.01,5.1-6.41,2.58-6.49,0.9c-0.1-2-0.08-3.27,4-6.58c4.99-4.12,14.86-13.07,18.94-22.38c2.21-4.74,4.65-9.16-0.34-15.29
				c-1.73-1.89-1.7-5.62,1.7-6.59c2.51-0.71,5.91-1.4,8.98-1.9c2.97-1.81-2.12-2.32-4.27-2.34c-0.86,0-5.67,0.43-5.07-3.79
				c0.22-1.49,2.83-3.68,3.7-5.24c0.99-1.76,0.74-3.01-2.6-1.43c-1.64,0.78-2.62,1.46-3.72,1.67c-1.16,0.2-2.38,0.34-2.98-0.77
				c-0.57-1.12-1.04-3.8-1.63-4.95c-0.41-0.89-1.02-1.35-1.49,0.24c-0.55,1.85-0.84,4.78-1.99,5.94c-2.48,0.49-4.07-0.39-3.67-2.64
				c1.06-6.25,3.17-12.96-0.88-19.71c-1.16-2.07-6.37-5.77-12.33-0.21c-1.31,1.14-0.25,1.88-6.51,1.33
				c-5.51-0.55-12.27,7.29-13.16,8.11c-2.77,2.5-1.75,3.73-7.62,0.57c-7.59-4.3-19.86-0.97-25.68,3.85
				c-1.47,0.96-4.31,3.96-8.08,0.77c-1.17-0.92-6.14-3.79-10.27-4.33c-4.38-0.34-4.54-0.36-5.17-2.43
				c-0.61-2.06,0.32-5.07,0.11-6.57c-0.19-1.54-3.61,0.68-4.05,4.45c-0.29,0.84-0.97,1.38-2.72-0.1c-1.31-1.12-2.07-1.63-3.22-2.41
				c-0.79-0.54-2.24-0.38-1.51,0.93c2.04,3.78,1.72,4.83,1.07,5.78c-0.6,0.88-7.36-0.02-8.48,0c-0.95,0.02-0.95,0.67-0.58,0.74
				c3.17,0.96,3.65,2.61,5.32,3.44c1.14,0.52-2.06,1.96-4.59,1.03c-4.64-1.78-15.51-3.64-23.56-1.59
				c-4.59,1.21-11.64,7.97-5.47,13.63c1.25,1.21,3.71,2.07,5,2.52c3.71,1.3,4.01,1.73,1.69,2.25c-5.25,1.19-13.19,8.58-15.75,12.41
				c-3.82,5.73-5.59,10.95,2.39,14.08c2.82,1.1,11.68,0.5,15.08-0.86c3.55-1.57,8.42-5.03,9.82,2.1
				c1.39,7.19,7.04,13.88,10.09,17.04c2.88,2.98,8.39,6.39,13.93,9.12c4.18,2.07,6.88,3.82,7.28,9.55c0.34,5.77,3.01,8.55,4.47,9.84
				c1.83,1.61,3.34,3.77,0.78,9.29c-0.94,2.3-3.17,6.14-1.07,8.91c2.11,2.85,8.46,3.19,9.77-0.06c2.38-5.87,3.67-5.75,5.67-2.33
				c1.14,1.95,1.07,4.02,0.89,6.98c-0.29,4.66-0.55,8.09-8.86,9.04c-10.89,1.28-11.93-3.96-21.34-5.64
				c-3.39-0.57-12.84-1.59-21,1.59c-4.31,1.68-7.96,2.99-7.12,7.7c0.32,1.8,3.37,5.98-0.55,6.33c-3.06,0.3-8.7,1.29-12.69,6.84
				c-1.44,2-1.36,4.28-0.21,5.97c1.15,1.67,3.6,2.21-1.08,3.02c-5.09,0.88-10.27,4.56-11.93,9.5c-1.68,4.94-1.34,12.52,5.69,16.05
				c2.3,1.12,10.45,0.5,13.79,0c4.78-0.73,5.12,0.9,2.72,4.7c-0.39,0.75-1.28,2.82-2.41,4.72c-1.12,1.94-2.52,3.75,0.73,8.63
				c8.27,12.21,19.25,23.46,33.52,34.69c9.56,7.43,15.08,11.34,19.07,13.96c1.91,1.1,5.75,4.43,7.71,5.3
				c2.46,1.11,7.55,1.53,12.98-1.94c5.48-3.48,10-6.2,20.8-5.77c3.57,0.13,4.02-2.39-0.93-4.06c-4.74-1.48-11.15-5.39-18.7-4.57
				c-2.24,0.21-6.64,1.8-8.53,2.2c-2.08,0.59-6.6,1.09-9.85-1.48c-2.29-1.7-9.36-8.07-12.52-12.27
				c-2.32-3.11-14.83-19.04-17.14-22.08c-3.53-4.63-6.65-7.51-3.07-13.47c1.92-4.09,3.39-5.34,7.81-1.21
				c1.34,1.29,5.43,1.86,10.57,0.85c2.59-0.53,6.69,1.23,9.82,6.55c1.83,3.12,6.69,3.96,18.57,2.89c7.39-0.65,14.68-15.8,8.52-26.62
				c-1.66-2.89-5.1-4.17-5.12-7.59c-0.05-3.38,1.11-4.73,5.98-2.98c2.14,0.8,2.6-2.79,0.08-7.03c-0.97-1.67-2.15-4.19-6.55-5.73
				c-3.46-1.19-5.57-4.05,1.6-3.44c3.75,0.25,8.53-4.5,8.87-8.05c0.5-3.81,0.14-8.31-3.73-13.36c-0.9-1.17-1.19-4.64,1.75-4.14
				c4.53,0.77,6.12,1.31,7.88,1.38c1.14,0.04,5.92,0.4,8.35-5.9c0.18-0.72,0.63-1.87,0.63-2.41c-0.01-0.76-3.12-0.32-4.58-0.63
				c-0.91-0.18-1.59-0.29-4.26-1.74c-1.13-0.56-2.27-1.88-3.42-3.38c-1.75-2.26-2.53-3.19,0.6-3.59c2.6-0.33,4.21-0.66,6.01-1.67
				c1.02-0.6,3.25-1.59,7.95-1.07c-1-3.09-0.46-3.37,1.57-5.72c-6.61-8.71-2.96-14.29-1.48-15.28c2.27-1.49,3.41-2.46,4.4-3.4
				c0.74-0.7,0.88-3.53-0.38-5.08c-1.34-1.69-4.52-3.26-8.51-3.18c-4.16,0.05-15.38,0.35-17.84,0.4
				c-10.95,0.22-13.43,16.34-13.98,19.92c-0.6,4.09,0.52,2.62,0.79,12.95c0.23,3.58-2.03,7.42-3.23,2.54
				c-0.53-2.2-2.71-2.66-3.29-3.04c-0.73-0.56-5.49-5.51-8.63-15.71c-2.55-8.29-3.5-5.54-11.65-10.61
				c-5.89-3.66-14.43-9.76-18.3-21.94c-2.4-7.48,3.5-6.77,6.13-6.63c47.16,5.96,76.91,2.6,102.18-4.08c5.64-1.39,13.77-3,10.12,6.38
				c-3.63,9.3-8.81,15.69-22.07,23.79c-2.13,1.3-8.18,5.02-4.62,6.73c0.62,0.34,4.2-0.5,4.2-0.5s-0.85,1.38-2.88,2.94
				c-0.48,0.33-0.58,0.79,0,0.93c1.64,0.49,3.93,0.18,3.95,0.15c0.01-0.03-0.09,0.7-0.72,1.33c-0.85,0.85-5.32,1.64-5.29,3.16
				c-0.34,5.28-0.08,0.39,1.36,7.94c1.4,7.17-6.97,18.48-11.58,26.97c-2.25,4.12-4.64,6.73,0.28,12.21
				c5.22,5.75,11.72,13.77,14.41,17.89c2.5,3.95,5.59,14.74,0.52,29.31c-1.02,2.92-0.8,5.84-6.76,15.52
				c-3.16,5.3-3.45,11.13-0.29,18.89c2.22,5.41,9.51,22.18,17.49,27.43c6.46,4.09,10.12-2,4.66-5.58
				c-3.12-2.01-14.56-18.49-17.48-26.81c-1.57-4.73-2.41-8.71,1.14-13.64c2.83-4.02,8.53-2.91,14.16-0.82
				c3.43,1.31,10.49,1.52,15.05-3.48c1.91-2.09,3.12-2.75,3.04-11.66c-0.03-2.7-0.2-4.2,2.53-4.09c9.45,0.36,14.33-2.03,16.3-10.77
				c2.2-8.54,0.62-13.99,0-16.43c-0.59-2.48-0.84-3.8,1.44-4.43c2.43-0.38,11.95-0.99,15.53-8.57c3.48-7.36,4.81-20.46-1.16-30.28
				c-1.87-3.07-4.4-3.37-6.12-9.71c-0.49-1.8-0.74-3.18-3.15-6.29c-0.85-1.09-3.28-3.88-6.93-5.27c-1.12-0.42-2.3-1.26-2.3-2.25
				c-0.21-1.12-0.02-4.25,1.67-7.26c0.34-0.96,5.72-13.35,9.8-20.73c2.77-5.14,11.91-25.76,14.55-29.68
				c1.72-2.57,2.89-5.02,6.38-6.67c5.47-2.65,8.8-5.15,10.66-6.15c1.91-0.96,10.67-6.51,14.84-11.71
				C436.45,116.75,434.16,114.79,431.15,115.86z M308.67,213.16c0.56,0,0.99,0.74,0.99,1.3c0,0.39-0.21,1.29-0.95,1.3
				c-0.57,0.02-0.85-0.89-0.85-1.47C307.87,213.95,307.92,213.18,308.67,213.16z M296.16,189.62c2.92-0.29,5.64,0.94,6.4,1.7
				c1.43,1.43,0.56,3.18-1.4,2.07c-1.94-1.11-3.25-3.72-9.49-0.64C287.65,194.73,291.58,190.08,296.16,189.62z M286.41,201.2
				c2.28,0.56,3.47,0.06,4.07-0.81c0.77-1.01-1.52-2.39-0.7-2.95c3.29,0.75,3.35,0.44,4.7-0.87c1.16-1.12,2.61-1.62,4.6-1.16
				c2.68,0.49,4.07,3.21,4.41,4.65c0.36,1.45,0.13,2.38-0.27,3.4c-0.67,1.71-1.62,2.09-1.62,1.33c-0.23-0.96,1.33-2.17,0.65-4.47
				c-0.35-1.2-1.06-3.33-4.33-3.3c-1.1,0.54-0.24,3.12-1.08,4.75c-1.48,2.87-4.6,2.87-7.81,2.05
				C286.88,203.06,283.91,200.59,286.41,201.2z M219.28,266.06c2.2-3.07,7.35-4.62,10.19-4.82c4.89-0.63,12.44,0.8,17.95,4.5
				c5.12,3.34,8.08,3.02,10.77,2.82c2.82-0.41,3.92-2.82,8.12-3.05c4.12-0.21,6.62,0.78,10.8,3c3.99,2.06,5.11,6.57,3.46,9.05
				c-1.7,2.49-5.98,3.19-11.65,2.76c-5.38-0.41-9.48-1.64-14.37-1.18c-4.72,0.25-10.42-0.66-15.54-3.66
				c-4.96-2.77-11.08-3.37-16.1-4.24C219.94,270.81,217.01,269.08,219.28,266.06z M285.69,296.52c1.16,3.98,2.57,6.88-2.53,11.01
				c-6.95,5.58-14.01-1.13-16.3-2.81c-7.23-5.38-15.34-5.2-18.94-5.16c-6.98,0.08-15.93-4.53-19.39-7.13
				c-3.42-2.6-8.54-3.13-11-2.54c-2.64,0.77-4.97,2.54-8.75,2.43c-5.03-0.08-7.24-4.12-5.96-7.73c1.34-3.63,6.92-6.59,9.56-7.6
				c3.58-1.36,11.16-2.52,15.52-1.24c4.16,1.08,6.46,2.57,13.29,6.84c6.67,4.09,12.73,3.98,16,3.04c8.27-2.34,14.03-1.07,17.28,1.16
				C276.77,288.25,284.28,291.71,285.69,296.52z M280.06,262.29c-1.91,2.61-3.07,2.55-7.42,1.04c-6.07-3.32-10.77-0.21-14.92,0.05
				c-4,0.01-8.52,0.53-13.64-2.81c-3.5-2.36-7.29-2.27-11.23-2.84c-5.4-0.75-4.94-3.93-3.45-5.64c1.31-1.33,0.91-1.9,4.9-3.47
				c4.11-1.72,14.92-0.33,19.27,2.06c2.89,1.47,7.52,0.36,12.59,1.16c5.36,0.93,8.04,1.12,12.07,2.96
				C282.4,256.88,281.63,260.19,280.06,262.29z M265.84,224.65c0.79-4.2,3.93-1.55,4.18,0.53c0,0.92,0.76,3.07-0.52,5.34
				c-1.48,2.45-4.52,0.96-4.54-0.59C264.93,228.24,265.56,226.24,265.84,224.65z M214.27,135.95c-1.7-0.56-2.32-3.4-1.75-4.38
				c0.55-0.95,1.49-2.47,3.93-2.88c3.59-0.79,17.99,0.58,22.72,2.98c1.9,0.95,2.12,2.61,1.56,5.1c-0.72,2.61-2.42,3.05-5.05,2.68
				C233.03,139.13,215.97,136.48,214.27,135.95z M236.76,157.25c-4.18,0.05-10.4,1.46-14.73,2.28c-4.16,0.58-8.64,3.09-12.05,4.05
				c-5.27,1.78-8.17-2.54-5.54-6.31c1.12-1.75,5.1-5.86,8.7-8.18c6-4,10.16-5.86,20.77-5.43c7,0.12,4.36,3.32,6.42,7.43
				C242.67,155.79,241.1,157.16,236.76,157.25z M335.14,113.79c2.85-5.72,5.8-1.81,5.85,1.39c-0.14,3.42-0.25,10.76-0.23,11.73
				c-0.02,0.95,0.66,2.63-1.23,3.61c-1.88,0.95-8.75,2.74-11.21,3.34c-2.24,0.37-3.08,1.76-1.04-2.25
				C328.93,128.21,333.12,117.82,335.14,113.79z M320.85,118.43c3.35-3.25,7.94,0.66,5.36,6.57c-3.12,6.82-7.97,14.97-8.71,16.12
				c-0.74,1.16-2.27,0.78-3.39,0.43c-1.14-0.34-4.76-1.47-6.27-1.84c-3.61-1.07-1.18-3.03,0.16-4.9
				C309.28,132.9,317.48,121.68,320.85,118.43z M279.48,153.5c-0.4,1.02-2.67,5.75-3.41,6.3c-0.58,0.41-4.28,0.56-5.59,0.63
				c-1.3,0-15.94-2.3-17.09-2.3c-0.95,0.01-1.33-0.94-2.29-2.46c-2.09-2.79-4.55-9.15-4.88-15.8c-0.21-6.59,2.58-9.65,7.46-12.54
				c5.08-3.07,12.58,1.1,15.09,2.8c7.77,5,10.82,15.15,10.91,17.77C279.72,149.05,280.28,151.48,279.48,153.5z M281.46,130.15
				c1.89-1.89,4.71-3.68,8.23-4.66c6.63-1.81,9.25-1.23,13.29,0.11c4.54,1.47,2.79,3.92,2.1,5.21c-1.03,1.93-4.03,7.68-4.24,7.86
				c-0.36,0.36-2.59,0.95-4.82,1.9c-4.17,1.76-7.62,3.81-8.17,4.07c-0.59,0.28-0.8,0.57-1.54-0.38c-0.76-0.92-4.88-7.31-5.64-9.37
				C279.91,132.82,280.91,130.75,281.46,130.15z M310.25,147.45c-0.68,1.55-3.91,9.11-4.42,10.29c-0.7,1.34-1.8,2.13-3.52,2.21
				c-1.7,0.09-11.89,0.48-16.45,0.3c-4.55-0.15-0.71-4.92,0.55-6.91c3.71-5.61,12.65-8.71,16.06-9.01c3.38-0.38,5.3,0.13,7,0.62
				C311.21,145.42,310.75,146.27,310.25,147.45z M349.99,151.52c-1.5,1.2-9.78,3.71-12.61,4.51c-2.66,0.61-14.71,2.14-17.94,2.24
				c-3.87,0.12-6.45-1.02-5.01-5.6c4.25-12.13,15.74-15.1,24.05-15.18c8.48-0.28,11.03,5.95,12.38,8.36
				C352.41,148.48,351.68,150.23,349.99,151.52z M355.47,299.06c-0.36,1.57-3.68,7.02-8.22,7.48c-4.53,0.43-10.01-1.52-10.63-5.13
				c-0.41-2.65,0.54-9.53,2.77-14.29c2.2-4.73,1.68-7.62-0.41-9.68c-2.46-2.43-4.16-5.8-4.16-8.26c0-6.62-6.15-9.17-8.23-11.6
				c-1.94-2.24-2.94-8.64-2.59-10.86c0.39-2.31,1.83-5.79,5.41-7.65c4.52-2.53,7.73-1.45,10.39,1.16c2.09,2.06,2.92,5.47,2.93,6.99
				c0.23,4.71,1.2,5.27,5.77,8.16c4,2.47,4.59,12.89,1.82,18.21c-2.59,5.12-0.26,6.98,2.63,12.05
				C356.04,290.92,356.04,297.37,355.47,299.06z M372.04,281.82c-1.81,6.65-12.34,5.85-14.45,2.62c-3.45-5.35-1.28-10.5-0.94-12.38
				c1.28-5.49,0.56-10.41-1.92-13.98c-2.5-3.55-2.38-8.78-2.42-12.15c-0.28-9.3-9.95-12.98-13.71-13.32
				c-3.63-0.54-6.77-4.44-7.18-5.7c-2.29-6.98,2.2-8.88,4.8-9.67c4.55-1.38,13.36,0.36,15.27,4.29c1.91,3.83,3.87,6.4,9.92,7.52
				c4.75,0.71,6.25,7.55,5.34,11.33c-2.52,8.92,1.46,10.55,4.73,15.25C375.08,260.69,374.07,275.38,372.04,281.82z M384.12,221.64
				c0.37,5.2,0.32,6.7,2.82,8.37c2.65,1.9,6.41,6.5,6.62,8.96c0.4,2.25-0.58,8.06-1.41,10.39c-1.48,4.14-4.04,7.71-8,8.25
				c-2.39,0.33-9.47-0.06-9.7-8.2c-0.08-3.07-0.08-5.59,1.23-8.8c1.48-3.09-1.35-6.46-2.74-7.61c-1.89-1.57-2.39-2.63-3.63-6
				c-1.13-3.05-4.3-2.89-5.05-2.89c-0.94,0.01-2.56-1-3.95-2.72c-1.12-1.48-2.27-4.31-4.96-8.25c-2.68-3.96-6.01-0.24-8.28-0.23
				c-5.67,0.45-8.78-4.51-5.62-9.47c4.66-7.21,10.23-7.52,15.53-7.41c5.12-0.05,12.67,4.57,13.27,9.45c0.62,4.9,2.03,3.93,6.42,4.86
				C381.02,211.25,383.73,216.56,384.12,221.64z"/>
			<path class="st0" d="M317.85,204.45c1.33,0.62,0.52,1.15,2.95,0.77c0.79-1.94,2.56-3.44,1.05-7.66
				c-0.49,0.06-1.91,1.52-1.91,1.52S320.11,201.78,317.85,204.45z"/>
			<path class="st1" d="M315.62,222.54c-2.32-1.62-4.93-1.49-7.17-0.22c-2.09,1.14-3.4,1.14-5.19,1.34c1.48,0.98,1.51,3.09,4.27,2.7
				c2.39-0.28,2.69,0.51,5.04,0.3C314.51,226.44,315.16,224.33,315.62,222.54z"/>
		</g>
		<g>
			<path class="st2" d="M95.55,346.76C93.72,173.35,149.23,76.99,303.02,75.34c153.83-1.64,211.36,93.53,213.21,266.98
				c0.1,9.93,0.01,19.59-0.27,29.01c1.79-0.28,3.62-0.44,5.45-0.44c3.86,0,7.95,0.79,11.74,2.58c0.34-10.11,0.47-20.49,0.35-31.16
				c-1.95-184.43-69.75-285.42-230.65-283.7C141.94,60.31,76.32,162.71,78.3,347.17c0.12,11.49,0.5,22.65,1.14,33.49
				c0.01,0.11,0.01,0.21,0.02,0.32c2.51-3.96,5.94-7.4,10.21-10.18c1.98-1.28,4.11-2.41,6.39-3.39c0-0.03,0-0.05,0-0.08
				C95.79,360.6,95.62,353.75,95.55,346.76z"/>
			<path class="st2" d="M508.47,505.76c-6.4,2.24-12.38,2.42-13.97,2.43h-0.02l-4.28-0.02c-29.84,68.13-87.16,104.73-181.44,105.75
				c-96.22,0.98-154.75-35.88-185.56-106.11c-7.25-0.01-13.55-0.77-19-2.1c32.92,82.85,98.54,126.47,204.71,125.33
				c104.23-1.12,168.47-44.49,200.27-125.07C508.95,505.91,508.71,505.85,508.47,505.76z"/>
		</g>
		<g>
			<path class="st0" d="M153.33,452.36h-13.48c-1.9,0.23-3.55,1.7-3.55,4.48v19.18c0,5.03-5.39,10.91-12.62,10.91
				c-7.25,0-13.75-4.43-13.75-10.91V392.9c0-6.86,5.75-8.31,13.38-8.31c7.59,0,12.26,2.54,12.26,7.94v19.84
				c0.23,1.91,1.77,3.41,3.7,3.52h12.77c2.1-0.16,3.74-1.84,3.78-3.98v-16.59c0-18.42-17-20.62-33.96-20.62
				c-21.3,0-35.41,8.34-35.41,23.84v73.98c0,11.77,9.46,23.38,36.9,23.38c24.32,0,33.54-8.45,33.54-23.38v-16.47
				C156.77,454.08,155.25,452.6,153.33,452.36z"/>
			<path class="st0" d="M242.75,396.72c7.43,0,10.55-2.19,10.55-13c0-10.36-3.01-13.05-10.55-13.05c-8.99,0-10.16,4.33-10.16,13.38
				C232.59,395,235.85,396.72,242.75,396.72z"/>
			<path class="st0" d="M219.58,478.43c0,0-0.47,10.49,2.22,12.18c0,0,1.34,0.87,1.41,2.16v0.21c0,0,0.19,1.53-1.43,1.53h-17.54
				c0,0-3.45,1-3.47-12.27v-19.66l0.05-42.91c0-2.94-1.46-6.23-4.71-6.23c-9.46,0-11.19,13.19-11.19,13.19v64.56
				c-0.32,1.84-1.75,3.25-3.66,3.41h-12.54c-1.93-0.16-3.39-1.61-3.68-3.52v-98.66c0,0-0.55-13.03,15.81-15.41
				c2.14-0.33,3.63,0.37,3.71,2.02v33.84c5.67-10.52,14.23-11.87,17.13-11.87c9.02,0,17.92,4.4,17.92,18.38L219.58,478.43z"/>
			<path class="st0" d="M410.46,396.72c7.4,0,10.53-2.19,10.53-13c0-10.36-2.96-13.05-10.53-13.05c-9.02,0-10.2,4.33-10.2,13.38
				C400.26,395,403.51,396.72,410.46,396.72z"/>
			<path class="st0" d="M251.05,401.02c1.23-0.09,2,0.66,2.04,1.72v24.64l0.03,50.93c0,0-0.47,10.61,2.23,12.31
				c0,0,1.36,0.87,1.41,2.16V493c0,0,0.2,1.55-1.41,1.55h-19.59c0,0-3.45,1.03-3.45-12.4v-65.43c0,0-1.7-13.12,16.61-15.53
				C249.39,401.11,251.05,401.02,251.05,401.02z"/>
			<path class="st0" d="M387.41,478.4c0,0-0.43,10.57,2.27,12.27c0,0,1.34,0.85,1.39,2.16v0.22c0,0,0.17,1.52-1.41,1.48h-11.66
				l-0.2,0.02c0,0-2.96,0.4-2.95-4c-4.25,4.5-11.08,5.9-15.94,5.9c-19.97,0-27.61-6.96-27.61-16.1l0.02-63.72
				c0,0-0.97-13.12,14.79-15.45c2.29-0.48,3.7,0.45,3.73,2.02v74.61l0.06,3.44c0,2.95,4.41,5.54,9.45,5.54
				c5.08,0,9.06-2.21,9.06-5.54v-75.47c0.2-1.78,1.48-3.19,3.22-3.53h12.66c1.59,0,3.11,0.77,3.11,3.17V478.4z"/>
			<path class="st0" d="M420.62,427.44l0.02-24.77c0.02-0.92-0.87-1.75-2.06-1.66c-0.73-0.06-1.23,0.04-2.09,0.09
				c-17.71,2.1-16.64,15.52-16.64,15.52v65.06c-0.05,13,3.42,12.84,3.42,12.84h19.52c1.62,0,1.42-1.55,1.42-1.55v-0.22
				c-0.04-1.3-1.39-2.16-1.39-2.16c-2.45-2.18-2.2-12.3-2.2-12.3V427.44z"/>
			<path class="st0" d="M454.73,414.21h5.13c1.56,0,3.25-1.35,3.3-2.98v-5.94c-0.1-1.6-1.82-3.03-3.41-3h-5.02v-23.66
				c0-0.93-0.75-1.7-1.96-1.59c-0.97-0.04-1.31-0.02-2.12,0.05c-16.73,1.81-15.51,15.41-15.51,15.41l-0.03,9.8h-4.98
				c-1.78,0-3.42,1.52-3.42,3.23v5.47c0,1.67,1.64,3.22,3.34,3.22h5.09v67.56c-0.05,12.91,3.41,12.74,3.41,12.74h18.37
				c1.62,0,1.45-1.52,1.45-1.52v-0.22c-0.05-1.28-1.41-2.15-1.41-2.15c-2.55-1.88-2.23-12.2-2.23-12.2V414.21z"/>
			<path class="st0" d="M283.45,480.68c0,2.93,4.38,5.48,9.48,5.48c5.02,0,8.99-2.2,8.99-5.48v-68.08c0-4.25-7.04-4.18-7.04-4.18
				c-11.16,0.92-11.42,16.84-11.42,19.91V480.68z M264.93,435.78v-5.37c0-14.29,6.55-28.23,26.09-29.41c0,0,13.22-1.1,19.91,4.73
				c0,0,1.68-5.2,7.19-4.68c0,0,2.67,0.16,2.73,5.98v110.06c0,0-0.41,10.27,2.3,11.94c0,0,1.36,0.84,1.39,2.1v0.21
				c0,0,0.2,1.48-1.41,1.48h-17.35c0,0-3.47,1.01-3.52-12l0.05-5.75v-20.87c-3.36,1.32-6.97,1.73-9.88,1.81
				c-19.96,0.47-27.5-6.8-27.5-15.73V435.78z"/>
			<path class="st0" d="M486.65,496.27c-4.92-0.38-17.2-1.55-18.55-15.77c-0.35-3.7-0.35-6.66-0.35-11.62
				c0-16.84,2.52-20.68,10.42-24.7c5.98-3.05,20.12-9.73,21.85-10.66c1.8-0.9,2.68-2.12,2.68-3.95v-15.27
				c0-3.09-2.68-6.34-7.59-6.34c-4.94,0-7.77,3.47-7.77,6.53v13.91c-0.27,1.77-1.59,3.1-3.34,3.34h-11.3
				c-1.74-0.23-3.1-1.59-3.34-3.38v-9.23c0-9.4,7.22-17.88,25.41-17.88c17.82,0,27.67,5.98,27.67,28.32v49.5c0,0-0.3,9.98,2.2,11.83
				c0,0,1.33,0.83,1.38,2.09v0.2c0,0,0.17,1.48-1.39,1.48h-7.23l-3.84-0.01c0,0-2.72,0.45-3.11-3.33
				c-5.91,4.92-15.96,4.95-15.96,4.95H486.65z M502.69,475.37v-29.93l-9.5,4.48c-2.15,1.08-4.62,3.98-4.62,7.96v21.66
				c0,3.47,3.2,5.64,6.19,5.12C494.76,484.68,502.69,484.36,502.69,475.37z"/>
		</g>
		<path class="st0" d="M516.09,383.68c-1.54,1.6-2.34,3.54-2.31,5.75c0.02,2.28,0.85,4.25,2.5,5.89c1.61,1.57,3.56,2.38,5.8,2.33
			c2.26-0.01,4.19-0.83,5.8-2.49c1.57-1.63,2.38-3.61,2.36-5.9c-0.05-2.21-0.85-4.14-2.47-5.71c-1.64-1.66-3.58-2.48-5.84-2.45
			C519.67,381.11,517.68,381.98,516.09,383.68z M529.07,396.44c-1.92,1.88-4.23,2.84-6.93,2.89c-2.82,0.01-5.2-0.92-7.13-2.82
			c-1.95-1.87-2.93-4.2-2.95-7.04c-0.06-2.93,0.96-5.37,3-7.31c1.96-1.84,4.24-2.74,6.86-2.78c2.74,0.01,5.11,0.94,7.08,2.89
			c1.96,1.91,2.96,4.25,3,7.01C532.03,392.08,531.03,394.46,529.07,396.44z M522.89,386.05c-0.39-0.17-0.95-0.26-1.67-0.25h-0.71
			l0.02,3.26l1.14-0.06c0.68,0,1.2-0.13,1.59-0.39c0.36-0.31,0.55-0.74,0.55-1.34C523.79,386.67,523.49,386.27,522.89,386.05z
			 M517.72,394.95l-0.16-11.05c0.7,0.01,1.75,0,3.11,0c1.38-0.03,2.12-0.03,2.29-0.03c0.87,0.04,1.59,0.22,2.18,0.55
			c0.99,0.51,1.5,1.41,1.5,2.61c0,0.94-0.25,1.61-0.75,2.05c-0.55,0.39-1.16,0.68-1.92,0.73c0.69,0.15,1.2,0.37,1.57,0.62
			c0.66,0.52,0.99,1.34,0.99,2.48l0.01,0.97c0,0.1,0,0.24,0.04,0.35c0,0.08,0.05,0.22,0.05,0.3l0.12,0.34l-2.75,0.01
			c-0.1-0.39-0.17-0.85-0.21-1.52c-0.06-0.65-0.1-1.12-0.19-1.34c-0.12-0.37-0.43-0.68-0.82-0.79c-0.23-0.14-0.54-0.17-0.99-0.18
			l-0.65-0.04h-0.59l0.04,3.94H517.72z"/>
	</g>
</g>
</svg>
