<?xml version="1.0" encoding="utf-8"?>
<!-- Generator: Adobe Illustrator 24.2.3, SVG Export Plug-In . SVG Version: 6.00 Build 0)  -->
<svg version="1.1" id="Layer_1" xmlns="http://www.w3.org/2000/svg" xmlns:xlink="http://www.w3.org/1999/xlink" x="0px" y="0px"
	 viewBox="0 0 287.17 182.08" style="enable-background:new 0 0 287.17 182.08;" xml:space="preserve">
<style type="text/css">
	.st0{fill:#FFFFFF;}
</style>
<g>
	<path class="st0" d="M23.06,57.06H263.7c0.26,0,0.47-0.21,0.47-0.47s-0.21-0.47-0.47-0.47H23.06c-0.26,0-0.47,0.21-0.47,0.47
		S22.8,57.06,23.06,57.06z"/>
	<path class="st0" d="M110.82,33.21c-0.09,0.15-0.08,0.34,0.01,0.49c0.77,1.22,2.86,1.97,4.89,1.97c0.88,0,1.75-0.14,2.51-0.45
		c1.33-0.54,2.13-1.53,2.36-2.81c0.21,0.28,0.43,0.56,0.67,0.81c1.42,1.49,3.37,2.17,5.28,2.03c0,0,0.01,0,0.01,0
		c5.55-0.15,9.15-3.06,11.19-5.48c0.14-0.17,0.27-0.34,0.4-0.51c-0.07-0.4-0.17-0.8-0.29-1.21c-1.77,2.47-4.28,4.57-7.46,5.6
		c0.08-0.07,0.16-0.13,0.24-0.21c2.15-2.06,2.23-5.48,0.18-7.63c-0.7-0.75-1.84-1.28-2.97-1.4c-1.44-0.14-2.73,0.32-3.29,1.16
		c0,0,0,0,0,0c0,0,0,0,0,0c-0.01,0.02-0.3,0.46-0.29,0.81c0.01,0.44,0.38,0.79,0.82,0.79c0.01,0,0.01,0,0.02,0
		c0.22-0.01,0.42-0.1,0.57-0.26c0.15-0.16,0.23-0.37,0.22-0.58c-0.01-0.21-0.09-0.4-0.24-0.55c0.47-0.34,1.26-0.52,2.1-0.44
		c0.89,0.09,1.82,0.52,2.37,1.1c1.7,1.78,1.63,4.6-0.14,6.3c-2.27,2.17-5.88,2.08-8.04-0.19c-1.33-1.4-2.04-3.23-2-5.16
		c0.01-0.37,0.05-0.74,0.12-1.1c0.13-0.46,0.19-0.78,0.21-0.9c0.36-1.15,1.01-2.2,1.9-3.06c2.15-2.05,5.09-2.92,8.09-2.38
		c2.9,0.52,5.38,2.18,6.98,4.66c3.2,4.99,2.03,10.59-0.55,13.93c-1.49,1.92-3.57,3.11-5.86,3.35c-2.83,0.3-5.8-0.8-8.59-3.18
		c-0.15-0.13-0.38-0.15-0.55-0.05c-0.17,0.1-0.26,0.31-0.22,0.51c0.74,3.44,3.45,7.8,8.84,10.77c-3.02-1-5.46-3.24-7.84-5.42
		c-0.29-0.27-0.58-0.53-0.87-0.79c0,0,0,0,0-0.01c0,0,0,0,0,0c-1.58-1.43-3.13-2.73-4.82-3.52c-0.71-0.33-1.42-0.58-2.13-0.77
		c0,0,0,0,0,0c0,0-0.01,0-0.01,0c-1.83-0.49-3.6-0.51-5.06-0.02c-3.42,1.16-5.35,4.91-4.3,8.35c0.82,2.7,3.68,4.22,6.38,3.4
		c2.21-0.67,3.46-3.02,2.78-5.22c-0.55-1.81-2.48-2.84-4.29-2.29c-0.64,0.19-1.27,0.68-1.66,1.3c-0.53,0.83-0.62,1.76-0.23,2.35
		c0.14,0.2,0.29,0.34,0.46,0.4c0.17,0.06,0.36,0.05,0.53-0.03c0.17-0.08,0.29-0.22,0.35-0.4c0.06-0.17,0.05-0.36-0.03-0.53
		c-0.08-0.17-0.22-0.29-0.4-0.35c-0.06-0.02-0.13-0.03-0.19-0.04c0.02-0.27,0.13-0.6,0.32-0.9c0.27-0.42,0.71-0.77,1.13-0.9
		c1.32-0.4,2.71,0.35,3.12,1.66c0.52,1.71-0.45,3.52-2.15,4.04c-2.2,0.67-4.53-0.58-5.2-2.77c-0.9-2.96,0.76-6.18,3.7-7.18
		c1.25-0.43,2.84-0.4,4.48,0.03c1.59,0.63,1.99,2.06,2.4,3.58c0.12,0.44,0.24,0.9,0.4,1.33c0.4,1.09,1.06,1.86,1.87,2.17
		c0.28,0.11,0.57,0.16,0.85,0.16c0.63,0,1.23-0.25,1.67-0.73c0.34-0.38,0.54-0.85,0.61-1.32c3.1,2.83,6.63,5.91,11.51,5.91
		c0.23,0,0.42-0.16,0.47-0.39c0.04-0.22-0.09-0.45-0.3-0.53c-6.34-2.38-9.77-6.59-11.04-10.18c2.66,1.91,5.45,2.77,8.14,2.49
		c2.55-0.27,4.86-1.59,6.51-3.72c2.25-2.92,3.51-7.44,2.07-11.91c0.73-1.25,1.3-2.57,1.7-3.9c0-0.01,0.01-0.01,0.01-0.02
		c0.34-1.14,0.55-2.28,0.6-3.39c0.06-1.35,0.22-4.52-2.54-4.82c-0.59-0.07-1.18,0.11-1.64,0.48c-0.47,0.37-0.76,0.91-0.82,1.5
		c-0.04,0.38,0.05,0.95,0.33,1.32c0.13,0.16,0.36,0.35,0.63,0.38c0.42,0.04,0.78-0.25,0.83-0.66c0.05-0.41-0.25-0.78-0.66-0.83
		c-0.07-0.01-0.13-0.01-0.19,0c0-0.04,0-0.07,0-0.11c0.04-0.34,0.21-0.65,0.47-0.87c0.27-0.22,0.6-0.31,0.95-0.28
		c1.25,0.14,1.75,1.09,1.71,3.3c-0.08,0.73-0.42,0.95-0.93,1.26c-0.4,0.24-0.85,0.52-1.18,1.07c-0.49,0.8-0.22,1.49,0.2,1.87
		c0.29,0.26,0.66,0.4,1.04,0.41c-0.26,0.71-0.57,1.43-0.94,2.13c-0.28-0.65-0.62-1.3-1.03-1.94c-1.74-2.71-4.44-4.52-7.61-5.08
		c-3.3-0.59-6.54,0.37-8.91,2.63c-1.29,1.23-2.11,2.81-2.4,4.53c-0.59,2.12-2.52,6.9-7.88,6.76
		C111.07,32.94,110.91,33.05,110.82,33.21z M120.86,46.24c-0.29,0.32-0.83,0.57-1.49,0.32c-0.74-0.28-1.14-1.13-1.31-1.61
		c-0.14-0.39-0.26-0.81-0.38-1.25c-0.22-0.8-0.45-1.64-0.88-2.39c1.42,0.75,2.78,1.89,4.17,3.15
		C121.39,44.85,121.34,45.71,120.86,46.24z M139.61,22.84c-0.19-0.17-0.19-0.4-0.02-0.68c0.21-0.35,0.51-0.53,0.86-0.75
		c0.09-0.06,0.19-0.11,0.28-0.18c-0.09,0.56-0.22,1.12-0.38,1.7C140.08,23.05,139.78,22.99,139.61,22.84z M119.1,28.83
		c0.1,0.65,0.27,1.27,0.52,1.87c0.47,2.23-0.69,3.21-1.75,3.64c-1.77,0.72-4.2,0.35-5.5-0.47C115.97,33.52,118,31.02,119.1,28.83z"
		/>
	<path class="st0" d="M155.18,46.51c0.11-0.14,0.13-0.33,0.06-0.49c-0.08-0.16-0.24-0.27-0.42-0.27c-0.03,0-2.51-0.08-5.11-1.2
		c-3.41-1.47-5.38-3.96-5.87-7.39c0-0.01-0.01-0.02-0.01-0.03c-0.01-0.03-0.02-0.06-0.03-0.09c-0.01-0.03-0.02-0.05-0.04-0.07
		c-0.02-0.03-0.04-0.05-0.07-0.07c-0.02-0.02-0.04-0.04-0.06-0.06c-0.03-0.02-0.05-0.03-0.08-0.04c-0.03-0.01-0.06-0.03-0.09-0.03
		c-0.01,0-0.02-0.01-0.03-0.01c-0.02,0-0.04,0-0.06,0c-0.02,0-0.05-0.01-0.07,0c-0.01,0-0.02,0.01-0.03,0.01
		c-0.03,0.01-0.05,0.02-0.08,0.03c-0.03,0.01-0.06,0.03-0.09,0.05c-0.02,0.01-0.04,0.03-0.06,0.05c-0.02,0.02-0.05,0.05-0.07,0.08
		c-0.02,0.02-0.02,0.05-0.04,0.07c-0.01,0.03-0.03,0.06-0.03,0.09c0,0.01-0.01,0.02-0.01,0.03c-0.48,3.43-2.46,5.92-5.87,7.39
		c-2.59,1.12-5.08,1.2-5.11,1.2c-0.18,0.01-0.34,0.11-0.42,0.27c-0.08,0.16-0.05,0.35,0.06,0.49c0.15,0.19,3.82,4.72,11.8,4.72h0h0
		C151.36,51.23,155.03,46.71,155.18,46.51z M143.38,50.28L143.38,50.28C143.38,50.28,143.38,50.28,143.38,50.28
		c-5.67,0-9.06-2.46-10.4-3.69c2.43-0.32,8.5-1.7,10.4-7.38c1.9,5.69,7.97,7.06,10.4,7.38C152.44,47.82,149.05,50.28,143.38,50.28z"
		/>
	<path class="st0" d="M142.91,15.73c0.02,0.24,0.23,0.43,0.47,0.43h0c0.24,0,0.45-0.19,0.47-0.43c0-0.03,0.25-2.54,2.45-3.95
		c0.13-0.08,0.21-0.23,0.22-0.39s-0.07-0.31-0.2-0.4c-0.59-0.43-2.2-1.75-2.5-2.66c-0.06-0.19-0.24-0.33-0.45-0.33
		c-0.2,0-0.39,0.13-0.45,0.33c-0.3,0.91-1.9,2.23-2.5,2.66c-0.13,0.09-0.2,0.24-0.2,0.4s0.09,0.3,0.22,0.39
		C142.64,13.18,142.91,15.7,142.91,15.73z M143.38,9.48c0.53,0.75,1.34,1.46,1.88,1.89c-0.97,0.78-1.54,1.72-1.88,2.53
		c-0.34-0.81-0.91-1.75-1.88-2.53C142.04,10.94,142.85,10.22,143.38,9.48z"/>
	<path class="st0" d="M23.06,53.08h20.86c0.03,0,0.09,0,0.18,0c0.06,0,0.13,0,0.21,0h43.94h0.84h14.6h39.69h39.69h14.6h0.84h43.94
		c0.08,0,0.15,0,0.21,0c0.09,0,0.15,0,0.18,0h20.86c0.23,0,0.43-0.17,0.47-0.4c0.04-0.23-0.1-0.45-0.32-0.52
		c-1.38-0.46-5.1-1.92-5.78-3.17c-0.08-0.15-0.23-0.24-0.4-0.25c-0.17,0-0.33,0.08-0.42,0.23c-0.08,0.13-1.99,3.17-6.21,3.17h-1.92
		c0.22-0.11,0.44-0.23,0.65-0.36c1.76-1.1,2.82-2.77,2.96-4.7c0.2-2.67-1.42-4.96-3.94-5.57c-2.01-0.49-4.04,0.74-4.53,2.75
		c-0.41,1.66,0.61,3.33,2.26,3.74c0.58,0.15,1.3,0.05,1.88-0.24c0.71-0.36,1.19-0.96,1.26-1.54c0.04-0.31-0.05-0.63-0.23-0.84
		c-0.16-0.18-0.38-0.29-0.62-0.31c-0.25-0.02-0.48,0.06-0.66,0.22c-0.38,0.32-0.42,0.9-0.1,1.28c0.06,0.07,0.13,0.13,0.21,0.18
		c-0.08,0.06-0.18,0.12-0.29,0.18c-0.38,0.19-0.86,0.26-1.22,0.17c-1.15-0.28-1.86-1.45-1.57-2.6c0.37-1.5,1.89-2.42,3.39-2.05
		c2.42,0.59,3.36,2.73,3.22,4.58c-0.12,1.63-1.02,3.04-2.52,3.97c-1.55,0.96-3.37,1.16-4.62,1.16h-2
		c-1.44-0.02-12.07-0.46-27.38-10.06c-5.58-3.5-10.25-7.21-14.38-10.49c-5.15-4.09-9.22-7.33-12.43-7.9
		c-1.32-0.23-3.06-0.29-4.9-0.36c-3.11-0.11-6.64-0.23-8.56-1.25c-0.2-0.1-0.44-0.06-0.58,0.11c-0.14,0.17-0.15,0.42-0.01,0.59
		c0.05,0.06,3.91,4.99,9.14,5.04c-0.38,0.28-0.75,0.57-1.1,0.9c-3.39,3.24-3.52,8.64-0.28,12.03c2.63,2.75,7.01,2.85,9.76,0.23
		c0.95-0.9,1.63-2.34,1.78-3.78c0.18-1.83-0.39-3.46-1.45-4.16c-0.01,0-0.54-0.35-0.95-0.35c-0.01,0-0.01,0-0.02,0
		c-0.5,0.02-0.9,0.44-0.89,0.95c0.01,0.25,0.11,0.47,0.29,0.64c0.18,0.17,0.41,0.26,0.66,0.25c0.25-0.01,0.48-0.11,0.65-0.29
		c0.03-0.03,0.06-0.07,0.09-0.11c0.54,0.63,0.82,1.77,0.7,2.98c-0.12,1.2-0.7,2.45-1.49,3.18c-2.37,2.27-6.15,2.18-8.42-0.19
		c-2.88-3.02-2.77-7.82,0.25-10.7c1.85-1.77,4.29-2.7,6.83-2.65c2.56,0.06,4.94,1.11,6.7,2.96c2.71,2.83,3.85,6.73,3.15,10.68
		c-0.68,3.83-2.87,7.1-6.15,9.2c-2.72,1.74-5.98,2.52-10.57,2.52h-39.69h-39.69c-4.59,0-7.85-0.78-10.57-2.52
		c-3.28-2.1-5.46-5.37-6.15-9.2c-0.71-3.95,0.44-7.85,3.15-10.68c1.76-1.85,4.14-2.9,6.7-2.96c2.55-0.04,4.98,0.88,6.83,2.65
		c1.46,1.39,2.29,3.28,2.34,5.3c0.05,2.02-0.7,3.94-2.09,5.4c-2.27,2.37-6.05,2.46-8.42,0.19c-0.78-0.73-1.36-1.98-1.48-3.18
		c-0.12-1.21,0.16-2.35,0.7-2.98c0.03,0.04,0.06,0.08,0.09,0.11c0.17,0.18,0.4,0.28,0.64,0.29c0.24,0.01,0.48-0.08,0.66-0.25
		c0.18-0.17,0.28-0.4,0.29-0.65c0.01-0.5-0.39-0.93-0.9-0.94c-0.42-0.02-0.97,0.35-0.97,0.35c-1.06,0.7-1.63,2.34-1.45,4.16
		c0.14,1.43,0.82,2.88,1.77,3.77c2.75,2.63,7.13,2.53,9.76-0.22c1.57-1.64,2.4-3.8,2.35-6.07c-0.05-2.27-0.99-4.39-2.63-5.96
		c-0.35-0.33-0.72-0.62-1.1-0.9c5.23-0.05,9.09-4.98,9.14-5.04c0.14-0.18,0.13-0.42-0.01-0.59c-0.14-0.17-0.39-0.22-0.58-0.11
		c-1.93,1.02-5.45,1.14-8.56,1.25c-1.84,0.06-3.58,0.12-4.9,0.36c-3.21,0.57-7.28,3.8-12.43,7.9c-4.12,3.28-8.8,6.99-14.37,10.49
		c-15.34,9.61-26.01,10.04-27.4,10.06H42.1c-1.25,0-3.07-0.2-4.62-1.16c-1.5-0.94-2.4-2.35-2.52-3.97c-0.14-1.86,0.8-3.99,3.22-4.58
		c1.5-0.36,3.02,0.56,3.39,2.05c0.28,1.15-0.42,2.31-1.58,2.6c-0.36,0.09-0.84,0.03-1.22-0.17c-0.11-0.05-0.2-0.11-0.29-0.18
		c0.08-0.05,0.15-0.11,0.21-0.18c0.32-0.38,0.28-0.95-0.1-1.27c-0.18-0.16-0.41-0.23-0.66-0.22c-0.24,0.02-0.46,0.13-0.62,0.31
		c-0.18,0.21-0.27,0.52-0.23,0.83c0.06,0.59,0.54,1.18,1.26,1.55c0.58,0.3,1.3,0.39,1.88,0.24c1.66-0.41,2.67-2.09,2.27-3.74
		c-0.49-2-2.52-3.24-4.53-2.75c-2.52,0.61-4.14,2.91-3.94,5.57c0.15,1.93,1.2,3.6,2.96,4.7c0.21,0.13,0.43,0.25,0.65,0.36h-1.92
		c-4.22,0-6.13-3.04-6.21-3.17c-0.09-0.14-0.24-0.22-0.42-0.23c-0.17,0-0.32,0.1-0.4,0.25c-0.68,1.25-4.4,2.71-5.78,3.17
		c-0.22,0.07-0.35,0.3-0.32,0.52C22.63,52.91,22.83,53.08,23.06,53.08z M257.66,50c0.79,0.82,2.24,1.58,3.51,2.13h-6.13
		C256.34,51.45,257.21,50.56,257.66,50z M189.96,25.83c-1.29-0.03-2.54,0.18-3.72,0.59c-0.01,0-0.01,0-0.02,0
		c-4.19,1.53-7.88-1.07-9.75-2.81c2.06,0.5,4.68,0.59,7.07,0.67c1.81,0.06,3.51,0.12,4.77,0.34c1.02,0.18,2.15,0.67,3.41,1.4
		C191.14,25.91,190.56,25.84,189.96,25.83z M205.28,52.13h-1.56c2.01-0.71,4.04-1.96,4.99-4.15c0.02,1.06-0.14,2.21-0.76,3.03
		C207.38,51.77,206.5,52.13,205.28,52.13z M194.15,50.41c3.5-2.25,5.84-5.74,6.57-9.83c0.59-3.29-0.02-6.54-1.68-9.26
		c0.42,0.33,0.84,0.66,1.27,1.01c4.14,3.29,8.84,7.02,14.46,10.55c8.89,5.57,16.16,8.11,21.08,9.26h-27.68
		c0.19-0.16,0.37-0.34,0.52-0.55c1.73-2.29,0.58-6.36,0.53-6.53c-0.07-0.23-0.28-0.37-0.52-0.34c-0.23,0.03-0.41,0.23-0.41,0.47
		c0,2.85-1.61,4.89-4.8,6.05c-2.46,0.89-4.97,0.91-4.99,0.91h-0.84h-7.27C191.77,51.71,193,51.14,194.15,50.41z M98.45,24.62
		c1.25-0.22,2.96-0.28,4.77-0.34c2.39-0.08,5.01-0.17,7.07-0.67c-1.87,1.75-5.56,4.35-9.75,2.81c-0.01,0-0.02,0-0.02,0
		c-1.18-0.41-2.43-0.62-3.71-0.59c-0.59,0.01-1.18,0.09-1.75,0.2C96.3,25.3,97.44,24.8,98.45,24.62z M81.48,52.13
		c-1.23,0-2.1-0.37-2.67-1.12c-0.62-0.82-0.78-1.97-0.76-3.03c0.95,2.19,2.98,3.44,4.99,4.15H81.48z M71.98,42.88
		c5.62-3.52,10.32-7.26,14.46-10.55c0.43-0.34,0.86-0.68,1.27-1.01c-1.65,2.72-2.27,5.97-1.68,9.26c0.73,4.09,3.06,7.58,6.57,9.83
		c1.15,0.74,2.38,1.3,3.75,1.72h-7.27h-0.84c-0.1,0-9.79-0.08-9.79-6.95c0-0.24-0.17-0.44-0.41-0.47c-0.23-0.03-0.46,0.11-0.52,0.34
		c-0.05,0.17-1.19,4.24,0.53,6.53c0.16,0.21,0.33,0.39,0.52,0.55H50.9C55.82,50.98,63.09,48.45,71.98,42.88z M29.09,50
		c0.46,0.56,1.32,1.46,2.63,2.13h-6.13C26.85,51.58,28.3,50.82,29.09,50z"/>
	<path class="st0" d="M144.93,19.93c0.05,1.1,0.27,2.25,0.6,3.38c0,0.02,0.01,0.03,0.01,0.04c0.68,2.28,1.88,4.54,3.47,6.43
		c2.04,2.42,5.64,5.33,11.19,5.48c0,0,0.01,0,0.01,0c0.02,0,0.03-0.01,0.05-0.01c1.89,0.12,3.83-0.55,5.23-2.02
		c0.25-0.26,0.47-0.53,0.67-0.81c0.23,1.28,1.03,2.26,2.36,2.81c0.75,0.31,1.62,0.45,2.5,0.45c2.03,0,4.11-0.75,4.89-1.97
		c0.09-0.15,0.1-0.33,0.01-0.49c-0.09-0.15-0.25-0.26-0.42-0.24c-5.35,0.14-7.28-4.65-7.88-6.77c-0.29-1.72-1.12-3.3-2.4-4.53
		c-2.37-2.26-5.61-3.22-8.91-2.63c-3.17,0.57-5.87,2.37-7.61,5.08c-0.41,0.64-0.75,1.3-1.03,1.95c-0.37-0.7-0.69-1.42-0.95-2.13
		c0.38-0.01,0.76-0.14,1.05-0.41c0.41-0.38,0.68-1.06,0.2-1.87c-0.33-0.55-0.79-0.83-1.18-1.07c-0.51-0.31-0.85-0.52-0.93-1.26
		c-0.03-2.21,0.46-3.16,1.71-3.3c0.34-0.03,0.68,0.06,0.95,0.28c0.27,0.22,0.44,0.52,0.47,0.87c0,0.03,0.01,0.07,0,0.11
		c-0.06-0.01-0.13-0.01-0.2,0c-0.41,0.05-0.7,0.42-0.66,0.83c0.05,0.41,0.42,0.71,0.83,0.66c0.27-0.03,0.5-0.22,0.63-0.38
		c0.29-0.37,0.37-0.94,0.33-1.32c-0.06-0.59-0.36-1.13-0.82-1.5c-0.47-0.37-1.05-0.54-1.64-0.48
		C144.71,15.41,144.87,18.57,144.93,19.93z M167.14,30.7c0.25-0.6,0.42-1.23,0.52-1.87c1.1,2.19,3.12,4.69,6.73,5.04
		c-1.3,0.82-3.73,1.19-5.5,0.47C167.83,33.91,166.68,32.93,167.14,30.7z M149.51,24.64c1.6-2.49,4.07-4.14,6.98-4.66
		c3-0.54,5.95,0.33,8.09,2.38c0.9,0.86,1.54,1.91,1.9,3.06c0.02,0.11,0.09,0.44,0.22,0.9c0.06,0.36,0.11,0.72,0.12,1.1
		c0.04,1.93-0.67,3.76-2,5.16c-2.17,2.27-5.77,2.35-8.04,0.19c-0.86-0.82-1.35-1.93-1.38-3.12c-0.03-1.19,0.41-2.32,1.23-3.18
		c0.55-0.58,1.48-1.01,2.37-1.1c0.84-0.08,1.63,0.09,2.1,0.44c-0.15,0.15-0.24,0.34-0.24,0.55c-0.01,0.22,0.07,0.42,0.22,0.58
		c0.15,0.16,0.35,0.25,0.57,0.26c0.01,0,0.01,0,0.02,0c0.44,0,0.8-0.35,0.82-0.79c0.01-0.36-0.28-0.81-0.29-0.81c0,0,0,0,0,0
		c0,0,0,0,0,0c-0.56-0.85-1.85-1.3-3.29-1.16c-1.12,0.11-2.26,0.65-2.96,1.39c-1,1.04-1.53,2.41-1.49,3.85
		c0.03,1.44,0.63,2.79,1.67,3.78c0.08,0.08,0.17,0.15,0.25,0.22c-3.58-1.15-6.31-3.67-8.09-6.53
		C148.59,26.29,148.99,25.46,149.51,24.64z M146.31,21.41c0.35,0.21,0.65,0.39,0.86,0.75c0.17,0.28,0.16,0.51-0.02,0.68
		c-0.18,0.16-0.48,0.22-0.75,0.09c-0.17-0.57-0.29-1.14-0.38-1.7C146.12,21.3,146.22,21.36,146.31,21.41z"/>
	<path class="st0" d="M177.19,46.77c-0.08,0.17-0.09,0.35-0.03,0.52c0.06,0.18,0.18,0.32,0.35,0.4c0.17,0.08,0.35,0.09,0.53,0.03
		c0.21-0.07,0.37-0.26,0.46-0.4c0.39-0.59,0.3-1.51-0.23-2.35c-0.39-0.61-1.02-1.11-1.66-1.3c-1.81-0.55-3.74,0.48-4.3,2.29
		c-0.67,2.21,0.58,4.55,2.78,5.22c2.7,0.82,5.56-0.71,6.38-3.4c1.05-3.45-0.88-7.19-4.3-8.35c-1.46-0.49-3.23-0.47-5.06,0.02
		c0,0-0.01,0-0.01,0c0,0,0,0,0,0c-0.71,0.19-1.42,0.44-2.13,0.77c-1.69,0.79-3.24,2.08-4.82,3.52c0,0,0,0,0,0c0,0,0,0,0,0.01
		c-0.29,0.26-0.58,0.52-0.87,0.79c-2.38,2.18-4.82,4.41-7.84,5.42c5.39-2.97,8.1-7.33,8.84-10.77c0.04-0.2-0.05-0.4-0.22-0.51
		c-0.17-0.1-0.39-0.09-0.55,0.05c-2.8,2.38-5.76,3.47-8.59,3.18c-2.29-0.24-4.37-1.43-5.86-3.35c-1.76-2.28-2.87-5.63-2.36-9.11
		c-0.27-0.36-0.52-0.74-0.75-1.12c-0.93,4.1,0.3,8.13,2.37,10.81c1.64,2.13,3.96,3.45,6.51,3.72c2.69,0.28,5.48-0.58,8.14-2.49
		c-1.28,3.58-4.7,7.79-11.04,10.18c-0.21,0.08-0.34,0.3-0.3,0.53c0.04,0.23,0.24,0.39,0.47,0.39c4.88,0,8.41-3.08,11.51-5.91
		c0.07,0.47,0.27,0.94,0.61,1.33c0.43,0.48,1.04,0.73,1.67,0.73c0.28,0,0.57-0.05,0.85-0.16c0.81-0.31,1.47-1.08,1.87-2.17
		c0.16-0.43,0.28-0.88,0.4-1.33c0.41-1.52,0.81-2.95,2.4-3.58c1.64-0.43,3.23-0.46,4.48-0.03c2.94,1,4.6,4.22,3.7,7.18
		c-0.67,2.2-3,3.44-5.2,2.77c-1.71-0.52-2.67-2.33-2.15-4.04c0.4-1.32,1.8-2.06,3.12-1.66c0.42,0.12,0.86,0.48,1.13,0.9
		c0.19,0.29,0.3,0.62,0.31,0.9c-0.06,0-0.12,0.02-0.19,0.04C177.41,46.48,177.27,46.61,177.19,46.77z M169.07,43.71
		c-0.12,0.44-0.23,0.86-0.38,1.25c-0.17,0.48-0.57,1.32-1.32,1.6c-0.65,0.25-1.19-0.01-1.48-0.32c-0.48-0.53-0.54-1.39-0.12-1.77
		c1.39-1.26,2.75-2.4,4.17-3.15C169.52,42.06,169.29,42.91,169.07,43.71z"/>
	<path class="st0" d="M102.85,121.33c0.07,0.17,0.25,0.29,0.44,0.29h80.19c0.19,0,0.36-0.11,0.44-0.29l3.94-9.3
		c0.05-0.12,0.05-0.25,0-0.37l-3.94-9.3c-0.07-0.17-0.25-0.29-0.44-0.29h-80.19c-0.19,0-0.36,0.11-0.44,0.29l-3.94,9.3
		c-0.05,0.12-0.05,0.25,0,0.37L102.85,121.33z M103.6,103.02h79.56l3.74,8.83l-3.74,8.83H103.6l-3.74-8.83L103.6,103.02z"/>
	<g>
		<path class="st0" d="M106.39,113.08c0.68,0,1.23-0.55,1.23-1.23c0-0.68-0.55-1.23-1.23-1.23c-0.68,0-1.23,0.55-1.23,1.23
			C105.16,112.52,105.71,113.08,106.39,113.08z"/>
		<path class="st0" d="M180.36,113.08c0.68,0,1.23-0.55,1.23-1.23c0-0.68-0.55-1.23-1.23-1.23c-0.68,0-1.23,0.55-1.23,1.23
			C179.13,112.52,179.68,113.08,180.36,113.08z"/>
	</g>
	<path class="st0" d="M104.8,119.75h77.16c0.08,0,0.15-0.05,0.18-0.12l3.27-7.71c0.02-0.05,0.02-0.1,0-0.15l-3.27-7.71
		c-0.03-0.07-0.1-0.12-0.18-0.12H104.8c-0.08,0-0.15,0.05-0.18,0.12l-3.27,7.71c-0.02,0.05-0.02,0.1,0,0.15l3.27,7.71
		C104.65,119.7,104.72,119.75,104.8,119.75z M104.93,104.34h76.9l3.19,7.51l-3.19,7.51h-76.9l-3.19-7.51L104.93,104.34z"/>
	<path class="st0" d="M60.34,119.68H84.7h5.41h6.68c0.23,0,0.43-0.17,0.47-0.4c0.03-0.23-0.11-0.45-0.33-0.52
		c-1.58-0.48-5.66-2.21-5.66-4.52c0-0.23-0.17-0.43-0.4-0.47c-0.23-0.03-0.45,0.1-0.52,0.33c-0.01,0.05-1.5,4.64-5.46,4.64h-0.17
		c-1.95-0.05-3.07-0.58-3.76-1.78c-0.46-0.8-0.55-1.76-0.24-2.63c0.22-0.61,0.66-1.11,1.25-1.39c0.59-0.28,1.25-0.31,1.86-0.1
		c0.1,0.04,0.22,0.09,0.33,0.16c-0.22,0.14-0.4,0.35-0.48,0.62c-0.17,0.58,0.15,1.2,0.74,1.38c0.28,0.09,0.58,0.06,0.84-0.08
		c0.26-0.14,0.45-0.37,0.54-0.65c0.13-0.43-0.02-0.9-0.18-1.18c-0.33-0.55-0.99-0.98-1.47-1.15c-0.85-0.3-1.77-0.26-2.58,0.13
		c-0.81,0.39-1.43,1.07-1.73,1.92c-0.4,1.13-0.29,2.38,0.31,3.42c0.33,0.57,0.74,0.99,1.19,1.31H62.43
		c4.67-2.17,17.59-7.87,34.1-12.57c0.25-0.07,0.4-0.33,0.33-0.58c-0.07-0.25-0.33-0.4-0.58-0.33
		c-20.83,5.93-35.99,13.46-36.14,13.53c-0.2,0.1-0.3,0.32-0.25,0.53C59.93,119.53,60.12,119.68,60.34,119.68z M90.68,115.67
		c0.7,1.37,2.3,2.39,3.67,3.06h-6.31C89.33,117.88,90.18,116.62,90.68,115.67z"/>
	<path class="st0" d="M189.97,119.68h36.45c0.22,0,0.41-0.15,0.46-0.36c0.05-0.21-0.05-0.43-0.25-0.53
		c-0.15-0.08-15.31-7.6-36.14-13.53c-0.25-0.07-0.51,0.07-0.58,0.33c-0.07,0.25,0.07,0.51,0.33,0.58c16.5,4.7,29.43,10.4,34.1,12.57
		h-18.89c0.45-0.32,0.86-0.73,1.19-1.31c0.6-1.04,0.71-2.28,0.31-3.42c-0.3-0.85-0.92-1.53-1.73-1.92
		c-0.82-0.39-1.73-0.44-2.59-0.13c-0.47,0.17-1.14,0.6-1.47,1.15c-0.17,0.28-0.31,0.75-0.18,1.17c0.09,0.28,0.28,0.52,0.54,0.65
		c0.26,0.14,0.56,0.17,0.85,0.08c0.58-0.18,0.91-0.8,0.73-1.39c-0.08-0.27-0.26-0.48-0.48-0.62c0.12-0.07,0.23-0.12,0.33-0.16
		c0.61-0.22,1.27-0.18,1.86,0.1c0.59,0.28,1.03,0.77,1.25,1.38c0.31,0.87,0.22,1.83-0.24,2.63c-0.68,1.19-1.81,1.73-3.75,1.78h-0.18
		c-3.96,0-5.44-4.59-5.46-4.64c-0.07-0.22-0.29-0.36-0.52-0.33c-0.23,0.04-0.4,0.23-0.4,0.47c0,2.3-4.09,4.04-5.66,4.52
		c-0.22,0.07-0.37,0.29-0.33,0.52C189.53,119.51,189.73,119.68,189.97,119.68z M196.08,115.67c0.5,0.95,1.35,2.21,2.64,3.06h-2.08
		h-4.23C193.78,118.06,195.38,117.04,196.08,115.67z"/>
	<path class="st0" d="M138.04,155.75c3.45-5.38,2.19-11.42-0.6-15.02c-1.64-2.13-3.96-3.45-6.51-3.72
		c-2.69-0.28-5.48,0.58-8.14,2.49c1.28-3.58,4.7-7.79,11.04-10.18c0.21-0.08,0.34-0.3,0.3-0.53c-0.04-0.23-0.24-0.39-0.47-0.39
		c-4.88,0-8.41,3.08-11.51,5.91c-0.07-0.47-0.27-0.95-0.61-1.33c-0.63-0.69-1.62-0.92-2.52-0.57c-0.81,0.31-1.47,1.08-1.87,2.17
		c-0.16,0.43-0.28,0.88-0.4,1.33c-0.41,1.52-0.81,2.95-2.4,3.58c-1.64,0.43-3.23,0.46-4.48,0.03c-2.94-1-4.6-4.22-3.7-7.18
		c0.67-2.2,3-3.44,5.2-2.77c1.71,0.52,2.67,2.33,2.15,4.04c-0.4,1.32-1.8,2.06-3.12,1.66c-0.42-0.12-0.86-0.48-1.13-0.9
		c-0.19-0.29-0.3-0.62-0.31-0.9c0.06,0,0.12-0.02,0.18-0.04c0.17-0.06,0.32-0.18,0.4-0.35c0.08-0.17,0.09-0.35,0.03-0.52
		c-0.06-0.17-0.18-0.32-0.35-0.4c-0.16-0.08-0.35-0.09-0.53-0.03c-0.17,0.06-0.32,0.19-0.46,0.4c-0.39,0.59-0.3,1.51,0.23,2.35
		c0.39,0.61,1.02,1.11,1.66,1.3c1.82,0.55,3.74-0.48,4.3-2.29c0.67-2.21-0.58-4.55-2.78-5.22c-2.7-0.82-5.56,0.71-6.38,3.4
		c-1.05,3.45,0.88,7.19,4.3,8.35c1.46,0.49,3.22,0.47,5.06-0.01c0,0,0.01,0,0.01,0c0,0,0,0,0,0c0.71-0.19,1.42-0.44,2.13-0.77
		c1.69-0.79,3.23-2.08,4.82-3.52c0,0,0,0,0,0c0,0,0,0,0-0.01c0.29-0.26,0.58-0.52,0.87-0.79c2.38-2.18,4.82-4.41,7.84-5.42
		c-5.39,2.97-8.1,7.33-8.84,10.77c-0.04,0.2,0.05,0.4,0.22,0.51c0.17,0.1,0.39,0.09,0.55-0.05c2.8-2.38,5.77-3.48,8.59-3.18
		c2.29,0.24,4.37,1.43,5.86,3.35c2.58,3.34,3.75,8.94,0.55,13.93c-1.6,2.49-4.07,4.14-6.98,4.66c-3,0.53-5.95-0.33-8.09-2.38
		c-0.9-0.86-1.54-1.91-1.9-3.06c-0.02-0.11-0.09-0.44-0.21-0.9c-0.06-0.36-0.11-0.73-0.12-1.1c-0.04-1.93,0.66-3.76,2-5.16
		c2.17-2.27,5.77-2.35,8.04-0.19c1.78,1.7,1.84,4.52,0.14,6.3c-0.55,0.58-1.47,1.01-2.37,1.1c-0.83,0.08-1.62-0.09-2.1-0.43
		c0.15-0.15,0.24-0.35,0.24-0.56c0.01-0.22-0.07-0.42-0.22-0.58c-0.15-0.16-0.35-0.25-0.57-0.26c-0.46,0-0.82,0.35-0.84,0.79
		c-0.01,0.35,0.27,0.79,0.29,0.81c0.56,0.85,1.85,1.3,3.29,1.16c1.13-0.11,2.26-0.65,2.96-1.39c2.06-2.15,1.98-5.58-0.18-7.64
		c-2.65-2.53-6.85-2.43-9.38,0.22c-0.25,0.26-0.47,0.53-0.67,0.81c-0.23-1.28-1.03-2.26-2.36-2.81c-2.48-1.01-6.28-0.23-7.39,1.53
		c-0.09,0.15-0.1,0.33-0.01,0.49c0.09,0.15,0.25,0.25,0.42,0.24c5.35-0.13,7.28,4.6,7.87,6.73c0.29,1.73,1.11,3.32,2.41,4.56
		c1.91,1.82,4.39,2.8,7.01,2.8c0.63,0,1.26-0.06,1.9-0.17C133.6,160.27,136.3,158.47,138.04,155.75z M120.98,135.42
		c-1.39,1.26-2.75,2.4-4.17,3.15c0.43-0.75,0.66-1.6,0.88-2.39c0.12-0.44,0.23-0.86,0.38-1.25c0.17-0.48,0.58-1.32,1.32-1.61
		c0.65-0.25,1.19,0,1.48,0.32C121.34,134.17,121.39,135.03,120.98,135.42z M119.62,149.18c-0.25,0.6-0.42,1.23-0.52,1.87
		c-1.1-2.19-3.12-4.69-6.73-5.04c1.3-0.82,3.73-1.19,5.5-0.47C118.93,145.97,120.08,146.95,119.62,149.18z"/>
	<path class="st0" d="M23.06,124.54h208.99c-0.26-0.36-0.46-0.68-0.61-0.95H23.06c-0.26,0-0.47,0.21-0.47,0.47
		S22.8,124.54,23.06,124.54z"/>
	<path class="st0" d="M263.7,123.6h-16.61c-0.14,0.3-0.3,0.62-0.5,0.95h17.11c0.26,0,0.47-0.21,0.47-0.47S263.96,123.6,263.7,123.6z
		"/>
	<path class="st0" d="M263.7,126.8h-18.87c-0.36,0.34-0.75,0.66-1.18,0.95h1c1.25,0,3.07,0.2,4.62,1.16c1.5,0.94,2.4,2.35,2.52,3.97
		c0.14,1.86-0.8,3.99-3.22,4.58c-1.5,0.37-3.02-0.55-3.39-2.05c-0.28-1.15,0.42-2.31,1.58-2.6c0.36-0.09,0.84-0.03,1.22,0.17
		c0.11,0.05,0.2,0.11,0.29,0.18c-0.08,0.05-0.15,0.11-0.21,0.18c-0.32,0.38-0.28,0.95,0.1,1.28c0.38,0.32,0.95,0.28,1.28-0.1
		c0.18-0.21,0.27-0.52,0.23-0.83c-0.06-0.59-0.54-1.18-1.26-1.55c-0.58-0.3-1.3-0.39-1.88-0.24c-1.66,0.41-2.67,2.09-2.27,3.74
		c0.42,1.71,1.95,2.86,3.64,2.86c0.29,0,0.59-0.03,0.89-0.11c2.52-0.61,4.14-2.91,3.94-5.57c-0.15-1.93-1.2-3.6-2.96-4.7
		c-0.21-0.13-0.43-0.25-0.65-0.36h1.92c4.22,0,6.13,3.04,6.21,3.17c0.09,0.14,0.24,0.23,0.4,0.23c0,0,0.01,0,0.01,0
		c0.17,0,0.32-0.1,0.4-0.25c0.68-1.25,4.4-2.71,5.78-3.17c0.22-0.07,0.35-0.3,0.32-0.52C264.13,126.97,263.93,126.8,263.7,126.8z
		 M257.66,129.88c-0.46-0.56-1.32-1.46-2.63-2.13h6.13C259.9,128.3,258.46,129.06,257.66,129.88z"/>
	<path class="st0" d="M131.58,133.37c-0.11,0.14-0.13,0.33-0.06,0.49c0.08,0.16,0.24,0.27,0.42,0.27c0.03,0,2.51,0.08,5.11,1.2
		c3.41,1.47,5.38,3.96,5.87,7.39c0,0.01,0.01,0.02,0.01,0.03c0.01,0.03,0.02,0.05,0.03,0.08c0.01,0.03,0.02,0.06,0.04,0.08
		c0.01,0.02,0.03,0.04,0.05,0.06c0.02,0.02,0.04,0.05,0.07,0.06c0.02,0.02,0.04,0.03,0.07,0.04c0.03,0.02,0.06,0.03,0.1,0.03
		c0.02,0,0.03,0.01,0.04,0.02c0.02,0,0.04,0,0.07,0l0,0h0h0l0,0c0.02,0,0.04,0,0.07,0c0.02,0,0.03-0.01,0.04-0.02
		c0.03-0.01,0.07-0.02,0.1-0.03c0.02-0.01,0.04-0.02,0.07-0.04c0.03-0.02,0.05-0.04,0.07-0.06c0.02-0.02,0.04-0.04,0.05-0.06
		c0.02-0.03,0.03-0.05,0.04-0.08c0.01-0.03,0.02-0.05,0.03-0.08c0-0.01,0.01-0.02,0.01-0.03c0.48-3.43,2.46-5.92,5.87-7.39
		c2.59-1.12,5.08-1.2,5.11-1.2c0.18-0.01,0.34-0.11,0.42-0.27c0.08-0.16,0.05-0.35-0.06-0.49c-0.15-0.19-3.82-4.72-11.8-4.72h0h0h0
		h0C135.4,128.65,131.73,133.18,131.58,133.37z M143.38,129.6L143.38,129.6L143.38,129.6L143.38,129.6L143.38,129.6
		c5.67,0,9.06,2.46,10.4,3.69c-2.43,0.32-8.5,1.7-10.4,7.38c-1.9-5.69-7.98-7.06-10.4-7.38C134.31,132.06,137.69,129.6,143.38,129.6
		z"/>
	<path class="st0" d="M143.85,150.96c-0.02-0.24-0.23-0.43-0.47-0.43c-0.24,0-0.45,0.19-0.47,0.43c-0.01,0.07-0.69,6.92-6.65,10.72
		c-0.13,0.08-0.21,0.23-0.22,0.39c0,0.16,0.07,0.31,0.2,0.4c0.06,0.04,5.7,4.16,6.7,7.21c0.06,0.19,0.24,0.33,0.45,0.33
		c0.2,0,0.39-0.13,0.45-0.33c1-3.05,6.64-7.17,6.7-7.21c0.13-0.09,0.2-0.24,0.2-0.4c0-0.16-0.09-0.3-0.22-0.39
		C144.54,157.88,143.86,151.03,143.85,150.96z M143.38,168.37c-1.4-2.53-4.74-5.25-6.05-6.27c3.77-2.64,5.38-6.35,6.05-8.73
		c0.68,2.38,2.29,6.09,6.05,8.73C148.11,163.11,144.77,165.83,143.38,168.37z"/>
	<path class="st0" d="M175.94,146.68c0.09-0.15,0.08-0.34-0.01-0.49c-1.11-1.75-4.91-2.54-7.39-1.53c-1.33,0.54-2.13,1.53-2.36,2.81
		c-0.21-0.28-0.43-0.56-0.67-0.81c-2.52-2.65-6.73-2.74-9.38-0.22c-1.04,1-1.64,2.34-1.67,3.78c-0.03,1.44,0.5,2.81,1.49,3.85
		c0.7,0.75,1.84,1.28,2.97,1.4c1.44,0.14,2.73-0.31,3.29-1.16c0,0,0.3-0.45,0.29-0.81c-0.01-0.45-0.37-0.79-0.84-0.79
		c-0.22,0.01-0.42,0.1-0.57,0.26c-0.15,0.16-0.23,0.37-0.22,0.58c0.01,0.21,0.09,0.41,0.24,0.56c-0.47,0.34-1.27,0.51-2.1,0.43
		c-0.89-0.09-1.82-0.52-2.37-1.1c-0.82-0.86-1.26-1.99-1.23-3.18c0.03-1.19,0.52-2.3,1.38-3.12c2.27-2.17,5.88-2.08,8.04,0.19
		c1.33,1.4,2.04,3.23,2,5.16c-0.01,0.37-0.05,0.74-0.12,1.1c-0.13,0.47-0.2,0.79-0.22,0.9c-0.36,1.15-1.01,2.2-1.9,3.06
		c-2.15,2.05-5.09,2.92-8.09,2.38c-2.9-0.52-5.38-2.18-6.98-4.66c-3.2-4.99-2.03-10.59,0.55-13.93c1.49-1.92,3.57-3.11,5.86-3.35
		c2.82-0.3,5.79,0.8,8.59,3.18c0.16,0.13,0.38,0.15,0.55,0.05c0.17-0.1,0.26-0.31,0.22-0.51c-0.74-3.44-3.45-7.8-8.84-10.77
		c3.02,1,5.46,3.24,7.84,5.42c0.29,0.27,0.58,0.53,0.87,0.79c0,0,0,0,0,0.01c0,0,0,0,0,0c1.58,1.43,3.13,2.73,4.82,3.52
		c0.71,0.33,1.43,0.58,2.13,0.77c0,0,0,0,0,0c0,0,0.01,0,0.01,0c1.83,0.49,3.6,0.51,5.06,0.02c3.42-1.16,5.35-4.91,4.3-8.35
		c-0.82-2.7-3.68-4.22-6.38-3.4c-2.21,0.67-3.46,3.02-2.78,5.22c0.55,1.81,2.48,2.84,4.29,2.29c0.64-0.19,1.27-0.68,1.66-1.3
		c0.53-0.83,0.62-1.76,0.23-2.35c-0.09-0.14-0.25-0.32-0.46-0.4c-0.18-0.06-0.36-0.05-0.53,0.03c-0.17,0.08-0.29,0.22-0.35,0.39
		c-0.06,0.17-0.05,0.36,0.03,0.53c0.08,0.17,0.22,0.29,0.4,0.35c0.06,0.02,0.13,0.03,0.2,0.04c-0.02,0.27-0.13,0.6-0.32,0.9
		c-0.27,0.42-0.71,0.77-1.13,0.9c-1.31,0.4-2.71-0.34-3.12-1.66c-0.52-1.71,0.45-3.52,2.15-4.04c2.2-0.67,4.53,0.58,5.2,2.77
		c0.9,2.96-0.76,6.18-3.7,7.18c-1.25,0.43-2.84,0.4-4.48-0.03c-1.59-0.63-1.99-2.06-2.4-3.58c-0.12-0.44-0.24-0.9-0.4-1.33
		c-0.4-1.09-1.06-1.86-1.87-2.17c-0.9-0.35-1.89-0.12-2.52,0.57c-0.34,0.38-0.54,0.85-0.61,1.32c-3.1-2.83-6.63-5.91-11.51-5.91
		c-0.23,0-0.42,0.16-0.47,0.39c-0.04,0.22,0.09,0.45,0.3,0.53c6.34,2.38,9.77,6.59,11.04,10.18c-2.66-1.91-5.45-2.77-8.14-2.49
		c-2.55,0.27-4.86,1.59-6.51,3.72c-2.78,3.6-4.04,9.64-0.6,15.02c1.74,2.71,4.44,4.52,7.61,5.08c0.64,0.11,1.27,0.17,1.9,0.17
		c2.62,0,5.1-0.98,7.01-2.8c1.27-1.21,2.09-2.77,2.39-4.46c0.58-2.08,2.53-6.97,7.89-6.83
		C175.69,146.92,175.85,146.83,175.94,146.68z M165.9,133.64c0.29-0.32,0.83-0.57,1.49-0.32c0.74,0.28,1.14,1.13,1.31,1.61
		c0.14,0.39,0.26,0.81,0.38,1.25c0.22,0.8,0.45,1.64,0.88,2.39c-1.42-0.75-2.78-1.89-4.17-3.15
		C165.36,135.03,165.42,134.17,165.9,133.64z M167.66,151.05c-0.1-0.65-0.27-1.27-0.52-1.87c-0.47-2.23,0.69-3.21,1.75-3.64
		c1.77-0.72,4.2-0.35,5.5,0.47C170.78,146.37,168.76,148.86,167.66,151.05z"/>
	<path class="st0" d="M214.77,137.01c-5.62,3.52-10.32,7.26-14.46,10.55c-0.43,0.34-0.85,0.68-1.27,1.01
		c1.65-2.72,2.27-5.97,1.68-9.26c-0.73-4.09-3.06-7.58-6.57-9.83c-1.15-0.74-2.38-1.3-3.75-1.73h7.27h0.84
		c0.1,0,9.79,0.08,9.79,6.95c0,0.24,0.17,0.44,0.41,0.47c0.02,0,0.04,0,0.07,0c0.21,0,0.4-0.14,0.45-0.34
		c0.05-0.17,1.19-4.24-0.53-6.53c-0.16-0.21-0.33-0.39-0.52-0.55h27.58c-0.56-0.29-1.06-0.61-1.5-0.95h-35.75h-0.84h-14.6h-39.69
		h-39.69h-14.6h-0.84H44.23c-0.16,0-0.26,0-0.31,0H23.06c-0.23,0-0.43,0.17-0.47,0.4c-0.04,0.23,0.1,0.45,0.32,0.52
		c1.38,0.46,5.1,1.92,5.78,3.17c0.08,0.15,0.24,0.24,0.4,0.25c0,0,0.01,0,0.01,0c0.17,0,0.32-0.09,0.4-0.23
		c0.02-0.03,1.97-3.17,6.21-3.17h1.92c-0.22,0.11-0.44,0.23-0.65,0.36c-1.77,1.1-2.82,2.77-2.96,4.7c-0.2,2.67,1.42,4.96,3.94,5.57
		c0.3,0.07,0.6,0.11,0.89,0.11c1.69,0,3.22-1.15,3.64-2.85c0.41-1.66-0.61-3.33-2.26-3.74c-0.58-0.14-1.3-0.05-1.88,0.24
		c-0.71,0.36-1.19,0.96-1.26,1.54c-0.04,0.32,0.05,0.63,0.23,0.84c0.33,0.38,0.9,0.42,1.28,0.1c0.38-0.32,0.42-0.9,0.1-1.28
		c-0.06-0.07-0.13-0.13-0.2-0.18c0.08-0.06,0.18-0.12,0.29-0.18c0.38-0.19,0.86-0.26,1.22-0.17c1.15,0.28,1.86,1.45,1.57,2.6
		c-0.37,1.5-1.89,2.42-3.39,2.05c-2.42-0.59-3.36-2.73-3.22-4.58c0.12-1.62,1.02-3.04,2.52-3.97c1.55-0.96,3.37-1.16,4.62-1.16h1.91
		c1,0.01,11.79,0.23,27.47,10.06c5.58,3.5,10.25,7.21,14.37,10.49c5.15,4.09,9.22,7.33,12.43,7.9c1.32,0.23,3.05,0.29,4.9,0.36
		c3.11,0.11,6.64,0.23,8.57,1.25c0.07,0.04,0.15,0.05,0.22,0.05c0.14,0,0.27-0.06,0.36-0.17c0.14-0.17,0.15-0.42,0.01-0.59
		c-0.05-0.06-3.91-4.99-9.14-5.04c0.38-0.28,0.75-0.57,1.1-0.9c1.64-1.57,2.58-3.69,2.63-5.96c0.05-2.27-0.78-4.43-2.35-6.07
		c-2.63-2.75-7.01-2.85-9.76-0.23c-0.95,0.9-1.63,2.34-1.78,3.78c-0.18,1.83,0.39,3.46,1.46,4.16c0.01,0,0.57,0.38,0.97,0.35
		c0.5-0.02,0.9-0.44,0.89-0.95c-0.01-0.25-0.11-0.47-0.29-0.64c-0.18-0.17-0.41-0.26-0.66-0.25c-0.25,0.01-0.48,0.11-0.65,0.29
		c-0.03,0.03-0.06,0.07-0.09,0.11c-0.54-0.63-0.82-1.77-0.7-2.98c0.12-1.2,0.7-2.45,1.48-3.18c2.37-2.27,6.15-2.18,8.42,0.19
		c1.39,1.46,2.14,3.38,2.09,5.4c-0.05,2.02-0.88,3.9-2.34,5.3c-1.85,1.77-4.29,2.7-6.83,2.65c-2.56-0.06-4.94-1.11-6.7-2.96
		c-2.71-2.83-3.85-6.73-3.15-10.68c0.68-3.83,2.87-7.1,6.15-9.2c2.72-1.74,5.98-2.52,10.57-2.52h39.69h39.69
		c4.59,0,7.85,0.78,10.57,2.52c3.28,2.1,5.46,5.37,6.15,9.2c0.71,3.96-0.44,7.85-3.15,10.68c-1.76,1.85-4.14,2.9-6.7,2.96
		c-2.55,0.05-4.98-0.88-6.83-2.65c-3.02-2.88-3.13-7.68-0.25-10.69c2.27-2.37,6.05-2.46,8.42-0.19c0.78,0.73,1.36,1.98,1.48,3.18
		c0.12,1.21-0.16,2.35-0.7,2.98c-0.03-0.04-0.06-0.08-0.09-0.11c-0.17-0.18-0.4-0.28-0.64-0.29c-0.25-0.01-0.48,0.08-0.66,0.25
		c-0.18,0.17-0.28,0.4-0.29,0.65c-0.01,0.5,0.39,0.93,0.9,0.94c0.43,0.04,0.97-0.35,0.97-0.35c1.06-0.7,1.63-2.34,1.45-4.16
		c-0.14-1.44-0.82-2.88-1.77-3.77c-2.75-2.63-7.13-2.53-9.76,0.22c-3.24,3.39-3.12,8.79,0.28,12.03c0.35,0.33,0.72,0.62,1.1,0.9
		c-5.23,0.05-9.09,4.98-9.14,5.04c-0.14,0.18-0.13,0.42,0.01,0.59c0.09,0.11,0.23,0.17,0.36,0.17c0.07,0,0.15-0.02,0.22-0.05
		c1.93-1.02,5.45-1.14,8.56-1.25c1.84-0.06,3.58-0.12,4.9-0.36c3.21-0.57,7.28-3.8,12.43-7.9c4.12-3.28,8.8-6.99,14.38-10.49
		c9.54-5.98,17.26-8.4,22.08-9.38c-0.57-0.19-1.09-0.41-1.57-0.66C230.87,128.92,223.63,131.46,214.77,137.01z M205.28,127.75
		c1.23,0,2.1,0.37,2.67,1.12c0.62,0.82,0.78,1.97,0.76,3.03c-0.95-2.19-2.98-3.44-4.99-4.15H205.28z M29.09,129.88
		c-0.79-0.82-2.24-1.58-3.51-2.13h6.13C30.41,128.43,29.55,129.32,29.09,129.88z M96.8,154.06c0.08,0,0.17,0,0.25,0
		c1.19,0,2.36-0.21,3.45-0.59c0.01,0,0.02,0,0.03-0.01c4.19-1.53,7.88,1.07,9.75,2.81c-2.06-0.5-4.68-0.59-7.07-0.67
		c-1.81-0.06-3.51-0.12-4.76-0.34c-1.02-0.18-2.15-0.67-3.41-1.4C95.62,153.97,96.2,154.04,96.8,154.06z M81.48,127.75h1.56
		c-2.01,0.71-4.04,1.96-4.99,4.15c-0.02-1.06,0.14-2.21,0.76-3.03C79.38,128.11,80.25,127.75,81.48,127.75z M92.61,129.47
		c-3.5,2.25-5.84,5.74-6.57,9.83c-0.59,3.29,0.02,6.54,1.68,9.26c-0.42-0.33-0.84-0.67-1.27-1.01c-4.14-3.29-8.84-7.02-14.46-10.55
		c-8.9-5.58-16.17-8.11-21.09-9.26h27.68c-0.19,0.16-0.37,0.34-0.52,0.55c-1.73,2.29-0.58,6.36-0.53,6.53
		c0.06,0.2,0.25,0.34,0.45,0.34c0.02,0,0.04,0,0.07,0c0.23-0.03,0.41-0.23,0.41-0.47c0-2.85,1.62-4.89,4.8-6.05
		c2.46-0.89,4.97-0.91,4.99-0.91h0.84h7.27C94.99,128.17,93.75,128.74,92.61,129.47z M188.3,155.26c-1.25,0.22-2.96,0.28-4.76,0.34
		c-2.39,0.08-5.01,0.17-7.07,0.67c1.87-1.75,5.55-4.35,9.76-2.81c0.01,0,0.02,0,0.03,0.01c1.1,0.38,2.26,0.59,3.46,0.59
		c0.08,0,0.17,0,0.25,0c0.59-0.01,1.18-0.09,1.75-0.2C190.46,154.58,189.32,155.08,188.3,155.26z"/>
	<path class="st0" d="M159.01,66.84c0.14-0.1,0.28-0.2,0.4-0.31l0.06-0.05c0.67-0.66,0.69-1.42,0.49-1.91
		c-0.09-0.22-0.23-0.39-0.4-0.53c-0.02,0.4-0.18,0.85-0.6,1.27l-0.06,0.05c-0.12,0.1-0.25,0.2-0.4,0.31
		c-0.48,0.34-0.59,0.46-0.59,0.84l0.01,6c0.17-0.25,0.34-0.49,0.51-0.73l-0.01-4.09C158.43,67.3,158.54,67.18,159.01,66.84z"/>
	<path class="st0" d="M171.39,66.97c0.19-0.09,0.37-0.18,0.57-0.3c1.31-0.79,1.3-1.63,1.18-2.06c-0.08-0.28-0.25-0.52-0.47-0.69
		c-0.04,0.44-0.31,1.01-1.22,1.56c-0.2,0.11-0.38,0.2-0.57,0.3c-0.65,0.32-1.33,0.65-1.85,1.43c-1.77,2.61-3.68,5.4-5.83,8.51
		c0.2,0.37,0.39,0.72,0.58,1.09c2.13-3.07,4.02-5.83,5.76-8.41C170.06,67.62,170.74,67.29,171.39,66.97z"/>
	<path class="st0" d="M145.13,68.75c0-1.57,0.49-1.9,0.78-2.05c0.72-0.33,1.09-1.03,0.94-1.76c-0.07-0.34-0.25-0.63-0.48-0.85
		c-0.01,0.61-0.37,1.15-0.97,1.44c-0.29,0.16-0.78,0.48-0.78,2.05l-0.04,23.82c0,0.33,0.1,0.45,0.51,0.73L145.13,68.75z"/>
	<path class="st0" d="M248.78,83.68c0.27,0.22,0.54,0.45,0.81,0.68c0.85-1.44,1.69-2.85,2.51-4.2c3.69-6.12,6.61-10.95,6.76-14.75
		c0.03-0.88-0.21-1.73-0.67-2.49c0.11,0.42,0.17,0.86,0.16,1.31c-0.15,3.8-3.07,8.63-6.76,14.75
		C250.68,80.49,249.73,82.05,248.78,83.68z"/>
	<path class="st0" d="M242.2,107.49c2.39,0,4.19-1.38,4.8-3.7c0.42-1.59,0.2-3.61-0.76-5.43c0.51,1.48,0.58,2.99,0.25,4.25
		c-0.61,2.31-2.4,3.7-4.8,3.7c-0.62,0-1.46-0.26-1.97-0.96c-0.44,2.31-0.66,4.58-0.66,6.86c0,0.55,0.02,1.12,0.06,1.65
		c0.15,0.03,0.31,0.04,0.47,0.06c0-0.17-0.01-0.35-0.01-0.52c0-2.27,0.22-4.54,0.66-6.86C240.74,107.23,241.58,107.49,242.2,107.49z
		"/>
	<path class="st0" d="M121.25,66.88c0.04,0.03,0.06,0.05,0.1,0.07l0-0.35c0-0.43-0.14-0.56-0.61-0.9c-0.15-0.11-0.29-0.22-0.41-0.32
		c-0.07-0.06-0.11-0.13-0.17-0.19c0,0.49,0.23,0.98,0.68,1.37C120.95,66.66,121.1,66.77,121.25,66.88z"/>
	<path class="st0" d="M107.34,94.69c-0.1-0.46-0.28-0.89-0.54-1.28c0.08,0.32,0.12,0.66,0.12,1.01c0,0.38-0.06,0.76-0.16,1.13
		C106.95,95.39,107.17,95.14,107.34,94.69z"/>
	<path class="st0" d="M242.7,74.11c0.46,1.7,1.64,2.69,3.49,2.98c0.2-0.36,0.41-0.73,0.6-1.08
		C244.84,75.99,243.47,75.35,242.7,74.11z"/>
	<path class="st0" d="M107.81,67.03l0-0.27c0-0.5-0.16-0.65-0.64-1.02c-0.15-0.11-0.29-0.23-0.41-0.34c-0.06-0.05-0.1-0.1-0.15-0.16
		c0.01,0.43,0.19,0.91,0.66,1.34c0.12,0.11,0.26,0.22,0.41,0.34C107.74,66.96,107.77,66.99,107.81,67.03z"/>
	<path class="st0" d="M97.45,91.74c0.25,0.79,0.35,1.67,0.28,2.58c0.09-0.31,0.22-0.61,0.36-0.9
		C97.96,92.81,97.75,92.24,97.45,91.74z"/>
	<path class="st0" d="M118.68,66.89c0.15-0.11,0.28-0.21,0.4-0.31l0.06-0.05c0.58-0.58,0.76-1.31,0.5-1.95
		c-0.09-0.22-0.24-0.4-0.41-0.54c-0.01,0.46-0.21,0.92-0.6,1.31l-0.06,0.05c-0.12,0.1-0.26,0.21-0.4,0.31
		c-0.49,0.36-0.66,0.51-0.66,0.98l-0.19,25.39c-0.01,1.38,0.3,1.79,0.55,1.96c-0.03-0.22-0.04-0.47-0.04-0.77l0.19-25.39
		C118.02,67.39,118.19,67.25,118.68,66.89z"/>
	<path class="st0" d="M148.52,66.89l0-0.41c0-0.37-0.11-0.49-0.59-0.83c-0.14-0.1-0.28-0.2-0.4-0.3c-0.06-0.05-0.12-0.11-0.17-0.17
		c0.01,0.43,0.19,0.92,0.68,1.35c0.12,0.1,0.25,0.2,0.4,0.3C148.47,66.85,148.49,66.87,148.52,66.89z"/>
	<path class="st0" d="M136.44,66.84c-0.12-0.94-0.49-1.19-0.72-1.32c-0.17-0.08-0.33-0.19-0.46-0.31c-0.02,0.62,0.35,1.2,0.97,1.49
		C136.29,66.73,136.37,66.78,136.44,66.84z"/>
	<path class="st0" d="M192.46,86.41l-0.2,0.07c-0.61,0.16-1.21,0-1.61-0.42c-0.01-0.01-0.02-0.02-0.03-0.03
		c0.01,0.29,0.07,0.78,0.54,1.21c0.41,0.42,1,0.57,1.61,0.42l0.2-0.07c2.32-1.07,3.6-3.96,3.04-6.88c-0.13-0.65-0.36-1.32-0.71-1.95
		c0.08,0.26,0.15,0.51,0.2,0.76C196.07,82.44,194.79,85.34,192.46,86.41z"/>
	<path class="st0" d="M201.4,67.01c0.11,0.08,0.21,0.15,0.3,0.22l0-0.21c0-0.59-0.25-0.79-0.81-1.19c-0.16-0.12-0.31-0.23-0.44-0.34
		c-0.08-0.07-0.16-0.15-0.23-0.22c0.02,0.5,0.27,1,0.74,1.41C201.09,66.78,201.24,66.89,201.4,67.01z"/>
	<path class="st0" d="M188.05,83.35c0.77-0.37,1.61-0.34,2.14,0.08c0.01,0.01,0.02,0.03,0.03,0.04c-0.03-0.52-0.21-0.95-0.55-1.22
		c-0.53-0.42-1.37-0.45-2.14-0.08c-1.49,0.72-2.37,2.67-2.35,5.22l0,0.14c0.02,2.12,0.19,3.63,0.83,4.51
		c-0.22-0.86-0.3-1.96-0.31-3.33l0-0.14C185.68,86.02,186.56,84.07,188.05,83.35z"/>
	<path class="st0" d="M198,72.59l-2.08-0.09c-1.38-0.05-1.96-0.73-2.92-1.86c-0.24-0.28-0.52-0.62-0.88-1.01
		c-0.61-0.72-1.5-1.06-2.77-1.09c-1.44-0.03-2.87-0.05-4.31-0.07l0.06,7.07c0.16-0.1,0.33-0.2,0.5-0.29l-0.04-5.59
		c1.44,0.02,2.87,0.05,4.31,0.07c1.27,0.02,2.17,0.37,2.77,1.09c0.35,0.39,0.63,0.72,0.88,1.01c0.96,1.12,1.54,1.8,2.92,1.86
		l2.08,0.09c0.76,0.03,1.47-0.3,1.89-0.9c0.48-0.68,0.53-1.59,0.14-2.53c-0.15-0.33-0.31-0.67-0.46-1c0.31,0.88,0.25,1.72-0.2,2.35
		C199.47,72.29,198.76,72.62,198,72.59z"/>
	<path class="st0" d="M212.48,88l0.05,8.91c0.01,1.53,0.35,2.34,0.7,2.82c-0.11-0.43-0.18-0.96-0.19-1.64L213,89.18
		c0.37,0.4,0.67,0.85,0.94,1.36C213.57,89.56,213.12,88.69,212.48,88z"/>
	<path class="st0" d="M175.42,66.87c0.05,0.04,0.08,0.06,0.12,0.09l0-0.33c0-0.46-0.16-0.6-0.63-0.95c-0.14-0.11-0.28-0.21-0.4-0.31
		c-0.07-0.06-0.11-0.13-0.17-0.19c0,0.49,0.23,0.97,0.68,1.37C175.14,66.66,175.28,66.76,175.42,66.87z"/>
	<path class="st0" d="M243.28,94.33c0.27,0.2,0.52,0.41,0.75,0.63c0.24-0.54,0.48-1.08,0.7-1.57c1.16,1.22,2.26,2.63,3.09,4.32
		c-0.86-2.24-2.18-4.01-3.6-5.5C243.91,92.87,243.59,93.6,243.28,94.33z"/>
	<path class="st0" d="M214.23,69.13l-1.86-0.05l0.07,12.15c0.17,0.02,0.34,0.04,0.51,0.06l-0.07-11.04l1.86,0.05
		c2.5,0.04,3.8,1.39,4.48,2.62c-0.1-0.33-0.23-0.64-0.38-0.94C218.21,70.7,216.89,69.17,214.23,69.13z"/>
	<path class="st0" d="M239.53,88.93c0.1-0.18,0.2-0.37,0.29-0.55c-0.43-0.35-0.87-0.69-1.31-1.03c-3.17-2.49-6.41-5.04-8.15-8.53
		c1.54,4.11,5.14,6.95,8.66,9.71C239.2,88.66,239.37,88.8,239.53,88.93z"/>
	<path class="st0" d="M229.08,73.26c0-0.24,0.02-0.46,0.03-0.7c-0.24-0.86-0.56-1.7-0.95-2.49c0.6,1.58,0.93,3.27,1,4.97
		c0.24,5.81-2.58,12.13-8.27,13.4c0.15,0.41,0.3,0.85,0.43,1.32c0.27,0.89,0.58,1.64,0.89,2.28c-0.13-0.34-0.26-0.7-0.38-1.1
		c-0.14-0.47-0.28-0.91-0.43-1.32c5.4-1.21,8.21-6.96,8.27-12.51C229.3,75.94,229.08,74.67,229.08,73.26z"/>
	<path class="st0" d="M242.29,65.73c-2.86,0-4.2,3.3-4.2,5.53c0,1.1,0.3,2.12,0.83,3.11c-0.2-0.62-0.32-1.26-0.32-1.93
		c0-2.23,1.33-5.53,4.2-5.53c1.25,0,2.24,0.41,2.93,1.21c0.1,0.11,0.18,0.24,0.26,0.37c-0.14-0.57-0.4-1.12-0.77-1.55
		C244.53,66.14,243.55,65.73,242.29,65.73z"/>
	<path class="st0" d="M232.62,106.67c0.4-1.79,0.92-3.65,1.57-5.58c-0.44,0.44-0.75,0.96-0.97,1.42
		C232.66,103.73,232.46,105.2,232.62,106.67z"/>
	<path class="st0" d="M129.33,90.99c-0.01,1.29,0.29,1.71,0.55,1.89c-0.02-0.2-0.04-0.43-0.04-0.71l0.06-10.7
		c2.09,4.37,4.37,9.09,7.01,14.49l0.41,0.83l1.64-0.07c1.65-0.07,3.32-0.12,4.97-0.15c0.48-0.01,0.96-0.02,1.44-0.03
		c0.62-0.01,1.17-0.41,1.37-0.99c0.16-0.46,0.11-1.12-0.44-1.69c0,0.18-0.02,0.36-0.08,0.51c-0.2,0.59-0.76,0.99-1.37,0.99
		c-0.48,0.01-0.96,0.02-1.44,0.03c-1.65,0.04-3.32,0.09-4.97,0.15l-1.64,0.07l-0.41-0.83c-2.64-5.4-4.92-10.11-7.01-14.49
		L129.33,90.99z"/>
	<path class="st0" d="M67.72,108.17c-0.35,0-0.69-0.14-0.96-0.39c0,0.3,0.08,0.58,0.21,0.81c0.27,0.48,0.76,0.76,1.26,0.76
		c0.14,0,0.29-0.02,0.43-0.07c3.76-1.22,7.59-2.37,11.38-3.41c0.71-0.2,1.25-0.96,1.23-1.74c-0.01-0.44-0.21-0.82-0.52-1.09
		c-0.02,0.75-0.54,1.46-1.22,1.65c-3.79,1.04-7.61,2.19-11.38,3.41C68.01,108.15,67.86,108.17,67.72,108.17z"/>
	<path class="st0" d="M119.98,96.94c0.22,0.69,0.87,1.15,1.55,1.07c0.48-0.05,0.96-0.1,1.44-0.15c1.91-0.2,3.85-0.37,5.77-0.53
		c0.48-0.04,0.96-0.08,1.44-0.11c0.7-0.05,1.3-0.65,1.4-1.39c0.07-0.52-0.12-1.01-0.5-1.35c0,0.06,0,0.11-0.01,0.17
		c-0.1,0.74-0.7,1.33-1.4,1.39c-0.48,0.04-0.96,0.07-1.44,0.11c-1.92,0.15-3.86,0.33-5.77,0.53c-0.48,0.05-0.96,0.1-1.44,0.15
		c-0.41,0.05-0.81-0.1-1.11-0.38C119.9,96.62,119.93,96.79,119.98,96.94z"/>
	<path class="st0" d="M105.9,97.68c-0.03-0.09-0.06-0.19-0.07-0.29c-0.83,1.07-2.05,1.88-3.4,2.13c-0.28,0.05-0.57,0.08-0.85,0.08
		c-0.98,0-1.91-0.32-2.63-0.92c-0.29-0.25-0.54-0.54-0.75-0.86c0.2,0.8,0.64,1.52,1.26,2.04c0.72,0.6,1.65,0.92,2.63,0.92
		c0.28,0,0.56-0.03,0.85-0.08c1.36-0.25,2.58-1.06,3.4-2.13c0.02,0.1,0.04,0.2,0.07,0.29c0.23,0.6,0.78,0.99,1.37,0.99
		c0.07,0,0.14-0.01,0.21-0.02c0.48-0.08,0.97-0.16,1.45-0.23c2.43-0.38,4.89-0.73,7.32-1.04c0.48-0.06,0.97-0.12,1.46-0.18
		c0.7-0.09,1.28-0.72,1.35-1.47c0.05-0.51-0.15-0.97-0.51-1.3c0,0.04,0,0.08,0,0.11c-0.07,0.75-0.65,1.39-1.35,1.47
		c-0.49,0.06-0.97,0.12-1.46,0.18c-2.43,0.31-4.89,0.66-7.32,1.04c-0.48,0.08-0.97,0.15-1.45,0.23c-0.07,0.01-0.14,0.02-0.21,0.02
		C106.68,98.67,106.13,98.28,105.9,97.68z"/>
	<path class="st0" d="M196.69,100.83c1.12,0,2.1-0.61,2.57-1.61c0.68-1.27,1.37-2.56,2.07-3.89c0.39-0.77,0.39-1.62,0.02-2.34
		c-0.08-0.15-0.18-0.29-0.28-0.41c0.08,0.52,0,1.06-0.25,1.57c-0.7,1.32-1.38,2.61-2.07,3.89c-0.48,1-1.46,1.61-2.57,1.61
		c-0.19,0-0.38-0.02-0.58-0.05c-6.67-1.23-13.48-2.2-20.22-2.9c-0.43-0.05-0.81-0.3-1.06-0.65c-0.24,0.24-0.56,0.39-0.91,0.39
		c-0.04,0-0.08,0-0.12-0.01c-2.26-0.21-4.55-0.4-6.81-0.56c-1.47-0.1-2.63-1.24-3.45-2.43l-1.19-2.15c-0.03-0.07-0.06-0.13-0.1-0.21
		c-1.26-2.39-2.53-4.76-3.78-7.11l0.01,6.39c0,1.24,0.3,1.73,0.57,1.97c-0.03-0.22-0.06-0.47-0.06-0.78l-0.01-6.39
		c1.26,2.35,2.52,4.72,3.78,7.11c0.04,0.08,0.07,0.14,0.1,0.21l1.19,2.15c0.82,1.19,1.98,2.33,3.45,2.43
		c2.26,0.15,4.55,0.34,6.81,0.56c0.04,0,0.08,0.01,0.12,0.01c0.35,0,0.67-0.15,0.91-0.39c0.25,0.36,0.64,0.61,1.06,0.65
		c6.74,0.7,13.55,1.67,20.22,2.9C196.31,100.81,196.5,100.83,196.69,100.83z"/>
	<path class="st0" d="M97.55,95.55c0-0.01,0-0.03,0-0.04c-0.78,3.18-3.59,5.6-7.63,6.54c-2.08,0.51-3.75,0.35-5.09-0.48
		c-0.91-0.56-1.54-1.38-2.03-2.32c0.53,1.45,1.28,2.72,2.55,3.5c1.34,0.83,3.01,0.99,5.09,0.48c3.8-0.89,6.5-3.07,7.47-5.96
		C97.66,96.74,97.54,96.16,97.55,95.55z"/>
	<path class="st0" d="M147.36,95.26c0.15,0.72,0.76,1.24,1.45,1.24c0,0,0,0,0.01,0c0.47,0,0.93,0,1.4,0
		c2.34,0.01,4.72,0.05,7.06,0.12c0.47,0.01,0.93,0.03,1.4,0.05c0.68,0.03,1.31-0.47,1.49-1.19c0.14-0.57-0.05-1.13-0.47-1.53
		c0,0.11-0.01,0.23-0.04,0.34c-0.17,0.71-0.81,1.21-1.49,1.19c-0.47-0.02-0.93-0.03-1.4-0.05c-2.34-0.07-4.72-0.11-7.06-0.12
		c-0.47,0-0.93,0-1.4,0c0,0,0,0-0.01,0c-0.36,0-0.71-0.15-0.97-0.39C147.33,95.04,147.33,95.15,147.36,95.26z"/>
	<path class="st0" d="M200.45,100.18C200.45,100.18,200.45,100.18,200.45,100.18c0.01,0.77,0.58,1.48,1.31,1.63
		c3.82,0.79,7.68,1.67,11.48,2.63c0.67,0.17,1.38-0.17,1.68-0.82c0.25-0.54,0.21-1.29-0.37-1.9c0.01,0.26-0.04,0.51-0.14,0.72
		c-0.3,0.65-1.01,0.99-1.68,0.82c-3.79-0.96-7.66-1.85-11.48-2.63C200.94,100.56,200.67,100.4,200.45,100.18z"/>
	<path class="st0" d="M243.77,119.97c0.35,0,0.72,0.15,1.03,0.42c6.53-0.94,15.46-5.17,15.46-16.75c0-3.15-0.69-5.86-1.82-8.25
		c0.82,2.1,1.31,4.43,1.31,7.07c0,13.39-11.94,16.95-18.31,16.97C242.01,119.71,242.75,119.91,243.77,119.97
		C243.76,119.97,243.77,119.97,243.77,119.97z"/>
	<path class="st0" d="M245.92,123.56c0.19-0.56,0.06-1.21-0.32-1.66c-0.04-0.05-0.08-0.09-0.13-0.14c0.01,0.21,0,0.41-0.07,0.61
		c-0.41,1.57-2.77,3.95-5.9,3.95c-1.98,0-4.85-0.62-6.53-3.79c1.54,4.2,4.85,4.98,7.05,4.98
		C243.16,127.51,245.51,125.13,245.92,123.56z"/>
	<path class="st0" d="M223.58,107.28c0.97,0.31,1.81,0.45,2.56,0.48c-0.09-0.39-0.17-0.78-0.23-1.17c-0.82,0-1.76-0.15-2.85-0.49
		c-3.25-0.94-5.05-2.88-6.17-5.19C217.96,103.72,219.78,106.19,223.58,107.28z"/>
	<path class="st0" d="M231.67,117.17c-0.02-0.26-0.04-0.51-0.05-0.79c-1.85-1.4-3.31-3.24-4.31-5.3
		C228.22,113.43,229.71,115.55,231.67,117.17z"/>
	<path class="st0" d="M30.34,75.75c-0.25,2.31,0.11,4.41,0.86,5.69c-0.39-1.23-0.53-2.81-0.35-4.51c0.53-4.9,3.75-10.62,11.1-10.62
		c0.89,0,1.75,0.1,2.56,0.3c0.56-0.12,1.17-0.22,1.86-0.28c-1.49-0.8-3.14-1.2-4.94-1.2C34.09,65.13,30.87,70.85,30.34,75.75z"/>
	<path class="st0" d="M37.29,111.36c1.44,0,2.24,0.53,3.35,1.25c1.08,0.71,2.35,1.54,4.41,1.99c0.55-0.24,1.08-0.54,1.59-0.89
		c-3.39-0.22-5.1-1.35-6.51-2.28c-1.11-0.73-1.9-1.25-3.35-1.25c-0.37,0-0.71-0.15-0.97-0.4c0,0.13,0.01,0.27,0.05,0.4
		C36.04,110.88,36.63,111.36,37.29,111.36z"/>
	<path class="st0" d="M79.41,70.44l1.91-0.06c2.48-0.05,3.78,1.04,4.48,2.22c-0.45-1.5-1.67-3.46-4.99-3.4l-1.91,0.06l-0.05,12.79
		c0.17-0.02,0.35-0.05,0.52-0.07L79.41,70.44z"/>
	<path class="st0" d="M49.52,68.84c-0.24,0.66-0.82,1-1.42,1.36l-0.24,0.15c-0.7,0.43-1.54,1.92-1.54,6.61v14.99
		c0.17,0.06,0.34,0.14,0.51,0.21V78.13c0-4.69,0.84-6.18,1.54-6.61l0.24-0.15c0.6-0.36,1.18-0.7,1.42-1.36
		c0.88,0.97,1.67,2.14,2.39,3.49c0.19,0.35,0.36,0.73,0.53,1.11c-0.32-0.8-0.66-1.57-1.04-2.29C51.19,70.97,50.39,69.81,49.52,68.84
		z"/>
	<path class="st0" d="M50.46,107.83l-0.08,0.05c-0.57,0.29-1.21,0.29-1.78,0l-0.17-0.09l-0.14-0.14c-0.03-0.03-0.05-0.07-0.08-0.11
		c0.02,0.46,0.23,0.92,0.6,1.29l0.14,0.14l0.17,0.09c0.54,0.27,1.13,0.28,1.67,0.04c1.23-2.03,2.23-4.45,2.98-7.09
		c-0.01-0.22-0.03-0.44-0.06-0.65c-0.15-1.19-0.5-2.3-1.02-3.31c0.24,0.67,0.41,1.38,0.51,2.13
		C53.6,103.4,52.45,106.62,50.46,107.83z"/>
	<path class="st0" d="M78.79,98.94c-0.01,1.7,0.33,2.24,0.59,2.44c-0.05-0.33-0.08-0.74-0.08-1.26l0.04-10.02l0.18-0.03
		c0.38,0.3,0.68,0.73,0.94,1.22c-0.35-1.01-0.8-1.87-1.46-2.4l-0.18,0.03L78.79,98.94z"/>
	<path class="st0" d="M67.4,66.02c-0.17-0.14-0.32-0.28-0.46-0.42c-0.05-0.06-0.1-0.11-0.15-0.17c0.04,0.47,0.26,0.94,0.66,1.35
		c0.14,0.14,0.29,0.28,0.46,0.42c0.12,0.1,0.23,0.2,0.33,0.29C68.21,66.73,67.89,66.44,67.4,66.02z"/>
	<path class="st0" d="M36.99,100.91v-1.38c-4.1,1.4-5.67,4.96-5.37,8.14c0.1,1.03,0.41,2.07,0.92,3.03
		c-0.21-0.61-0.35-1.23-0.41-1.85C31.84,105.81,33.27,102.42,36.99,100.91z"/>
	<path class="st0" d="M41.77,122.13c15.94,0,25.47-16.63,25.47-32.71c0-5.4-1.06-10.48-3.05-14.79c1.65,4.04,2.53,8.69,2.53,13.61
		c0,16.08-9.53,32.71-25.47,32.71c-8.48,0-13.71-3.79-16.05-8.57C27.23,117.7,32.6,122.13,41.77,122.13z"/>
	<path class="st0" d="M47.6,102.82c-0.23-0.79-0.64-1.55-1.29-2.19v2.37c0,3.59,0.48,5.32,1.02,6.13c-0.3-1.02-0.51-2.58-0.51-4.95
		v-2.37C47.14,102.13,47.39,102.47,47.6,102.82z"/>
	<path class="st0" d="M87.19,86.95c0.16,0.37,0.32,0.76,0.46,1.2c0.15,0.42,0.32,0.79,0.49,1.13c-0.14-0.42-0.29-0.8-0.45-1.15
		c6.59-3.19,9.22-10.1,8.3-15.3c-0.2-1.13-0.55-2.17-1.03-3.11c0.22,0.61,0.39,1.26,0.51,1.93C96.41,76.85,93.78,83.76,87.19,86.95z
		"/>
	<path class="st0" d="M23.67,82.87c1.31,3.51,3.97,5.75,7.27,5.75c1.76,0,3.1-0.89,3.6-2.38c0.17-0.5,0.12-1-0.12-1.44
		c-0.08-0.17-0.18-0.32-0.3-0.45c0.01,0.23-0.01,0.47-0.09,0.71c-0.5,1.49-1.84,2.38-3.6,2.38C27.52,87.44,25.1,85.69,23.67,82.87z"
		/>
	<path class="st0" d="M36.94,74.17c-0.13-0.93-0.47-1.18-0.7-1.31c-0.16-0.08-0.31-0.18-0.43-0.3c-0.01,0.62,0.34,1.18,0.95,1.48
		C36.81,74.07,36.87,74.11,36.94,74.17z"/>
	<path class="st0" d="M262.44,61.71c-0.46,2.77-1.77,4.44-1.77,4.44h-0.87l0.3,0.46h1.02C262.5,64.68,262.44,61.71,262.44,61.71z"/>
</g>
<g>
	<g>
		<g>
			<path class="st0" d="M113.68,111.86c0,1.83,1.25,3.11,3.12,3.11c1.58,0,2.61-0.77,2.95-1.93h0.13c-0.09,1.09-0.21,2.92-0.28,3.99
				c-0.1-0.13-0.29-0.19-0.59-0.19c-0.49,0-1.44,0.35-2.67,0.35c-3.43,0-5.54-2.24-5.55-5.35c0.01-3.11,2.14-5.35,5.55-5.35
				c1.22,0,2.18,0.35,2.67,0.35c0.29,0,0.49-0.06,0.59-0.19c0.07,1.08,0.19,2.9,0.28,3.99h-0.13c-0.34-1.16-1.37-1.93-2.95-1.93
				c-1.87,0-3.12,1.28-3.12,3.11V111.86z"/>
		</g>
		<g>
			<path class="st0" d="M132.82,117h-4.03v-0.09c0.43-0.19,0.62-0.52,0.62-1.08v-3.53l-3.45,1.99v1.55c0,0.56,0.19,0.88,0.62,1.08
				V117h-4.03v-0.09c0.43-0.19,0.62-0.52,0.62-1.08v-7.98c0-0.56-0.19-0.88-0.62-1.08v-0.09h4.03v0.09
				c-0.43,0.19-0.62,0.52-0.62,1.08v4.08l3.45-1.99v-2.09c0-0.56-0.19-0.88-0.62-1.08v-0.09h4.03v0.09
				c-0.43,0.19-0.62,0.52-0.62,1.08v7.98c0,0.56,0.19,0.88,0.62,1.08V117z"/>
		</g>
		<g>
			<path class="st0" d="M135.26,111.84c0-3.23,2.28-5.4,5.67-5.4s5.67,2.18,5.67,5.4s-2.28,5.4-5.67,5.4
				S135.26,115.07,135.26,111.84z M138.17,111.84c0,1.78,1.15,3.05,2.77,3.05c1.62,0,2.77-1.27,2.77-3.05s-1.15-3.05-2.77-3.05
				C139.31,108.8,138.17,110.06,138.17,111.84z"/>
		</g>
		<g>
			<path class="st0" d="M153.08,117h-4.03v-0.09c0.43-0.19,0.62-0.52,0.62-1.08v-7.98c0-0.56-0.19-0.88-0.62-1.08v-0.09h4.03v0.09
				c-0.43,0.19-0.62,0.52-0.62,1.08v7.98c0,0.56,0.19,0.88,0.62,1.08V117z"/>
		</g>
		<g>
			<path class="st0" d="M158.41,111.86c0,1.83,1.25,3.11,3.12,3.11c1.58,0,2.61-0.77,2.95-1.93h0.13c-0.09,1.09-0.21,2.92-0.28,3.99
				c-0.1-0.13-0.29-0.19-0.59-0.19c-0.49,0-1.44,0.35-2.67,0.35c-3.43,0-5.54-2.24-5.55-5.35c0.01-3.11,2.14-5.35,5.55-5.35
				c1.22,0,2.18,0.35,2.67,0.35c0.29,0,0.49-0.06,0.59-0.19c0.07,1.08,0.19,2.9,0.28,3.99h-0.13c-0.34-1.16-1.37-1.93-2.95-1.93
				c-1.87,0-3.12,1.28-3.12,3.11V111.86z"/>
		</g>
		<g>
			<path class="st0" d="M170.69,108.91v1.81h3.55c0.56,0,0.88-0.19,1.08-0.62h0.09v3.4h-0.09c-0.19-0.43-0.52-0.62-1.08-0.62h-3.55
				v1.89h4.11c0.56,0,0.88-0.19,1.08-0.62h0.09l-0.41,2.84h-8.28v-0.09c0.43-0.19,0.62-0.52,0.62-1.08v-7.98
				c0-0.56-0.19-0.88-0.62-1.08v-0.09h8.28l0.41,2.84h-0.09c-0.19-0.43-0.52-0.62-1.08-0.62H170.69z"/>
		</g>
	</g>
	<g>
		<path class="st0" d="M172.97,94.4c-0.71-0.37-1.9-1.1-3.11-3.46c-2.69-5.22-5.37-10.3-8.05-15.3c2.08-3,4.16-6.02,6.23-9.09
			c0.86-1.28,2.02-1.64,2.79-2.07c0.71-0.43,0.78-0.8,0.53-0.8c-2.45,0-4.9,0-7.35,0c-0.24,0-0.73,0.36-0.54,0.79
			c0.2,0.42,0.86,0.79-0.01,2.06c-2.24,3.27-4.48,6.51-6.72,9.73c-0.01-3.25-0.02-6.51-0.02-9.76c0-1.26,0.91-1.62,1.39-2.04
			c0.42-0.42,0.24-0.78,0-0.78c-0.46,0-0.93,0-1.39,0c-2.34,0-4.68,0-7.03,0c-0.46,0-0.93,0-1.39,0c-0.24,0-0.48,0.36,0,0.78
			c0.48,0.42,1.39,0.78,1.39,2.03c0,7.92,0,15.85,0.01,23.77c0,2.21-0.85,2.81-1.4,3.11c-0.55,0.24-0.24,0.78,0,0.78
			c0.47,0,0.94,0,1.41,0c2.36,0.01,4.73,0.05,7.09,0.12c0.47,0.01,0.94,0.03,1.41,0.05c0.24,0.01,0.55-0.52,0-0.78
			c-0.55-0.32-1.41-0.95-1.41-3.16c-0.01-2.5-0.01-5-0.02-7.5c0.37-0.52,0.73-1.04,1.1-1.56c1.64,3.05,3.28,6.12,4.92,9.23
			c0.07,0.14,0.12,0.26,0.19,0.38c0,0,0-0.01,0-0.01c0,0,0.05,0.13,0.15,0.33c0,0,0,0.01,0.01,0.01c0.43,0.91,1.74,3.33,3.43,3.44
			c2.28,0.16,4.56,0.34,6.84,0.56C173.64,95.27,173.65,94.71,172.97,94.4z M153.32,84.16l-0.09,2.69c-0.06,0.9-0.09,1.79-0.17,2.69
			c-0.1-0.89-0.14-1.79-0.22-2.68l-0.13-2.68c-0.09-1.79-0.11-3.58-0.14-5.37c-0.01-1.79-0.01-3.58,0.04-5.37
			c0.05-1.79,0.11-3.58,0.25-5.37c0.18,1.79,0.27,3.58,0.35,5.37c0.09,1.79,0.11,3.58,0.14,5.37
			C153.36,80.58,153.37,82.37,153.32,84.16z"/>
		<path class="st0" d="M144.87,64.45c0.56-0.24,0.25-0.78,0-0.78c-0.48,0-0.96,0-1.44,0c-1.92,0-3.84,0-5.75,0
			c-0.48,0-0.96,0-1.44,0c-0.25,0-0.56,0.54,0,0.78c0.56,0.3,1.43,0.9,1.43,3.13c-0.02,5.24-0.03,10.47-0.05,15.71
			c-3.12-6.45-6.23-12.96-9.32-19.62c-1.92,0-3.84,0-5.75,0c-0.48,0-0.96,0-1.44,0c-0.25,0-0.5,0.38-0.01,0.82
			c0.5,0.44,1.43,0.81,1.42,2.12c-0.06,8.28-0.11,16.56-0.17,24.83c-0.02,2.31-0.9,3.02-1.47,3.39c-0.57,0.31-0.26,0.84-0.01,0.82
			c0.48-0.05,0.96-0.1,1.45-0.15c1.93-0.2,3.86-0.38,5.79-0.53c0.48-0.04,0.97-0.08,1.45-0.11c0.25-0.02,0.57-0.59,0-0.79
			c-0.56-0.26-1.44-0.81-1.43-3.08c0.03-5.3,0.06-10.59,0.09-15.89c3.08,6.53,6.18,12.93,9.29,19.29c0.02-0.07,0.04-0.14,0.06-0.21
			c0,0.07,0,0.14,0,0.21c1.93-0.08,3.87-0.15,5.8-0.19c0.48-0.01,0.97-0.02,1.45-0.03c0.25,0,0.5-0.37,0-0.78
			c-0.5-0.41-1.45-0.75-1.45-2.01c0.01-7.94,0.03-15.88,0.04-23.82C143.43,65.35,144.31,64.75,144.87,64.45z M125.85,86.64
			c-0.06,1.63-0.14,3.26-0.28,4.89c-0.14-1.63-0.23-3.26-0.28-4.89c-0.08-1.63-0.1-3.26-0.11-4.89c-0.02-3.26,0.05-6.51,0.23-9.77
			l0,0.01c0-0.73-0.02-1.46,0-2.19c0.12,0.72,0.21,1.44,0.31,2.16l0,0.01c0.18,3.26,0.25,6.51,0.23,9.77
			C125.95,83.39,125.93,85.02,125.85,86.64z M140.66,83.97l-0.11,2.49c-0.07,0.83-0.1,1.66-0.19,2.49
			c-0.09-0.83-0.13-1.66-0.19-2.49l-0.11-2.49c-0.07-1.66-0.08-3.32-0.09-4.98c0.01-1.66,0.02-3.32,0.09-4.98
			c0.06-1.66,0.14-3.32,0.3-4.98c0.16,1.66,0.24,3.32,0.3,4.98c0.07,1.66,0.08,3.32,0.09,4.98
			C140.74,80.65,140.73,82.31,140.66,83.97z"/>
		<path class="st0" d="M198.82,91.67c-0.61-0.1-1.66-0.25-2.08-0.32c-1.17-0.17-1.28,0.36-2.86,1.95c-0.97,1-2.32,1.39-3.67,1.19
			c-0.94-0.14-1.89-0.27-2.83-0.4c-3.26-0.45-3.35-3.98-3.37-6.56c0-0.04,0-0.09,0-0.13c-0.06-8.54,8.59-8.26,7.29-2.66
			c0,0.2,0,0.33,0.19,0.49c0.12,0.15,0.31,0.17,0.49,0.12c3.73-1.71,3.54-9.4-2.53-9.7c-4.11-0.21-5.5,2.87-5.5,2.87
			c-0.03-3.74-0.06-7.48-0.09-11.22c1.84,0.03,3.68,0.06,5.52,0.09c1.35,0.02,2.7,0.38,3.63,1.48c1.67,1.87,1.86,2.43,2.96,2.47
			c0.43,0.02,1.41,0.06,2.09,0.09c0.8,0.04,1.34-0.71,0.91-1.77c-0.73-1.6-1.46-3.18-2.18-4.73c-0.44-0.83-1.18-1.24-1.97-1.23
			c-6.01,0-12.09,0-18.1,0c-0.47,0-0.94,0-1.41,0c-0.25,0-0.49,0.37,0.01,0.81c0.49,0.44,1.42,0.82,1.43,2.14
			c0.06,8.32,0.12,16.64,0.17,24.97c0.02,2.32-0.84,2.86-1.4,3.11c-0.55,0.19-0.24,0.79,0.01,0.81c6.79,0.7,13.56,1.67,20.31,2.91
			c0.8,0.15,1.53-0.19,1.89-0.95c0.68-1.27,1.37-2.56,2.05-3.86C200.24,92.66,199.62,91.79,198.82,91.67z M180.68,85.15
			c-0.06,1.86-0.14,3.71-0.3,5.57c-0.16-1.86-0.24-3.71-0.3-5.57c-0.07-1.86-0.08-3.71-0.09-5.57c0.01-1.86,0.02-3.71,0.08-5.57
			c0.06-1.85,0.13-3.71,0.29-5.56l-0.17-0.21l0.21,0.18l0.01,0.01l0,0.01c0.15,1.86,0.22,3.71,0.29,5.57
			c0.07,1.86,0.08,3.71,0.08,5.57C180.76,81.43,180.75,83.29,180.68,85.15z"/>
		<path class="st0" d="M117.79,64.5c0.45-0.45,0.26-0.82,0.01-0.83c-0.48,0-0.97,0-1.45,0c-2.44,0-4.88,0-7.32,0
			c-0.48,0-0.97,0-1.45,0c-0.25,0-0.51,0.4-0.01,0.86c0.5,0.46,1.45,0.85,1.43,2.23c-0.07,8.74-0.14,17.47-0.21,26.21
			c-0.02,2.43-0.91,3.23-1.48,3.65c-0.57,0.36-0.26,0.9-0.01,0.86c0.48-0.08,0.97-0.16,1.46-0.23c2.45-0.38,4.9-0.73,7.35-1.04
			c0.49-0.06,0.97-0.12,1.46-0.18c0.25-0.03,0.58-0.64,0.01-0.82c-0.57-0.25-1.45-0.78-1.43-3.14c0.06-8.46,0.13-16.93,0.19-25.39
			C116.34,65.33,117.29,64.94,117.79,64.5z M113.06,85.79l-0.11,2.86c-0.07,0.95-0.1,1.91-0.19,2.86c-0.09-0.95-0.13-1.91-0.19-2.86
			l-0.11-2.86c-0.07-1.91-0.08-3.81-0.09-5.72c0.01-1.91,0.02-3.81,0.09-5.72c0.06-1.91,0.14-3.81,0.3-5.72
			c0.16,1.91,0.24,3.81,0.3,5.72c0.07,1.91,0.08,3.81,0.09,5.72C113.14,81.98,113.13,83.88,113.06,85.79z"/>
		<path class="st0" d="M94.85,90.05c-0.43-0.22-1,0.01-1.22,0.55c-0.66,1.84-4.94,3.97-7.11-2.06c-0.28-0.85-0.63-1.54-0.91-2.18
			c11.78-4.61,12.59-22.32-2.15-22.68c-4.67,0-9.35,0-14.02,0c-0.55,0-1.1,0-1.65,0c-0.29,0-0.57,0.51,0,1.11
			c0.57,0.59,1.64,1.08,1.64,2.84c-0.01,11.15-0.02,22.3-0.03,33.45c0,3.1-0.99,4.25-1.62,4.88c-0.63,0.54-0.28,1.11,0,1.02
			c3.79-1.23,7.6-2.37,11.43-3.42c0.28-0.08,0.64-0.8,0-0.94c-0.64-0.22-1.62-0.74-1.61-3.68c0.01-3.67,0.03-7.34,0.04-11.01
			c0.54-0.09,1.09-0.18,1.63-0.27c4.89,2.84,1.34,15.45,10.37,13.25C97.84,98.99,97.62,91.72,94.85,90.05z M73.61,93.18
			c-0.06,2.27-0.14,4.53-0.29,6.8c-0.15-2.27-0.23-4.53-0.29-6.8c-0.08-2.27-0.09-4.53-0.1-6.8c-0.01-2.27,0.01-4.53,0.04-6.8
			c0.06-2.27,0.1-4.53,0.21-6.8l0,0.01c-0.01-0.79-0.03-1.59-0.02-2.38c0.11,0.79,0.19,1.57,0.28,2.36l0,0.01
			c0.11,2.27,0.16,4.53,0.21,6.8c0.04,2.27,0.05,4.53,0.05,6.8C73.71,88.65,73.69,90.91,73.61,93.18z M89.21,68.37
			c1.39,1.57,2.03,3.77,1.97,5.9c-0.07,2.12-0.85,4.28-2.33,5.76c0.96-1.84,1.49-3.79,1.55-5.79
			C90.46,72.25,90.06,70.27,89.21,68.37z M80.37,83.04c-0.9,0.12-1.8,0.24-2.7,0.36c0.02-5.1,0.04-10.19,0.06-15.29
			c1.02-0.03,2.05-0.06,3.07-0.09C90.09,67.89,88.84,81.78,80.37,83.04z M90.24,97.06c-0.6,0.27-1.29,0.34-1.95,0.21
			c-0.65-0.14-1.27-0.46-1.72-0.93c-0.46-0.47-0.76-1.09-0.77-1.72c0.32,0.53,0.72,0.94,1.17,1.25c0.45,0.31,0.95,0.53,1.47,0.62
			c0.52,0.11,1.06,0.09,1.6-0.02c0.54-0.12,1.07-0.35,1.63-0.63C91.33,96.37,90.83,96.8,90.24,97.06z"/>
		<path class="st0" d="M102.26,91.63c-1.93,0.28-3.52,2.05-3.53,3.93c-0.01,1.88,1.54,3.16,3.48,2.8c1.93-0.36,3.52-2.16,3.54-3.96
			C105.76,92.61,104.19,91.35,102.26,91.63z"/>
		<path class="st0" d="M228.28,95.86c0.05-0.05,0-0.11-0.06-0.08c-1.61,0.74-3.03,0.51-3.03,0.51c-1.57-0.19-3.65-1.83-5-6.2
			c-0.29-1-0.65-1.86-0.93-2.61c11.69-0.64,12.37-24.22-2.38-23.8c-4.67,0-9.35,0-14.02,0c-0.55,0-1.1,0-1.65,0
			c-0.29,0-0.57,0.42,0.01,0.91c0.58,0.49,1.65,0.93,1.66,2.42c0.07,9.42,0.14,18.84,0.21,28.25c0.02,2.63-0.97,3.13-1.61,3.36
			c-0.64,0.15-0.28,0.78,0.01,0.84c3.85,0.79,7.7,1.68,11.53,2.65c0.28,0.07,0.64-0.45-0.01-0.91c-0.64-0.54-1.64-1.52-1.66-4.28
			l-0.06-9.58c0.71-0.32,0.79-0.35,1.5-0.67c5.12,4.34,1.57,15.69,10.62,18.3c0.73,0.23,1.38,0.36,1.98,0.41
			C224.95,101.82,225.91,98.26,228.28,95.86z M222.6,69.01c1.18,1.78,1.73,3.97,1.73,6.13c-0.01,2.16-0.57,4.34-1.77,6.11
			c0.62-2.03,0.98-4.06,0.98-6.12C223.56,73.08,223.21,71.05,222.6,69.01z M207.29,88.65l-0.11,3.3c-0.07,1.1-0.1,2.2-0.19,3.3
			c-0.09-1.1-0.13-2.2-0.19-3.3l-0.11-3.3c-0.07-2.2-0.08-4.4-0.09-6.6c0.01-2.2,0.02-4.4,0.09-6.6c0.06-2.2,0.14-4.4,0.3-6.6
			c0.16,2.2,0.24,4.4,0.3,6.6c0.07,2.2,0.08,4.4,0.09,6.6C207.37,84.24,207.36,86.44,207.29,88.65z M213.97,82.61
			c-0.9-0.11-1.8-0.22-2.71-0.33c-0.03-4.81-0.06-9.61-0.09-14.42c1.02,0.03,2.05,0.06,3.07,0.08
			C223.54,68.09,222.44,83.91,213.97,82.61z"/>
		<path class="st0" d="M247.25,83.96c4.84-8.41,9.74-15.24,9.92-19.78c0.06-2.12-1.87-3.63-3.51-3.63c-1.57,0-2.3,0.48-2.9,1.39
			c-0.12,0.18-0.12,0.36-0.06,0.54c0.06,0.24,0.18,0.36,0.42,0.48c0.54,0.12,1.03,0.6,1.03,1.33c0.06,1.09-0.12,2.24-0.42,3.51
			c-0.97-3.08-4.05-5.93-9.62-5.93c-6.83,0-11.85,3.27-11.85,11.37c0,7.02,5.81,10.52,11.07,14.82c-0.97,1.81-2,3.75-2.9,5.75
			c-0.3-0.06-0.6-0.06-0.91-0.06c-12.4,0-13.79,15.78-4.72,22.01c0,8.35,4.17,9.37,6.71,9.37c2.6,0,4.48-2,4.78-3.14
			c0.06-0.18,0-0.42-0.12-0.54c-0.12-0.18-0.3-0.3-0.48-0.3c-2.78-0.18-4.23-1.27-5.02-3.08c0.85,0.12,1.75,0.18,2.72,0.18
			c5.14,0,17.18-2.78,17.18-15.78C258.56,93.7,252.82,88.44,247.25,83.96z M233.08,71.6c-0.06-2.02,0.79-4.08,2.31-5.32
			c-1.03,1.64-1.59,3.46-1.53,5.29c0.06,1.83,0.72,3.61,1.85,5.19C234.12,75.63,233.15,73.63,233.08,71.6z M236.91,71.26
			c0-3.08,1.94-6.71,5.38-6.71c5.81,0,6.11,7.38,3.27,7.38c-0.36,0-0.85,0.06-1.39-0.12c-0.24-0.12-0.48-0.06-0.67,0.12
			c-0.18,0.18-0.24,0.42-0.18,0.67c0.48,1.81,1.94,2.24,3.57,2.24c0.79,0,1.45-0.12,2.06-0.36c-1.21,2.36-2.66,4.9-4.17,7.5
			C240.54,78.58,236.91,75.5,236.91,71.26z M233.04,111.3c-3.08-4.66-1.75-11.85,3.21-12.46C234.73,102.83,233.52,107,233.04,111.3z
			 M236.77,96.11c-1.46,0.1-2.87,0.59-4.15,1.51c0.4-0.68,1.03-1.24,1.75-1.62c0.72-0.39,1.53-0.61,2.34-0.67
			c0.82-0.05,1.65,0.05,2.41,0.34c0.76,0.28,1.46,0.74,1.96,1.37C239.7,96.29,238.23,96.01,236.77,96.11z M240.78,115.17
			c-1.03,0-1.94-0.12-2.78-0.36c-0.06-0.79-0.12-1.69-0.12-2.6c0-4.35,0.79-8.53,2.12-12.58c1.94,1.33,2.06,3.75,0.85,4.23
			c-0.12,0.06-0.18,0.12-0.24,0.3c-0.06,0.12-0.06,0.18,0,0.36c0.3,0.6,1.09,0.6,1.09,0.6c5.02,0,5.14-7.5,0.12-10.34
			c0.6-1.51,1.33-3.08,2.06-4.6c3.39,3.21,6.11,7.08,6.11,13C249.97,109.6,247.13,115.17,240.78,115.17z M253.9,96.95
			c0.7,1.84,1.04,3.83,1.03,5.81c-0.03,1.98-0.4,3.96-1.13,5.79c-0.37,0.91-0.8,1.8-1.32,2.63c-0.53,0.82-1.11,1.61-1.79,2.31
			c0.54-0.81,1.04-1.63,1.45-2.5c0.43-0.85,0.8-1.74,1.08-2.65c0.57-1.81,0.91-3.7,0.92-5.59c0.03-1.89-0.27-3.78-0.81-5.61
			c-0.55-1.82-1.38-3.57-2.44-5.19c0.66,0.71,1.23,1.51,1.75,2.34C253.12,95.14,253.55,96.03,253.9,96.95z"/>
		<path class="st0" d="M41.26,60.56c-21.77,0-21.23,25.7-10.83,25.7c1.57,0,2.24-0.85,2.48-1.57c0.06-0.18,0.06-0.36-0.06-0.54
			c-0.06-0.18-0.18-0.3-0.42-0.3c-5.81-1.27-4.84-19.9,9.01-19.9c21.39,0,19.2,52.61,0,52.61c-13.37,0-14.76-16.33-3.27-18.57v7.08
			c0,2.24-0.85,2.84-1.39,3.08c-0.54,0.3-0.24,0.85,0,0.85c4.11,0,4.23,3.57,11.07,3.57c0.48,0,0.6-0.42,0.6-0.73
			c0-0.54-0.3-0.6-1.21-1.15c-2-1.21-2.12-5.38-2.12-7.68v-0.12v-4.42c3.27,1.39,4.35,4.6,3.75,7.68c-0.06,0.24,0.06,0.48,0.24,0.67
			c0.24,0.12,0.48,0.12,0.73,0c3.08-1.87,4.17-11.37-4.72-14.03V77.07v-0.12c0-2.24,0.12-6.41,2.12-7.62
			c0.91-0.54,1.21-0.67,1.21-1.21c0-0.24-0.12-0.67-0.6-0.67c-6.83,0-6.95,3.57-11.07,3.57c-0.24,0-0.54,0.54,0,0.79
			c0.54,0.3,1.39,0.91,1.39,3.14v17.18c-17.54,1.57-18.81,27.64,3.08,27.64C70.77,119.76,76.39,60.56,41.26,60.56z M41.88,84.31
			l0.11-3.5c0.07-1.17,0.1-2.33,0.19-3.5c0.09,1.17,0.13,2.33,0.19,3.5l0.11,3.5c0.07,2.33,0.08,4.67,0.09,7
			c-0.01,2.33-0.02,4.67-0.09,7c-0.06,2.33-0.14,4.67-0.3,7c-0.16-2.33-0.24-4.67-0.3-7c-0.07-2.33-0.08-4.67-0.09-7
			C41.79,88.97,41.81,86.64,41.88,84.31z M61.05,81.51c0.62,3.01,0.82,6.11,0.73,9.18c-0.16,3.07-0.62,6.14-1.48,9.09l-0.71,2.19
			l-0.84,2.14l-0.99,2.07c-0.37,0.67-0.74,1.34-1.12,2c0.31-0.7,0.62-1.4,0.93-2.09l0.82-2.13l0.73-2.16l0.6-2.19
			c0.73-2.94,1.19-5.94,1.28-8.97c0.16-3.02-0.06-6.05-0.54-9.04c-0.48-2.99-1.29-5.93-2.37-8.79
			C59.46,75.56,60.43,78.5,61.05,81.51z"/>
		<path class="st0" d="M261.82,60.13c-0.54-1.42-2.66-0.84-3.88-0.38c-0.36,0.14-0.45,0.61-0.17,0.88c0.73,0.69,2.31,1.44,1.82,5.12
			h0.69C260.28,65.75,262.59,62.15,261.82,60.13z"/>
	</g>
</g>
</svg>
