<svg id="dr_inkers" data-name="dr inkers" xmlns="http://www.w3.org/2000/svg" viewBox="0 0 128.57 86.22"><defs><style>.cls-1{fill:#fff;}</style></defs><path class="cls-1" d="M1.09,32.16H129.15a.25.25,0,0,0,.25-.25.25.25,0,0,0-.25-.25H1.09a.25.25,0,0,0-.25.25A.25.25,0,0,0,1.09,32.16Z" transform="translate(-0.83 -6.06)"/><path class="cls-1" d="M47.79,19.47a.24.24,0,0,0,0,.26,3.2,3.2,0,0,0,2.6,1.05,3.5,3.5,0,0,0,1.34-.24A1.93,1.93,0,0,0,53,19.05a3.73,3.73,0,0,0,.36.43,3.53,3.53,0,0,0,2.81,1.08h0a7.93,7.93,0,0,0,6-2.92l.21-.27c0-.21-.09-.42-.15-.64a8,8,0,0,1-4,3l.12-.11a2.89,2.89,0,0,0,.1-4.07,2.63,2.63,0,0,0-1.58-.74,1.88,1.88,0,0,0-1.75.62h0a.92.92,0,0,0-.16.43.45.45,0,0,0,.44.42h0a.43.43,0,0,0,.3-.14.41.41,0,0,0,.12-.31.41.41,0,0,0-.13-.29,1.73,1.73,0,0,1,1.12-.24,2.13,2.13,0,0,1,1.26.59A2.37,2.37,0,0,1,58,19.22a3,3,0,0,1-4.28-.1,3.78,3.78,0,0,1-1.06-2.74,2.88,2.88,0,0,1,.06-.59,3.65,3.65,0,0,0,.11-.48,3.93,3.93,0,0,1,1-1.63,4.9,4.9,0,0,1,4.31-1.26,5.52,5.52,0,0,1,3.71,2.48,6.46,6.46,0,0,1-.29,7.41,4.55,4.55,0,0,1-3.12,1.78,6.08,6.08,0,0,1-4.57-1.69.26.26,0,0,0-.29,0,.27.27,0,0,0-.12.27,9.07,9.07,0,0,0,4.7,5.74A12.43,12.43,0,0,1,54,25.49l-.46-.42h0A10.68,10.68,0,0,0,51,23.19a7,7,0,0,0-1.13-.41h0a4.73,4.73,0,0,0-2.69,0,3.63,3.63,0,0,0-2.29,4.45A2.74,2.74,0,0,0,48.24,29a2.23,2.23,0,0,0,1.48-2.78A1.83,1.83,0,0,0,47.44,25a1.63,1.63,0,0,0-.89.69A1.18,1.18,0,0,0,46.43,27a.47.47,0,0,0,.24.21.37.37,0,0,0,.29,0,.33.33,0,0,0,.18-.22.39.39,0,0,0,0-.28.36.36,0,0,0-.22-.18l-.1,0A1.07,1.07,0,0,1,47,26a1.2,1.2,0,0,1,.6-.48,1.32,1.32,0,0,1,1.66.88,1.72,1.72,0,0,1-1.14,2.15,2.23,2.23,0,0,1-2.77-1.47,3.11,3.11,0,0,1,2-3.82,4.22,4.22,0,0,1,2.39,0c.84.34,1.06,1.1,1.27,1.91.07.23.13.48.22.7a1.86,1.86,0,0,0,1,1.16,1.25,1.25,0,0,0,1.34-.3,1.45,1.45,0,0,0,.33-.71c1.65,1.51,3.53,3.15,6.12,3.15a.25.25,0,0,0,.09-.49,9.5,9.5,0,0,1-5.87-5.42,6.28,6.28,0,0,0,4.33,1.33,5,5,0,0,0,3.46-2,7,7,0,0,0,1.11-6.34,10,10,0,0,0,.9-2.08h0a7.16,7.16,0,0,0,.31-1.8c0-.72.12-2.41-1.35-2.57a1.2,1.2,0,0,0-1.31,1.06,1.09,1.09,0,0,0,.18.7.49.49,0,0,0,.33.2.4.4,0,1,0,.1-.79h-.11v-.06a.81.81,0,0,1,.25-.46.67.67,0,0,1,.51-.15c.67.07.93.58.91,1.76,0,.38-.22.5-.5.67a1.5,1.5,0,0,0-.62.57.75.75,0,0,0,.1,1,.89.89,0,0,0,.56.22,10.24,10.24,0,0,1-.5,1.13,7.37,7.37,0,0,0-.55-1,6,6,0,0,0-4-2.7,5.36,5.36,0,0,0-4.74,1.4,4.23,4.23,0,0,0-1.28,2.41c-.31,1.12-1.34,3.67-4.19,3.59A.31.31,0,0,0,47.79,19.47Zm5.34,6.94a.7.7,0,0,1-.79.17,1.44,1.44,0,0,1-.7-.86c-.07-.21-.13-.43-.2-.66A5.06,5.06,0,0,0,51,23.78a11.39,11.39,0,0,1,2.22,1.68A.71.71,0,0,1,53.13,26.41ZM63.11,14c-.1-.09-.1-.21,0-.36a1.28,1.28,0,0,1,.46-.4l.15-.09c-.05.3-.12.59-.2.9A.37.37,0,0,1,63.11,14ZM52.2,17.14a4.22,4.22,0,0,0,.27,1,1.5,1.5,0,0,1-.93,1.93,3.53,3.53,0,0,1-2.92-.25A4.48,4.48,0,0,0,52.2,17.14Z" transform="translate(-0.83 -6.06)"/><path class="cls-1" d="M71.4,26.55a.25.25,0,0,0,0-.26.24.24,0,0,0-.22-.14,8.45,8.45,0,0,1-2.72-.64,4.85,4.85,0,0,1-3.13-3.94h0l0,0a.08.08,0,0,0,0,0l0,0,0,0,0,0H65l0,0,0,0s0,0,0,0,0,0,0,0l0,0v0a4.84,4.84,0,0,1-3.13,3.93,8.12,8.12,0,0,1-2.71.64.25.25,0,0,0-.2.41,8.07,8.07,0,0,0,6.28,2.51h0C69.37,29.06,71.32,26.66,71.4,26.55Zm-6.28,2h0a8.06,8.06,0,0,1-5.54-2c1.3-.17,4.53-.9,5.54-3.92,1,3,4.24,3.75,5.53,3.92A8,8,0,0,1,65.12,28.56Z" transform="translate(-0.83 -6.06)"/><path class="cls-1" d="M64.87,10.17a.25.25,0,0,0,.25.23h0a.25.25,0,0,0,.25-.23,3,3,0,0,1,1.3-2.1.27.27,0,0,0,.12-.21.24.24,0,0,0-.11-.21,4.44,4.44,0,0,1-1.33-1.42.24.24,0,0,0-.24-.17.27.27,0,0,0-.24.17,4.34,4.34,0,0,1-1.33,1.42.25.25,0,0,0-.1.21.27.27,0,0,0,.11.21A3,3,0,0,1,64.87,10.17Zm.25-3.33a5.32,5.32,0,0,0,1,1,3.4,3.4,0,0,0-1,1.35,3.5,3.5,0,0,0-1-1.35A5.32,5.32,0,0,0,65.12,6.84Z" transform="translate(-0.83 -6.06)"/><path class="cls-1" d="M1.09,30.05H129.15a.26.26,0,0,0,.25-.22.24.24,0,0,0-.17-.27c-.74-.25-2.72-1-3.08-1.69a.23.23,0,0,0-.21-.13.24.24,0,0,0-.22.12,3.94,3.94,0,0,1-3.31,1.69h-1l.35-.19a3.21,3.21,0,0,0,1.57-2.51,2.75,2.75,0,0,0-2.1-3,2,2,0,0,0-2.41,1.46,1.65,1.65,0,0,0,1.21,2,1.53,1.53,0,0,0,1-.12,1.22,1.22,0,0,0,.67-.82.58.58,0,0,0-.13-.45.47.47,0,0,0-.33-.17.5.5,0,0,0-.35.12.49.49,0,0,0-.05.68.52.52,0,0,0,.11.1l-.15.09a.94.94,0,0,1-.65.09,1.14,1.14,0,0,1-.84-1.38,1.49,1.49,0,0,1,1.81-1.09,2.25,2.25,0,0,1,1.71,2.44,2.68,2.68,0,0,1-1.34,2.11,4.76,4.76,0,0,1-2.46.62H118c-.77,0-6.43-.25-14.57-5.36a82,82,0,0,1-7.66-5.58c-2.74-2.18-4.9-3.9-6.61-4.2a18.92,18.92,0,0,0-2.61-.19A12.45,12.45,0,0,1,82,13.56a.26.26,0,0,0-.31.06.24.24,0,0,0,0,.31s2.08,2.66,4.87,2.69a5.29,5.29,0,0,0-.59.47,4.55,4.55,0,0,0-.15,6.41,3.7,3.7,0,0,0,5.2.12,3.38,3.38,0,0,0,.94-2,2.35,2.35,0,0,0-.77-2.22,1.24,1.24,0,0,0-.5-.18h0a.5.5,0,0,0-.47.5.48.48,0,0,0,.16.34.48.48,0,0,0,.35.14A.5.5,0,0,0,91,20S91,20,91,20a2.17,2.17,0,0,1,.37,1.59,2.76,2.76,0,0,1-.79,1.69,3.17,3.17,0,0,1-4.48-.1,4,4,0,0,1,.13-5.69,5.09,5.09,0,0,1,7.2.16,6.5,6.5,0,0,1,1.68,5.68,7.29,7.29,0,0,1-3.27,4.9,10,10,0,0,1-5.63,1.34H44a10,10,0,0,1-5.63-1.34,7.32,7.32,0,0,1-3.27-4.9,6.44,6.44,0,0,1,1.68-5.68,5.09,5.09,0,0,1,7.2-.16,4,4,0,0,1,.13,5.69,3.17,3.17,0,0,1-4.48.1,2.82,2.82,0,0,1-.79-1.69A2.27,2.27,0,0,1,39.22,20l.05.06a.5.5,0,0,0,.85-.32.49.49,0,0,0-.48-.5,1.16,1.16,0,0,0-.52.18,2.41,2.41,0,0,0-.77,2.22,3.33,3.33,0,0,0,.94,2,3.69,3.69,0,0,0,5.2-.11,4.54,4.54,0,0,0-.15-6.41,5.29,5.29,0,0,0-.59-.47c2.79,0,4.84-2.66,4.87-2.69a.24.24,0,0,0,0-.31.25.25,0,0,0-.31-.06,12.45,12.45,0,0,1-4.55.67,18.92,18.92,0,0,0-2.61.19c-1.71.3-3.87,2-6.61,4.2a83.08,83.08,0,0,1-7.65,5.58C18.71,29.32,13,29.55,12.3,29.56H11.22a4.79,4.79,0,0,1-2.46-.62,2.75,2.75,0,0,1-1.34-2.11,2.25,2.25,0,0,1,1.72-2.44,1.5,1.5,0,0,1,1.8,1.09,1.14,1.14,0,0,1-.84,1.38.94.94,0,0,1-.65-.09.38.38,0,0,1-.15-.09.52.52,0,0,0,.11-.1.47.47,0,0,0-.06-.67A.43.43,0,0,0,9,25.79a.54.54,0,0,0-.33.16.63.63,0,0,0-.12.45,1.15,1.15,0,0,0,.67.82,1.47,1.47,0,0,0,1,.13,1.66,1.66,0,0,0,1.21-2A2,2,0,0,0,9,23.9a2.76,2.76,0,0,0-2.1,3,3.21,3.21,0,0,0,1.58,2.5l.34.19h-1a3.92,3.92,0,0,1-3.3-1.69.31.31,0,0,0-.23-.12.24.24,0,0,0-.21.14c-.36.66-2.34,1.44-3.08,1.68a.25.25,0,0,0,.09.49Zm124.84-1.64a6.42,6.42,0,0,0,1.87,1.13h-3.26A4.44,4.44,0,0,0,125.93,28.41Zm-36-12.86a5.48,5.48,0,0,0-2,.31h0c-2.23.81-4.2-.57-5.19-1.5a19.35,19.35,0,0,0,3.76.36A19.48,19.48,0,0,1,89,14.9a5.86,5.86,0,0,1,1.81.75A4.81,4.81,0,0,0,89.91,15.55Zm8.15,14h-.83a4.27,4.27,0,0,0,2.65-2.21,2.57,2.57,0,0,1-.4,1.62A1.65,1.65,0,0,1,98.06,29.54Zm-5.92-.91a7.81,7.81,0,0,0,3.49-5.24,7,7,0,0,0-.89-4.92l.67.53a83.28,83.28,0,0,0,7.7,5.62,37.77,37.77,0,0,0,11.22,4.93H99.6a1.56,1.56,0,0,0,.27-.3c.92-1.21.31-3.38.29-3.47a.25.25,0,0,0-.28-.18.25.25,0,0,0-.22.25,3.34,3.34,0,0,1-2.55,3.22,9.07,9.07,0,0,1-2.66.48H90.14A8.9,8.9,0,0,0,92.14,28.63ZM41.21,14.9a19.22,19.22,0,0,1,2.54-.18,19.43,19.43,0,0,0,3.76-.36c-1,.94-3,2.32-5.19,1.5h0a5.46,5.46,0,0,0-2-.31,4.73,4.73,0,0,0-.93.1A5.63,5.63,0,0,1,41.21,14.9Zm-9,14.64A1.66,1.66,0,0,1,30.76,29a2.64,2.64,0,0,1-.41-1.62A4.31,4.31,0,0,0,33,29.54Zm-5.06-4.92A81.48,81.48,0,0,0,34.82,19l.67-.53a7.08,7.08,0,0,0-.89,4.92,7.85,7.85,0,0,0,5.49,6.15H35.78c-.06,0-5.21,0-5.21-3.7a.26.26,0,0,0-.22-.25.26.26,0,0,0-.28.18c0,.09-.63,2.26.28,3.48a1.94,1.94,0,0,0,.28.29H15.9A37.42,37.42,0,0,0,27.12,24.62ZM4.3,28.41a4.38,4.38,0,0,0,1.4,1.13H2.44A6.36,6.36,0,0,0,4.3,28.41Z" transform="translate(-0.83 -6.06)"/><path class="cls-1" d="M65.94,12.41a8.23,8.23,0,0,0,.32,1.79s0,0,0,0a9.68,9.68,0,0,0,1.85,3.42,7.9,7.9,0,0,0,5.95,2.91h0a3.53,3.53,0,0,0,2.79-1.08,2.86,2.86,0,0,0,.35-.43,2,2,0,0,0,1.26,1.5,3.61,3.61,0,0,0,1.33.24,3.2,3.2,0,0,0,2.6-1.05.27.27,0,0,0,0-.26.26.26,0,0,0-.23-.13c-2.85.07-3.87-2.47-4.19-3.6a4.35,4.35,0,0,0-1.28-2.41A5.36,5.36,0,0,0,72,11.94a6,6,0,0,0-4,2.7,6.94,6.94,0,0,0-.55,1,9.28,9.28,0,0,1-.5-1.13.92.92,0,0,0,.56-.22.77.77,0,0,0,.1-1,1.67,1.67,0,0,0-.63-.57.76.76,0,0,1-.49-.67c0-1.17.24-1.68.91-1.75a.69.69,0,0,1,.5.14.63.63,0,0,1,.25.47.11.11,0,0,1,0,.06H68a.4.4,0,0,0-.35.44.39.39,0,0,0,.44.35.58.58,0,0,0,.33-.2,1,1,0,0,0,.18-.71,1.13,1.13,0,0,0-.44-.79,1.2,1.2,0,0,0-.87-.26C65.83,10,65.91,11.68,65.94,12.41Zm11.82,5.73a3.92,3.92,0,0,0,.28-1,4.47,4.47,0,0,0,3.58,2.68,3.55,3.55,0,0,1-2.93.25A1.53,1.53,0,0,1,77.76,18.14Zm-9.38-3.23a5.55,5.55,0,0,1,3.72-2.48,4.89,4.89,0,0,1,4.3,1.27,3.83,3.83,0,0,1,1,1.63c0,.06,0,.23.12.48a3.68,3.68,0,0,1,.06.58,3.85,3.85,0,0,1-1.06,2.75,3,3,0,0,1-4.28.1,2.34,2.34,0,0,1-.73-1.66,2.31,2.31,0,0,1,.65-1.69,2.13,2.13,0,0,1,1.26-.59,1.74,1.74,0,0,1,1.12.23.43.43,0,0,0-.13.3.47.47,0,0,0,.12.31.42.42,0,0,0,.3.13h0a.43.43,0,0,0,.44-.42.87.87,0,0,0-.16-.43h0a1.84,1.84,0,0,0-1.75-.61,2.52,2.52,0,0,0-1.57.74,2.78,2.78,0,0,0-.79,2,2.85,2.85,0,0,0,.88,2l.14.11a8,8,0,0,1-4.31-3.47A6.36,6.36,0,0,1,68.38,14.91Zm-1.7-1.72a1.36,1.36,0,0,1,.46.4.27.27,0,0,1,0,.36.36.36,0,0,1-.4.05,7.32,7.32,0,0,1-.21-.9Z" transform="translate(-0.83 -6.06)"/><path class="cls-1" d="M83.11,26.69a.36.36,0,0,0,.45.5.44.44,0,0,0,.25-.21,1.19,1.19,0,0,0-.12-1.25A1.71,1.71,0,0,0,82.8,25a1.84,1.84,0,0,0-2.29,1.22A2.24,2.24,0,0,0,82,29a2.74,2.74,0,0,0,3.4-1.81,3.62,3.62,0,0,0-2.29-4.45,4.73,4.73,0,0,0-2.69,0h0a7.33,7.33,0,0,0-1.13.41,10.68,10.68,0,0,0-2.57,1.88h0l-.46.42a12.33,12.33,0,0,1-4.17,2.89,9.05,9.05,0,0,0,4.7-5.73.27.27,0,0,0-.11-.28.28.28,0,0,0-.3,0,6.09,6.09,0,0,1-4.57,1.69,4.57,4.57,0,0,1-3.12-1.78,6.56,6.56,0,0,1-1.25-4.85,5.57,5.57,0,0,1-.4-.59,7,7,0,0,0,1.26,5.75,5.07,5.07,0,0,0,3.46,2,6.3,6.3,0,0,0,4.34-1.33A9.52,9.52,0,0,1,70.2,28.7a.25.25,0,0,0,.09.49c2.6,0,4.48-1.64,6.13-3.15a1.28,1.28,0,0,0,.32.71,1.17,1.17,0,0,0,.89.39,1.42,1.42,0,0,0,.45-.08,1.9,1.9,0,0,0,1-1.16c.08-.23.15-.47.21-.71.22-.81.43-1.57,1.28-1.9a4.19,4.19,0,0,1,2.38,0,3.11,3.11,0,0,1,2,3.82,2.23,2.23,0,0,1-2.77,1.48A1.72,1.72,0,0,1,81,26.42a1.34,1.34,0,0,1,1.66-.89,1.21,1.21,0,0,1,.6.48,1.07,1.07,0,0,1,.17.48l-.11,0A.31.31,0,0,0,83.11,26.69Zm-4.32-1.63a6.55,6.55,0,0,1-.2.67,1.42,1.42,0,0,1-.7.85A.74.74,0,0,1,77,25.46a11.62,11.62,0,0,1,2.22-1.67A5.67,5.67,0,0,0,78.79,25.06Z" transform="translate(-0.83 -6.06)"/><path class="cls-1" d="M43.55,66.37a.25.25,0,0,0,.23.15H86.46a.25.25,0,0,0,.23-.15l2.1-5a.23.23,0,0,0,0-.2l-2.1-4.95a.24.24,0,0,0-.23-.15H43.78a.25.25,0,0,0-.23.15l-2.1,4.95a.34.34,0,0,0,0,.2Zm.4-9.75H86.29l2,4.7-2,4.7H44l-2-4.7Z" transform="translate(-0.83 -6.06)"/><path class="cls-1" d="M45.43,62a.66.66,0,0,0,.66-.66.66.66,0,1,0-.66.66Z" transform="translate(-0.83 -6.06)"/><path class="cls-1" d="M84.8,62a.66.66,0,0,0,.65-.66.65.65,0,0,0-.65-.65.66.66,0,0,0-.66.65A.67.67,0,0,0,84.8,62Z" transform="translate(-0.83 -6.06)"/><path class="cls-1" d="M44.59,65.53H85.65a.12.12,0,0,0,.1-.07l1.74-4.1a.11.11,0,0,0,0-.08l-1.74-4.1a.12.12,0,0,0-.1-.07H44.59a.12.12,0,0,0-.1.07l-1.74,4.1a.11.11,0,0,0,0,.08l1.74,4.1A.12.12,0,0,0,44.59,65.53Zm.07-8.2H85.58l1.7,4-1.7,4H44.66l-1.7-4Z" transform="translate(-0.83 -6.06)"/><path class="cls-1" d="M20.93,65.49h19.4A.25.25,0,0,0,40.4,65c-.84-.26-3-1.18-3-2.41a.26.26,0,0,0-.21-.25.26.26,0,0,0-.28.18S36.1,65,34,65H33.9a2.08,2.08,0,0,1-2-.95,1.71,1.71,0,0,1-.13-1.4,1.35,1.35,0,0,1,.67-.74,1.31,1.31,0,0,1,1,0l.17.08a.64.64,0,0,0-.25.33.6.6,0,0,0,.39.74.59.59,0,0,0,.45,0,.63.63,0,0,0,.29-.35.82.82,0,0,0-.1-.63,1.62,1.62,0,0,0-.78-.61,1.76,1.76,0,0,0-1.37.07,1.81,1.81,0,0,0-.92,1,2.15,2.15,0,0,0,.16,1.82,2.27,2.27,0,0,0,.63.7H22a127.27,127.27,0,0,1,18.15-6.69.25.25,0,0,0,.17-.31.26.26,0,0,0-.31-.18A125.74,125.74,0,0,0,20.82,65a.26.26,0,0,0-.13.29A.24.24,0,0,0,20.93,65.49Zm16.14-2.14A4.29,4.29,0,0,0,39,65H35.67A4.25,4.25,0,0,0,37.07,63.35Z" transform="translate(-0.83 -6.06)"/><path class="cls-1" d="M89.91,65.49h19.4a.24.24,0,0,0,.24-.19.25.25,0,0,0-.13-.29,124.5,124.5,0,0,0-19.23-7.2.26.26,0,0,0-.31.18.25.25,0,0,0,.18.31A127,127,0,0,1,108.2,65h-10a2.05,2.05,0,0,0,.63-.7A2.19,2.19,0,0,0,99,62.47a1.81,1.81,0,0,0-.92-1,1.79,1.79,0,0,0-1.38-.07,1.62,1.62,0,0,0-.78.61.81.81,0,0,0-.1.62.59.59,0,0,0,.29.35.55.55,0,0,0,.45,0,.58.58,0,0,0,.39-.74.61.61,0,0,0-.26-.33l.18-.08a1.29,1.29,0,0,1,1.65.79,1.68,1.68,0,0,1-.12,1.4,2.08,2.08,0,0,1-2,.94h-.09c-2.11,0-2.9-2.44-2.91-2.47a.26.26,0,0,0-.28-.17.25.25,0,0,0-.21.25c0,1.22-2.18,2.15-3,2.4a.26.26,0,0,0-.18.28A.23.23,0,0,0,89.91,65.49Zm3.25-2.14A4.38,4.38,0,0,0,94.57,65H91.21A4.22,4.22,0,0,0,93.16,63.35Z" transform="translate(-0.83 -6.06)"/><path class="cls-1" d="M62.28,84.68a7,7,0,0,0-.32-8,5,5,0,0,0-3.47-2A6.29,6.29,0,0,0,54.16,76,9.52,9.52,0,0,1,60,70.62a.26.26,0,0,0,.16-.28.25.25,0,0,0-.25-.21c-2.6,0-4.48,1.64-6.13,3.14a1.36,1.36,0,0,0-.32-.7,1.22,1.22,0,0,0-1.34-.31,1.84,1.84,0,0,0-1,1.16c-.08.23-.15.47-.21.71-.22.8-.43,1.57-1.28,1.9a4.19,4.19,0,0,1-2.38,0,3.11,3.11,0,0,1-2-3.82,2.22,2.22,0,0,1,2.76-1.48,1.72,1.72,0,0,1,1.15,2.15,1.32,1.32,0,0,1-1.66.88,1.1,1.1,0,0,1-.6-.47,1.07,1.07,0,0,1-.17-.48l.1,0a.37.37,0,0,0,0-.68.39.39,0,0,0-.28,0,.63.63,0,0,0-.25.22,1.19,1.19,0,0,0,.13,1.25,1.65,1.65,0,0,0,.88.69,1.85,1.85,0,0,0,2.29-1.22,2.24,2.24,0,0,0-1.48-2.78,2.74,2.74,0,0,0-3.4,1.81,3.62,3.62,0,0,0,2.29,4.45,4.73,4.73,0,0,0,2.69,0h0A6.14,6.14,0,0,0,51,76.11a11.11,11.11,0,0,0,2.57-1.87h0c.15-.14.31-.27.46-.42a12.26,12.26,0,0,1,4.17-2.88,9.05,9.05,0,0,0-4.7,5.73.26.26,0,0,0,.12.27.24.24,0,0,0,.29,0,6.15,6.15,0,0,1,4.57-1.69A4.55,4.55,0,0,1,61.55,77a6.48,6.48,0,0,1,.29,7.42,5.53,5.53,0,0,1-3.71,2.48,4.93,4.93,0,0,1-4.31-1.27,3.83,3.83,0,0,1-1-1.63c0-.06-.05-.23-.11-.48a5.73,5.73,0,0,1-.07-.58,3.86,3.86,0,0,1,1.07-2.75,3,3,0,0,1,4.28-.1,2.37,2.37,0,0,1,.07,3.35,2.1,2.1,0,0,1-1.26.59,1.77,1.77,0,0,1-1.12-.23.43.43,0,0,0,.13-.3.41.41,0,0,0-.12-.31.47.47,0,0,0-.3-.14.45.45,0,0,0-.45.42,1,1,0,0,0,.16.44,1.85,1.85,0,0,0,1.75.61,2.55,2.55,0,0,0,1.57-.74,2.86,2.86,0,0,0-.09-4.06,3.52,3.52,0,0,0-5,.12,2.93,2.93,0,0,0-.36.43,1.94,1.94,0,0,0-1.26-1.5c-1.32-.54-3.34-.12-3.93.81a.26.26,0,0,0,0,.27A.22.22,0,0,0,48,80c2.85-.07,3.87,2.45,4.19,3.58A4.28,4.28,0,0,0,53.47,86a5.38,5.38,0,0,0,3.73,1.49,5.75,5.75,0,0,0,1-.09A5.93,5.93,0,0,0,62.28,84.68ZM53.2,73.86A11,11,0,0,1,51,75.54a5.57,5.57,0,0,0,.47-1.27,6.55,6.55,0,0,1,.2-.67,1.42,1.42,0,0,1,.7-.85.69.69,0,0,1,.79.17A.72.72,0,0,1,53.2,73.86Zm-.73,7.33a4.27,4.27,0,0,0-.27,1,4.51,4.51,0,0,0-3.58-2.68,3.57,3.57,0,0,1,2.92-.25A1.52,1.52,0,0,1,52.47,81.19Z" transform="translate(-0.83 -6.06)"/><path class="cls-1" d="M1.09,68.07H112.31a5.27,5.27,0,0,1-.33-.5H1.09a.25.25,0,0,0,0,.5Z" transform="translate(-0.83 -6.06)"/><path class="cls-1" d="M129.15,67.57h-8.84c-.08.16-.16.33-.27.51h9.11a.25.25,0,0,0,.25-.25A.26.26,0,0,0,129.15,67.57Z" transform="translate(-0.83 -6.06)"/><path class="cls-1" d="M129.15,69.28h-10a4.47,4.47,0,0,1-.63.5H119a4.76,4.76,0,0,1,2.46.62,2.7,2.7,0,0,1,1.34,2.11A2.25,2.25,0,0,1,121.1,75a1.49,1.49,0,0,1-1.81-1.09,1.15,1.15,0,0,1,.84-1.38.93.93,0,0,1,.65.09.51.51,0,0,1,.16.09.36.36,0,0,0-.11.1.48.48,0,0,0,.73.63.58.58,0,0,0,.12-.45,1.15,1.15,0,0,0-.67-.82,1.47,1.47,0,0,0-1-.13,1.66,1.66,0,0,0-1.21,2,2,2,0,0,0,1.94,1.52,1.93,1.93,0,0,0,.47,0,2.77,2.77,0,0,0,2.1-3,3.22,3.22,0,0,0-1.57-2.5l-.35-.19h1a3.94,3.94,0,0,1,3.31,1.69.24.24,0,0,0,.21.12h0a.27.27,0,0,0,.22-.14c.36-.66,2.34-1.44,3.07-1.68a.25.25,0,0,0,.17-.28A.24.24,0,0,0,129.15,69.28Zm-3.22,1.64a4.38,4.38,0,0,0-1.4-1.14h3.27A6.57,6.57,0,0,0,125.93,70.92Z" transform="translate(-0.83 -6.06)"/><path class="cls-1" d="M58.84,72.77a.26.26,0,0,0,.19.41,8.15,8.15,0,0,1,2.72.64,4.83,4.83,0,0,1,3.12,3.93v0s0,0,0,0a.08.08,0,0,0,0,0s0,0,0,0,0,0,0,0,0,0,0,0h.22l0,0,0,0s0,0,0,0l0,0,0,0v0a4.81,4.81,0,0,1,3.12-3.93,8.15,8.15,0,0,1,2.72-.64.27.27,0,0,0,.22-.15.25.25,0,0,0,0-.26,8,8,0,0,0-6.28-2.51h0A8.07,8.07,0,0,0,58.84,72.77Zm6.28-2h0a8.06,8.06,0,0,1,5.53,2c-1.29.17-4.52.91-5.53,3.93-1-3-4.25-3.76-5.54-3.93A8.07,8.07,0,0,1,65.12,70.77Z" transform="translate(-0.83 -6.06)"/><path class="cls-1" d="M65.37,82.13a.25.25,0,0,0-.5,0,8.28,8.28,0,0,1-3.54,5.71.27.27,0,0,0-.12.21.26.26,0,0,0,.11.21s3,2.21,3.56,3.84a.26.26,0,0,0,.24.17.25.25,0,0,0,.24-.17c.54-1.63,3.54-3.82,3.57-3.84a.26.26,0,0,0,.11-.21.26.26,0,0,0-.12-.21A8.23,8.23,0,0,1,65.37,82.13Zm-.25,9.27a13.78,13.78,0,0,0-3.22-3.34,8.42,8.42,0,0,0,3.22-4.64,8.47,8.47,0,0,0,3.22,4.64A13.42,13.42,0,0,0,65.12,91.4Z" transform="translate(-0.83 -6.06)"/><path class="cls-1" d="M82.45,79.86a.27.27,0,0,0,0-.26c-.59-.94-2.61-1.36-3.93-.82a2,2,0,0,0-1.26,1.5,5,5,0,0,0-.35-.43,3.55,3.55,0,0,0-5-.12,2.89,2.89,0,0,0-.09,4.06,2.58,2.58,0,0,0,1.58.74,1.85,1.85,0,0,0,1.75-.61.9.9,0,0,0,.15-.43.42.42,0,0,0-.44-.42.44.44,0,0,0-.31.13.41.41,0,0,0-.11.31.42.42,0,0,0,.12.3,1.72,1.72,0,0,1-1.11.23,2.1,2.1,0,0,1-1.26-.59,2.3,2.3,0,0,1-.66-1.69,2.39,2.39,0,0,1,.74-1.66,3,3,0,0,1,4.27.1A3.86,3.86,0,0,1,77.6,83a3.68,3.68,0,0,1-.07.58c-.06.25-.1.42-.11.48a3.86,3.86,0,0,1-1,1.63,4.91,4.91,0,0,1-4.31,1.27,5.55,5.55,0,0,1-3.71-2.48A6.44,6.44,0,0,1,68.68,77a4.52,4.52,0,0,1,3.12-1.79,6.15,6.15,0,0,1,4.57,1.69.25.25,0,0,0,.41-.24A9.1,9.1,0,0,0,72.07,71a12.2,12.2,0,0,1,4.18,2.88c.15.15.31.28.46.42h0a11.06,11.06,0,0,0,2.56,1.87,6.81,6.81,0,0,0,1.14.41h0a4.76,4.76,0,0,0,2.7,0,3.61,3.61,0,0,0,2.28-4.44A2.71,2.71,0,0,0,82,70.3a2.23,2.23,0,0,0-1.48,2.78A1.84,1.84,0,0,0,82.8,74.3a1.73,1.73,0,0,0,.89-.7,1.18,1.18,0,0,0,.12-1.25.53.53,0,0,0-.25-.21.34.34,0,0,0-.28,0,.32.32,0,0,0-.18.2.37.37,0,0,0,0,.29.34.34,0,0,0,.21.18l.11,0a1.07,1.07,0,0,1-.17.48,1.16,1.16,0,0,1-.6.48A1.34,1.34,0,0,1,81,72.93a1.72,1.72,0,0,1,1.14-2.15,2.23,2.23,0,0,1,2.77,1.47,3.11,3.11,0,0,1-2,3.82,4.18,4.18,0,0,1-2.38,0c-.85-.34-1.06-1.1-1.28-1.91-.06-.23-.13-.48-.21-.71a1.85,1.85,0,0,0-1-1.15,1.21,1.21,0,0,0-1.34.3,1.35,1.35,0,0,0-.32.71c-1.65-1.51-3.53-3.15-6.13-3.15a.27.27,0,0,0-.25.21.26.26,0,0,0,.16.28,9.55,9.55,0,0,1,5.88,5.42,6.3,6.3,0,0,0-4.34-1.33,5.09,5.09,0,0,0-3.46,2,7,7,0,0,0-.32,8,6,6,0,0,0,4,2.71,5.83,5.83,0,0,0,1,.09A5.36,5.36,0,0,0,76.74,86,4.32,4.32,0,0,0,78,83.64c.31-1.11,1.35-3.71,4.2-3.64A.35.35,0,0,0,82.45,79.86ZM77.1,72.92a.7.7,0,0,1,.8-.17,1.4,1.4,0,0,1,.69.85c.08.21.14.44.21.67a5.11,5.11,0,0,0,.46,1.27A11.29,11.29,0,0,1,77,73.86.72.72,0,0,1,77.1,72.92ZM78,82.18a3.85,3.85,0,0,0-.28-1,1.53,1.53,0,0,1,.93-1.94,3.59,3.59,0,0,1,2.93.25A4.51,4.51,0,0,0,78,82.18Z" transform="translate(-0.83 -6.06)"/><path class="cls-1" d="M103.11,74.71a81.48,81.48,0,0,0-7.7,5.62l-.67.53a7,7,0,0,0,.89-4.93,7.81,7.81,0,0,0-3.49-5.23,8.48,8.48,0,0,0-2-.92h4.32c.05,0,5.21,0,5.21,3.7a.24.24,0,0,0,.21.25h0a.24.24,0,0,0,.24-.18c0-.09.63-2.26-.28-3.47a2,2,0,0,0-.28-.3h14.68a5.19,5.19,0,0,1-.8-.5H1.09a.26.26,0,0,0-.25.21.25.25,0,0,0,.17.28c.73.24,2.71,1,3.08,1.68a.26.26,0,0,0,.21.14h0a.26.26,0,0,0,.22-.13,4,4,0,0,1,3.3-1.68h1L8.5,70a3.19,3.19,0,0,0-1.58,2.5,2.76,2.76,0,0,0,2.1,3,2,2,0,0,0,.47.06A2,2,0,0,0,11.43,74a1.64,1.64,0,0,0-1.2-2,1.52,1.52,0,0,0-1,.12,1.15,1.15,0,0,0-.67.82.54.54,0,0,0,.12.45.48.48,0,1,0,.73-.63l-.1-.09a.56.56,0,0,1,.15-.1,1,1,0,0,1,.65-.09A1.15,1.15,0,0,1,11,73.85,1.51,1.51,0,0,1,9.14,75a2.25,2.25,0,0,1-1.71-2.44A2.68,2.68,0,0,1,8.77,70.4a4.65,4.65,0,0,1,2.46-.62h1c.54,0,6.28.12,14.62,5.35a82.21,82.21,0,0,1,7.65,5.58c2.74,2.18,4.91,3.9,6.61,4.21a22.85,22.85,0,0,0,2.61.19c1.66.06,3.54.12,4.56.66a.18.18,0,0,0,.12,0,.25.25,0,0,0,.19-.09.24.24,0,0,0,0-.31s-2.08-2.66-4.87-2.69a6.39,6.39,0,0,0,.59-.47,4.54,4.54,0,0,0,.15-6.41,3.7,3.7,0,0,0-5.2-.12,3.38,3.38,0,0,0-.94,2,2.35,2.35,0,0,0,.77,2.22,1.14,1.14,0,0,0,.52.18.49.49,0,0,0,.47-.5.47.47,0,0,0-.15-.34.52.52,0,0,0-.35-.14.5.5,0,0,0-.35.16s0,0,0,.06a2.28,2.28,0,0,1-.37-1.59,2.76,2.76,0,0,1,.79-1.69,3.17,3.17,0,0,1,4.48.1,4,4,0,0,1,1.11,2.87A4,4,0,0,1,44,81.87a5.09,5.09,0,0,1-7.2-.16A6.47,6.47,0,0,1,35.09,76a7.29,7.29,0,0,1,3.27-4.9A10,10,0,0,1,44,69.79H86.23a9.91,9.91,0,0,1,5.62,1.34A7.3,7.3,0,0,1,95.13,76a6.47,6.47,0,0,1-1.68,5.68,5.09,5.09,0,0,1-7.2.16,4,4,0,0,1-.13-5.68,3.17,3.17,0,0,1,4.48-.11,2.91,2.91,0,0,1,.79,1.7A2.19,2.19,0,0,1,91,79.36l0-.06a.5.5,0,0,0-.34-.15.47.47,0,0,0-.36.13.56.56,0,0,0-.15.35.5.5,0,0,0,.48.5.94.94,0,0,0,.51-.19,2.36,2.36,0,0,0,.78-2.21,3.31,3.31,0,0,0-1-2,3.68,3.68,0,0,0-5.19.12,4.53,4.53,0,0,0,.15,6.4,5.38,5.38,0,0,0,.59.48c-2.79,0-4.84,2.65-4.87,2.68a.26.26,0,0,0,0,.32.25.25,0,0,0,.31.06,12.45,12.45,0,0,1,4.55-.67,18.92,18.92,0,0,0,2.61-.19c1.71-.3,3.87-2,6.61-4.2a82,82,0,0,1,7.66-5.58,35.58,35.58,0,0,1,11.75-5,5.89,5.89,0,0,1-.84-.36A37.79,37.79,0,0,0,103.11,74.71Zm-5-4.93a1.66,1.66,0,0,1,1.42.6,2.56,2.56,0,0,1,.4,1.61,4.3,4.3,0,0,0-2.65-2.21ZM4.3,70.92a6.3,6.3,0,0,0-1.87-1.14H5.69A4.58,4.58,0,0,0,4.3,70.92Zm36,12.86h.13a5.64,5.64,0,0,0,1.84-.31h0c2.23-.81,4.19.57,5.18,1.5a20.16,20.16,0,0,0-3.76-.36,19.18,19.18,0,0,1-2.53-.18,5.62,5.62,0,0,1-1.82-.74A5.88,5.88,0,0,0,40.33,83.78Zm-8.15-14H33A4.34,4.34,0,0,0,30.35,72a2.63,2.63,0,0,1,.41-1.61A1.62,1.62,0,0,1,32.18,69.78Zm5.92.92a7.76,7.76,0,0,0-3.49,5.23,7,7,0,0,0,.89,4.93l-.68-.54a81.74,81.74,0,0,0-7.69-5.61A37.38,37.38,0,0,0,15.9,69.78H30.64a1.28,1.28,0,0,0-.28.29c-.92,1.22-.31,3.39-.28,3.48a.26.26,0,0,0,.24.18h0a.26.26,0,0,0,.22-.25,3.32,3.32,0,0,1,2.56-3.22,8.8,8.8,0,0,1,2.65-.49H40.1A8.72,8.72,0,0,0,38.1,70.7ZM89,84.42a19.18,19.18,0,0,1-2.53.18,20.16,20.16,0,0,0-3.76.36c1-.93,3-2.31,5.19-1.5h0a5.64,5.64,0,0,0,1.84.31h.13a4.73,4.73,0,0,0,.93-.1A5.76,5.76,0,0,1,89,84.42Z" transform="translate(-0.83 -6.06)"/><path class="cls-1" d="M73.44,37.37a1.73,1.73,0,0,0,.21-.17l0,0a.92.92,0,0,0,.26-1,.67.67,0,0,0-.21-.28,1.06,1.06,0,0,1-.32.68l0,0-.21.17c-.26.18-.32.24-.32.44v3.2l.27-.39V37.82C73.13,37.61,73.19,37.55,73.44,37.37Z" transform="translate(-0.83 -6.06)"/><path class="cls-1" d="M80,37.44l.31-.16c.7-.42.69-.87.63-1.1a.78.78,0,0,0-.25-.36,1.19,1.19,0,0,1-.65.83l-.31.16a2.22,2.22,0,0,0-1,.76c-.94,1.39-2,2.87-3.1,4.52.1.2.2.39.31.58C77.11,41,78.11,39.57,79,38.2A2.22,2.22,0,0,1,80,37.44Z" transform="translate(-0.83 -6.06)"/><path class="cls-1" d="M66.05,38.39c0-.84.26-1,.42-1.1a.82.82,0,0,0,.5-.93.88.88,0,0,0-.26-.45.87.87,0,0,1-.52.76c-.15.09-.41.26-.41,1.09l0,12.68c0,.17,0,.24.27.39Z" transform="translate(-0.83 -6.06)"/><path class="cls-1" d="M121.21,46.33l.43.36c.45-.76.9-1.51,1.34-2.23,2-3.26,3.51-5.83,3.59-7.85a2.41,2.41,0,0,0-.35-1.33,2.74,2.74,0,0,1,.08.7c-.08,2-1.63,4.59-3.6,7.85C122.22,44.63,121.71,45.46,121.21,46.33Z" transform="translate(-0.83 -6.06)"/><path class="cls-1" d="M117.71,59a2.51,2.51,0,0,0,2.55-2,4.14,4.14,0,0,0-.4-2.89A3.94,3.94,0,0,1,120,56.4a2.52,2.52,0,0,1-2.55,2,1.3,1.3,0,0,1-1-.51,19,19,0,0,0-.35,3.65c0,.3,0,.6,0,.88a1.9,1.9,0,0,0,.25,0c0-.09,0-.18,0-.27a19.78,19.78,0,0,1,.35-3.65A1.35,1.35,0,0,0,117.71,59Z" transform="translate(-0.83 -6.06)"/><path class="cls-1" d="M53.34,37.39a.13.13,0,0,0,.06,0v-.19c0-.23-.08-.3-.33-.48l-.22-.17-.09-.1a1,1,0,0,0,.36.73Z" transform="translate(-0.83 -6.06)"/><path class="cls-1" d="M45.94,52.19a1.94,1.94,0,0,0-.29-.68,1.9,1.9,0,0,1,.07.54,2.49,2.49,0,0,1-.09.6A1.1,1.1,0,0,0,45.94,52.19Z" transform="translate(-0.83 -6.06)"/><path class="cls-1" d="M118,41.24a2.1,2.1,0,0,0,1.86,1.58c.11-.19.22-.38.32-.57A2.39,2.39,0,0,1,118,41.24Z" transform="translate(-0.83 -6.06)"/><path class="cls-1" d="M46.19,37.47v-.14c0-.27-.09-.35-.34-.55a1.92,1.92,0,0,1-.22-.18l-.08-.08a1,1,0,0,0,.35.71l.22.18Z" transform="translate(-0.83 -6.06)"/><path class="cls-1" d="M40.68,50.62A3.85,3.85,0,0,1,40.83,52a2.39,2.39,0,0,1,.19-.48A3,3,0,0,0,40.68,50.62Z" transform="translate(-0.83 -6.06)"/><path class="cls-1" d="M52,37.4l.22-.17,0,0a1,1,0,0,0,.27-1,.72.72,0,0,0-.22-.29,1,1,0,0,1-.32.7l0,0-.22.17c-.26.19-.35.27-.35.52l-.1,13.51c0,.74.16,1,.29,1,0-.11,0-.25,0-.41l.1-13.51C51.62,37.66,51.71,37.59,52,37.4Z" transform="translate(-0.83 -6.06)"/><path class="cls-1" d="M67.85,37.4v-.22c0-.2,0-.26-.31-.44l-.21-.16-.09-.09a.94.94,0,0,0,.36.71,1.16,1.16,0,0,0,.21.16Z" transform="translate(-0.83 -6.06)"/><path class="cls-1" d="M61.43,37.37c-.07-.5-.26-.63-.39-.7a1,1,0,0,1-.24-.17.84.84,0,0,0,.51.79Z" transform="translate(-0.83 -6.06)"/><path class="cls-1" d="M91.24,47.78l-.11,0a.87.87,0,0,1-.86-.22v0a.92.92,0,0,0,1.14.87l.11,0a3.32,3.32,0,0,0,1.62-3.66,3.85,3.85,0,0,0-.38-1c0,.14.08.27.11.41A3.29,3.29,0,0,1,91.24,47.78Z" transform="translate(-0.83 -6.06)"/><path class="cls-1" d="M96,37.46l.16.12v-.11c0-.32-.13-.43-.43-.64l-.23-.18-.12-.12a1,1,0,0,0,.39.75Z" transform="translate(-0.83 -6.06)"/><path class="cls-1" d="M88.89,46.16a1.08,1.08,0,0,1,1.14,0l0,0a.87.87,0,0,0-.3-.65,1.1,1.1,0,0,0-1.14,0,2.9,2.9,0,0,0-1.25,2.78v.07a4.42,4.42,0,0,0,.44,2.4A8.42,8.42,0,0,1,87.64,49v-.08A2.9,2.9,0,0,1,88.89,46.16Z" transform="translate(-0.83 -6.06)"/><path class="cls-1" d="M94.19,40.43l-1.11,0c-.74,0-1-.39-1.56-1-.12-.15-.27-.33-.46-.54a1.89,1.89,0,0,0-1.48-.58l-2.29,0,0,3.76.27-.16,0-3,2.29,0a1.81,1.81,0,0,1,1.47.58c.19.2.34.38.47.53.51.6.82,1,1.56,1l1.1.05a1.16,1.16,0,0,0,1-.48,1.37,1.37,0,0,0,.07-1.34l-.24-.53A1.36,1.36,0,0,1,95.19,40,1.15,1.15,0,0,1,94.19,40.43Z" transform="translate(-0.83 -6.06)"/><path class="cls-1" d="M101.89,48.63l0,4.74a2.4,2.4,0,0,0,.37,1.5,3.41,3.41,0,0,1-.1-.87l0-4.74a3.83,3.83,0,0,1,.5.72A4.16,4.16,0,0,0,101.89,48.63Z" transform="translate(-0.83 -6.06)"/><path class="cls-1" d="M82.17,37.39l.06,0v-.17c0-.25-.08-.32-.33-.51l-.21-.16-.1-.1a1,1,0,0,0,.37.72Z" transform="translate(-0.83 -6.06)"/><path class="cls-1" d="M118.28,52a3.35,3.35,0,0,1,.4.33c.13-.28.26-.57.37-.83a9.2,9.2,0,0,1,1.65,2.3,8.78,8.78,0,0,0-1.92-2.93C118.62,51.22,118.45,51.61,118.28,52Z" transform="translate(-0.83 -6.06)"/><path class="cls-1" d="M102.82,38.59l-1,0,0,6.47.27,0,0-5.88,1,0a2.62,2.62,0,0,1,2.39,1.39,4.34,4.34,0,0,0-.2-.5A2.63,2.63,0,0,0,102.82,38.59Z" transform="translate(-0.83 -6.06)"/><path class="cls-1" d="M116.29,49.12l.15-.29-.7-.55a14.39,14.39,0,0,1-4.33-4.54c.82,2.19,2.73,3.7,4.6,5.17Z" transform="translate(-0.83 -6.06)"/><path class="cls-1" d="M110.73,40.79c0-.13,0-.25,0-.38a8.74,8.74,0,0,0-.5-1.32,8.79,8.79,0,0,1,.53,2.64c.13,3.09-1.38,6.46-4.4,7.13.08.22.16.46.23.71a7.47,7.47,0,0,0,.47,1.21,5.79,5.79,0,0,1-.2-.59c-.08-.25-.15-.48-.23-.7,2.87-.64,4.37-3.7,4.4-6.66A6.56,6.56,0,0,1,110.73,40.79Z" transform="translate(-0.83 -6.06)"/><path class="cls-1" d="M117.75,36.78c-1.52,0-2.23,1.75-2.23,2.94a3.49,3.49,0,0,0,.44,1.66,3.53,3.53,0,0,1-.17-1c0-1.19.71-2.94,2.24-2.94a2,2,0,0,1,1.56.64,1.37,1.37,0,0,1,.13.2,1.91,1.91,0,0,0-.41-.83A2,2,0,0,0,117.75,36.78Z" transform="translate(-0.83 -6.06)"/><path class="cls-1" d="M112.61,58.57a29.07,29.07,0,0,1,.83-3,2.85,2.85,0,0,0-.51.75A4.2,4.2,0,0,0,112.61,58.57Z" transform="translate(-0.83 -6.06)"/><path class="cls-1" d="M57.64,50.22c0,.69.16.91.29,1,0-.11,0-.23,0-.38l0-5.7c1.11,2.33,2.32,4.84,3.73,7.72l.21.44.88,0c.87,0,1.76-.06,2.64-.08l.77,0a.78.78,0,0,0,.73-.52.87.87,0,0,0-.24-.9.8.8,0,0,1,0,.27.78.78,0,0,1-.73.53h-.77l-2.64.08-.87,0-.22-.44c-1.41-2.88-2.62-5.38-3.73-7.71Z" transform="translate(-0.83 -6.06)"/><path class="cls-1" d="M24.86,59.36a.79.79,0,0,1-.52-.2.89.89,0,0,0,.12.43.77.77,0,0,0,.67.4.66.66,0,0,0,.23,0c2-.65,4-1.26,6.05-1.81a1,1,0,0,0,.66-.93.85.85,0,0,0-.28-.58,1,1,0,0,1-.65.88c-2,.55-4.05,1.17-6.06,1.82A.83.83,0,0,1,24.86,59.36Z" transform="translate(-0.83 -6.06)"/><path class="cls-1" d="M52.67,53.39a.79.79,0,0,0,.82.57l.77-.08c1-.11,2.05-.2,3.07-.29l.76-.05a.85.85,0,0,0,.75-.74.78.78,0,0,0-.27-.72v.09a.86.86,0,0,1-.75.74l-.76.06c-1,.08-2.06.17-3.07.28l-.77.08a.72.72,0,0,1-.59-.2A.57.57,0,0,0,52.67,53.39Z" transform="translate(-0.83 -6.06)"/><path class="cls-1" d="M45.17,53.78a.8.8,0,0,1,0-.15,3,3,0,0,1-1.81,1.13,2.38,2.38,0,0,1-.46,0,2.14,2.14,0,0,1-1.39-.49,1.9,1.9,0,0,1-.4-.45,2.05,2.05,0,0,0,.67,1.08,2.15,2.15,0,0,0,1.4.49,3.58,3.58,0,0,0,.45,0,3,3,0,0,0,1.81-1.14.75.75,0,0,0,0,.16.79.79,0,0,0,.72.53h.12l.77-.13c1.29-.2,2.6-.39,3.89-.55l.78-.1a.86.86,0,0,0,.72-.78.84.84,0,0,0-.27-.69v.06a.86.86,0,0,1-.72.78l-.78.1c-1.29.16-2.6.35-3.89.55l-.78.12H45.9A.79.79,0,0,1,45.17,53.78Z" transform="translate(-0.83 -6.06)"/><path class="cls-1" d="M93.49,55.46a1.5,1.5,0,0,0,1.37-.86c.36-.68.73-1.36,1.1-2.07a1.33,1.33,0,0,0,0-1.24,1.21,1.21,0,0,0-.15-.22,1.43,1.43,0,0,1-.13.83c-.38.71-.74,1.39-1.11,2.07a1.49,1.49,0,0,1-1.36.86,1.63,1.63,0,0,1-.31,0c-3.55-.65-7.18-1.17-10.76-1.54a.85.85,0,0,1-.57-.35.65.65,0,0,1-.48.21H81c-1.21-.12-2.43-.22-3.63-.3a2.61,2.61,0,0,1-1.83-1.3l-.64-1.14a.54.54,0,0,0,0-.11c-.67-1.27-1.35-2.53-2-3.78v3.4c0,.66.16.92.31,1a2.27,2.27,0,0,1,0-.41v-3.4l2,3.78,0,.11.64,1.15a2.6,2.6,0,0,0,1.83,1.29q1.81.12,3.63.3h.06a.72.72,0,0,0,.49-.2.78.78,0,0,0,.56.34c3.59.38,7.21.89,10.76,1.55Z" transform="translate(-0.83 -6.06)"/><path class="cls-1" d="M40.73,52.65v0a5,5,0,0,1-4.06,3.48A3.43,3.43,0,0,1,34,55.85a3.06,3.06,0,0,1-1.08-1.23,3.44,3.44,0,0,0,1.36,1.86,3.39,3.39,0,0,0,2.71.25,5.15,5.15,0,0,0,4-3.17A2,2,0,0,1,40.73,52.65Z" transform="translate(-0.83 -6.06)"/><path class="cls-1" d="M67.24,52.49a.8.8,0,0,0,.77.66h.75c1.24,0,2.51,0,3.76.07l.74,0a.83.83,0,0,0,.54-1.44.58.58,0,0,1,0,.18.82.82,0,0,1-.79.63l-.75,0c-1.24,0-2.51,0-3.75-.06h-.75a.78.78,0,0,1-.52-.21A.52.52,0,0,0,67.24,52.49Z" transform="translate(-0.83 -6.06)"/><path class="cls-1" d="M95.49,55.11h0a.91.91,0,0,0,.7.87c2,.42,4.08.89,6.11,1.4a.78.78,0,0,0,.89-.44.91.91,0,0,0-.2-1,.79.79,0,0,1-1,.82c-2-.51-4.07-1-6.1-1.4A.88.88,0,0,1,95.49,55.11Z" transform="translate(-0.83 -6.06)"/><path class="cls-1" d="M118.54,65.64a.82.82,0,0,1,.55.23c3.48-.5,8.23-2.75,8.23-8.92a10.13,10.13,0,0,0-1-4.39,10.15,10.15,0,0,1,.7,3.76c0,7.13-6.36,9-9.75,9a3.39,3.39,0,0,0,1.24.28Z" transform="translate(-0.83 -6.06)"/><path class="cls-1" d="M119.69,67.55a.94.94,0,0,0-.17-.88.46.46,0,0,0-.07-.07.88.88,0,0,1,0,.32,3.39,3.39,0,0,1-3.14,2.1,3.73,3.73,0,0,1-3.47-2,3.77,3.77,0,0,0,3.75,2.65A3.39,3.39,0,0,0,119.69,67.55Z" transform="translate(-0.83 -6.06)"/><path class="cls-1" d="M107.8,58.89a5.46,5.46,0,0,0,1.36.26q-.07-.32-.12-.63a5.15,5.15,0,0,1-1.52-.26,5,5,0,0,1-3.28-2.76A5.13,5.13,0,0,0,107.8,58.89Z" transform="translate(-0.83 -6.06)"/><path class="cls-1" d="M112.1,64.15c0-.14,0-.27,0-.42a7.77,7.77,0,0,1-2.3-2.82A8,8,0,0,0,112.1,64.15Z" transform="translate(-0.83 -6.06)"/><path class="cls-1" d="M5,42.11a5.21,5.21,0,0,0,.46,3,5.94,5.94,0,0,1-.18-2.4c.28-2.61,2-5.65,5.9-5.65a5.45,5.45,0,0,1,1.36.16,6.88,6.88,0,0,1,1-.15,5.41,5.41,0,0,0-2.62-.64C7,36.46,5.25,39.5,5,42.11Z" transform="translate(-0.83 -6.06)"/><path class="cls-1" d="M8.66,61.06a2.89,2.89,0,0,1,1.78.67,6.72,6.72,0,0,0,2.35,1.06,5.13,5.13,0,0,0,.85-.48,6.38,6.38,0,0,1-3.47-1.21,2.89,2.89,0,0,0-1.78-.67.76.76,0,0,1-.52-.21.76.76,0,0,0,0,.21A.8.8,0,0,0,8.66,61.06Z" transform="translate(-0.83 -6.06)"/><path class="cls-1" d="M31.08,39.29l1,0a2.53,2.53,0,0,1,2.39,1.18,2.46,2.46,0,0,0-2.66-1.8l-1,0,0,6.8.28,0Z" transform="translate(-0.83 -6.06)"/><path class="cls-1" d="M15.17,38.43a1.54,1.54,0,0,1-.76.73l-.12.08c-.38.23-.82,1-.82,3.51v8l.27.11V43.38c0-2.5.45-3.29.82-3.52l.13-.08a1.5,1.5,0,0,0,.75-.72,9,9,0,0,1,1.27,1.85c.1.19.2.39.29.59-.17-.42-.36-.83-.56-1.21A9.47,9.47,0,0,0,15.17,38.43Z" transform="translate(-0.83 -6.06)"/><path class="cls-1" d="M15.67,59.18l0,0a1.06,1.06,0,0,1-1,0l-.09-.05-.07-.07,0-.06a1.06,1.06,0,0,0,.32.68l.08.08.09.05a1,1,0,0,0,.89,0,15.77,15.77,0,0,0,1.58-3.77,2,2,0,0,0,0-.35A5.47,5.47,0,0,0,16.86,54a5,5,0,0,1,.27,1.13C17.34,56.83,16.73,58.54,15.67,59.18Z" transform="translate(-0.83 -6.06)"/><path class="cls-1" d="M30.75,54.45c0,.91.17,1.19.31,1.3a4.14,4.14,0,0,1,0-.67l0-5.33.1,0a2.08,2.08,0,0,1,.5.65,2.85,2.85,0,0,0-.78-1.28l-.1,0Z" transform="translate(-0.83 -6.06)"/><path class="cls-1" d="M24.69,36.93l-.25-.22-.08-.09a1.19,1.19,0,0,0,.35.72l.25.22.17.16A1,1,0,0,0,24.69,36.93Z" transform="translate(-0.83 -6.06)"/><path class="cls-1" d="M8.5,55.5v-.73A4.09,4.09,0,0,0,5.64,59.1a4.48,4.48,0,0,0,.49,1.61,4.18,4.18,0,0,1-.21-1A4,4,0,0,1,8.5,55.5Z" transform="translate(-0.83 -6.06)"/><path class="cls-1" d="M11.05,66.79c8.48,0,13.55-8.85,13.55-17.4A18.87,18.87,0,0,0,23,41.51a19.22,19.22,0,0,1,1.34,7.25c0,8.55-5.07,17.4-13.55,17.4-4.51,0-7.3-2-8.54-4.56C3.31,64.43,6.17,66.79,11.05,66.79Z" transform="translate(-0.83 -6.06)"/><path class="cls-1" d="M14.15,56.52a2.62,2.62,0,0,0-.69-1.17v1.26A6.27,6.27,0,0,0,14,59.87a9.57,9.57,0,0,1-.28-2.63V56A2.63,2.63,0,0,1,14.15,56.52Z" transform="translate(-0.83 -6.06)"/><path class="cls-1" d="M35.22,48.07c.08.2.17.41.24.64a5.68,5.68,0,0,0,.26.6,4.84,4.84,0,0,0-.24-.61,7.83,7.83,0,0,0,4.42-8.14,5.89,5.89,0,0,0-.55-1.66,5.77,5.77,0,0,1,.27,1A7.81,7.81,0,0,1,35.22,48.07Z" transform="translate(-0.83 -6.06)"/><path class="cls-1" d="M1.41,45.9A4.22,4.22,0,0,0,5.28,49,1.9,1.9,0,0,0,7.2,47.69a.92.92,0,0,0-.07-.76A1,1,0,0,0,7,46.69a1.28,1.28,0,0,1-.05.38A1.9,1.9,0,0,1,5,48.33,4.06,4.06,0,0,1,1.41,45.9Z" transform="translate(-0.83 -6.06)"/><path class="cls-1" d="M8.48,41.27c-.07-.49-.25-.63-.38-.7a.87.87,0,0,1-.23-.16.88.88,0,0,0,.51.79Z" transform="translate(-0.83 -6.06)"/><path class="cls-1" d="M128.48,34.64a5.71,5.71,0,0,1-.94,2.36h-.47l.16.25h.55A5.06,5.06,0,0,0,128.48,34.64Z" transform="translate(-0.83 -6.06)"/><path class="cls-1" d="M49.31,61.33A1.58,1.58,0,0,0,51,63a1.49,1.49,0,0,0,1.57-1h.07c0,.58-.11,1.55-.15,2.12-.05-.07-.15-.1-.31-.1a13.36,13.36,0,0,1-1.42.18,2.85,2.85,0,1,1,0-5.69,12.7,12.7,0,0,1,1.42.19.37.37,0,0,0,.31-.11c0,.58.11,1.55.15,2.13h-.07a1.48,1.48,0,0,0-1.57-1,1.58,1.58,0,0,0-1.66,1.66Z" transform="translate(-0.83 -6.06)"/><path class="cls-1" d="M59.5,64.06H57.35v0a.54.54,0,0,0,.33-.57V61.56l-1.83,1.06v.83a.55.55,0,0,0,.33.57v0H54v0a.54.54,0,0,0,.33-.57V59.19a.55.55,0,0,0-.33-.57v0h2.15v0a.55.55,0,0,0-.33.57v2.17l1.83-1V59.19a.55.55,0,0,0-.33-.57v0H59.5v0a.55.55,0,0,0-.33.57v4.25a.54.54,0,0,0,.33.57Z" transform="translate(-0.83 -6.06)"/><path class="cls-1" d="M60.8,61.32a3,3,0,1,1,3,2.87A2.79,2.79,0,0,1,60.8,61.32Zm1.55,0a1.48,1.48,0,1,0,1.47-1.63A1.49,1.49,0,0,0,62.35,61.32Z" transform="translate(-0.83 -6.06)"/><path class="cls-1" d="M70.28,64.06H68.14v0a.54.54,0,0,0,.33-.57V59.19a.55.55,0,0,0-.33-.57v0h2.14v0a.55.55,0,0,0-.33.57v4.25a.54.54,0,0,0,.33.57Z" transform="translate(-0.83 -6.06)"/><path class="cls-1" d="M73.12,61.33A1.57,1.57,0,0,0,74.78,63a1.5,1.5,0,0,0,1.57-1h.07c0,.58-.11,1.55-.15,2.12A.4.4,0,0,0,76,64a13,13,0,0,1-1.42.18,2.85,2.85,0,1,1,0-5.69,12.7,12.7,0,0,1,1.42.19.4.4,0,0,0,.32-.11c0,.58.1,1.55.15,2.13h-.07a1.49,1.49,0,0,0-1.57-1,1.57,1.57,0,0,0-1.66,1.66Z" transform="translate(-0.83 -6.06)"/><path class="cls-1" d="M79.65,59.76v1h1.89a.56.56,0,0,0,.58-.33h0V62.2h0a.55.55,0,0,0-.58-.33H79.65v1h2.19a.55.55,0,0,0,.57-.33h0l-.22,1.51h-4.4v0a.55.55,0,0,0,.33-.58V59.19a.56.56,0,0,0-.33-.58v0h4.4l.22,1.51h0a.54.54,0,0,0-.57-.33H79.65Z" transform="translate(-0.83 -6.06)"/><path class="cls-1" d="M80.87,52a3.78,3.78,0,0,1-1.66-1.85Q77.07,46,74.93,42.05c1.1-1.59,2.21-3.2,3.31-4.84a3.45,3.45,0,0,1,1.49-1.1c.37-.23.41-.42.28-.42H76.1c-.13,0-.39.19-.29.42s.46.42,0,1.09Q74,39.81,72.23,42.38c0-1.73,0-3.46,0-5.19,0-.67.48-.86.74-1.09s.13-.41,0-.41H67.74c-.13,0-.26.19,0,.41s.74.42.74,1.08V49.83c0,1.18-.45,1.5-.74,1.66s-.13.41,0,.41h.75c1.25,0,2.51,0,3.77.07L73,52c.13,0,.29-.27,0-.41s-.75-.51-.75-1.68c0-1.33,0-2.66,0-4l.59-.84c.87,1.63,1.74,3.26,2.61,4.92l.1.2h0l.08.18h0c.23.49.93,1.78,1.83,1.84,1.21.08,2.42.18,3.64.29C81.22,52.5,81.23,52.2,80.87,52ZM70.41,46.59l0,1.43c0,.48,0,.95-.09,1.43,0-.47-.07-1-.12-1.43l-.07-1.42c0-1,0-1.91-.07-2.86s0-1.91,0-2.86.06-1.9.13-2.86c.1,1,.15,1.91.19,2.86s.06,1.91.07,2.86S70.44,45.63,70.41,46.59Z" transform="translate(-0.83 -6.06)"/><path class="cls-1" d="M65.91,36.1a.22.22,0,0,0,0-.42H61.32a.22.22,0,0,0,0,.42c.3.16.76.48.76,1.66l0,8.36c-1.66-3.43-3.31-6.89-5-10.44H53.27c-.14,0-.27.2,0,.44s.76.43.76,1.13l-.09,13.21c0,1.23-.48,1.61-.78,1.8s-.14.45,0,.44l.77-.08c1-.11,2.06-.2,3.08-.28l.77-.06a.21.21,0,0,0,0-.42c-.29-.14-.76-.43-.76-1.64,0-2.82,0-5.63,0-8.46,1.64,3.48,3.29,6.89,5,10.27l0-.11V52c1,0,2.06-.08,3.08-.1l.78,0c.13,0,.26-.19,0-.41s-.78-.4-.78-1.07q0-6.34,0-12.68C65.15,36.58,65.61,36.26,65.91,36.1ZM55.79,47.91c0,.86-.07,1.73-.15,2.6-.07-.87-.12-1.74-.15-2.6s-.05-1.74-.06-2.61c0-1.73,0-3.46.13-5.2h0c0-.39,0-.78,0-1.17.06.39.11.77.16,1.15h0c.1,1.73.13,3.46.12,5.2C55.84,46.18,55.83,47,55.79,47.91Zm7.88-1.42-.06,1.32c0,.44,0,.88-.1,1.33,0-.45-.07-.89-.1-1.33l-.06-1.32c0-.89,0-1.77-.05-2.65s0-1.77.05-2.66.08-1.76.16-2.65c.09.89.13,1.77.16,2.65s0,1.77,0,2.66S63.71,45.6,63.67,46.49Z" transform="translate(-0.83 -6.06)"/><path class="cls-1" d="M94.62,50.58l-1.1-.17c-.63-.09-.69.19-1.53,1a2.2,2.2,0,0,1-1.95.63l-1.51-.21c-1.73-.24-1.78-2.12-1.79-3.49v-.07c0-4.54,4.57-4.4,3.88-1.42a.29.29,0,0,0,.1.27.23.23,0,0,0,.26.06,2.79,2.79,0,0,0-1.34-5.16,3,3,0,0,0-2.93,1.52l0-6,2.94,0a2.44,2.44,0,0,1,1.93.79c.89,1,1,1.29,1.58,1.31l1.11.05c.42,0,.71-.38.48-.94l-1.16-2.52a1.14,1.14,0,0,0-1.05-.65H82.11c-.13,0-.26.2,0,.43s.75.44.76,1.14c0,4.43.06,8.85.09,13.29,0,1.23-.45,1.52-.75,1.65a.22.22,0,0,0,0,.43q5.42.55,10.81,1.55a.88.88,0,0,0,1-.5l1.09-2.06A.71.71,0,0,0,94.62,50.58ZM85,47.11c0,1-.08,2-.16,3-.09-1-.13-2-.16-3s0-2-.05-3,0-2,0-3,.07-2,.16-3l-.09-.12.11.1h0c.08,1,.12,2,.16,3s0,2,0,3S85,46.12,85,47.11Z" transform="translate(-0.83 -6.06)"/><path class="cls-1" d="M51.5,36.12c.24-.24.14-.43,0-.44H46.07c-.14,0-.27.22,0,.46s.77.45.76,1.19q0,7-.11,13.94a2.11,2.11,0,0,1-.79,1.95c-.3.19-.13.48,0,.45l.78-.12c1.3-.2,2.6-.39,3.91-.55l.77-.1c.14,0,.31-.34,0-.43s-.77-.42-.76-1.67q0-6.76.1-13.52C50.73,36.57,51.23,36.36,51.5,36.12ZM49,47.45l0,1.53c0,.5-.06,1-.11,1.52,0-.51-.06-1-.1-1.52l-.06-1.53c0-1,0-2,0-3s0-2,0-3,.08-2,.16-3c.09,1,.13,2,.16,3s.05,2,.05,3S49,46.44,49,47.45Z" transform="translate(-0.83 -6.06)"/><path class="cls-1" d="M39.29,49.72a.49.49,0,0,0-.65.29c-.35,1-2.62,2.12-3.78-1.09a11.41,11.41,0,0,0-.48-1.16c6.27-2.46,6.7-11.88-1.15-12.07H24.89c-.15,0-.3.27,0,.59a1.81,1.81,0,0,1,.88,1.51q0,8.9,0,17.8a3.28,3.28,0,0,1-.86,2.6c-.34.28-.15.59,0,.54q3-1,6.08-1.82c.15,0,.34-.43,0-.5s-.86-.39-.86-2c0-2,0-3.9,0-5.86l.87-.14c2.6,1.51.72,8.22,5.52,7C40.88,54.48,40.77,50.61,39.29,49.72ZM28,51.39c0,1.2-.07,2.41-.15,3.62-.08-1.21-.13-2.42-.16-3.62s-.05-2.41-.05-3.62,0-2.41,0-3.62.05-2.41.11-3.62h0c0-.42,0-.85,0-1.27.06.42.1.83.15,1.26h0c.06,1.21.08,2.41.11,3.62s0,2.41,0,3.62S28,50.18,28,51.39Zm8.3-13.21a4.78,4.78,0,0,1-.19,6.21,6.93,6.93,0,0,0,.19-6.21ZM31.59,46l-1.44.19,0-8.13,1.64,0C36.76,37.93,36.1,45.32,31.59,46Zm5.25,7.46a1.76,1.76,0,0,1-2-.38,1.33,1.33,0,0,1-.41-.92,2.22,2.22,0,0,0,.62.67,2.14,2.14,0,0,0,.78.33,2,2,0,0,0,.85,0,4.11,4.11,0,0,0,.87-.34A1.78,1.78,0,0,1,36.84,53.45Z" transform="translate(-0.83 -6.06)"/><path class="cls-1" d="M43.24,50.56a2.22,2.22,0,0,0-1.88,2.09,1.49,1.49,0,0,0,1.85,1.49A2.33,2.33,0,0,0,45.09,52,1.52,1.52,0,0,0,43.24,50.56Z" transform="translate(-0.83 -6.06)"/><path class="cls-1" d="M110.3,52.81a0,0,0,1,0,0,0,3.12,3.12,0,0,1-1.62.27c-.83-.1-1.94-1-2.66-3.3-.15-.53-.34-1-.49-1.39,6.22-.34,6.58-12.89-1.27-12.66H95.89c-.15,0-.3.22,0,.48s.88.5.88,1.29c0,5,.08,10,.11,15,0,1.4-.51,1.67-.85,1.79s-.15.42,0,.45q3.08.63,6.14,1.41c.15,0,.34-.24,0-.49a2.59,2.59,0,0,1-.88-2.27l0-5.1.8-.36c2.72,2.31.83,8.35,5.65,9.74a5.2,5.2,0,0,0,1.05.22A6.13,6.13,0,0,1,110.3,52.81Zm-3-14.29a6,6,0,0,1,.92,3.27,6,6,0,0,1-.94,3.25,10.67,10.67,0,0,0,0-6.52ZM99.13,49l-.06,1.75c0,.59,0,1.17-.1,1.76,0-.59-.07-1.17-.1-1.76L98.81,49c0-1.18,0-2.35,0-3.52s0-2.34,0-3.51.07-2.34.16-3.51c.08,1.17.13,2.34.16,3.51s0,2.34.05,3.51S99.17,47.8,99.13,49Zm3.55-3.22-1.44-.17q0-3.84,0-7.68l1.64,0C107.78,38,107.19,46.45,102.68,45.76Z" transform="translate(-0.83 -6.06)"/><path class="cls-1" d="M120.39,46.48C123,42,125.58,38.37,125.67,36A1.94,1.94,0,0,0,123.81,34a1.6,1.6,0,0,0-1.55.74.33.33,0,0,0,0,.29.35.35,0,0,0,.22.25A.71.71,0,0,1,123,36a6.69,6.69,0,0,1-.22,1.87c-.52-1.64-2.16-3.16-5.12-3.16-3.64,0-6.31,1.74-6.31,6.06,0,3.73,3.09,5.59,5.89,7.88-.51,1-1.06,2-1.54,3.06a2.58,2.58,0,0,0-.48,0c-6.6,0-7.34,8.4-2.52,11.71,0,4.45,2.22,5,3.58,5a2.78,2.78,0,0,0,2.54-1.67.32.32,0,0,0-.06-.29.33.33,0,0,0-.26-.16,2.73,2.73,0,0,1-2.67-1.64,9.44,9.44,0,0,0,1.45.1c2.73,0,9.14-1.48,9.14-8.4C126.41,51.66,123.36,48.86,120.39,46.48Zm-7.54-6.58a3.57,3.57,0,0,1,1.23-2.83,4.8,4.8,0,0,0,.17,5.58A3.58,3.58,0,0,1,112.85,39.9Zm2-.18c0-1.64,1-3.57,2.86-3.57,3.1,0,3.26,3.93,1.75,3.93a2,2,0,0,1-.74-.07.31.31,0,0,0-.36.07.35.35,0,0,0-.1.35c.26,1,1,1.2,1.9,1.2a3.13,3.13,0,0,0,1.1-.19c-.64,1.25-1.42,2.6-2.22,4C116.82,43.62,114.89,42,114.89,39.72ZM112.83,61c-1.64-2.48-.93-6.31,1.71-6.63A27.28,27.28,0,0,0,112.83,61Zm2-8.08a4.2,4.2,0,0,0-2.21.8,2.34,2.34,0,0,1,.93-.86,3,3,0,0,1,1.25-.36,3.11,3.11,0,0,1,1.28.18,2.47,2.47,0,0,1,1,.73A4.07,4.07,0,0,0,114.82,53ZM117,63.09a5.65,5.65,0,0,1-1.48-.19c0-.42-.06-.9-.06-1.39a21.25,21.25,0,0,1,1.13-6.69c1,.71,1.09,2,.45,2.25a.2.2,0,0,0-.13.16.21.21,0,0,0,0,.19.69.69,0,0,0,.58.32c2.67,0,2.74-4,.06-5.5.32-.81.71-1.64,1.1-2.45a9.06,9.06,0,0,1,3.25,6.92C121.84,60.12,120.33,63.09,117,63.09Zm7-9.7a8.36,8.36,0,0,1,.55,3.09,8.58,8.58,0,0,1-.6,3.09,10.76,10.76,0,0,1-.7,1.4,8,8,0,0,1-1,1.22,11,11,0,0,0,.77-1.33,8.66,8.66,0,0,0,.57-1.41,10,10,0,0,0,.49-3,9.83,9.83,0,0,0-.43-3,10.54,10.54,0,0,0-1.3-2.76,8.11,8.11,0,0,1,.93,1.25A9.1,9.1,0,0,1,123.93,53.39Z" transform="translate(-0.83 -6.06)"/><path class="cls-1" d="M10.77,34C-.81,34-.52,47.7,5,47.7a1.26,1.26,0,0,0,1.32-.83.33.33,0,0,0,0-.29.22.22,0,0,0-.22-.16C3,45.75,3.5,35.83,10.87,35.83c11.38,0,10.22,28,0,28C3.76,63.83,3,55.14,9.13,54v3.76c0,1.2-.45,1.52-.74,1.64a.24.24,0,0,0,0,.46c2.19,0,2.25,1.89,5.89,1.89.26,0,.32-.22.32-.38S14.44,61,14,60.7c-1.07-.64-1.13-2.86-1.13-4.08V54.2a3.49,3.49,0,0,1,2,4.09.43.43,0,0,0,.13.36.45.45,0,0,0,.39,0c1.64-1,2.22-6.06-2.51-7.47V42.75c0-1.19.06-3.41,1.13-4.06.48-.28.64-.35.64-.64a.33.33,0,0,0-.32-.36c-3.63,0-3.7,1.9-5.89,1.9a.22.22,0,0,0,0,.42c.29.16.74.49.74,1.68v9.14c-9.33.83-10,14.71,1.64,14.71C26.48,65.53,29.47,34,10.77,34Zm.33,12.64.06-1.87c0-.62.06-1.24.1-1.86.05.62.07,1.24.11,1.86l.05,1.87c0,1.24.05,2.48.05,3.72s0,2.49-.05,3.73-.07,2.48-.16,3.72c-.08-1.24-.12-2.48-.16-3.72s0-2.49,0-3.73S11.07,47.91,11.1,46.67Zm10.21-1.49a21,21,0,0,1,.38,4.88,21.35,21.35,0,0,1-.78,4.84l-.38,1.16-.45,1.14-.52,1.1L19,59.37l.49-1.11.44-1.14L20.28,56l.32-1.16A22.68,22.68,0,0,0,21.28,50,22.87,22.87,0,0,0,21,45.22a23.22,23.22,0,0,0-1.26-4.67A18.76,18.76,0,0,1,21.31,45.18Z" transform="translate(-0.83 -6.06)"/><path class="cls-1" d="M128.15,33.8c-.29-.76-1.42-.45-2.07-.2a.28.28,0,0,0-.09.46c.39.37,1.23.77,1,2.73h.37S128.56,34.87,128.15,33.8Z" transform="translate(-0.83 -6.06)"/></svg>