<?xml version="1.0" encoding="utf-8"?>
<!-- Generator: Adobe Illustrator 24.2.3, SVG Export Plug-In . SVG Version: 6.00 Build 0)  -->
<svg version="1.1" id="_x3C_Layer_x3E_" xmlns="http://www.w3.org/2000/svg" xmlns:xlink="http://www.w3.org/1999/xlink" x="0px"
	 y="0px" viewBox="0 0 190.5 144" style="enable-background:new 0 0 190.5 144;" xml:space="preserve">
<style type="text/css">
	.st0{fill:#FFFFFF;stroke:#FFFFFF;stroke-width:0.187;}
	.st1{fill:none;}
	.st2{fill:none;stroke:#FFFFFF;stroke-width:2.244;stroke-linecap:round;stroke-linejoin:round;}
	.st3{fill:#FFFFFF;}
</style>
<g>
	<g>
		<path class="st0" d="M134.07,29.79c-0.23-0.02-0.45-0.02-0.66-0.03c-0.28-0.01-0.55-0.02-0.77-0.05
			c-5.75-0.98-10.74-0.66-14.81,0.96c-1.68,0.67-3.19,1.56-4.53,2.66c-1.98,1.64-3.58,3.74-4.76,6.3c0.84-2.82,0.86-5.93,0.18-8.6
			c-2.12-5.69-6.97-10.11-13.3-12.14c-0.22-0.07-0.56-0.22-0.95-0.38c-0.46-0.2-0.98-0.42-1.44-0.58c-0.16-0.06-0.41,0.01-0.58,0.15
			c-0.08,0.07-0.2,0.2-0.16,0.39c0.07,0.45-0.17,1.03-0.5,1.84c-0.25,0.6-0.55,1.34-0.82,2.25c-1.59,4.41-1.53,9.26,0.2,14.82
			c2.22,5.51,6.68,8.41,10.03,9.88l0.08,0.03l0,0.09c-0.07,2.39-0.45,4.03-1.01,6.2c-0.04,0.14-0.03,0.44,0.04,0.57
			c0.07,0.13,0.31,0.31,0.43,0.39c0.12,0.08,0.21,0.13,0.3,0.12c0.07,0.1,0.34,0.2,0.52,0.23c0.12,0.02,0.36,0.09,0.47,0.08
			c0.2-0.02,0.42-0.25,0.48-0.35c1.47-2.29,3.16-4.99,5.59-7.06l0.11-0.1l0.08,0.13c1.41,2.18,4.7,2.76,7.21,2.86
			c3.28,0.13,8.47-1.73,12.06-5.55c0.53-0.56,4.76-4.99,6.85-12.44l0,0.02c0.07-0.39,0.27-0.65,0.44-0.88
			c0.18-0.25,0.34-0.46,0.34-0.79C135.2,30.29,134.68,29.83,134.07,29.79z M92.83,36.77c-1.6-3.65-1.79-7.76-0.6-12.93
			c0.31-1.3,1.01-2.76,1.52-3.83l0.06-0.12l0.04-0.09l0.1,0.02c0.04,0.01,0.09,0.04,0.33,0.16c0.07,0.04,0.16,0.08,0.18,0.09
			l0.02,0.01l0.01,0.01c0.06,0.04,0.11,0.07,0.16,0.09c6.15,2.25,10.27,6.11,12.24,11.48c0.76,2.06,0.83,4.39,0.21,6.92
			c-0.59,2.39-2.13,4.48-3.37,6.16l-0.25,0.33l0.02-0.42c0.07-1.63-0.03-3.22-0.3-4.74l-0.23-1.31c-0.33-1.93-0.64-3.76-1.39-5.62
			c-0.93-2.32-2.13-3.97-3.88-6.04c-0.15-0.2-0.3-0.24-0.38-0.2c-0.03,0.01-0.05,0.04-0.04,0.07c1.32,3.14,2.46,6.61,3.3,10.02
			c0.65,2.65,0.85,5.3,0.96,8.46l0.01,0.23l-0.2-0.12C97.52,43.17,94.9,41.03,92.83,36.77z M107.38,45.5
			c-1.95,1.87-3.58,3.57-4.89,5.89c0.57-1.66,0.96-3.28,1.16-4.98l0.01-0.06l0.05-0.03c1.8-1.08,3.11-2.65,3.99-4.44
			c-0.37,1.24-0.46,2.4-0.28,3.52l0.01,0.06L107.38,45.5z M133.15,32.23c-0.05,0.12-0.1,0.23-0.13,0.31
			c-1.7,4.67-2.97,7.23-6.5,11.01c-1.74,1.87-3.83,3.32-6.03,4.2c-2.39,0.95-4.82,1.23-7.22,0.81c-1.67-0.28-2.99-1.13-3.52-2.28
			l-0.04-0.09l0.08-0.06c4.86-4.02,10.9-7.49,16.22-10.54c0,0,0.12-0.07,0.17-0.1c-0.08-0.03-0.3-0.03-0.94,0.11l-0.03,0.01
			c-4.28,0.97-10.57,4.13-15.28,7.69c-0.07,0.05-0.14,0.11-0.21,0.16l-0.12,0.09l-0.19,0.15l-0.02-0.24
			c-0.01-0.16-0.02-0.32-0.02-0.48c-0.01-1.14,0.46-2.1,0.93-3.02l0.21-0.42c3.44-7.01,10.47-9.92,20.89-8.65
			c0.01,0,0.07,0,0.12-0.01c0.58-0.04,1.29-0.08,1.66,0.01c0.1,0.03,0.18,0.08,0.23,0.17C133.53,31.35,133.33,31.82,133.15,32.23z"
			/>
	</g>
	<g>
		<path class="st1" d="M103.74,46.33l-0.05,0.03l-0.01,0.06c-0.2,1.67-0.58,3.26-1.14,4.88c1.29-2.27,2.88-3.94,4.8-5.77l0.04-0.04
			l-0.01-0.06c-0.17-1.1-0.08-2.23,0.28-3.45C106.78,43.73,105.5,45.27,103.74,46.33z"/>
		<path class="st1" d="M131.86,38.79c-1.92,3.6-3.94,5.72-4.3,6.1c-3.59,3.82-8.78,5.69-12.06,5.55c-2.51-0.1-5.81-0.68-7.21-2.86
			l-0.08-0.13l-0.11,0.1c-2.43,2.06-4.12,4.76-5.59,7.06c-0.06,0.1-0.28,0.33-0.48,0.35c-0.11,0.01-0.36-0.05-0.47-0.08
			c-0.18-0.03-0.45-0.13-0.52-0.23c-0.09,0.01-0.17-0.04-0.3-0.12c-0.13-0.08-0.36-0.26-0.43-0.39c-0.07-0.13-0.08-0.43-0.04-0.57
			c0.56-2.18,0.94-3.82,1.01-6.2l0-0.09l-0.08-0.03c-3.35-1.46-7.81-4.37-10.03-9.88c-0.42-1.35-0.74-2.66-0.96-3.93
			c-46.12,0-66.67,25.23-73.65,34.26L27.18,125c20.37-6.49,49.75-9.45,68.77-9.45c23.17,0,49.56,3.65,67.72,9.33l10.11-56.43
			C172.49,65.16,160.3,47.47,131.86,38.79z"/>
		<path class="st1" d="M112.17,34.37c-0.98-0.13-1.98-0.24-3-0.35c0.11,1.86-0.09,3.79-0.63,5.61
			C109.49,37.59,110.7,35.83,112.17,34.37z"/>
	</g>
	<g>
		<path class="st2" d="M113.95,33.46c-0.65-0.09-1.11-0.15-1.78-0.23c-0.93-0.12-1.86-0.23-2.81-0.32
			c-0.44-0.05-0.46-0.07-0.89-0.14"/>
		<path class="st2" d="M90.29,32.32c-0.27,0.01-0.53,0.02-0.8,0.03C35.25,34.7,15.38,67.47,15.38,67.47l10.94,58.98
			c19.07-6.32,48.84-9.79,69.64-9.79c23.93,0,50.78,3.88,68.6,9.67l10.41-58.12c0,0-11.89-20.25-42.33-30.39"/>
	</g>
	<g>
		<g>
			<g>
				<path class="st3" d="M152.71,97.45c-0.02-0.04-0.05-0.08-0.06-0.11c-0.05-0.1-0.13-0.17-0.24-0.2c-0.14-0.04-0.3-0.25-0.37-0.42
					c-0.03-0.07-0.08-0.13-0.15-0.18c-0.51-0.33-0.91-0.06-1.11,0.07c-0.01,0.01-0.02,0.01-0.03,0.02c0,0,0,0,0,0c0,0,0,0,0,0
					c0-0.15-0.09-0.3-0.24-0.37c-0.24-0.11-0.41-0.3-0.61-0.52c-0.18-0.2-0.38-0.43-0.66-0.6c-0.11-0.06-0.21-0.12-0.3-0.16
					c-0.15-0.08-0.29-0.15-0.38-0.24c-0.05-0.05-0.11-0.08-0.17-0.1c-0.1-0.03-0.23-0.09-0.37-0.15c-0.35-0.16-0.79-0.35-1.29-0.35
					c-0.08-0.02-0.29-0.07-0.28-0.06c-0.35-0.09-0.68-0.05-0.94-0.01c-0.16,0.02-0.32,0.04-0.41,0.02c-0.05-0.01-0.1-0.01-0.15,0
					l-0.35,0.05c-0.88,0.13-1.78,0.26-2.62,0.72c-0.88,0.39-3.01,1.34-2.95,3.32c0,0.03,0,0.05,0.01,0.08
					c0.03,0.12,0.04,0.22,0.05,0.34c0.03,0.3,0.07,0.64,0.36,0.99c0.06,0.13,0.19,0.38,0.22,0.49c0.02,0.08,0.07,0.15,0.14,0.2
					c0.09,0.08,0.13,0.14,0.18,0.24c0.05,0.11,0.13,0.25,0.28,0.37c0.09,0.17,0.22,0.31,0.34,0.43c0.1,0.11,0.21,0.22,0.23,0.3
					c0.01,0.04,0.04,0.08,0.06,0.12c0.33,0.44,0.68,0.83,1.13,1.24c0.12,0.18,0.25,0.36,0.37,0.53c0.42,0.58,0.81,1.13,0.93,1.76
					c0.15,1.1-0.56,1.99-1.33,2.38c-0.02,0.01-0.04,0.02-0.06,0.04c-0.31,0.24-0.98,0.5-1.37,0.55c-0.02,0-0.05,0.01-0.07,0.02
					c-0.36,0.11-0.81,0.14-1.29,0.17c-0.36,0.03-0.73,0.06-1.09,0.12c-0.27-0.09-0.56-0.12-0.84-0.16c-0.76-0.1-1.08-0.18-1.17-0.61
					c-0.01-0.07-0.05-0.14-0.1-0.2c-0.27-0.29-0.26-0.66-0.23-0.85c0-0.03,0-0.05,0-0.08c-0.02-0.42,0.16-0.82,0.34-1.23
					c0.05-0.11,0.1-0.22,0.15-0.33c0.03-0.06,0.03-0.12,0.03-0.18c-0.02-0.27-0.25-0.58-0.58-0.59c-0.05,0-0.1,0-0.14,0.02
					c-0.62,0.2-0.93,0.88-1.01,1.43c-0.03,0.08-0.06,0.15-0.09,0.23c-0.12,0.3-0.26,0.64-0.2,1.03c-0.21,0.75-0.06,1.4,0.12,1.99
					c0.01,0.02,0.01,0.03,0.02,0.05c0.33,0.73,0.91,1.26,1.72,1.57c0.42,0.27,0.97,0.41,1.42,0.52c0.16,0.04,0.31,0.07,0.42,0.11
					c0.54,0.22,1.3,0.35,1.82,0.31c0.31,0.05,0.83,0.08,1.27,0.06c0.06,0,0.15,0.01,0.24,0.01c0.31,0.02,0.65,0.03,0.97-0.09
					l0.18-0.02c0.66-0.08,1.4-0.16,1.86-0.36c0.62-0.05,1.25-0.27,1.8-0.61c0.49-0.12,0.77-0.48,1.04-0.83
					c0.1-0.13,0.2-0.26,0.31-0.38c0.04-0.04,0.07-0.09,0.09-0.15c0.01-0.03,0.02-0.06,0.03-0.1c0.07-0.2,0.15-0.47,0.17-0.81
					c0.32-1.07-0.29-2.04-0.79-2.82c-0.24-0.52-0.62-0.91-0.98-1.28c-0.29-0.3-0.56-0.57-0.75-0.9c-0.03-0.05-0.06-0.09-0.11-0.12
					c-0.59-0.45-1.1-1-1.64-1.59l-0.12-0.12c-0.04-0.04-0.08-0.07-0.13-0.09c-0.27-0.12-0.38-0.37-0.53-0.76
					c-0.05-0.12-0.1-0.25-0.17-0.37c0-0.13-0.03-0.25-0.06-0.36c-0.01-0.04-0.02-0.09-0.03-0.13c0.06-0.04,0.11-0.1,0.13-0.16
					c0.37-0.86,1.34-1.13,2.36-1.41c0.28-0.08,0.57-0.16,0.85-0.25c0.1,0.05,0.22,0.06,0.33,0.02c0.12-0.04,0.37-0.01,0.56,0.01
					c0.08,0.01,0.16,0.02,0.24,0.02c0.02,0,0.05,0,0.07,0c0.49-0.06,1.03,0.01,1.65,0.09l0.23,0.03c-0.03,0.03-0.06,0.06-0.1,0.09
					c-0.33,0.3-0.76,0.69-0.72,1.25c-0.14,0.21-0.11,0.46-0.1,0.58c0,0.03,0.01,0.08,0.01,0.1c0,0,0,0,0,0
					c-0.01,0.05-0.01,0.1,0,0.15c0.08,0.41,0.4,0.78,0.86,0.7c0.05-0.01,0.09-0.02,0.13-0.05c0.36-0.21,0.66-0.49,0.95-0.76
					c0.23-0.22,0.45-0.42,0.68-0.58c0.06-0.02,0.12-0.05,0.18-0.07c0.18-0.08,0.36-0.15,0.51-0.13c0.04,0.01,0.08,0,0.12,0
					c0.4-0.07,1.13-0.2,1.37-0.92C153.09,98.1,152.83,97.65,152.71,97.45z"/>
				<g>
					<path class="st3" d="M136.52,94.83c0-0.06-0.02-0.12-0.05-0.18c0,0,0-0.02-0.01-0.04c-0.03-0.09-0.1-0.32-0.3-0.45
						c-0.17-0.29-0.47-0.47-0.74-0.63c-0.08-0.05-0.14-0.09-0.21-0.13c-0.16-0.11-0.35-0.13-0.49-0.14c-0.03,0-0.08-0.01-0.1-0.01
						c-0.09-0.08-0.2-0.12-0.32-0.11c-0.14,0.01-0.26,0.1-0.32,0.23c-0.02,0.04-0.06,0.06-0.11,0.08l-0.29-0.35
						c-0.85-1.26-1.87-1.81-3.11-1.69c0.02,0,0.04,0,0.05,0c-0.08,0-0.18-0.02-0.28-0.03c-0.19-0.03-0.39-0.05-0.58-0.03
						c-0.3-0.02-0.64,0.04-0.98,0.11c-0.21,0.04-0.4,0.08-0.56,0.09c-0.03,0-0.06,0.01-0.08,0.02c-0.17,0.05-0.36,0.08-0.55,0.11
						c-0.19,0.03-0.36,0.06-0.52,0.11c-0.22,0.03-0.43,0.12-0.61,0.2c-0.13,0.06-0.26,0.11-0.34,0.12c-0.59,0.05-1.1,0.37-1.48,0.6
						l-0.15,0.09c-0.01,0.01-0.03,0.02-0.04,0.03c-0.05,0.04-0.12,0.08-0.19,0.13c-0.24,0.16-0.52,0.35-0.69,0.68
						c-0.4,0.43-0.63,1.17-0.83,1.82l-0.05,0.16c-0.02,0.07-0.02,0.15,0,0.22c0.03,0.1,0.03,0.22,0.03,0.36
						c0,0.18,0.01,0.38,0.07,0.58c0.07,0.28,0.2,0.54,0.33,0.8c0.08,0.15,0.15,0.3,0.2,0.42c0.02,0.06,0.06,0.11,0.11,0.16
						c0.21,0.19,0.41,0.46,0.61,0.75c0.23,0.32,0.47,0.65,0.77,0.93c0.49,0.39,0.9,0.86,1.35,1.36c0.44,0.5,0.89,1.01,1.41,1.42
						l0.05,0.13c0.15,0.36,0.29,0.68,0.32,1c0.03,0.41-0.17,0.87-0.61,1.41c-0.45,0.43-1.45,1-2,1.15
						c-0.03,0.01-0.06,0.02-0.09,0.04c-0.25,0.14-0.63,0.22-1.01,0.3c-0.29,0.06-0.58,0.12-0.84,0.22
						c-0.09-0.01-0.17-0.01-0.27-0.01c-0.28-0.01-0.6-0.03-0.88-0.07c-0.05-0.02-0.1-0.04-0.16-0.06c-0.07-0.03-0.17-0.06-0.25-0.1
						c-0.02-0.09-0.06-0.17-0.13-0.23c-0.03-0.03-0.08-0.05-0.13-0.08c-0.21-0.32-0.27-0.77-0.2-1.4c0-0.03,0-0.06-0.01-0.1
						c0.05-0.07,0.08-0.15,0.08-0.24c0-0.33,0.12-0.6,0.26-0.92c0.12-0.27,0.24-0.57,0.29-0.91c0.13-0.14,0.13-0.29,0.1-0.4
						c-0.04-0.17-0.23-0.31-0.4-0.32c-0.33-0.02-1.23,0.36-1.57,1.06c-0.33,0.34-0.47,0.75-0.59,1.12c-0.06,0.18-0.12,0.35-0.2,0.51
						c-0.02,0.05-0.04,0.1-0.04,0.16c-0.01,0.16-0.08,0.39-0.14,0.6c-0.09,0.3-0.18,0.6-0.18,0.91c0,0.02,0,0.05,0.01,0.07
						c0.09,0.41,0.2,0.82,0.49,1.21c0.17,0.28,0.43,0.46,0.61,0.59c0.08,0.05,0.16,0.11,0.19,0.14c0.26,0.28,0.62,0.39,0.88,0.47
						c0.07,0.02,0.16,0.05,0.19,0.07c0.03,0.02,0.06,0.03,0.09,0.04l0.42,0.1c0.7,0.18,1.1,0.29,1.97,0.24
						c0.23,0.07,0.6,0.1,0.88-0.01c0.66,0.07,1.34-0.05,2-0.17c0.18-0.03,0.35-0.06,0.52-0.09c0.03,0,0.06-0.01,0.09-0.03
						c0.33-0.14,0.72-0.22,1.11-0.29c0.25-0.05,0.48-0.09,0.69-0.15c0.32-0.05,0.6-0.18,0.85-0.3c0.16-0.08,0.31-0.15,0.44-0.19
						c0.04-0.01,0.07-0.02,0.1-0.04c0.1-0.06,0.23-0.12,0.36-0.19c0.31-0.16,0.67-0.34,0.91-0.55c0.11-0.11,0.2-0.19,0.28-0.26
						c0.15-0.13,0.3-0.27,0.42-0.44c0.1-0.14,0.16-0.28,0.21-0.4c0.04-0.1,0.09-0.19,0.13-0.25c0.01-0.02,0.03-0.03,0.03-0.05
						c0.16-0.26,0.17-0.62,0.18-0.91c0-0.08,0.01-0.16,0.01-0.2c0.01-0.06,0-0.12-0.01-0.17c-0.3-1.01-1.14-2.1-2.17-2.79
						c-0.13-0.2-0.4-0.53-0.76-0.69c-0.32-0.36-0.69-0.64-1.05-0.9c-0.26-0.19-0.51-0.38-0.73-0.58c-0.02-0.01-0.39-0.33-0.39-0.33
						c-0.64-0.54-1.31-1.1-1.77-1.72c-0.07-0.34,0.03-0.71,0.33-1.17c0.32-0.36,0.79-0.5,1.25-0.64c0.17-0.05,0.33-0.1,0.48-0.16
						c0.41,0,0.77-0.11,1.12-0.22c0.16,0,0.32-0.01,0.45-0.03c0.07-0.01,0.16-0.02,0.19-0.02c0,0-0.02,0-0.05-0.01
						c0.09,0.03,0.18,0.03,0.27,0c0.35-0.12,1.02-0.07,1.62-0.02c0.08,0,0.16,0.01,0.23,0.02c-0.25,0.35-0.49,0.72-0.64,1.15
						c-0.01,0.03-0.01,0.05-0.02,0.08c-0.01,0.09-0.09,0.24-0.16,0.37c-0.19,0.35-0.53,0.99,0.14,1.49c0.14,0.1,0.33,0.11,0.48,0.01
						c0.32-0.23,0.57-0.5,0.82-0.77c0.37-0.41,0.69-0.76,1.21-0.91c0.09-0.03,0.16-0.08,0.22-0.15c0.01-0.02,0.08-0.09,0.41-0.21
						c0.05-0.02,0.1-0.05,0.14-0.09c0.12-0.11,0.34-0.15,0.6-0.18c0.3-0.04,0.63-0.09,0.93-0.29c0.13-0.09,0.19-0.23,0.18-0.38
						C136.44,95.3,136.53,95.08,136.52,94.83z"/>
				</g>
				<path class="st3" d="M119.94,92.26c-0.17-0.07-0.33-0.14-0.45-0.21c-0.34-0.23-0.74-0.33-1.12-0.43
					c-0.17-0.05-0.34-0.09-0.5-0.14c-0.03-0.01-0.05-0.01-0.08-0.02l-0.14-0.02c-0.42-0.05-0.94-0.12-1.24-0.19
					c-0.03-0.01-0.05-0.01-0.08-0.01c0,0-0.46-0.02-0.47-0.02c-0.36-0.02-0.74-0.02-1.11-0.03c-0.35-0.01-0.71-0.02-1.08-0.03
					c-0.22-0.08-0.41-0.02-0.52,0.01c-0.02,0.01-0.05,0.02-0.07,0.02c-0.02,0-0.05-0.01-0.07-0.01c-0.45,0.01-0.75,0.04-1.09,0.14
					c-0.4-0.14-0.92-0.05-1.11-0.02c-0.07,0.01-0.15,0.02-0.23,0.02c-0.26,0.03-0.59,0.07-0.85,0.04c-0.04-0.01-0.09-0.01-0.13,0
					c-0.04,0.01-0.09,0.02-0.13,0.03c-0.15,0.04-0.3,0.07-0.42,0.04c-0.05-0.02-0.11-0.02-0.17-0.02c-0.23,0.03-0.48,0.01-0.77-0.02
					c-0.18-0.02-0.38-0.04-0.6-0.04c0,0-0.08-0.04-0.14-0.07c-0.19-0.08-0.47-0.21-0.79-0.1c-0.19,0.07-0.3,0.26-0.27,0.45
					c0-0.02,0,0,0,0.01c0,0.11-0.02,0.33,0.16,0.5c0.08,0.08,0.18,0.12,0.3,0.11c0.02,0.02,0.06,0.05,0.08,0.08
					c0.1,0.1,0.26,0.26,0.5,0.31c0.24,0.22,0.53,0.35,0.8,0.46c0.14,0.06,0.27,0.12,0.4,0.19c-0.06,0.12-0.14,0.25-0.22,0.38
					c-0.16,0.27-0.33,0.55-0.42,0.88c-0.17,0.25-0.28,0.57-0.39,0.89c-0.06,0.18-0.12,0.35-0.17,0.47
					c-0.02,0.05-0.04,0.08-0.06,0.11c-0.07,0.1-0.2,0.3-0.17,0.55c-0.35,0.61-0.71,1.27-0.87,1.83c-0.09,0.16-0.42,0.74-0.6,1.21
					c0,0-0.22,0.61-0.22,0.61c-0.3,0.81-0.6,1.64-0.76,2.54c-0.14,0.18-0.18,0.39-0.2,0.53c-0.01,0.05-0.02,0.12-0.03,0.14
					c0,0,0,0,0,0c-0.04,0.06-0.06,0.14-0.06,0.22v0.12c0,0.27,0,0.6,0.08,0.86c0.01,0.35,0.15,0.72,0.29,1.07
					c0.32,0.84,1.39,1.75,2.23,2.16c0.37,0.2,0.74,0.19,1.07,0.19c0.18,0,0.35,0,0.52,0.03c0.02,0,0.05,0.01,0.07,0.01
					c0.19,0,0.38,0,0.55,0c0.47,0.01,0.96,0.02,1.48-0.06c0.96-0.16,1.85-0.46,2.71-0.75c0.41-0.14,0.83-0.28,1.25-0.41
					c0.03-0.01,0.05-0.02,0.08-0.03l0.38-0.2c0.67-0.36,1.36-0.73,2.01-1.03c0.15-0.07,0.24-0.23,0.23-0.39
					c-0.02-0.35-0.3-0.52-0.45-0.61c-0.03-0.02-0.05-0.03-0.07-0.04c-0.1-0.07-0.22-0.09-0.33-0.07c-0.3,0.07-0.63,0.13-1,0.19
					c-0.43,0.07-0.88,0.14-1.26,0.25c-0.25,0-0.48,0.03-0.7,0.06c-0.24,0.04-0.46,0.07-0.7,0.05c-0.11-0.01-0.22,0.03-0.3,0.11
					c-0.05,0.02-0.18,0.01-0.27,0c-0.18-0.01-0.41-0.02-0.62,0.05c-0.33-0.03-0.61,0.02-0.86,0.07c-0.28,0.05-0.53,0.1-0.81,0.04
					c-0.12-0.03-0.25,0-0.34,0.08h0c-0.03,0.02-0.17,0.01-0.26,0c-0.17-0.01-0.38-0.03-0.58,0.04c-0.23-0.08-0.46-0.05-0.61-0.03
					c-0.06,0.01-0.17,0.03-0.2,0.02c0,0-0.01-0.01-0.02-0.03c-0.12-0.42,0.1-0.85,0.32-1.26c0.13-0.24,0.25-0.47,0.3-0.7
					c0.17-0.22,0.25-0.46,0.32-0.67c0.07-0.2,0.12-0.38,0.24-0.48c0.06-0.06,0.1-0.14,0.12-0.22c0.04-0.21,0.16-0.43,0.3-0.67
					c0.11-0.19,0.22-0.39,0.3-0.61c0.01-0.02,0.01-0.04,0.02-0.06c0.04-0.19,0.17-0.25,0.72-0.31c0.16-0.02,0.32-0.04,0.47-0.08
					c0.21,0.01,0.4-0.03,0.57-0.06c0.26-0.05,0.41-0.08,0.54-0.01c0.08,0.04,0.18,0.06,0.27,0.04c0.38-0.08,0.85-0.06,1.31-0.04
					c0.47,0.02,0.96,0.03,1.38-0.05c0.2,0,0.38,0.03,0.56,0.05c0.14,0.02,0.28,0.04,0.42,0.04c0.03,0,0.05,0,0.08,0
					c0.18-0.03,0.36-0.04,0.55-0.05c0.33-0.02,0.67-0.03,1.05-0.14c0.11-0.03,0.2-0.1,0.25-0.2c0.2-0.39,0.05-0.72-0.44-0.99
					c-0.04-0.02-0.11-0.06-0.13-0.08c-0.07-0.06-0.16-0.1-0.25-0.1c-0.17-0.01-0.44-0.09-0.7-0.18c-0.33-0.11-0.67-0.21-0.99-0.23
					c-0.28-0.01-0.79-0.08-1.15-0.19c-0.03-0.01-0.07-0.02-0.11-0.02c-0.25,0-0.52-0.02-0.8-0.03c-0.55-0.04-1.11-0.07-1.64,0.03
					c-0.32-0.2-0.65-0.13-0.85-0.08c-0.03,0.01-0.04,0.01-0.06,0.01c0.1-0.23,0.22-0.45,0.36-0.68c0.2-0.33,0.39-0.68,0.51-1.07
					c0.18-0.19,0.29-0.39,0.38-0.55c0.08-0.13,0.13-0.24,0.21-0.32c0.05-0.04,0.09-0.1,0.11-0.16l0.26-0.69
					c0.01-0.02,0.02-0.04,0.02-0.06c0.08-0.41-0.07-0.72-0.25-0.96c0.67-0.08,1.23-0.19,1.68-0.31c0.3,0.08,0.62-0.02,0.9-0.12
					c0.31,0.14,0.61,0.03,0.78-0.03c0.04-0.02,0.08-0.03,0.12-0.04c0.29,0.09,0.58,0.1,0.85,0.11c0.21,0,0.41,0.01,0.58,0.05
					c0.22,0.07,0.46,0.12,0.69,0.17c0.4,0.08,0.78,0.16,1.06,0.36c0.09,0.06,0.2,0.09,0.31,0.07c0.01,0,0.01,0,0.02,0
					c0,0.01,0,0.03,0,0.04c0.04,0.22,0.11,0.67,0.64,0.8c0.09,0.02,0.18,0.01,0.26-0.02c0.34-0.15,0.53-0.42,0.67-0.62
					c0.03-0.04,0.05-0.08,0.08-0.11c0.05-0.06,0.08-0.13,0.08-0.21C121.32,92.84,120.49,92.5,119.94,92.26z"/>
				<path class="st3" d="M71.12,105.88c-0.01-0.02-0.02-0.05-0.03-0.08c-0.06-0.17-0.19-0.52-0.57-0.59
					c-0.18-0.03-0.36,0.06-0.44,0.23c-0.14,0.31-0.5,0.33-1.07,0.33h-0.06c-0.61-0.09-0.9-0.51-1.28-1.06
					c-0.15-0.21-0.3-0.42-0.48-0.63c-0.16-0.34-0.37-0.67-0.57-0.99c-0.27-0.44-0.56-0.9-0.73-1.36c-0.06-0.23-0.27-0.6-0.63-1.09
					c-0.11-0.27-0.26-0.53-0.4-0.77c-0.15-0.27-0.3-0.52-0.39-0.78c1.12-1.02,2.22-2.18,3.11-3.29c0.09-0.03,0.22-0.1,0.28-0.25
					c0-0.01,0-0.01,0.01-0.02c0.15-0.12,0.27-0.26,0.36-0.39c0.09-0.12,0.17-0.23,0.27-0.29c0.08-0.05,0.15-0.13,0.18-0.23
					c0.04-0.13,0.18-0.29,0.31-0.45c0.12-0.14,0.24-0.29,0.33-0.46c0.56-0.49,0.62-1.28,0.42-1.88c-0.03-0.1-0.1-0.18-0.2-0.23
					c-0.53-0.27-1.11-0.32-1.67-0.36c-0.15-0.01-0.3-0.02-0.44-0.04c-0.43-0.17-0.82,0.04-1.06,0.18c-0.04,0.03-0.09,0.05-0.12,0.07
					c-0.15,0.07-0.24,0.23-0.22,0.4c0.02,0.25,0.18,0.4,0.33,0.48c-0.01,0.03-0.02,0.05-0.03,0.09c-0.59,1.06-1.16,2.06-2.05,2.88
					c-0.17,0.11-0.3,0.26-0.38,0.37c-0.02,0.02-0.04,0.05-0.04,0.05c-0.03,0.03-0.05,0.07-0.07,0.11c-0.01,0-0.01,0.01-0.03,0.02
					c-0.07,0.03-0.13,0.08-0.18,0.14l-0.09,0.13c-0.11,0.16-0.22,0.33-0.35,0.44c-0.09-0.19-0.18-0.4-0.25-0.62
					c-0.02-0.05-0.04-0.11-0.08-0.15c-0.25-0.28-0.43-0.62-0.62-0.99c-0.31-0.6-0.67-1.27-1.4-1.68c-0.46-0.38-1.38-0.98-2.48-0.83
					c-0.03,0-0.06,0.01-0.09,0.02c-0.38,0.15-0.7,0.21-0.94,0.17c-0.09-0.01-0.18,0-0.26,0.05c-0.05,0.03-0.23,0.04-0.35,0.04
					c-0.36,0.01-0.96,0.03-1.15,0.65c-0.03,0.11-0.02,0.22,0.03,0.32c0.05,0.1,0.14,0.17,0.25,0.19c0.37,0.09,0.53,0.38,0.76,0.83
					c0.12,0.25,0.25,0.5,0.45,0.73c0.11,0.14,0.22,0.35,0.34,0.56c0.12,0.22,0.25,0.45,0.41,0.67c0.21,0.26,0.39,0.63,0.58,1.01
					c0.23,0.46,0.48,0.97,0.84,1.41c0.09,0.3,0.25,0.57,0.39,0.8c0.11,0.18,0.22,0.35,0.28,0.52c-0.18,0.2-0.35,0.41-0.5,0.62
					c-0.26,0.35-0.5,0.67-0.81,0.91c-0.04,0.03-0.07,0.07-0.1,0.11c-0.33,0.56-0.73,1.05-1.11,1.51l-0.11,0.14
					c-0.28,0.25-0.47,0.52-0.65,0.78c-0.08,0.11-0.16,0.23-0.25,0.35c-0.01,0.02-0.03,0.04-0.04,0.06
					c-0.17,0.33-0.45,0.71-0.76,1.12c-0.39,0.52-0.79,1.06-1.04,1.59c-0.04,0.09-0.11,0.22-0.19,0.36c-0.36,0.61-0.95,1.64-0.6,2.67
					c0.01,0.02,0.02,0.04,0.02,0.06c0.16,0.3,0.61,0.52,0.96,0.35c0.12-0.07,0.21-0.18,0.22-0.32c0.06-0.62,0.32-1.19,0.82-1.87
					c0.05-0.07,0.08-0.16,0.08-0.25c0-0.18,0.27-0.44,0.49-0.64c0.11-0.11,0.22-0.21,0.31-0.31c0.03-0.03,0.05-0.07,0.06-0.1
					c0.06-0.12,0.21-0.3,0.35-0.46c0.16-0.19,0.33-0.38,0.44-0.59c0.5-0.51,1.02-1.07,1.53-1.61c0.73-0.78,1.48-1.57,2.19-2.27
					c0.08,0.13,0.16,0.26,0.23,0.4c0.16,0.28,0.33,0.58,0.55,0.86c0.89,1.02,1.68,1.92,2.56,2.7c0.62,0.52,1.23,0.85,1.97,1.19
					c0.06,0.02,0.12,0.04,0.19,0.03c-0.01,0-0.02,0-0.02,0c0.03,0,0.13,0.04,0.2,0.07c0.21,0.08,0.5,0.17,0.8,0.15
					c0.31,0.1,0.62,0.09,0.86,0.08c0.07,0,0.14,0,0.19,0c0.04,0,0.09,0,0.13-0.02l0.12-0.04c0.29-0.08,0.7-0.21,1.02-0.45
					c0.56-0.07,0.77-0.49,0.9-0.75c0.06-0.12,0.11-0.24,0.18-0.29C71.15,106.25,71.2,106.05,71.12,105.88z"/>
				<path class="st3" d="M54.54,94.85l-0.52-0.65c-0.05-0.07-0.13-0.11-0.21-0.14c-0.64-0.18-1.28-0.33-2-0.31
					c-0.77-0.2-1.61-0.21-2.5-0.04c-0.17-0.05-0.47-0.1-0.76,0.03c-0.08,0.01-0.16,0.02-0.23,0.03c-0.16,0.03-0.3,0.05-0.39,0.03
					c-0.1-0.03-0.2-0.02-0.29,0.03c-0.05,0.03-0.21,0.03-0.35,0.03c-0.13,0-0.27,0-0.43,0.02c-0.09,0.01-0.18,0.04-0.32,0.08
					c-0.15,0.05-0.34,0.11-0.52,0.12c-0.54,0.08-1.49,0.27-2.15,0.43c-0.41,0.07-0.84,0.18-1.27,0.29c-0.51,0.13-0.99,0.25-1.41,0.3
					c-0.02,0-0.04,0.01-0.06,0.01c-0.17,0.04-0.35,0.08-0.42,0.09c-0.08,0-0.15,0.01-0.22,0.04c0.03-0.01,0.05-0.02,0.05-0.02
					c-0.06,0.02-0.3,0.03-0.53,0.03c-0.1,0-0.2,0.03-0.27,0.1c-0.2,0.18-0.24,0.45-0.12,0.71c0.21,0.44,0.87,0.84,1.6,0.75
					c0.09,0.01,0.18,0.03,0.26,0.03c0.07,0.01,0.12,0.01,0.17,0.02c-0.11,1.53-0.59,2.96-1.1,4.47l-0.38,1.13
					c-0.04,0.17-0.1,0.32-0.14,0.46c-0.09,0.28-0.18,0.55-0.18,0.8c-0.04,0.12-0.08,0.23-0.1,0.32c-0.03,0.13-0.06,0.23-0.12,0.33
					c-0.03,0.05-0.05,0.11-0.05,0.16c-0.03,0.35-0.11,0.68-0.19,1.03c-0.1,0.41-0.2,0.83-0.21,1.28c0,0.02-0.02,0.06-0.04,0.09
					c-0.11,0.26-0.12,0.48-0.03,0.66c-0.12,0.41-0.05,0.76,0.02,1.08c0.01,0.06,0.03,0.12,0.04,0.18c0.03,0.1,0.05,0.18,0.07,0.27
					c0.11,0.46,0.25,1.03,0.66,1.39c0.1,0.08,0.19,0.18,0.29,0.29c0.28,0.29,0.62,0.65,1.15,0.86c0.2,0.07,0.37,0.17,0.56,0.27
					c0.28,0.15,0.56,0.3,0.93,0.39c0.09,0.02,0.18,0.05,0.27,0.09c0.18,0.07,0.36,0.13,0.54,0.12c0.04,0,0.09,0,0.13,0.01
					c0.31,0.02,0.72,0.04,1.23-0.16c0.27-0.13,0.58-0.24,0.9-0.35c0.4-0.14,0.81-0.28,1.19-0.48c-0.01,0.01-0.03,0.01-0.04,0.02
					c0.16-0.06,0.3-0.15,0.45-0.24c0.1-0.06,0.27-0.17,0.33-0.17c0.06-0.01,0.14-0.04,0.19-0.07c0.78-0.53,1.54-1.1,2.34-1.69
					l1-0.74c0.01-0.01,0.02-0.02,0.03-0.02c0.14-0.09,0.21-0.19,0.24-0.29c0.29-0.22,0.51-0.49,0.71-0.74
					c0.2-0.26,0.38-0.49,0.61-0.62c0.11-0.07,0.19-0.18,0.2-0.31c0.01-0.1-0.02-0.2-0.08-0.28c-0.03-0.08-0.09-0.23-0.27-0.32
					c-0.11-0.05-0.23-0.06-0.34-0.01c-0.2,0.09-0.38,0.19-0.55,0.28c-0.22,0.12-0.42,0.24-0.64,0.31c-0.05,0.02-0.1,0.05-0.15,0.09
					c-0.19,0.18-0.47,0.27-0.76,0.37c-0.28,0.09-0.59,0.21-0.87,0.4c-0.4,0.09-0.77,0.24-1.07,0.38c-0.17,0.07-0.32,0.14-0.44,0.17
					c-0.04,0.01-0.08,0.03-0.12,0.06c-0.47,0.33-1.16,0.56-1.78,0.75c-0.05,0.02-0.1,0.05-0.15,0.08c-0.18,0.16-0.59,0.32-0.95,0.47
					l-0.26,0.1c-0.31,0.07-0.57,0.18-0.83,0.3c-0.34,0.15-0.64,0.28-1.01,0.28c-0.43-0.2-0.42-0.5-0.27-1.24
					c0.07-0.33,0.13-0.67,0.1-1c0.2-0.34,0.27-0.7,0.33-1.02c0.06-0.34,0.12-0.63,0.31-0.88c0.07-0.09,0.1-0.21,0.08-0.33
					c-0.06-0.3,0.09-0.62,0.26-0.96c0.08-0.16,0.16-0.33,0.22-0.51c0.1-0.08,0.18-0.18,0.22-0.3c0.02-0.07,0.04-0.14,0.04-0.2
					c0.04,0,0.1,0,0.2,0c0.19,0.01,0.44,0.02,0.68-0.08c0.78-0.08,1.32-0.15,2.07-0.33c0.25-0.08,0.49-0.12,0.71-0.17
					c0.38-0.08,0.78-0.16,1.17-0.35c0.25,0.04,0.46-0.04,0.61-0.1c0.1-0.04,0.2-0.08,0.27-0.07c0.14,0.01,0.28-0.06,0.36-0.17
					c0.03,0,0.07-0.01,0.11-0.01c0.11-0.01,0.24-0.01,0.38-0.07c0.04-0.01,0.07-0.03,0.1-0.06c0.06-0.05,0.13-0.07,0.22-0.1
					c0.11-0.04,0.24-0.09,0.37-0.17c0.43-0.05,0.78-0.35,1.1-0.62c0.17-0.14,0.32-0.27,0.45-0.34c0.14-0.07,0.23-0.21,0.23-0.37
					c0-0.12-0.06-0.23-0.15-0.3c0,0,0,0,0-0.01c-0.08-0.18-0.27-0.28-0.46-0.23c-0.54,0.12-1.08,0.17-1.65,0.21
					c-0.66,0.05-1.35,0.11-2.08,0.3c-0.26-0.04-0.48,0.04-0.65,0.1c-0.18,0.06-0.26,0.09-0.34,0.06c-0.09-0.03-0.18-0.03-0.27,0
					c-0.55,0.2-1.34,0.28-1.9,0.31c-0.03,0-0.06,0.01-0.09,0.02c-0.19,0.06-0.33,0.09-0.47,0.11c0.03-0.09,0.07-0.19,0.11-0.28
					c0.12-0.31,0.25-0.63,0.31-0.96c0.31-0.57,0.43-1.19,0.54-1.79l0.05-0.26c0.39-0.7-0.19-1.17-0.47-1.41
					c-0.01-0.01-0.03-0.03-0.04-0.04c0.44-0.06,0.88-0.12,1.31-0.19c0.39-0.07,0.77-0.12,1.14-0.17c0.04,0,0.08-0.02,0.11-0.03
					c0.22-0.1,0.43-0.14,0.66-0.19c0.11-0.02,0.23-0.05,0.35-0.08c0.14-0.01,0.32-0.05,0.59-0.11c0.63-0.14,1.65-0.36,2.7-0.29
					c-0.01,0.16,0.03,0.36,0.24,0.52c0.7,0.43,1.18-0.08,1.4-0.32c0.08-0.08,0.17-0.18,0.23-0.21c0.11-0.05,0.19-0.15,0.22-0.27
					C54.65,95.08,54.62,94.95,54.54,94.85z"/>
				<path class="st3" d="M104.85,108.23c-0.05-0.17-0.2-0.28-0.38-0.29l-1.35-0.02c-0.45-0.08-0.76-0.42-1.12-0.81
					c-0.18-0.2-0.36-0.4-0.57-0.58c-0.16-0.24-0.33-0.49-0.52-0.75c-0.55-0.8-1.18-1.7-1.5-2.42c-0.42-0.82-0.69-1.59-1.03-2.59
					c0.01,0.03,0.02,0.05,0.02,0.08c-0.02-0.14-0.08-0.26-0.15-0.35c0.01,0,0.02-0.01,0.03-0.01c0.31-0.21,0.67-0.36,1.04-0.52
					c0.59-0.25,1.2-0.5,1.69-1.03c0.33-0.14,0.57-0.34,0.78-0.52c0.13-0.11,0.26-0.22,0.38-0.28c0.06-0.03,0.1-0.07,0.14-0.12
					c0.51-0.7,0.83-1.5,0.95-2.4c0.08-0.98-0.31-1.53-0.68-2.06l-0.12-0.17c-0.21-0.32-0.45-0.52-0.66-0.69
					c-0.15-0.13-0.29-0.25-0.42-0.4c-0.03-0.04-0.07-0.07-0.11-0.1c-0.12-0.07-0.25-0.15-0.39-0.24c-0.31-0.2-0.64-0.4-0.95-0.52
					c-0.27-0.18-0.58-0.28-0.89-0.39c-0.17-0.06-0.35-0.11-0.51-0.18c-0.03-0.01-0.07-0.02-0.1-0.03c-0.27-0.04-0.52-0.12-0.8-0.2
					c-0.38-0.12-0.77-0.24-1.21-0.25c-0.23-0.05-0.49-0.06-0.73-0.08c-0.21-0.01-0.42-0.03-0.62-0.06
					c-0.24-0.08-0.47-0.07-0.65-0.05c-0.07,0-0.17,0.01-0.2,0.01c-0.02,0-0.04-0.01-0.06-0.01c-0.18-0.01-0.38,0-0.57,0.01
					c-0.23,0.01-0.46,0.03-0.61-0.01c-0.06-0.02-0.12-0.02-0.18,0c-0.3,0.06-0.62,0.08-0.91,0.11c-0.19,0.02-0.36,0.03-0.5,0.05
					c-0.02,0-0.08,0-0.14,0.01c-0.32,0.02-0.7,0.05-1.02,0.17c-0.12-0.06-0.35-0.16-0.65-0.03c-0.02,0.01-0.04,0.02-0.05,0.03
					c-0.3,0.19-0.45,0.49-0.38,0.79c0.02,0.08,0.05,0.14,0.11,0.2c0.46,0.47,1.03,0.73,1.58,0.99c0.02,0.01,0.04,0.02,0.07,0.03
					c-0.02,0.05-0.04,0.09-0.06,0.14c-0.06,0.15-0.14,0.33-0.17,0.55c-0.11,0.21-0.22,0.47-0.3,0.68l-0.04,0.11
					c-0.3,0.69-0.51,1.36-0.72,2.01c-0.25,0.79-0.48,1.53-0.87,2.27c-0.03,0.05-0.04,0.11-0.05,0.17c0,0.08-0.09,0.28-0.15,0.42
					c-0.1,0.24-0.21,0.49-0.21,0.73c-0.03,0.28-0.13,0.58-0.23,0.87c-0.13,0.4-0.26,0.81-0.24,1.25c-0.01,0.02-0.02,0.05-0.04,0.07
					c-0.08,0.16-0.18,0.37-0.16,0.67c-0.16,0.47-0.23,1.08-0.17,1.54c0,0.07,0,0.14-0.01,0.22c-0.02,0.43-0.03,0.97,0.3,1.44
					c0.08,0.34,0.26,0.62,0.43,0.87l0.05,0.08c0.08,0.12,0.21,0.18,0.34,0.18c0.06,0,0.09,0.03,0.23,0.16
					c0.16,0.16,0.4,0.41,0.82,0.4c0.08,0,0.17-0.03,0.24-0.08c0.16-0.12,0.2-0.27,0.2-0.37c0-0.11-0.03-0.2-0.08-0.26
					c0.07-0.21,0.12-0.43,0.16-0.63c0.08-0.39,0.15-0.72,0.36-0.97c0.05-0.06,0.08-0.13,0.09-0.22c0.01-0.07,0.05-0.18,0.08-0.28
					c0.05-0.12,0.09-0.25,0.1-0.38c0.12-0.18,0.18-0.34,0.23-0.5c0.06-0.17,0.11-0.32,0.26-0.55c0.03-0.04,0.04-0.08,0.05-0.13
					c0.12-0.55,0.45-1.19,0.77-1.8c0.2-0.4,0.41-0.81,0.58-1.21c0.02-0.03,0.03-0.07,0.04-0.11c0.04,0.01,0.08,0.01,0.11,0.01
					c0.01,0.01,0.02,0.02,0.03,0.03c0.05,0.05,0.12,0.12,0.2,0.18c0.15,0.29,0.3,0.59,0.44,0.89c0.35,0.73,0.71,1.48,1.26,2.17
					c0.26,0.59,0.68,1.08,1.09,1.55c0.3,0.35,0.58,0.68,0.79,1.02c0.02,0.03,0.04,0.06,0.07,0.08c0.26,0.25,0.51,0.5,0.74,0.74
					c0.57,0.58,1.12,1.13,1.75,1.61c0.07,0.05,0.15,0.08,0.24,0.08c-0.03,0-0.05-0.01-0.05-0.01c0.05,0.02,0.16,0.11,0.21,0.15
					c0.04,0.03,0.08,0.07,0.12,0.09c0.25,0.21,0.43,0.32,0.61,0.42c0.1,0.05,0.19,0.11,0.3,0.19c0.04,0.03,0.08,0.04,0.12,0.05
					c0.13,0.04,0.25,0.08,0.37,0.12c0.33,0.1,0.64,0.2,1.03,0.2c0.25,0.09,0.59,0.09,0.8,0.06c0.52,0,1.06-0.08,1.52-0.57
					c0.09-0.03,0.23-0.08,0.31-0.25C104.89,108.53,104.9,108.39,104.85,108.23z M97.84,96.98c-0.49,0.29-0.95,0.55-1.53,0.69
					c-0.04,0.01-0.07,0.02-0.11,0.04c-0.14,0.08-0.36,0.13-0.59,0.18c-0.24,0.05-0.52,0.11-0.77,0.22
					c-0.17,0.03-0.33,0.06-0.48,0.09c-0.32,0.07-0.62,0.12-0.94,0.13c0.04-0.05,0.08-0.12,0.11-0.18c0.17-0.1,0.3-0.29,0.27-0.64
					c0.1-0.06,0.17-0.16,0.19-0.28c0.03-0.19,0.13-0.38,0.24-0.6c0.12-0.23,0.25-0.5,0.33-0.81c0.15-0.38,0.25-0.97,0.3-1.42
					c0.19-0.42,0.17-0.86-0.08-1.23c-0.03-0.05-0.08-0.09-0.13-0.12c-0.14-0.09-0.25-0.2-0.36-0.34c0.01,0,0.02,0,0.03,0
					c0.17,0.01,0.4,0.02,0.62-0.07c0.36,0.11,0.75,0.1,1.09,0.1c0.18,0,0.36-0.01,0.51,0.01c0.16,0.02,0.32,0.04,0.45,0.05
					c0.24,0.02,0.45,0.04,0.56,0.12c0.05,0.04,0.11,0.06,0.17,0.07l0.53,0.08c0.78,0.18,1.33,0.43,1.79,0.82
					c0.2,0.2,0.3,0.54,0.24,0.87l-0.04,0.12c-0.17,0.56-0.3,0.91-0.7,1.06c-0.08,0.03-0.15,0.09-0.2,0.16
					c-0.03,0.04-0.08,0.07-0.17,0.12c-0.1,0.05-0.22,0.12-0.33,0.22C98.49,96.61,98.16,96.8,97.84,96.98z"/>
				<path class="st3" d="M87.32,94.66c-0.16-0.89-0.75-1.7-1.74-2.43c-0.16-0.21-0.4-0.32-0.63-0.42c-0.1-0.04-0.2-0.09-0.3-0.14
					c-0.52-0.25-1.03-0.41-1.53-0.57c-0.27-0.09-0.55-0.18-0.82-0.28c-0.05-0.02-0.1-0.03-0.15-0.03c-0.2,0-0.46-0.04-0.74-0.09
					c-0.39-0.06-0.83-0.13-1.29-0.12c-0.04,0-0.09,0.01-0.13,0.02c-0.03-0.01-0.06-0.02-0.1-0.03c-0.05-0.02-0.11-0.04-0.17-0.04
					l-0.47-0.01c-0.48-0.01-0.85-0.02-1.45,0.07c-0.08-0.02-0.17-0.02-0.25-0.02c-0.02,0-0.05,0-0.07,0c-0.01,0-0.01-0.01-0.02-0.01
					c-0.22-0.07-0.38,0-0.48,0.05c-0.08,0-0.15,0.01-0.21,0.02c-0.07,0.01-0.1,0.01-0.15,0c-0.07-0.01-0.13-0.01-0.2,0.01
					c-0.07,0.02-0.18,0.03-0.3,0.04c-0.12,0.01-0.25,0.02-0.38,0.05c-0.11,0-0.19,0.02-0.26,0.07c-0.44-0.12-0.83,0.02-1.13,0.16
					c-0.26-0.08-0.48,0.01-0.61,0.06c-0.03,0.02-0.09,0.04-0.11,0.04c-0.12-0.03-0.25-0.01-0.35,0.06
					c-0.29,0.21-0.42,0.51-0.33,0.82c0.04,0.13,0.13,0.22,0.25,0.27c0.03,0.06,0.08,0.12,0.16,0.17c0.04,0.03,0.09,0.05,0.14,0.05
					c0.21,0.04,0.39,0.11,0.58,0.19c0.21,0.09,0.45,0.18,0.74,0.23c0.02,0.11,0.01,0.28,0,0.4c0,0.06-0.01,0.11-0.01,0.17
					c-0.07,0.3-0.18,0.6-0.29,0.9c-0.18,0.46-0.35,0.95-0.39,1.5c-0.26,0.43-0.37,0.89-0.47,1.34c-0.08,0.37-0.16,0.72-0.33,1.03
					c-0.03,0.06-0.05,0.13-0.05,0.2c0.01,0.53-0.2,1.06-0.43,1.62c-0.12,0.3-0.25,0.61-0.34,0.93c0,0.01-0.01,0.03-0.01,0.04
					c-0.02,0.11-0.04,0.23-0.06,0.34c-0.05,0.32-0.1,0.62-0.2,0.89c-0.01,0.03-0.02,0.07-0.02,0.1c-0.03,0.24-0.08,0.45-0.12,0.66
					c-0.07,0.3-0.13,0.58-0.13,0.9c-0.04,0.25-0.01,0.7,0,0.91c-0.03,0.2,0.04,0.41,0.11,0.54c0.1,0.68,0.28,1.45,0.9,2.03
					c0.05,0.29,0.28,0.48,0.67,0.55c0.02,0,0.04,0.01,0.06,0.01c0.04,0.1,0.13,0.19,0.24,0.23c0.34,0.12,0.75,0.06,1.04-0.16
					c0.02-0.01,0.03-0.03,0.05-0.05c0.14-0.14,0.2-0.33,0.17-0.53c-0.03-0.2-0.13-0.37-0.25-0.49c0.06-0.23,0.06-0.42,0.05-0.59
					c0-0.16-0.01-0.29,0.04-0.44c0.11-0.33,0.22-0.68,0.32-1.02c0.22-0.71,0.42-1.38,0.7-2.01c0.05-0.11,0.04-0.23-0.01-0.33
					c0.13-0.19,0.17-0.42,0.2-0.6c0-0.02,0-0.03,0.01-0.05c0.04,0.06,0.1,0.11,0.17,0.14c0.1,0.04,0.21,0.04,0.31-0.01
					c0.04-0.01,0.04-0.01,0.13,0.01c0.08,0.02,0.19,0.05,0.34,0.05c-0.02,0-0.04,0-0.06-0.01c0.74,0.13,1.62,0.03,2.41-0.05
					c0.23-0.03,0.45-0.05,0.66-0.07c0.05,0,0.1-0.02,0.14-0.04c0.11-0.05,0.24-0.07,0.4-0.09c0.2-0.03,0.44-0.07,0.68-0.19
					c0.14-0.01,0.27-0.03,0.38-0.05c0.05-0.01,0.11-0.02,0.13-0.02c0.06,0,0.12-0.02,0.17-0.05c0.19-0.1,0.37-0.16,0.57-0.22
					c0.31-0.1,0.66-0.21,1.03-0.52c0.73-0.28,1.29-0.75,1.63-1.11c0.76-0.49,1.55-1.54,1.88-2.53c0.01-0.02,0.01-0.04,0.02-0.06
					l0.02-0.09C87.38,96.39,87.54,95.43,87.32,94.66z M83.35,96.49c-0.09,0.16-0.18,0.31-0.27,0.46c-0.15,0.16-0.3,0.33-0.45,0.5
					c-0.39,0.44-0.78,0.9-1.23,1.18c-0.03,0.02-0.05,0.04-0.08,0.06c-0.43,0.45-1.6,0.94-2.32,1.24c-0.2,0.04-0.36,0.12-0.5,0.19
					c-0.17,0.09-0.27,0.13-0.39,0.12c-0.07,0-0.13,0.01-0.19,0.03c-0.27,0.11-0.5,0.1-0.86,0.07c-0.06,0-0.12,0.01-0.17,0.03
					c0.07-0.16,0.11-0.32,0.13-0.46c0.03-0.17,0.05-0.29,0.12-0.36c0.03-0.04,0.06-0.08,0.07-0.13l0.19-0.55
					c0.26-0.75,0.52-1.52,0.84-2.25c0.09-0.2,0.11-0.37,0.12-0.49c0.01-0.09,0.02-0.14,0.04-0.18c0.01-0.02,0.01-0.03,0.02-0.05
					l0.18-0.51c0-0.01,0.01-0.03,0.01-0.04c0.04-0.16,0.11-0.32,0.2-0.5c0.18-0.41,0.44-0.97,0.12-1.52c0.04,0,0.09,0,0.13-0.01
					c0.41-0.03,0.79-0.06,1.09,0.05c0.1,0.03,0.2,0.03,0.29-0.01c0.02,0,0.05,0.02,0.1,0.05c0.07,0.04,0.15,0.06,0.22,0.05
					c0.51-0.02,1.21,0.06,2.04,0.23c0.21,0.09,0.41,0.11,0.57,0.13c0.25,0.03,0.32,0.05,0.39,0.14c0.01,0.01,0.02,0.02,0.03,0.03
					C84.39,94.62,84,95.39,83.35,96.49z"/>
			</g>
			<g>
				<g>
					<g>
						<path class="st3" d="M153.73,75.93c-0.1-0.11-0.32-0.25-0.65-0.12c-0.55-0.03-1.04,0.19-1.48,0.39l-0.12,0.05
							c-0.32,0.03-0.54,0.18-0.71,0.3c-0.11,0.08-0.18,0.13-0.25,0.14c-0.63,0.17-1.09,0.48-1.53,0.78
							c-0.19,0.12-0.38,0.26-0.58,0.37c-0.29,0.12-0.51,0.31-0.67,0.47c-0.18,0.17-0.29,0.27-0.43,0.29
							c-0.09,0.02-0.18,0.06-0.24,0.12l-0.19,0.18c-0.28,0.28-0.56,0.57-0.89,0.78c-0.08,0.05-0.14,0.13-0.17,0.22
							c-0.02,0.04-0.12,0.11-0.2,0.17c-0.15,0.1-0.33,0.23-0.47,0.44c-0.05,0.07-0.13,0.16-0.22,0.22c0.29-0.78,0.58-1.68,0.84-2.52
							c0.18-0.58,0.36-1.13,0.51-1.58c-0.01,0.02-0.02,0.04-0.02,0.06c0.1-0.2,0.15-0.38,0.2-0.55c0.04-0.13,0.07-0.26,0.13-0.38
							c0.01-0.03,0.03-0.07,0.03-0.11c0.1-0.49,0.42-1.2,0.65-1.72l0.08-0.18c0.05-0.14,0.12-0.34,0.19-0.55
							c0.08-0.25,0.18-0.53,0.22-0.64c0.01-0.03,0.02-0.06,0.02-0.08c0.01-0.08,0.07-0.17,0.13-0.29c0.08-0.13,0.17-0.3,0.24-0.52
							c0.05-0.16,0.11-0.31,0.17-0.47c0.09-0.23,0.17-0.46,0.24-0.71c0.54-0.65,0.74-1.42,0.92-2.1c0.13-0.13,0.21-0.28,0.22-0.43
							c0.12-0.2,0.17-0.4,0.22-0.57c0.04-0.15,0.07-0.28,0.13-0.36c0.07-0.09,0.1-0.21,0.08-0.32c-0.02-0.12,0.03-0.29,0.08-0.47
							c0.07-0.24,0.14-0.51,0.1-0.8c0.12-0.23,0.11-0.41,0.05-0.54c0.06-0.95-0.36-1.74-0.74-2.43c-0.12-0.23-0.24-0.45-0.34-0.67
							c-0.04-0.08-0.09-0.14-0.16-0.19c-0.23-0.15-0.41-0.36-0.6-0.57c-0.28-0.32-0.6-0.69-1.12-0.91
							c-0.03-0.01-0.05-0.02-0.08-0.03c-0.15-0.03-0.27-0.1-0.42-0.18c-0.2-0.11-0.46-0.24-0.79-0.28
							c-0.39-0.26-0.88-0.25-1.27-0.23c-0.19,0.01-0.37,0.01-0.51-0.01c-0.04,0-0.08,0-0.13,0c-0.23,0.03-0.43,0.12-0.63,0.2
							c-0.21,0.08-0.4,0.16-0.59,0.17c-0.12,0.01-0.23,0.06-0.31,0.15c-0.08,0.09-0.22,0.14-0.43,0.2c-0.14,0.04-0.3,0.09-0.46,0.17
							c-0.03,0.02-0.2,0.12-0.2,0.12c-0.65,0.4-1.32,0.81-1.93,1.32c0,0-0.01,0-0.01,0c-0.31,0.04-0.46,0.18-0.52,0.32
							c-0.35,0.36-0.75,0.67-1.16,0.99c-0.25,0.19-0.5,0.39-0.75,0.6c-0.17,0.16-0.33,0.31-0.5,0.46c-0.36,0.32-0.76,0.68-1.09,1.09
							c-0.09,0.13-0.19,0.25-0.29,0.37c0.14-0.26,0.28-0.52,0.44-0.77c0.05-0.09,0.06-0.19,0.05-0.29c0.02-0.02,0.04-0.05,0.06-0.07
							c0.12-0.12,0.31-0.33,0.32-0.63c0.07-0.19,0.17-0.36,0.28-0.54c0.1-0.17,0.2-0.34,0.29-0.54c0.01-0.02,0.01-0.03,0.02-0.05
							c0.07-0.21,0.19-0.42,0.32-0.65c0.12-0.2,0.24-0.4,0.33-0.63c0.03-0.08,0.04-0.14,0.06-0.19c0.01-0.02,0.01-0.05,0.02-0.07
							c0.05-0.05,0.08-0.11,0.1-0.18c0.02-0.02,0.05-0.04,0.07-0.07c0.27-0.31,0.39-0.67,0.5-0.98c0.09-0.26,0.16-0.49,0.32-0.67
							c-0.01,0.02-0.03,0.03-0.04,0.04c0.31-0.27,0.44-0.59,0.54-0.86c0.08-0.19,0.14-0.35,0.26-0.48c0.04-0.05,0.08-0.1,0.1-0.17
							c0.09-0.26,0.26-0.52,0.45-0.79c0.21-0.31,0.43-0.63,0.56-1.01c0.08-0.31,0.27-0.58,0.47-0.88c0.24-0.36,0.51-0.76,0.61-1.24
							c0.23-0.2,0.6-0.53,0.59-1.02c0.09-0.16,0.15-0.34,0.06-0.56c0.09-0.11,0.14-0.22,0.18-0.3c0.01-0.03,0.03-0.07,0.04-0.08
							c0,0,0,0,0,0c0.09-0.06,0.16-0.16,0.18-0.26c0.1-0.38,0.17-0.77,0.11-1.13c0.1-1.4-0.84-2.53-1.79-3.14
							c-0.17-0.28-0.45-0.43-0.66-0.53c-0.12-0.06-0.24-0.12-0.29-0.17c0.02,0.02,0.03,0.04,0.05,0.06
							c-0.2-0.32-0.54-0.43-0.79-0.51c-0.11-0.03-0.25-0.08-0.29-0.12c-0.06-0.07-0.14-0.11-0.23-0.14
							c-0.19-0.04-0.37-0.11-0.56-0.18c-0.33-0.12-0.68-0.25-1.08-0.27c-0.11-0.01-0.23,0.03-0.32,0.1
							c0.02-0.01,0.03-0.02,0.03-0.02c-0.02,0.01-0.08,0.01-0.12,0.02c-0.18,0.02-0.52,0.05-0.72,0.38
							c-0.1,0.15-0.09,0.34,0.01,0.49c0.16,0.24,0.41,0.32,0.57,0.38c0.05,0.02,0.12,0.04,0.14,0.06c0.01,0.01,0.01,0.02,0.02,0.03
							c0.06,0.09,0.04,0.19-0.11,0.52c-0.05,0.11-0.11,0.23-0.15,0.36c-0.01,0.02-0.01,0.04-0.02,0.07
							c-0.03,0.17-0.13,0.34-0.25,0.53c-0.15,0.25-0.31,0.53-0.36,0.87c-0.38,0.57-0.49,0.95-0.59,1.35
							c-0.06,0.22-0.13,0.46-0.25,0.76c-0.12,0.15-0.17,0.31-0.21,0.44c-0.03,0.1-0.04,0.13-0.05,0.14
							c-0.08,0.05-0.15,0.13-0.18,0.23c-0.2,0.54-0.48,1.06-0.78,1.6c-0.3,0.56-0.62,1.13-0.84,1.75c-0.03,0.05-0.07,0.14-0.11,0.23
							c-0.11,0.21-0.21,0.44-0.29,0.68c-0.45,0.66-0.75,1.37-1.04,2.05c-0.13,0.31-0.27,0.63-0.41,0.93c-0.36,0.6-0.6,1.2-0.83,1.78
							c-0.22,0.56-0.44,1.1-0.75,1.62c-0.02,0.03-0.04,0.07-0.05,0.11c-0.07,0.23-0.18,0.46-0.29,0.7c-0.14,0.29-0.28,0.6-0.37,0.93
							c-0.3,0.56-0.49,1.15-0.66,1.73c-0.19,0.25-0.29,0.54-0.37,0.77c-0.25,0.52-0.47,1.08-0.68,1.63l-0.3,0.74
							c0-0.02,0.01-0.03,0.02-0.04c-0.15,0.29-0.23,0.58-0.3,0.87c-0.07,0.28-0.14,0.55-0.28,0.76c-0.03,0.05-0.05,0.11-0.07,0.17
							c-0.06,0.38-0.23,0.74-0.41,1.12c-0.2,0.43-0.4,0.88-0.48,1.39c-0.21,0.29-0.31,0.61-0.39,0.89
							c-0.04,0.12-0.07,0.23-0.11,0.34c-0.28,0.44-0.38,0.9-0.45,1.31c-0.05,0.26-0.1,0.5-0.19,0.73c-0.12,0.11-0.2,0.27-0.19,0.46
							c-0.05,0.06-0.09,0.13-0.11,0.21c-0.05,0.22-0.11,0.4-0.18,0.58c-0.12,0.32-0.24,0.66-0.23,1.17
							c-0.21,0.33-0.24,0.71-0.25,1.02c-0.01,0.26-0.03,0.48-0.13,0.63c-0.09,0.12-0.11,0.29-0.05,0.43
							c0.04,0.1,0.05,0.29,0.06,0.47c0.01,0.11,0.01,0.23,0.03,0.35c0,0.05,0.02,0.09,0.04,0.13c0.07,0.15,0.13,0.3,0.19,0.44
							c0.22,0.52,0.45,1.07,0.94,1.58c0.02,0.02,0.03,0.03,0.04,0.04l0.2,0.16c0.23,0.18,0.49,0.38,0.69,0.57
							c0.08,0.08,0.19,0.12,0.3,0.12c0.04,0,0.07,0,0.11,0c0.07,0,0.18,0,0.22,0.01c0.04,0.05,0.09,0.09,0.14,0.11
							c0.3,0.15,0.67,0.08,0.92-0.14c0.23-0.06,0.37-0.21,0.47-0.3c0.03-0.03,0.07-0.07,0.09-0.08c0.15-0.02,0.28-0.12,0.35-0.25
							c0.05-0.12,0.15-0.24,0.26-0.37c0.21-0.26,0.48-0.6,0.49-1.06c0.2-0.22,0.32-0.48,0.41-0.69c0.07-0.16,0.13-0.31,0.22-0.42
							c0.03-0.03,0.05-0.07,0.07-0.11c0.04-0.11,0.08-0.22,0.12-0.33c0.06-0.18,0.12-0.35,0.2-0.5c0.18-0.23,0.31-0.47,0.41-0.66
							c0.03-0.06,0.06-0.12,0.09-0.16c0.02-0.03,0.03-0.07,0.04-0.11c0.06-0.22,0.17-0.46,0.27-0.7c0.08-0.17,0.15-0.34,0.21-0.51
							c0.2-0.32,0.34-0.66,0.48-0.99c0.13-0.31,0.25-0.6,0.41-0.87c0.02-0.03,0.03-0.07,0.05-0.1c0.07-0.22,0.19-0.43,0.32-0.67
							c0.15-0.26,0.3-0.54,0.4-0.86c0.21-0.33,0.37-0.67,0.53-0.99c0.13-0.27,0.25-0.51,0.39-0.76c0.08-0.16,0.16-0.3,0.23-0.44
							c0.23-0.46,0.45-0.9,0.78-1.22c0.08-0.08,0.12-0.18,0.13-0.28c0.02-0.22,0.16-0.44,0.32-0.69c0.11-0.16,0.21-0.33,0.3-0.52
							c0.32-0.29,0.52-0.62,0.69-0.92c0.11-0.19,0.21-0.37,0.34-0.53c0.01-0.01,0.02-0.03,0.03-0.04c0.01-0.01,0.02-0.02,0.04-0.03
							c0.08-0.06,0.27-0.2,0.31-0.46c0.05-0.08,0.1-0.15,0.15-0.23c0.15-0.23,0.29-0.45,0.46-0.63c0.03-0.03,0.31-0.36,0.35-0.49
							c0.4-0.37,0.73-0.78,1.05-1.18c0.34-0.43,0.66-0.83,1.05-1.17c0.02-0.02,0.56-0.57,0.86-0.82c0.28-0.23,0.56-0.46,0.81-0.75
							c0.12-0.03,0.22-0.1,0.29-0.2c0.01-0.01,0.02-0.03,0.02-0.05c0.88-0.66,1.79-1.32,2.94-1.65c0.05-0.02,0.09-0.03,0.13-0.06
							c0.1-0.07,0.17-0.09,0.3-0.11c0.06-0.01,0.14-0.03,0.22-0.05c0.05,0,0.11,0,0.16,0c0.28,0,0.4,0.02,0.47,0.07
							c0.09,0.78-0.01,1.5-0.26,1.92c-0.07,0.1-0.1,0.2-0.12,0.27c-0.04,0.04-0.07,0.09-0.09,0.15c-0.15,0.45-0.39,0.87-0.64,1.32
							c-0.17,0.3-0.35,0.62-0.5,0.95c-0.12,0.21-0.23,0.43-0.33,0.63c-0.15,0.31-0.3,0.6-0.49,0.86c-0.02,0.02-0.03,0.05-0.04,0.08
							c-0.18,0.42-0.33,0.83-0.47,1.23c-0.17,0.48-0.33,0.93-0.55,1.38c-0.01,0.03-0.02,0.05-0.03,0.08
							c-0.41,1.57-1.17,3.6-1.69,4.87c-0.2,0.4-0.74,1.97-0.85,2.52c-0.26,0.59-0.37,1.15-0.47,1.69c-0.07,0.35-0.14,0.72-0.25,1.09
							c-0.01,0.04-0.02,0.08-0.02,0.12c-0.01,0.36-0.05,0.65-0.11,0.83c-0.02,0.05-0.02,0.1-0.02,0.15c0,0.06-0.03,0.15-0.05,0.24
							c-0.05,0.18-0.12,0.4-0.06,0.66c-0.07,0.29-0.08,0.59-0.07,0.87c0,0.16,0,0.3-0.01,0.44c0,0.04,0,0.07,0,0.1
							c0.14,0.97,0.45,2.16,1.57,2.83c0.75,0.8,1.87,1.1,3.01,0.8c0.07-0.02,0.13-0.05,0.18-0.1c0.95-0.83,1.59-1.95,2.15-2.94
							c0.11-0.15,0.21-0.3,0.3-0.44c0.24-0.37,0.47-0.71,0.8-0.97c0.04-0.03,0.08-0.08,0.1-0.12c0.57-0.97,1.14-1.7,1.75-2.23
							c0.03-0.03,0.07-0.06,0.09-0.1c0.42-0.69,1.35-1.43,2.11-2.03c0.21-0.05,0.35-0.18,0.44-0.26c0.02-0.01,0.03-0.03,0.05-0.04
							c0.22-0.07,0.39-0.21,0.55-0.33c0.04-0.03,0.08-0.07,0.12-0.09c0.13-0.05,0.25-0.12,0.36-0.18c0.09-0.05,0.18-0.11,0.24-0.12
							c0.06-0.02,0.11-0.04,0.16-0.08c0.13-0.1,0.32-0.19,0.51-0.27c0.37-0.16,0.78-0.35,0.99-0.76
							C153.89,76.27,153.86,76.07,153.73,75.93z"/>
					</g>
					<path class="st3" d="M127.01,60.98c-0.01-0.02-0.02-0.06-0.04-0.1c-0.05-0.15-0.14-0.41-0.38-0.58
						c-0.09-0.24-0.28-0.38-0.38-0.45c-0.02-0.01-0.03-0.02-0.05-0.04c-0.01-0.19-0.14-0.37-0.33-0.42
						c-0.43-0.11-0.77,0.1-1.02,0.26c-0.13,0.08-0.25,0.16-0.35,0.17c-0.06,0-0.11,0.02-0.17,0.05c-0.16,0.09-0.29,0.19-0.4,0.27
						c-0.06,0.05-0.12,0.09-0.18,0.13l-0.84-0.62c-0.05-0.04-0.1-0.06-0.16-0.07c-0.07-0.14-0.2-0.24-0.36-0.25
						c0.01,0,0.02,0,0.02,0c-0.02-0.01-0.07-0.06-0.11-0.1c-0.05-0.06-0.12-0.12-0.2-0.18c-0.07-0.05-0.16-0.08-0.25-0.09
						c0.01,0,0.01,0,0.01,0c-0.05-0.01-0.19-0.1-0.28-0.15c-0.18-0.11-0.39-0.23-0.63-0.31c-0.03-0.01-0.07-0.02-0.1-0.02
						c-0.08-0.01-0.18-0.05-0.3-0.11c-0.21-0.1-0.49-0.24-0.85-0.18c-0.02-0.01-0.04-0.01-0.06-0.02c-0.3-0.1-0.72-0.25-1.11-0.1
						c-0.11-0.02-0.21-0.02-0.3-0.02c-0.09,0-0.2,0-0.23-0.02c-0.12-0.09-0.28-0.11-0.43-0.06c-0.19,0.08-0.51,0.07-0.79,0.06
						c-0.27-0.01-0.52-0.01-0.75,0.03c-0.01,0-0.03,0-0.04,0.01c-0.14,0.04-0.3,0.06-0.48,0.08c-0.24,0.03-0.51,0.07-0.77,0.17
						c-0.44,0.02-0.82,0.17-1.15,0.31c-0.26,0.11-0.51,0.21-0.76,0.24c-0.05,0.01-0.1,0.02-0.14,0.04c-1.1,0.54-1.94,1.13-2.48,1.75
						c-0.63,0.75-1.3,1.63-1.49,2.74c-0.05,0.1-0.06,0.2-0.06,0.28c-0.05,0.05-0.08,0.12-0.1,0.18c-0.03,0.1-0.02,0.19,0,0.29
						c-0.03,0.13-0.03,0.25-0.03,0.34c0,0.04,0,0.1,0,0.12c-0.02,0.03-0.03,0.05-0.04,0.08c-0.11,0.28-0.05,0.54,0,0.75
						c0.03,0.13,0.06,0.25,0.04,0.33c-0.02,0.06-0.02,0.13,0,0.19c-0.01,0.05-0.02,0.1-0.01,0.17c0.01,0.06,0.03,0.11,0.05,0.16
						c0.08,0.51,0.27,0.99,0.45,1.45c0.1,0.26,0.2,0.51,0.28,0.75c0.03,0.1,0.1,0.19,0.19,0.24c0.02,0.01,0.03,0.04,0.08,0.13
						c0.05,0.13,0.14,0.31,0.33,0.46c0.3,0.33,0.53,0.68,0.7,1.08c0.03,0.07,0.08,0.13,0.14,0.18c0.33,0.25,0.55,0.61,0.79,0.99
						c0.18,0.3,0.37,0.61,0.64,0.89c0.16,0.25,0.36,0.48,0.55,0.71c0.29,0.34,0.56,0.67,0.69,1c0.03,0.07,0.07,0.12,0.12,0.17
						c0.29,0.26,0.45,0.59,0.62,0.97c0.11,0.24,0.22,0.48,0.37,0.71c0,0.04,0.01,0.09,0.01,0.14c0,0.23,0.01,0.56,0.21,0.83
						c0.03,0.15-0.02,0.32-0.11,0.56c-0.04,0.13-0.09,0.26-0.12,0.41c-0.44,0.85-1.09,1.9-2.13,2.55c-0.4,0.17-0.77,0.4-1.13,0.62
						c-0.28,0.18-0.55,0.34-0.82,0.48c-0.32,0.05-0.6,0.13-0.87,0.22c-0.4,0.13-0.75,0.24-1.19,0.21c-0.12-0.01-0.23,0.03-0.32,0.1
						c-0.11,0.09-0.37,0.09-0.6,0.09c-0.14,0-0.29,0-0.43,0.02c-0.04,0-0.07,0.01-0.1,0.03c-0.11,0.04-0.15,0.04-0.15,0.04
						c-0.01,0-0.03-0.01-0.04-0.02c-0.16-0.06-0.33-0.11-0.62-0.06c-0.23-0.11-0.46-0.18-0.68-0.18c-0.17-0.12-0.34-0.17-0.49-0.21
						c-0.08-0.02-0.18-0.05-0.2-0.07c-0.08-0.08-0.18-0.13-0.29-0.14c-0.31-0.03-0.55-0.29-0.86-0.65
						c-0.04-0.05-0.09-0.08-0.15-0.11c-0.03-0.03-0.08-0.14-0.11-0.21c-0.09-0.21-0.21-0.48-0.48-0.68
						c-0.11-0.08-0.25-0.11-0.38-0.07c-0.44,0.12-0.62,0.44-0.54,0.97c0.01,0.03,0.01,0.08,0.01,0.09c0,0,0-0.01,0.01-0.04
						c-0.01,0.04-0.01,0.08-0.01,0.11c0,0.09-0.01,0.21-0.03,0.34c-0.05,0.41-0.1,0.96,0.27,1.33c0.39,0.73,0.85,1.13,1.57,1.61
						c0.04,0.03,0.09,0.05,0.15,0.07c0.05,0.01,0.13,0.06,0.21,0.1c0.1,0.06,0.23,0.13,0.38,0.18c0.18,0.13,0.39,0.16,0.53,0.17
						c0.02,0,0.04,0,0.05,0.01c0.06,0.08,0.14,0.14,0.23,0.17l0.6,0.18c0.18,0.14,0.37,0.18,0.52,0.21
						c0.06,0.01,0.12,0.03,0.19,0.04c0.12,0.04,0.25,0.02,0.36-0.04c0,0,0,0,0,0c0.04-0.01,0.19,0.01,0.28,0.03
						c0.17,0.03,0.37,0.07,0.58,0.04c0.02,0.01,0.05,0.01,0.07,0.01l0.48,0c-0.04,0-0.09-0.01-0.13-0.02
						c0.14,0.04,0.28,0.03,0.42,0.02c0.07,0,0.19-0.01,0.23,0c0.12,0.03,0.26,0.02,0.36-0.05c0.08-0.05,0.3-0.04,0.47-0.03
						c0.14,0.01,0.29,0.02,0.44,0c0.07-0.01,0.14-0.03,0.2-0.08c0,0-0.01,0-0.01,0c0.05-0.02,0.21-0.02,0.3-0.01
						c0.04,0,0.08,0,0.12,0c0.1,0,0.19-0.03,0.27-0.09c0.02,0,0.08,0,0.12,0c0.14,0.01,0.38,0.01,0.6-0.12
						c0.91,0.02,1.73-0.23,2.53-0.48c0.38-0.12,0.74-0.23,1.1-0.31c0.06-0.01,0.12-0.04,0.17-0.08c0.21-0.16,0.52-0.25,0.84-0.34
						c0.47-0.13,1.01-0.28,1.39-0.73c1.33-0.56,2.3-1.81,2.81-3.62c0.02-0.08,0.02-0.17-0.01-0.26c0.13-0.34,0.01-0.65-0.07-0.83
						c-0.03-0.08-0.07-0.16-0.07-0.21c0-0.06-0.01-0.12-0.04-0.17c-0.08-0.18-0.13-0.38-0.18-0.59c-0.12-0.48-0.26-1.01-0.74-1.43
						c-0.03-0.05-0.06-0.1-0.09-0.16c-0.08-0.16-0.19-0.36-0.36-0.51c-0.08-0.16-0.2-0.28-0.29-0.37c-0.04-0.04-0.09-0.09-0.11-0.12
						c0-0.12-0.04-0.23-0.12-0.31c-0.13-0.13-0.23-0.29-0.34-0.46c-0.16-0.24-0.35-0.51-0.63-0.74c-0.1-0.23-0.22-0.41-0.33-0.57
						c-0.09-0.13-0.18-0.25-0.25-0.4c-0.2-0.4-0.46-0.69-0.7-0.97c-0.29-0.33-0.54-0.62-0.65-1.01c-0.01-0.04-0.03-0.07-0.05-0.1
						l-0.07-0.12c-0.19-0.33-0.42-0.7-0.77-0.99c-0.03-0.2-0.09-0.37-0.15-0.52c-0.05-0.15-0.1-0.27-0.11-0.38
						c-0.01-0.09-0.04-0.17-0.09-0.25c-0.11-0.14-0.13-0.36-0.15-0.62c-0.01-0.16-0.03-0.32-0.07-0.49
						c0.02-0.08,0.04-0.16,0.05-0.24c0.1-0.45,0.19-0.88,0.42-1.21c0.03-0.04,0.05-0.08,0.07-0.13c0.16-0.52,0.61-0.87,1.13-1.27
						c0.15-0.11,0.3-0.24,0.45-0.36l0.05-0.01c0.06-0.02,0.12-0.04,0.17-0.08c0.44-0.36,1.01-0.61,1.56-0.85l0.12-0.05
						c0.01,0,0.08-0.01,0.15-0.02c0.15-0.02,0.37-0.05,0.57-0.19c0.32-0.05,0.63-0.13,0.94-0.2c0.27-0.06,0.53-0.12,0.79-0.17
						c0.06-0.01,0.12-0.04,0.17-0.08c0.02,0,0.06,0,0.08,0c0.12,0,0.32,0,0.51-0.11c0.09,0,0.18-0.01,0.27-0.02
						c-0.41,0.4-0.62,0.91-0.8,1.35l-0.08,0.18c-0.21,0.54-0.1,1.07-0.01,1.49c0.02,0.1,0.04,0.19,0.06,0.28
						c0.02,0.11,0.08,0.22,0.18,0.29c0.19,0.14,0.54,0.39,0.98,0.26c0.17-0.05,0.29-0.19,0.32-0.37l0.03-0.26
						c0.13-0.15,0.25-0.3,0.36-0.44c0.38-0.49,0.74-0.95,1.31-1.13c0.09-0.03,0.17-0.08,0.23-0.16c0.25-0.33,0.71-0.56,1.12-0.57
						c0.05,0,0.1-0.01,0.15-0.03c0.09-0.03,0.2-0.06,0.32-0.08c0.23-0.05,0.5-0.11,0.74-0.27c0.03-0.02,0.06-0.05,0.09-0.08
						c0.34-0.38,0.5-0.84,0.45-1.35C127.04,61.07,127.03,61.03,127.01,60.98z"/>
					<path class="st3" d="M95.09,55.76c-0.02-0.04-0.03-0.08-0.04-0.11c-0.02-0.07-0.07-0.12-0.12-0.17
						c-0.09-0.08-0.13-0.22-0.18-0.43c-0.05-0.22-0.11-0.46-0.28-0.69c-0.06-0.08-0.15-0.14-0.24-0.17
						c-0.04-0.15-0.15-0.27-0.31-0.32c-0.1-0.03-0.16-0.09-0.28-0.25c-0.08-0.11-0.18-0.24-0.32-0.35c-0.06-0.05-0.14-0.08-0.22-0.1
						c-0.04-0.01-0.08-0.04-0.18-0.12c-0.11-0.09-0.26-0.22-0.48-0.29c-0.08-0.03-0.16-0.02-0.23-0.01c-0.02,0-0.06-0.01-0.09-0.02
						c-0.09-0.03-0.22-0.06-0.35-0.05c-0.72-0.28-1.53-0.25-2.26-0.22c-0.28,0.01-0.55,0.02-0.79,0.02c-0.04,0-0.08,0-0.11,0.01
						c-0.04,0.01-0.07,0.02-0.11,0.02c-0.14,0.03-0.31,0.06-0.47,0.15c-0.31,0.01-0.61,0.06-0.91,0.15
						c-0.04,0.01-0.08,0.03-0.11,0.05c-0.03,0.02-0.11,0.04-0.18,0.06c-0.13,0.03-0.29,0.08-0.45,0.18
						c-0.18,0.03-0.32,0.12-0.41,0.18c-0.03,0.02-0.06,0.04-0.07,0.04c-0.01,0-0.02,0-0.03,0.01c-0.41,0.13-0.75,0.31-1.07,0.49
						c-0.28,0.15-0.54,0.29-0.84,0.4c-0.07,0.02-0.12,0.07-0.17,0.12c-0.1,0-0.19,0.03-0.27,0.1c-0.29,0.23-0.58,0.46-0.87,0.68
						c-0.74,0.57-1.51,1.16-2.2,1.82c-0.04,0.04-0.07,0.08-0.09,0.13c-0.03,0.06-0.09,0.11-0.19,0.19c-0.13,0.1-0.29,0.23-0.4,0.44
						c-0.15,0.08-0.25,0.18-0.3,0.28c-0.16,0.13-0.28,0.29-0.38,0.42c-0.07,0.1-0.14,0.18-0.2,0.24c-0.03,0.03-0.05,0.05-0.08,0.09
						c-0.2,0.29-0.43,0.57-0.66,0.84c-0.34,0.41-0.68,0.83-0.94,1.3c-0.06,0.04-0.11,0.09-0.15,0.16c-0.41,0.74-0.8,1.4-1.28,2.01
						c-0.03,0.04-0.05,0.08-0.07,0.12c-0.2,0.55-0.54,1.04-0.89,1.57c-0.22,0.32-0.44,0.65-0.63,0.99c0.25-0.88,0.48-1.72,0.72-2.67
						c0.06-0.19,0.05-0.4,0.04-0.58c0-0.11-0.01-0.27,0.01-0.31c0.07-0.1,0.1-0.22,0.08-0.34c-0.08-0.51-0.39-0.86-0.65-1.16
						c-0.12-0.14-0.23-0.26-0.31-0.4c-0.04-0.06-0.09-0.11-0.15-0.14l-0.31-0.18c-0.81-0.47-1.65-0.95-2.8-0.9
						c-0.31-0.12-0.66-0.14-0.97-0.15c-0.15,0-0.3-0.01-0.4-0.03c-0.04-0.01-0.08-0.01-0.12-0.01c-0.68,0.06-1.41,0.02-2.06-0.12
						c-0.02,0-0.04-0.01-0.06-0.01c-0.22-0.01-0.39,0.04-0.52,0.16c-0.19,0.18-0.19,0.41-0.19,0.52c0,0.02,0,0.03,0,0.04
						c-0.01,0.12,0.03,0.25,0.12,0.34c0.03,0.03,0.05,0.06,0.08,0.1c0.14,0.17,0.37,0.44,0.81,0.47c0.17,0.09,0.34,0.15,0.49,0.21
						c0.14,0.05,0.25,0.09,0.35,0.15c0.04,0.15,0.04,0.32,0.04,0.5c0,0.19,0,0.39,0.05,0.6c-0.08,0.17-0.07,0.35-0.06,0.44
						c0,0.01,0,0.02,0,0.03c-0.03,0.06-0.06,0.13-0.06,0.2c-0.04,0.72-0.23,1.39-0.44,2.1c-0.1,0.25-0.13,0.5-0.15,0.71
						c-0.01,0.11-0.02,0.21-0.04,0.29c-0.1,0.48-0.24,0.96-0.37,1.42c-0.08,0.27-0.16,0.55-0.23,0.83
						c-0.15,0.36-0.25,0.73-0.35,1.08c-0.14,0.5-0.28,0.97-0.51,1.4c-0.04,0.08-0.06,0.17-0.05,0.26c0.02,0.23-0.08,0.49-0.19,0.76
						c-0.07,0.17-0.14,0.35-0.19,0.55c-0.01,0.03-0.01,0.07-0.01,0.1c0,0.16-0.09,0.36-0.19,0.57c-0.13,0.28-0.26,0.6-0.26,0.96
						c-0.15,0.44-0.29,0.88-0.43,1.31l-0.26,0.8l-0.06,0.14c-0.11,0.25-0.23,0.5-0.28,0.71c0,0.02-0.01,0.04-0.01,0.06
						c-0.04,0.58-0.25,1.19-0.43,1.67c-0.03,0.06-0.05,0.11-0.08,0.18l-0.12,0.26c-0.03,0.06-0.04,0.13-0.04,0.21
						c0,0.07-0.07,0.26-0.1,0.37l-0.04,0.12c-0.01,0.04-0.02,0.09-0.02,0.13c0,0.27-0.06,0.52-0.16,0.79
						c-0.02,0.05-0.03,0.11-0.03,0.17c-0.15,0.21-0.17,0.39-0.13,0.54c-0.14,0.3-0.19,0.6-0.23,0.87c-0.03,0.17-0.05,0.32-0.09,0.46
						c-0.02,0.07-0.02,0.14-0.01,0.21c0.23,1.25,1.16,2.35,2.39,2.86c0.17,0.22,0.44,0.27,0.58,0.29c0.04,0.01,0.09,0.02,0.11,0.02
						c0,0-0.02-0.01-0.04-0.03c0.07,0.07,0.17,0.1,0.27,0.11c0.03,0,0.07,0.01,0.12,0.01c0.24,0.02,0.59,0.05,0.88-0.11
						c0.55-0.04,0.79-0.44,0.93-0.69c0.06-0.11,0.12-0.21,0.18-0.26c0.08-0.06,0.13-0.14,0.16-0.23c0.39-1.34,0.91-2.66,1.42-3.94
						l0.32-0.82c-0.01,0.01-0.01,0.03-0.02,0.04c0.08-0.16,0.1-0.32,0.11-0.44c0-0.04,0.01-0.08,0.01-0.11
						c0.13-0.08,0.21-0.22,0.22-0.38c0-0.21,0.12-0.42,0.3-0.69c0.03-0.05,0.05-0.09,0.06-0.15c0.04-0.17,0.11-0.3,0.23-0.44
						c0.04-0.05,0.07-0.11,0.09-0.17c0.27-0.96,0.55-1.7,1.08-2.44c0.06-0.09,0.09-0.19,0.08-0.29c-0.01-0.15,0.09-0.34,0.19-0.55
						c0.09-0.18,0.19-0.37,0.25-0.59c0.09-0.15,0.16-0.29,0.23-0.42c0.09-0.18,0.16-0.34,0.28-0.48c0.05-0.05,0.08-0.12,0.1-0.18
						c0.06-0.25,0.2-0.5,0.36-0.76c0.15-0.27,0.31-0.54,0.41-0.85c0.39-0.43,0.6-0.9,0.79-1.35c0.15-0.34,0.29-0.67,0.51-0.95
						c0.07-0.09,0.1-0.2,0.09-0.32c0.09-0.07,0.15-0.16,0.17-0.27c-0.01,0.03-0.02,0.05-0.02,0.05c0.01-0.02,0.04-0.05,0.06-0.08
						c0.06-0.08,0.21-0.25,0.24-0.48c0.3-0.3,0.48-0.63,0.64-0.94c0.15-0.29,0.29-0.56,0.52-0.78c-0.01,0.01-0.03,0.02-0.04,0.04
						c0.17-0.12,0.23-0.29,0.26-0.4c0.09-0.04,0.17-0.11,0.23-0.2c0.33-0.6,0.92-1.3,1.44-1.9l0.23-0.26
						c0.03-0.03,0.05-0.07,0.07-0.11l0.02-0.06c0.01-0.03,0.03-0.07,0.04-0.09c0.15-0.03,0.27-0.13,0.33-0.27
						c0.12-0.29,0.34-0.51,0.61-0.76c0.14-0.13,0.29-0.29,0.44-0.45c0.23-0.08,0.35-0.26,0.41-0.34l0,0
						c0.05-0.02,0.1-0.05,0.14-0.09c0.7-0.67,1.37-1.23,2.25-1.87c-0.02,0.01-0.03,0.02-0.05,0.03c0.14-0.08,0.25-0.19,0.34-0.29
						c0.07-0.07,0.19-0.19,0.23-0.19c0.09,0,0.18-0.02,0.26-0.07l0.1-0.07c1.07-0.68,2.08-1.33,3.32-1.66
						c0.04-0.01,0.08-0.03,0.12-0.05c0.29-0.18,0.64-0.29,1.02-0.4c0.16-0.05,0.33-0.11,0.5-0.17c0.23-0.03,0.49-0.05,0.77-0.08
						c0.59-0.06,1.19-0.11,1.69-0.2c0.19,0.08,0.4,0.08,0.55,0.07c0.07,0,0.16-0.01,0.2,0c0.07,0.05,0.15,0.08,0.24,0.08
						c0.45,0.02,0.77,0.28,1.11,0.91c0.05,0.09,0.12,0.16,0.21,0.2c0.4,0.17,0.79,0.06,1.01-0.28
						C95.38,56.4,95.19,55.98,95.09,55.76z"/>
					<g>
						<path class="st3" d="M83.74,45.81c0.02-0.11,0.04-0.32-0.08-0.51c-0.05-0.28-0.25-0.46-0.37-0.57
							c-0.04-0.04-0.1-0.09-0.11-0.11c0,0,0,0,0,0c-0.06-0.17-0.22-0.29-0.41-0.29c-0.14,0-0.3-0.08-0.47-0.16
							c-0.13-0.07-0.27-0.13-0.42-0.17c-0.48-0.32-1.01-0.39-1.48-0.45c-0.24-0.03-0.47-0.06-0.67-0.12
							c-0.07-0.02-0.15-0.02-0.22-0.01c-0.1,0.02-0.2,0-0.37-0.05c-0.19-0.05-0.42-0.1-0.68-0.05c-0.35-0.09-0.66-0.08-0.95-0.06
							c-0.17,0.01-0.33,0.02-0.47,0c-0.23-0.08-0.55-0.13-0.93-0.01c-0.24-0.05-0.47-0.02-0.66,0.02c-0.09,0.01-0.21,0.03-0.26,0.03
							c-0.04-0.01-0.1-0.01-0.14-0.01l-1.44,0.15c-0.37-0.14-0.7-0.09-0.99,0l-0.1-0.04c-0.16-0.06-0.33-0.01-0.45,0.1
							c-0.03,0-0.08-0.01-0.11-0.01c-0.12-0.02-0.3-0.04-0.47,0.01c-0.59-0.05-1.14,0.06-1.64,0.16c-0.33,0.07-0.65,0.13-0.92,0.13
							c-0.11,0-0.21,0.04-0.3,0.12l0,0c-0.04,0.03-0.23,0.03-0.32,0.03c-0.12,0-0.25,0-0.38,0.03c-0.06,0.01-0.12,0.03-0.17,0.06
							c-0.05,0.03-0.2,0.04-0.31,0.04c-0.16,0.01-0.35,0.02-0.53,0.08c-0.29-0.1-0.55,0.05-0.65,0.11
							c-0.01,0.01-0.03,0.02-0.04,0.02c-0.07-0.02-0.15-0.02-0.22,0c-0.26,0.07-0.5,0.15-0.73,0.22c-0.17,0.05-0.33,0.1-0.5,0.15
							c-0.2-0.08-0.41-0.06-0.65,0.08c-0.01,0-0.02,0.01-0.02,0.01c-0.11-0.02-0.23,0-0.33,0.06c-0.12,0.08-0.45,0.1-0.64,0.11
							c-0.13,0.01-0.24,0.02-0.33,0.03c-0.03,0.01-0.06,0.02-0.1,0.03c-0.48,0.22-1.16,0.38-1.77,0.42
							c-0.1,0.01-0.19,0.05-0.27,0.11c-0.11,0.09-0.2,0.1-0.45,0.11c-0.19,0-0.43,0.01-0.7,0.1c-0.04,0.01-0.07,0.03-0.1,0.05
							c-0.06,0.03-0.1,0.05-0.21,0.07c-0.09,0.02-0.2,0.05-0.33,0.09c-0.33,0.01-0.55,0.16-0.7,0.26c-0.14,0.1-0.16,0.11-0.28,0.08
							c-0.15-0.04-0.31,0-0.42,0.11c-0.05,0.05-0.2,0.07-0.33,0.09c-0.13,0.02-0.27,0.05-0.41,0.11c-0.07,0-0.14,0.01-0.21,0.02
							c-0.01,0-0.03,0-0.04,0c-0.01,0-0.01,0-0.02,0c0.01,0,0.01,0,0.02,0c-0.02,0-0.05,0.01-0.07,0.01
							c-0.21,0.04-0.4,0.11-0.57,0.17c-0.24,0.07-0.5,0.15-0.75,0.25c-0.04,0.01-0.07,0.01-0.1,0.01c-0.06,0-0.12,0.02-0.17,0.05
							c-0.01,0.01-0.03,0.02-0.05,0.02c-0.31,0.06-0.63,0.15-0.88,0.31c-0.06,0.01-0.12,0.03-0.19,0.05c-0.09,0-0.19,0.02-0.27,0.07
							l-0.05,0.01c-0.25,0.07-0.5,0.13-0.75,0.18c-0.06,0.01-0.12,0.04-0.17,0.07c-0.06,0.04-0.2,0.07-0.33,0.09
							c-0.22,0.04-0.48,0.09-0.7,0.27c0,0,0,0,0,0c0,0,0.01,0,0.01-0.01c0,0-0.01,0.01-0.02,0.01c-0.11,0.02-0.22,0.05-0.33,0.09
							l-0.07,0.01c-0.22,0.03-0.48,0.08-0.73,0.24c-0.35-0.02-0.62,0.04-0.85,0.21c-0.2,0.03-0.37,0.09-0.52,0.14
							c-0.17,0.06-0.31,0.11-0.48,0.1c-0.13-0.01-0.25,0.04-0.34,0.13c-0.01,0-0.01,0-0.02,0c-0.11,0.01-0.28,0.02-0.44,0.12
							c-0.23,0.03-0.46,0.07-0.67,0.12c-0.3,0.07-0.58,0.13-0.8,0.1c-0.07-0.01-0.14,0-0.21,0.02c-0.09,0.03-0.11,0.04-0.32-0.15
							c-0.15-0.13-0.34-0.3-0.61-0.36c-0.14-0.03-0.29,0.01-0.4,0.1l-0.33,0.29c-0.11,0.1-0.16,0.24-0.15,0.39
							c0.14,1.19,1.01,2.35,2.27,3.03c0.02,0.01,0.05,0.02,0.07,0.02c0.01,0.01,0.03,0.03,0.04,0.04c0.08,0.09,0.23,0.26,0.48,0.28
							c0.05,0,0.1,0,0.17-0.02c0.18,0.06,0.35,0.09,0.51,0.1c0.15,0.02,0.3,0.04,0.38,0.09c0.08,0.05,0.17,0.07,0.26,0.07
							c0.14-0.01,0.3,0.02,0.46,0.05c0.05,0.01,0.11,0.02,0.16,0.03c0.08,0.01,0.16,0,0.24-0.03c0.1-0.04,0.28-0.03,0.44,0.01
							c0.11,0.03,0.22,0.01,0.32-0.04c0.09,0.02,0.23,0.02,0.37-0.05c0.04-0.01,0.11-0.03,0.17-0.04c0.24-0.05,0.59-0.14,0.97-0.28
							c-0.01,0,0.19-0.06,0.44-0.14c-0.22,0.3-0.34,0.61-0.45,0.9c-0.11,0.29-0.2,0.54-0.39,0.76c-0.08,0.09-0.11,0.21-0.11,0.32
							c-0.03,0.03-0.06,0.06-0.07,0.09c-0.15,0.28-0.27,0.56-0.39,0.83c-0.13,0.31-0.25,0.6-0.42,0.86
							c-0.01,0.01-0.02,0.03-0.02,0.04c-0.09,0.19-0.17,0.39-0.25,0.58c-0.13,0.32-0.25,0.62-0.42,0.88
							c-0.37,0.71-0.62,1.42-0.85,2.1l-0.09,0.25c-0.23,0.37-0.37,0.74-0.51,1.1c-0.14,0.38-0.28,0.75-0.52,1.07
							c-0.03,0.04-0.06,0.09-0.07,0.13c-0.02,0.08-0.04,0.15-0.06,0.22c-0.05,0.18-0.1,0.35-0.19,0.49
							c-0.05,0.09-0.08,0.19-0.07,0.29c0.01,0.06-0.04,0.21-0.08,0.31c-0.02,0.06-0.04,0.11-0.06,0.17
							c-0.26,0.34-0.38,0.71-0.48,1.03c-0.08,0.26-0.16,0.51-0.31,0.72c-0.03,0.05-0.05,0.1-0.07,0.16
							c-0.06,0.28-0.15,0.55-0.25,0.84c-0.04,0.12-0.08,0.25-0.12,0.37c-0.13,0.05-0.26,0.1-0.38,0.15
							c-0.3,0.12-0.57,0.23-0.83,0.28c-0.02,0.01-0.04,0.01-0.06,0.02c-0.05-0.01-0.11-0.01-0.16,0c-0.15,0.03-0.28,0.08-0.38,0.12
							c-0.14,0.06-0.21,0.08-0.29,0.07c-0.06,0-0.13,0-0.18,0.02c-0.16,0.05-0.32,0.12-0.47,0.18C42.6,68.37,42.3,68.5,42,68.5
							c-0.19,0-0.36,0.13-0.42,0.31c-0.21,0.62,0.2,1.07,0.44,1.33c0.06,0.06,0.11,0.12,0.15,0.17c0.03,0.04,0.06,0.07,0.1,0.1
							c0.28,0.19,0.55,0.25,0.8,0.3c0.13,0.03,0.25,0.05,0.36,0.1c0.1,0.04,0.21,0.04,0.32,0.01c0.09-0.03,0.22-0.02,0.37-0.02
							c0.12,0.01,0.26,0.01,0.41,0c-0.15,0.29-0.24,0.58-0.33,0.86c-0.09,0.28-0.17,0.54-0.3,0.77c-0.04,0.06-0.06,0.13-0.06,0.21
							c-0.01,0.26-0.11,0.54-0.21,0.82c-0.12,0.35-0.25,0.74-0.25,1.16c-0.17,0.25-0.26,0.53-0.33,0.78
							c-0.07,0.24-0.13,0.45-0.27,0.62c-0.07,0.1-0.1,0.22-0.09,0.34c0.04,0.24-0.07,0.57-0.28,0.83c-0.06,0.07-0.09,0.16-0.1,0.25
							c-0.01,0.15-0.08,0.33-0.15,0.51c-0.08,0.21-0.17,0.45-0.2,0.71c-0.25,0.4-0.36,0.85-0.46,1.25
							c-0.06,0.24-0.11,0.47-0.18,0.62c-0.03,0.06-0.04,0.12-0.04,0.19c0,0.14-0.03,0.35-0.06,0.58c-0.05,0.42-0.1,0.85-0.04,1.2
							c-0.01,0.03-0.02,0.06-0.03,0.09c-0.09,0.23-0.22,0.57-0.09,0.9c-0.05,0.48,0,0.99,0.06,1.49c0.02,0.16,0.04,0.32,0.05,0.48
							c0.01,0.12,0.07,0.22,0.15,0.3c0.01,0.02,0.01,0.08,0.02,0.12c0.01,0.16,0.03,0.4,0.22,0.63c0.02,0.03,0.05,0.05,0.08,0.07
							c0.04,0.03,0.09,0.16,0.13,0.25c0.1,0.24,0.26,0.62,0.67,0.82c0.18,0.33,0.53,0.47,0.78,0.58c0.11,0.04,0.26,0.1,0.3,0.15
							c0.02,0.02,0.05,0.04,0.07,0.06c0.41,0.28,0.87,0.3,1.27,0.32c0.13,0.01,0.25,0.01,0.37,0.02c0.44,0.06,0.92,0.12,1.44,0.06
							c0.16-0.01,0.29-0.12,0.35-0.26c0.01-0.01,0.03-0.02,0.05-0.03c0.12-0.08,0.41-0.26,0.41-0.66c0-0.11-0.04-0.23-0.12-0.31
							c-0.34-0.36-0.47-0.85-0.41-1.65c0-0.06,0-0.12-0.02-0.17c-0.07-0.21-0.01-0.4,0.1-0.71c0.11-0.3,0.25-0.67,0.17-1.1
							c0.18-0.52,0.27-1.16,0.34-1.79c0.08-0.7,0.17-1.43,0.39-1.89c0.02-0.04,0.03-0.08,0.04-0.13c0.07-0.43,0.2-0.85,0.39-1.3
							c0.01-0.02,0.02-0.05,0.03-0.07c0.06-0.23,0.11-0.46,0.16-0.68c0.1-0.45,0.2-0.87,0.34-1.29c0.14-0.38,0.27-0.79,0.41-1.18
							c0.17-0.53,0.36-1.07,0.56-1.59c0.48-1.21,1.05-2.64,1.69-4.05c0.14-0.15,0.23-0.32,0.29-0.47c0.03-0.06,0.07-0.16,0.1-0.19
							c0.01,0,0.02,0,0.06,0c0.18,0.02,0.35-0.06,0.44-0.21c0.02-0.03,0.02-0.05,0.03-0.08c0.02-0.01,0.04-0.03,0.06-0.04
							c0.53-0.15,1-0.39,1.49-0.66c0.22,0,0.38-0.1,0.47-0.16c0.02-0.02,0.05-0.03,0.07-0.04c0.14,0.02,0.3-0.02,0.4-0.12
							c0.01,0,0.01,0,0.02,0c0.1,0,0.26-0.01,0.42-0.11c0.27-0.02,0.47-0.13,0.61-0.21c0.12-0.07,0.17-0.1,0.23-0.1
							c0.16,0,0.3-0.08,0.38-0.21c0.03,0,0.06,0,0.09-0.01c0.15-0.01,0.35-0.02,0.55-0.13c0.25-0.04,0.47-0.12,0.68-0.2
							c0.23-0.08,0.44-0.17,0.65-0.17c0.11,0,0.21-0.05,0.29-0.12c0.06-0.05,0.29-0.06,0.46-0.07c0.29-0.01,0.64-0.02,0.93-0.22
							c0.56-0.11,1.14-0.24,1.67-0.49c0.34-0.02,0.61-0.14,0.85-0.25c0.2-0.1,0.38-0.18,0.57-0.18c0.06,0,0.11-0.01,0.16-0.04
							c0.44-0.19,0.66-0.22,1.06-0.26c0.16-0.02,0.34-0.04,0.57-0.07c0.14-0.02,0.26-0.11,0.33-0.23c0.07-0.12,0.07-0.27,0.01-0.4
							c-0.18-0.39-0.62-1.03-1.21-1.12c-0.54-0.21-0.84-0.2-1.15-0.19c-0.17,0.01-0.35,0.01-0.62-0.02
							c-0.11-0.01-0.21,0.01-0.3,0.07c-0.12,0.08-0.38,0.09-0.63,0.1c-0.24,0.01-0.48,0.02-0.72,0.08c-0.27-0.02-0.48,0.11-0.61,0.2
							c-0.02,0.01-0.04,0.03-0.07,0.04c-0.15-0.08-0.33-0.08-0.47,0.01c-0.1,0.07-0.32,0.09-0.52,0.1c-0.19,0.02-0.38,0.04-0.57,0.1
							c-0.14,0.02-0.24,0.08-0.3,0.12c-0.32-0.02-0.63,0.08-0.89,0.16c-0.23,0.07-0.44,0.14-0.66,0.14c-0.12,0-0.23,0.05-0.31,0.13
							c-0.03,0-0.08,0.01-0.12,0.01c-0.13,0.01-0.32,0.02-0.49,0.12c-0.3,0.04-0.54,0.13-0.76,0.22c-0.11,0.05-0.21,0.09-0.31,0.12
							c0.03-0.01-0.83,0.18-0.83,0.18l-0.82,0.18c0.01-0.02,0.02-0.05,0.03-0.07c0.2-0.51,0.4-0.99,0.72-1.42
							c0.02-0.03,0.04-0.06,0.05-0.09c0.13-0.29,0.29-0.6,0.45-0.89c0.17-0.32,0.34-0.64,0.48-0.97c0.13-0.17,0.21-0.35,0.26-0.5
							c0.05-0.13,0.08-0.22,0.14-0.26c0.05-0.05,0.1-0.1,0.12-0.17l0.03-0.07c0.1-0.25,0.22-0.53,0.38-0.68
							c0.04-0.04,0.07-0.08,0.1-0.12c0.27-0.52,0.48-1.02,0.67-1.5c0.23-0.56,0.44-1.08,0.75-1.64c0.23-0.42,0.31-0.76,0.37-1.05
							c0.06-0.28,0.11-0.52,0.3-0.83c0.07-0.12,0.08-0.26,0.03-0.38c0,0,0,0.01,0,0.01c-0.01-0.07,0.08-0.28,0.13-0.4
							c0.12-0.29,0.29-0.68,0.14-1.04c0-1.2,0.35-1.44,0.61-1.5c0.09-0.02,0.17-0.07,0.23-0.14c0.03-0.03,0.21-0.05,0.31-0.06
							c0.26-0.02,0.6-0.05,0.86-0.3c0.01,0,0.01,0,0.02,0.01c0.14,0.02,0.29-0.02,0.39-0.12c0.05-0.05,0.12-0.08,0.24-0.12
							c0.13-0.04,0.3-0.1,0.47-0.23c0.13-0.02,0.25-0.05,0.36-0.08c0.11-0.03,0.22-0.05,0.33-0.07c0.1-0.02,0.19-0.08,0.26-0.16
							c0.03,0,0.06,0,0.09,0c0.17,0.01,0.44,0.01,0.68-0.19c0.08,0,0.19-0.02,0.32-0.09c0.38,0,0.66-0.16,0.9-0.29
							c0.16-0.09,0.28-0.16,0.42-0.17c0.06-0.01,0.12-0.02,0.17-0.05c0.16-0.08,0.39-0.16,0.46-0.15c0,0-0.01,0-0.03-0.01
							c0.17,0.09,0.37,0.05,0.51-0.08c0.01,0,0.03,0,0.04,0c0.1,0,0.26-0.01,0.42-0.08c0.36,0.02,0.64-0.12,0.85-0.23
							c0.12-0.06,0.23-0.11,0.33-0.13c0.03,0,0.06-0.01,0.09-0.02c0.22-0.08,0.47-0.13,0.74-0.18c0.29-0.05,0.58-0.11,0.87-0.21
							c0.06-0.02,0.11-0.05,0.16-0.1c0.03-0.01,0.12-0.01,0.19-0.02c0.16,0,0.36-0.02,0.55-0.11c0.15-0.01,0.29-0.05,0.4-0.09
							c0.07-0.02,0.17-0.05,0.2-0.05c0.16,0.08,0.35,0.06,0.49-0.05c0.08-0.07,0.21-0.08,0.43-0.09c0.18-0.01,0.4-0.02,0.62-0.1
							c0.14,0.03,0.32,0.01,0.54-0.12c0.07,0.01,0.14,0,0.21-0.02c0.07-0.03,0.22-0.07,0.31-0.07c0.06,0.04,0.12,0.07,0.19,0.08
							c0.14,0.02,0.28-0.03,0.38-0.12c0.04-0.01,0.15-0.02,0.23-0.02c0.11,0,0.23,0,0.36-0.02c0.09-0.02,0.17-0.07,0.24-0.13
							c0.06-0.01,0.22,0.01,0.33,0.06c0.14,0.05,0.28,0.03,0.39-0.04c0.13,0.05,0.33,0.11,0.56,0.03c0.07,0,0.16-0.01,0.24-0.04
							c0.18,0.02,0.34-0.01,0.48-0.04c0.08-0.01,0.21-0.04,0.25-0.03c0,0,0,0,0,0c0.25,0.08,0.49,0.05,0.72-0.1
							c0.06,0.01,0.12,0.02,0.19,0.03c0.23,0.04,0.5,0.08,0.82,0.02c0.1,0.03,0.22,0.03,0.37-0.02c0.21,0.04,0.43,0.06,0.63,0.07
							c0.25,0.01,0.49,0.02,0.67,0.09c0.04,0.02,0.09,0.03,0.13,0.03c0.1,0.01,0.2,0,0.29,0c0.09,0,0.23-0.01,0.27,0.01
							c0,0,0,0-0.01,0c0.04,0.03,0.08,0.05,0.12,0.06c0,0.01,0,0.01,0,0.02c0,0.01,0.01,0.08,0.02,0.13
							c0.06,0.37,0.1,0.64,0.36,0.76c0.13,0.06,0.29,0.06,0.41-0.01c0.7-0.39,1.64-1.44,1.88-2.33
							C83.85,46.05,83.82,45.92,83.74,45.81z"/>
					</g>
					<path class="st3" d="M104.07,72.2c0-0.02,0-0.05,0-0.08c0-0.23-0.17-0.42-0.39-0.45c-0.58-0.07-0.89,0.18-1.04,0.41
						c-0.28,0.33-0.51,0.72-0.75,1.1c-0.27,0.45-0.53,0.87-0.88,1.25c-0.18,0.17-0.32,0.35-0.43,0.5c-0.12,0.16-0.22,0.29-0.37,0.42
						c-0.03,0.02-0.05,0.04-0.07,0.07c-0.43,0.57-0.98,1.13-1.52,1.67l-0.31,0.32c-0.45,0.53-0.82,0.85-1.25,1.21
						c-0.28,0.24-0.57,0.48-0.9,0.8c-0.3,0.16-0.54,0.4-0.75,0.62l-0.08,0.08c-0.11,0.07-0.21,0.13-0.28,0.19
						c-0.1,0.08-0.15,0.12-0.2,0.13c-0.03,0-0.06,0.01-0.08,0.02c-0.22,0.08-0.38,0.24-0.5,0.36c-0.06,0.06-0.15,0.14-0.18,0.15
						c0,0,0,0,0.01,0c-0.09,0.01-0.18,0.05-0.25,0.11c-0.46,0.41-1.04,0.68-1.65,0.97c-0.32,0.15-0.64,0.3-0.96,0.48
						c-0.34,0.17-0.65,0.29-0.96,0.37c-0.07,0.02-0.14,0.06-0.19,0.11l0,0c-0.03,0.02-0.15,0.03-0.22,0.03
						c-0.15,0.01-0.35,0.03-0.54,0.12c-0.1-0.01-0.19-0.01-0.25-0.01c-0.02,0-0.05,0-0.07,0c0,0,0.01,0,0.02,0
						c-0.08-0.02-0.17-0.01-0.24,0.02c-0.1-0.05-0.24-0.11-0.41-0.09c-0.64-0.33-0.79-1-0.95-2.04c-0.03-0.19-0.06-0.38-0.09-0.57
						c0.05-1.39,0.15-2.47,0.32-3.3c0.05-0.19,0.1-0.39,0.14-0.59c0.06-0.29,0.12-0.55,0.22-0.8c0.01,0,0.01,0,0.02,0
						c0.13-0.03,0.23-0.08,0.32-0.12c0.15-0.07,0.17-0.07,0.21-0.06c0.11,0.03,0.23,0.02,0.33-0.04c0.11-0.06,0.28-0.08,0.46-0.11
						c0.07-0.01,0.15-0.02,0.23-0.03c0.03,0,0.07-0.01,0.09-0.03c0.3-0.12,0.56-0.2,0.81-0.26c0.37-0.1,0.76-0.21,1.22-0.46
						l0.48-0.1c0.04-0.01,0.08-0.02,0.12-0.05c0.06-0.03,0.14-0.06,0.21-0.09c0.11-0.04,0.23-0.1,0.36-0.17
						c0.48-0.13,0.98-0.34,1.52-0.62c0.67-0.16,1.2-0.52,1.71-0.87c0.29-0.2,0.56-0.38,0.86-0.53c0.44-0.21,0.85-0.51,1.24-0.81
						c0.18-0.14,0.36-0.27,0.53-0.39c0.03-0.02,0.05-0.03,0.07-0.06c0.06-0.07,0.2-0.2,0.27-0.21c0.11-0.02,0.21-0.08,0.28-0.17
						c0.13-0.17,0.38-0.36,0.57-0.52l0.04-0.03c0.03-0.03,0.06-0.06,0.09-0.09c0.05-0.08,0.19-0.19,0.32-0.3
						c0.21-0.18,0.44-0.38,0.6-0.63c0.11-0.11,0.22-0.23,0.33-0.36c0.12-0.14,0.25-0.29,0.36-0.39c0.02-0.01,0.03-0.03,0.04-0.05
						c0.25-0.29,0.38-0.63,0.48-0.92c0.09-0.24,0.16-0.44,0.28-0.58c0.09-0.11,0.13-0.25,0.1-0.39c-0.03-0.12,0.01-0.21,0.1-0.4
						c0.11-0.25,0.27-0.6,0.13-1.06c0-0.02-0.01-0.08-0.02-0.14c-0.05-0.32-0.12-0.74-0.46-1.05c-0.09-0.29-0.29-0.48-0.45-0.63
						c-0.1-0.09-0.2-0.18-0.22-0.26c-0.03-0.09-0.1-0.17-0.18-0.22c-0.78-0.51-1.5-1.2-2.2-1.87c-0.38-0.37-0.77-0.74-1.17-1.09
						c-0.07-0.05-0.11-0.08-0.16-0.12c-0.23-0.17-0.49-0.37-0.83-0.45c-0.73-0.42-1.33-0.49-1.8-0.21c-0.27-0.02-0.5,0.03-0.7,0.07
						c-0.13,0.03-0.25,0.05-0.35,0.05c-0.04,0-0.07,0.01-0.11,0.02c-0.19,0.05-0.37,0.13-0.52,0.21c-0.18,0.09-0.33,0.16-0.49,0.17
						c-0.06,0-0.11,0.02-0.16,0.04c-0.15,0.07-0.31,0.12-0.48,0.18l-0.12,0.04c-0.04,0.02-0.09,0.04-0.12,0.07
						c-0.22,0.16-0.46,0.3-0.72,0.44c-0.4,0.22-0.81,0.45-1.14,0.79c-0.23,0.12-0.39,0.29-0.52,0.43c-0.12,0.12-0.21,0.22-0.33,0.28
						c-0.01,0-0.01,0.01-0.02,0.01c0.03-0.01,0.04-0.02,0.05-0.02c-0.02,0-0.04,0.02-0.07,0.03c-0.03,0.02-0.06,0.03-0.08,0.05
						c0.03-0.03,0.05-0.04,0.08-0.05c-0.13,0.05-0.24,0.12-0.29,0.23c-0.1,0.08-0.18,0.16-0.25,0.23c-0.09,0.09-0.16,0.16-0.24,0.22
						c-0.05,0.03-0.09,0.07-0.12,0.12c-0.09,0.14-0.24,0.27-0.4,0.41c-0.16,0.14-0.34,0.31-0.49,0.51c-0.26,0.2-0.4,0.43-0.5,0.63
						c-0.09,0.16-0.16,0.28-0.29,0.38c-0.09,0.06-0.15,0.16-0.17,0.26c-0.03,0.12-0.14,0.25-0.26,0.4c-0.12,0.14-0.25,0.3-0.34,0.49
						c-0.28,0.35-0.49,0.72-0.69,1.08l-0.16,0.28c-0.01,0.02-0.02,0.03-0.03,0.05c-0.06,0.14-0.16,0.28-0.27,0.44
						c-0.2,0.27-0.43,0.6-0.48,1.02c-0.47,0.65-0.71,1.38-0.86,1.91c-0.21,0.28-0.31,0.58-0.39,0.85c-0.07,0.23-0.13,0.43-0.25,0.57
						c-0.09,0.1-0.13,0.24-0.1,0.37c0.01,0.06-0.02,0.14-0.08,0.28c-0.08,0.18-0.18,0.43-0.16,0.74l-0.14,0.43
						c-0.06-0.03-0.11-0.06-0.18-0.09c-0.04-0.02-0.08-0.03-0.12-0.04c-0.3-0.05-0.58-0.24-0.88-0.44
						c-0.18-0.13-0.38-0.26-0.58-0.36c-0.18-0.11-0.36-0.26-0.55-0.43c-0.21-0.19-0.43-0.38-0.72-0.54
						c-0.17-0.1-0.39-0.07-0.54,0.07c-0.47,0.46-0.24,0.97-0.13,1.21c0.03,0.07,0.08,0.18,0.08,0.22c0,0.02,0,0.04,0,0.06
						c0.06,0.69,0.56,1.1,1,1.45l0.13,0.11c0.09,0.07,0.2,0.11,0.31,0.1c0.14-0.01,0.27,0.06,0.48,0.18c0.23,0.13,0.52,0.3,0.9,0.3
						c0.12,0.07,0.26,0.1,0.38,0.12c-0.02,0.13-0.02,0.26-0.02,0.37c0,0.04,0,0.09,0,0.13c-0.06,0.08-0.1,0.16-0.11,0.23
						c-0.02,0.1,0,0.19,0.03,0.26c-0.02,0.05-0.03,0.1-0.02,0.15c0,0.13,0,0.26-0.01,0.41c-0.01,0.29-0.03,0.6,0.06,0.92
						c-0.04,0.09-0.06,0.21-0.02,0.35c0.01,0.01,0.01,0.03,0.02,0.05C82.01,78.52,82,78.69,82,78.8c0,0.02,0,0.04,0,0.07
						c0.02,0.12,0.05,0.23,0.08,0.32c0.04,0.15,0.07,0.23,0.05,0.32c-0.01,0.03-0.01,0.07,0,0.1c0.01,0.15,0.08,0.26,0.14,0.35
						c-0.01,0.07-0.01,0.13,0.01,0.2c0.12,0.4,0.26,0.8,0.39,1.19c0.33,1.06,1.23,1.84,2.16,2.51c0.04,0.03,0.08,0.05,0.12,0.06
						c0.14,0.05,0.29,0.15,0.45,0.25c0.19,0.13,0.4,0.26,0.66,0.35c0.33,0.3,0.72,0.36,1.04,0.41c0.17,0.03,0.32,0.05,0.43,0.1
						c0.3,0.21,0.65,0.22,0.92,0.22c0.07,0,0.13,0,0.19,0c0.11,0.05,0.41,0.16,0.69,0.02c0.03,0,0.06,0,0.07,0.01
						c0,0-0.01,0-0.02-0.01c0.04,0.04,0.09,0.06,0.15,0.08c0.24,0.08,0.44,0.03,0.57-0.01c0.13,0.06,0.28,0.06,0.41-0.01
						c0.08-0.05,0.27-0.05,0.43-0.06c0.12-0.01,0.25-0.01,0.38-0.03c0.06-0.01,0.12-0.04,0.17-0.08c0.06-0.01,0.14-0.02,0.23-0.06
						c0.21-0.01,0.4-0.05,0.57-0.09c0.08-0.02,0.16-0.04,0.23-0.05c0.05-0.01,0.1-0.03,0.14-0.05c0.27-0.15,0.57-0.24,0.89-0.33
						c0.23-0.07,0.47-0.14,0.71-0.24c0.04-0.02,0.09-0.04,0.12-0.08c0.43-0.37,1-0.64,1.54-0.9c0.02-0.01,0.05-0.03,0.07-0.04
						c0.87-0.61,1.55-1.14,2.22-1.82c0.09,0,0.17-0.04,0.25-0.09c0.09-0.07,0.15-0.18,0.16-0.3c0.76-0.76,1.47-1.58,2.01-2.31
						c0.04-0.06,0.08-0.11,0.11-0.16c0.08-0.11,0.17-0.23,0.24-0.37c0.35-0.32,0.57-0.69,0.77-1.06c0.16-0.29,0.31-0.56,0.52-0.77
						c0.04-0.04,0.06-0.08,0.08-0.12c0.11-0.23,0.22-0.46,0.35-0.71c0.18-0.36,0.37-0.73,0.53-1.12c0.25-0.38,0.42-0.78,0.59-1.17
						c0.1-0.24,0.19-0.46,0.3-0.67C104.2,72.52,104.17,72.34,104.07,72.2z M88.92,73.39c0.02-0.08,0.04-0.17,0.07-0.2
						c0.06-0.07,0.09-0.15,0.1-0.25c0.04-0.42,0.28-0.77,0.54-1.09c0.08-0.11,0.12-0.25,0.08-0.38c-0.01-0.05-0.01-0.07,0.17-0.25
						c0.13-0.14,0.31-0.33,0.38-0.6c0.09-0.09,0.15-0.21,0.17-0.34c0-0.04,0-0.07,0-0.11c0.11-0.15,0.21-0.3,0.33-0.45
						c0.33-0.43,0.66-0.88,0.89-1.4c0.23-0.22,0.41-0.45,0.57-0.67c0.14-0.18,0.27-0.35,0.42-0.52c0.05-0.05,0.08-0.11,0.1-0.18
						c0.3-0.27,0.53-0.55,0.76-0.82c0.19-0.22,0.37-0.43,0.58-0.63c0.36-0.06,0.55-0.33,0.66-0.48c0.03-0.05,0.08-0.12,0.1-0.14
						c0,0,0,0,0,0c0.1-0.01,0.19-0.06,0.26-0.13c0.29-0.3,0.6-0.53,0.92-0.77c0.32-0.24,0.65-0.49,0.97-0.81
						c0.08-0.04,0.16-0.08,0.25-0.12c0.23-0.09,0.47-0.2,0.7-0.4c0.33-0.12,0.79-0.06,1,0.14c0.04,0.18,0.13,0.32,0.21,0.43
						c0.04,0.05,0.07,0.12,0.08,0.15c-0.06,0.24-0.07,0.46-0.07,0.64c0,0.25,0,0.37-0.1,0.5c-0.08,0.1-0.1,0.24-0.08,0.36
						c0,0.01,0.01,0.02,0.01,0.03c-0.04,0.07-0.07,0.14-0.08,0.24c0,0.02,0,0.04,0,0.06c0,0.09-0.09,0.23-0.18,0.38
						c-0.08,0.13-0.17,0.27-0.24,0.43c-0.2,0.16-0.26,0.39-0.28,0.5c0,0.01-0.01,0.03-0.01,0.04c-0.01,0-0.01,0.01-0.02,0.02
						c-0.6,0.78-1.5,1.91-2.39,2.63c-0.01,0.01-0.03,0.02-0.04,0.04c-0.17,0.17-0.39,0.39-0.61,0.6c-0.11,0.11-0.23,0.22-0.34,0.33
						c-0.17,0.05-0.31,0.16-0.42,0.32c-0.22,0.13-0.44,0.3-0.63,0.44c-0.1,0.08-0.2,0.15-0.26,0.19c-0.05,0.03-0.09,0.07-0.12,0.12
						c-0.05,0.06-0.17,0.15-0.28,0.22c-0.09,0.06-0.17,0.12-0.26,0.18c-0.33,0.1-0.55,0.27-0.73,0.41c-0.19,0.15-0.3,0.24-0.52,0.26
						c-0.08,0.01-0.16,0.04-0.23,0.09c-0.36,0.28-0.81,0.46-1.3,0.66c-0.36,0.15-0.73,0.3-1.09,0.5c-0.04,0-0.07,0-0.11,0.01
						C88.89,73.5,88.91,73.44,88.92,73.39z"/>
				</g>
			</g>
		</g>
	</g>
	<path class="st1" d="M177.07,67c-0.22-0.39-5.62-9.59-18.46-18.8c-5.82-4.18-13.8-8.75-24.15-12.3c0.44-1,0.83-1.98,1.15-2.91
		c-0.11,0.28,0.21-0.92,0.09-0.29c0.02-0.09,0.07-0.17,0.2-0.35c0.23-0.32,0.59-0.8,0.59-1.55c0.01-1.19-1.04-2.24-2.34-2.32
		c-0.24-0.02-0.48-0.03-0.69-0.04c-0.25-0.01-0.49-0.02-0.66-0.04c-5.97-1.01-11.17-0.66-15.46,1.05c-1.12,0.45-2.17,1-3.15,1.62
		c-1.39-0.2-2.81-0.37-4.26-0.53c-2.27-6.06-7.41-10.76-14.12-12.92c-0.16-0.05-0.5-0.2-0.83-0.34c-0.48-0.21-1.03-0.44-1.54-0.62
		c-0.57-0.22-1.31-0.06-1.85,0.4c-0.49,0.43-0.71,1.04-0.59,1.65c0-0.02-0.01-0.04-0.01-0.06c0-0.03,0-0.04,0-0.04
		c0,0.18-0.23,0.73-0.41,1.17c-0.25,0.62-0.57,1.38-0.86,2.35c-0.89,2.47-1.29,5.07-1.2,7.83c-27.17,1.36-45.61,10.32-56.55,17.92
		c-12.93,8.99-18.44,17.93-18.67,18.3c-0.31,0.51-0.42,1.11-0.31,1.69l10.94,58.98c0.13,0.69,0.54,1.28,1.14,1.64
		c0.6,0.36,1.32,0.43,1.99,0.22c19.14-6.35,49.14-9.67,68.88-9.67c23.36,0,49.99,3.75,67.86,9.55c0.66,0.21,1.39,0.13,1.98-0.23
		c0.6-0.36,1.01-0.96,1.13-1.64l10.41-58.12C177.45,68.08,177.35,67.5,177.07,67z M176.08,68.41l-10.41,58.11
		c-0.06,0.32-0.25,0.6-0.53,0.77c-0.28,0.17-0.62,0.2-0.92,0.1c-17.98-5.84-44.77-9.61-68.25-9.61c-19.85,0-50.02,3.34-69.29,9.73
		c-0.31,0.1-0.65,0.07-0.92-0.1c-0.28-0.17-0.47-0.44-0.53-0.76L14.28,67.67c-0.05-0.27,0-0.55,0.14-0.79
		c0.22-0.37,5.59-9.08,18.3-17.91c10.98-7.63,29.6-16.64,57.2-17.76c-0.27-3.09,0.08-5.96,1.06-8.65c0.27-0.92,0.58-1.66,0.82-2.25
		c0.33-0.81,0.57-1.39,0.5-1.84c-0.04-0.19,0.08-0.32,0.16-0.39c0.17-0.15,0.42-0.21,0.58-0.15c0.46,0.16,0.98,0.38,1.44,0.58
		c0.39,0.17,0.72,0.31,0.95,0.38c6.33,2.03,11.17,6.45,13.3,12.14c0,0,0-0.01,0-0.01l0,0.01c0,0,0,0,0-0.01
		c0.06,0.23,0.11,0.47,0.15,0.71c1.93,0.19,3.8,0.43,5.63,0.7c1.02-0.69,2.13-1.28,3.32-1.76c4.08-1.62,9.06-1.94,14.81-0.96
		c0.22,0.02,0.48,0.03,0.77,0.05c0.21,0.01,0.43,0.02,0.66,0.03c0.61,0.04,1.12,0.5,1.12,1c0,0.33-0.16,0.54-0.34,0.79
		c-0.17,0.23-0.36,0.49-0.44,0.88l0-0.02c-0.44,1.57-0.97,3-1.55,4.29c10.77,3.54,19.03,8.24,24.98,12.51
		c12.61,9.05,17.87,18.02,18.09,18.4C176.08,67.88,176.13,68.15,176.08,68.41z"/>
	<g>
		<g>
			<path class="st1" d="M106.8,31.7c-1.41-3.84-3.95-6.93-7.56-9.18c-0.19-0.11-0.39-0.23-0.6-0.37c-1.24-0.72-2.59-1.35-4.03-1.88
				c-0.06-0.02-0.12-0.06-0.18-0.1l0,0c0,0,0,0-0.01,0c-0.02-0.01-0.07-0.04-0.18-0.09c-0.19-0.1-0.28-0.15-0.31-0.15l-0.03-0.01
				c0,0.01-0.01,0.01-0.01,0.02c0,0-0.06,0.12-0.06,0.12c-0.51,1.06-1.21,2.52-1.51,3.81c-1.18,5.15-1,9.23,0.6,12.86
				c2.06,4.25,4.67,6.38,8.48,8.62l0.05,0.03c0-0.02,0-0.06,0-0.06c-0.1-3.16-0.3-5.8-0.95-8.44c-0.83-3.41-1.97-6.87-3.3-10.01
				c-0.02-0.07,0.02-0.14,0.09-0.18c0.11-0.06,0.31-0.04,0.5,0.22c1.75,2.08,2.96,3.73,3.89,6.06c0.76,1.88,1.07,3.71,1.4,5.64
				l0.23,1.31c0.27,1.53,0.37,3.13,0.3,4.76l-0.01,0.11c0.04-0.05,0.07-0.09,0.07-0.09c1.23-1.67,2.76-3.75,3.35-6.13
				C107.63,36.06,107.56,33.74,106.8,31.7z"/>
		</g>
		<g>
			<path class="st1" d="M133.32,31.14c-0.03-0.06-0.09-0.11-0.17-0.12c-0.35-0.09-1.05-0.05-1.63,0c-0.09,0.01-0.12,0.01-0.13,0.01
				h0l-0.01,0c-10.37-1.27-17.37,1.63-20.79,8.59l-0.21,0.42c-0.46,0.91-0.93,1.85-0.92,2.97c0,0.15,0.01,0.31,0.02,0.47l0,0.06
				c0.03-0.02,0.05-0.04,0.05-0.04l0.11-0.09c0.07-0.06,0.14-0.11,0.21-0.16c4.72-3.57,11.02-6.74,15.32-7.71l0.04-0.01
				c0.48-0.11,0.78-0.15,0.94-0.12c0.04-0.02,0.1-0.04,0.13,0.03l0.05,0.08l-0.07,0.05c0.03-0.02,0.03-0.05,0.03-0.08l-0.01-0.02
				l-0.13,0.13c0,0,0,0,0,0l0.07-0.01l-0.17,0.1c-5.32,3.05-11.35,6.52-16.21,10.53l-0.02,0.02c0,0.01,0.01,0.02,0.01,0.02
				c0.52,1.12,1.81,1.95,3.45,2.22c2.39,0.41,4.8,0.14,7.17-0.81c2.19-0.87,4.26-2.32,6-4.18c3.51-3.77,4.79-6.32,6.48-10.98
				c0.03-0.09,0.08-0.2,0.13-0.32C133.23,31.83,133.43,31.36,133.32,31.14z"/>
		</g>
	</g>
</g>
<path class="st3" d="M150.22,112.99c0-0.9,0.67-1.58,1.54-1.58c0.86,0,1.54,0.67,1.54,1.58c0,0.92-0.67,1.59-1.53,1.59
	C150.9,114.58,150.22,113.9,150.22,112.99z M151.78,114.89c1.04,0,1.92-0.81,1.91-1.91c0-1.09-0.89-1.9-1.93-1.89
	c-1.05,0-1.93,0.81-1.93,1.9C149.84,114.09,150.73,114.9,151.78,114.89z M151.37,113.14l0.38,0l0.58,0.95l0.37,0l-0.63-0.96
	c0.32-0.04,0.57-0.21,0.57-0.61c0-0.43-0.26-0.62-0.78-0.62l-0.83,0l0.01,2.19h0.33L151.37,113.14z M151.37,112.85l0-0.68h0.45
	c0.23,0,0.48,0.05,0.48,0.32c0,0.34-0.25,0.36-0.53,0.36H151.37z"/>
</svg>
