<svg id="FEX" xmlns="http://www.w3.org/2000/svg" viewBox="0 0 129.2 88.21"><defs><style>.cls-1,.cls-4{fill:#fff;}.cls-1,.cls-3{stroke:#fff;}.cls-1{stroke-width:0.19px;}.cls-2,.cls-3{fill:none;}.cls-3{stroke-linecap:round;stroke-linejoin:round;stroke-width:2.24px;}</style></defs><path class="cls-1" d="M95.45,15.61l-.52,0a3.62,3.62,0,0,1-.6,0,21.66,21.66,0,0,0-11.64.76,13.56,13.56,0,0,0-3.56,2.09,13.87,13.87,0,0,0-3.74,4.95,13.05,13.05,0,0,0,.14-6.76A16.17,16.17,0,0,0,65.08,7c-.17,0-.44-.17-.75-.3s-.77-.33-1.13-.45a.5.5,0,0,0-.45.12.29.29,0,0,0-.13.3,3.13,3.13,0,0,1-.39,1.45,17.43,17.43,0,0,0-.65,1.77c-1.25,3.46-1.2,7.27.16,11.64a14.5,14.5,0,0,0,7.88,7.76l.06,0v.07a19.68,19.68,0,0,1-.79,4.87.86.86,0,0,0,0,.45,1.38,1.38,0,0,0,.34.3.35.35,0,0,0,.24.1.71.71,0,0,0,.4.18,1.77,1.77,0,0,0,.37.06.62.62,0,0,0,.38-.27A24.16,24.16,0,0,1,75,29.57l.09-.08.06.1c1.11,1.72,3.7,2.17,5.67,2.25,2.57.1,6.65-1.36,9.47-4.36a23.92,23.92,0,0,0,5.39-9.77h0a1.6,1.6,0,0,1,.34-.69,1,1,0,0,0,.27-.62A.88.88,0,0,0,95.45,15.61ZM63,21.09c-1.25-2.87-1.4-6.1-.47-10.16a17,17,0,0,1,1.2-3l0-.09,0-.07h.07l.26.13.15.07h0l.12.07c4.84,1.76,8.07,4.8,9.62,9a9.21,9.21,0,0,1,.17,5.43,14.46,14.46,0,0,1-2.65,4.84l-.2.26,0-.33a16.88,16.88,0,0,0-.24-3.72l-.18-1a20.85,20.85,0,0,0-1.09-4.42,16.29,16.29,0,0,0-3-4.74c-.12-.16-.23-.19-.3-.16a0,0,0,0,0,0,.06,53.32,53.32,0,0,1,2.59,7.87,31.56,31.56,0,0,1,.76,6.65V28l-.16-.1C66.73,26.12,64.67,24.44,63,21.09ZM74.48,28a19.69,19.69,0,0,0-3.84,4.63,19.27,19.27,0,0,0,.91-3.91v-.05l0,0a8.24,8.24,0,0,0,3.14-3.49,6.14,6.14,0,0,0-.22,2.76v.05ZM94.73,17.53l-.11.24a21.36,21.36,0,0,1-5.1,8.65,13.3,13.3,0,0,1-4.74,3.3,10.31,10.31,0,0,1-5.67.64,3.58,3.58,0,0,1-2.77-1.8l0-.07.06,0a91.67,91.67,0,0,1,12.75-8.28l.13-.08c-.06,0-.24,0-.74.08h0a36.33,36.33,0,0,0-12,6l-.16.13-.1.07-.15.12v-.19c0-.13,0-.25,0-.38a5,5,0,0,1,.73-2.37l.17-.33c2.7-5.51,8.22-7.8,16.41-6.8h.1a5.54,5.54,0,0,1,1.3,0,.32.32,0,0,1,.18.14C95,16.83,94.87,17.2,94.73,17.53Z" transform="translate(-0.28 -5.21)"/><path class="cls-2" d="M71.62,28.6l0,0v0a18.31,18.31,0,0,1-.9,3.84A19.44,19.44,0,0,1,74.45,28l0,0v0a6.2,6.2,0,0,1,.22-2.71A8.13,8.13,0,0,1,71.62,28.6Z" transform="translate(-0.28 -5.21)"/><path class="cls-2" d="M93.71,22.68a21.8,21.8,0,0,1-3.38,4.79c-2.82,3-6.9,4.47-9.47,4.36-2-.08-4.57-.53-5.67-2.24l-.06-.11-.09.08a23.75,23.75,0,0,0-4.39,5.55.62.62,0,0,1-.38.27,1.24,1.24,0,0,1-.37-.06.71.71,0,0,1-.4-.18.4.4,0,0,1-.24-.09,1.45,1.45,0,0,1-.34-.31.86.86,0,0,1,0-.45,19.83,19.83,0,0,0,.79-4.87v-.07l-.06,0a14.52,14.52,0,0,1-7.88-7.77A24.13,24.13,0,0,1,61,18.48C24.75,18.48,8.6,38.3,3.12,45.4l8.34,45c16-5.1,39.09-7.43,54-7.43,18.2,0,38.94,2.87,53.21,7.33L126.65,46C125.64,43.4,116.06,29.5,93.71,22.68Z" transform="translate(-0.28 -5.21)"/><path class="cls-2" d="M78.24,19.21c-.77-.11-1.55-.19-2.36-.28a13,13,0,0,1-.49,4.41A14.32,14.32,0,0,1,78.24,19.21Z" transform="translate(-0.28 -5.21)"/><path class="cls-3" d="M79.64,18.49l-1.4-.18c-.73-.09-1.46-.18-2.21-.25-.34,0-.36-.06-.7-.11" transform="translate(-0.28 -5.21)"/><path class="cls-3" d="M61.05,17.6l-.63,0C17.8,19.47,2.19,45.21,2.19,45.21l8.6,46.35c15-5,38.37-7.69,54.71-7.69,18.81,0,39.9,3,53.91,7.59l8.18-45.66s-9.35-15.92-33.26-23.88" transform="translate(-0.28 -5.21)"/><path class="cls-4" d="M110.1,68.77a.41.41,0,0,1,0-.09.29.29,0,0,0-.19-.15.6.6,0,0,1-.29-.33.27.27,0,0,0-.12-.14.73.73,0,0,0-.87,0l0,0h0a.33.33,0,0,0-.19-.29,1.55,1.55,0,0,1-.48-.41,2.17,2.17,0,0,0-.52-.47l-.24-.13a1.19,1.19,0,0,1-.3-.19.35.35,0,0,0-.13-.08c-.08,0-.18-.07-.29-.11a2.39,2.39,0,0,0-1-.28l-.22,0a1.67,1.67,0,0,0-.74,0,1.2,1.2,0,0,1-.32,0H104l-.28,0a5.73,5.73,0,0,0-2.06.57c-.69.3-2.36,1.05-2.31,2.6v.07a.78.78,0,0,1,0,.26,1.33,1.33,0,0,0,.29.78,4.21,4.21,0,0,1,.17.39A.21.21,0,0,0,100,71a.62.62,0,0,1,.14.19.7.7,0,0,0,.22.29,1.16,1.16,0,0,0,.27.34.83.83,0,0,1,.18.24.41.41,0,0,0,0,.09,6.6,6.6,0,0,0,.88,1l.29.41a3.59,3.59,0,0,1,.73,1.39,1.87,1.87,0,0,1-1,1.87s0,0-.05,0a2.77,2.77,0,0,1-1.07.43h-.06a4.82,4.82,0,0,1-1,.14c-.29,0-.58,0-.86.09a3.65,3.65,0,0,0-.66-.12c-.6-.08-.85-.14-.92-.48a.35.35,0,0,0-.08-.16.82.82,0,0,1-.18-.67V76a2.36,2.36,0,0,1,.27-1l.12-.26a.32.32,0,0,0,0-.14.5.5,0,0,0-.45-.46h-.11a1.36,1.36,0,0,0-.8,1.13l-.07.18a1.61,1.61,0,0,0-.16.81,2.7,2.7,0,0,0,.1,1.56.08.08,0,0,1,0,0,2.34,2.34,0,0,0,1.36,1.23,3.4,3.4,0,0,0,1.11.41l.33.09a3.65,3.65,0,0,0,1.43.24,5.09,5.09,0,0,0,1,0h.19a2,2,0,0,0,.76-.07l.14,0a5.74,5.74,0,0,0,1.46-.28,3.25,3.25,0,0,0,1.42-.48,1.5,1.5,0,0,0,.81-.65,3.61,3.61,0,0,1,.25-.3.35.35,0,0,0,.07-.12s0-.05,0-.08a2.19,2.19,0,0,0,.14-.63,2.71,2.71,0,0,0-.63-2.22,3.52,3.52,0,0,0-.77-1,3.43,3.43,0,0,1-.58-.7.43.43,0,0,0-.09-.1A9.45,9.45,0,0,1,102.85,72l-.09-.09a.34.34,0,0,0-.11-.07c-.21-.1-.29-.29-.41-.6a2.53,2.53,0,0,0-.14-.29,1.18,1.18,0,0,0,0-.28l0-.1a.33.33,0,0,0,.11-.13c.29-.68,1-.89,1.85-1.11l.67-.19a.33.33,0,0,0,.26,0,1.32,1.32,0,0,1,.44,0l.19,0h0a4.94,4.94,0,0,1,1.3.07l.18,0-.08.07a1.29,1.29,0,0,0-.57,1,.76.76,0,0,0-.08.46s0,.06,0,.08h0a.2.2,0,0,0,0,.11.61.61,0,0,0,.68.55.17.17,0,0,0,.1,0,4.93,4.93,0,0,0,.75-.6,5.44,5.44,0,0,1,.53-.46l.14,0a.72.72,0,0,1,.4-.1h.1a1.21,1.21,0,0,0,1.07-.73A.66.66,0,0,0,110.1,68.77Z" transform="translate(-0.28 -5.21)"/><path class="cls-4" d="M97.37,66.71a.27.27,0,0,0,0-.14v0a.66.66,0,0,0-.24-.35,1.55,1.55,0,0,0-.58-.5l-.17-.1a.72.72,0,0,0-.38-.11h-.08a.38.38,0,0,0-.25-.09.31.31,0,0,0-.25.19.2.2,0,0,1-.09.06l-.23-.28A2.52,2.52,0,0,0,92.62,64h0l-.22,0A1.78,1.78,0,0,0,92,64a3.06,3.06,0,0,0-.77.08,2.76,2.76,0,0,1-.44.08h-.06c-.13,0-.28.06-.43.09a2.48,2.48,0,0,0-.41.08,2.25,2.25,0,0,0-.48.16,1,1,0,0,1-.27.1,2.65,2.65,0,0,0-1.16.47l-.12.07,0,0-.15.1a1.47,1.47,0,0,0-.54.54,3.84,3.84,0,0,0-.65,1.43l0,.12a.28.28,0,0,0,0,.18,1.14,1.14,0,0,1,0,.28,1.43,1.43,0,0,0,.06.45,2.47,2.47,0,0,0,.26.63c.06.12.11.24.15.33a.38.38,0,0,0,.09.13,3.81,3.81,0,0,1,.48.59,5.17,5.17,0,0,0,.6.73,9,9,0,0,1,1.07,1.07,8.24,8.24,0,0,0,1.1,1.11l0,.11a2.61,2.61,0,0,1,.25.78,1.62,1.62,0,0,1-.48,1.11,4.68,4.68,0,0,1-1.57.9l-.07,0a2.84,2.84,0,0,1-.79.24,4.24,4.24,0,0,0-.66.17h-.21a5.49,5.49,0,0,1-.7,0l-.12,0a1,1,0,0,1-.2-.08.27.27,0,0,0-.1-.18l-.1-.06a1.64,1.64,0,0,1-.16-1.1.25.25,0,0,0,0-.08.32.32,0,0,0,.07-.19,1.73,1.73,0,0,1,.2-.72,3,3,0,0,0,.23-.71.34.34,0,0,0,.08-.32.37.37,0,0,0-.32-.25,1.62,1.62,0,0,0-1.23.83,2.08,2.08,0,0,0-.46.88,3.7,3.7,0,0,1-.16.4.28.28,0,0,0,0,.13,3.85,3.85,0,0,1-.11.47,2.55,2.55,0,0,0-.14.72v0a2.34,2.34,0,0,0,.39,1,1.58,1.58,0,0,0,.48.46l.15.11a1.42,1.42,0,0,0,.69.37l.15.06.07,0,.33.08a4.18,4.18,0,0,0,1.55.19,1.16,1.16,0,0,0,.69,0A6,6,0,0,0,89.58,78l.41-.07a.11.11,0,0,0,.07,0,4.42,4.42,0,0,1,.87-.23l.54-.11a2.65,2.65,0,0,0,.67-.24,2.45,2.45,0,0,1,.35-.15l.08,0c.07,0,.18-.09.28-.15a4.46,4.46,0,0,0,.71-.43l.22-.21a1.77,1.77,0,0,0,.33-.34,1.43,1.43,0,0,0,.17-.32,1.09,1.09,0,0,1,.1-.19s0,0,0,0a1.51,1.51,0,0,0,.15-.72v-.15a.65.65,0,0,0,0-.14,4.37,4.37,0,0,0-1.71-2.19,1.4,1.4,0,0,0-.6-.54,5.42,5.42,0,0,0-.82-.71c-.21-.15-.4-.3-.58-.45l-.3-.26a9,9,0,0,1-1.39-1.36,1.17,1.17,0,0,1,.26-.91,2,2,0,0,1,1-.51l.38-.12a2.81,2.81,0,0,0,.88-.18,1.94,1.94,0,0,0,.35,0l.15,0h0a.37.37,0,0,0,.21,0,3.74,3.74,0,0,1,1.27,0l.19,0a3.44,3.44,0,0,0-.51.9.13.13,0,0,0,0,.06,1,1,0,0,1-.13.29c-.15.28-.42.78.11,1.17a.33.33,0,0,0,.38,0,4.09,4.09,0,0,0,.64-.6,2.09,2.09,0,0,1,.95-.72.36.36,0,0,0,.18-.12s.06-.07.32-.16a.41.41,0,0,0,.11-.07.82.82,0,0,1,.47-.14,1.6,1.6,0,0,0,.73-.23.33.33,0,0,0,.14-.3A.66.66,0,0,0,97.37,66.71Z" transform="translate(-0.28 -5.21)"/><path class="cls-4" d="M84.35,64.69a3.17,3.17,0,0,1-.36-.16,2.77,2.77,0,0,0-.88-.34l-.39-.11-.06,0h-.11c-.33,0-.74-.1-1-.15h-.43c-.28,0-.58,0-.87,0l-.85,0a.62.62,0,0,0-.41,0H78.9A3.6,3.6,0,0,0,78,64a2,2,0,0,0-.87,0H77a3,3,0,0,1-.67,0,.17.17,0,0,0-.1,0l-.1,0a.78.78,0,0,1-.33,0h-.13a3.23,3.23,0,0,1-.61,0,3.38,3.38,0,0,0-.47,0l-.11-.06a.88.88,0,0,0-.62-.08.33.33,0,0,0-.21.36h0a.48.48,0,0,0,.12.39.34.34,0,0,0,.24.09s0,0,.06.06a.82.82,0,0,0,.39.24,2,2,0,0,0,.63.36l.32.15a2.38,2.38,0,0,1-.18.3,18.52,18.52,0,0,0-.63,1.39c0,.14-.1.28-.14.37a.79.79,0,0,1,0,.09.61.61,0,0,0-.14.43,7.72,7.72,0,0,0-.68,1.44,7.54,7.54,0,0,0-.47,1L73,71a10.68,10.68,0,0,0-.6,2,.92.92,0,0,0-.16.42s0,.09,0,.11h0a.34.34,0,0,0,0,.17v.1a2.5,2.5,0,0,0,.06.67,2.57,2.57,0,0,0,.23.84A3.85,3.85,0,0,0,74.16,77a1.62,1.62,0,0,0,.84.15,2.68,2.68,0,0,1,.41,0h.49a5.76,5.76,0,0,0,1.16,0,12.54,12.54,0,0,0,2.13-.59l1-.32.07,0,.3-.16c.52-.28,1.06-.57,1.57-.81a.33.33,0,0,0,.19-.3.61.61,0,0,0-.36-.48l0,0a.32.32,0,0,0-.26-.06c-.24.06-.5.1-.79.15a7.22,7.22,0,0,0-1,.2,4.74,4.74,0,0,0-.55,0,2,2,0,0,1-.55,0,.29.29,0,0,0-.23.09.8.8,0,0,1-.22,0,1.15,1.15,0,0,0-.48,0,2.09,2.09,0,0,0-.68,0,1.54,1.54,0,0,1-.64,0,.28.28,0,0,0-.26.07h0A.72.72,0,0,1,76,75a4.31,4.31,0,0,1-.93,0,1,1,0,0,1-.16,0,0,0,0,0,1,0,0,1.32,1.32,0,0,1,.25-1,2.31,2.31,0,0,0,.23-.55,1.49,1.49,0,0,0,.25-.53,1,1,0,0,1,.19-.38.37.37,0,0,0,.1-.17,1.81,1.81,0,0,1,.23-.53,2.31,2.31,0,0,0,.24-.47.11.11,0,0,0,0-.05c0-.15.14-.2.57-.25a2.2,2.2,0,0,0,.37-.06,1.64,1.64,0,0,0,.45-.05c.2,0,.32-.06.42,0a.37.37,0,0,0,.21,0,4.34,4.34,0,0,1,1,0,5.56,5.56,0,0,0,1.09,0A3.13,3.13,0,0,1,81,71c.11,0,.22,0,.33,0h.06a3,3,0,0,1,.43,0,3.65,3.65,0,0,0,.83-.11.3.3,0,0,0,.19-.16c.16-.3,0-.56-.34-.78a.24.24,0,0,1-.1-.06.32.32,0,0,0-.2-.08,2.6,2.6,0,0,1-.55-.14,3.25,3.25,0,0,0-.78-.18,4,4,0,0,1-.9-.15h-.09l-.63,0a5.06,5.06,0,0,0-1.29,0,.8.8,0,0,0-.66-.07h0a4.52,4.52,0,0,1,.28-.53,3.6,3.6,0,0,0,.4-.84,2,2,0,0,0,.3-.44,1,1,0,0,1,.17-.25.23.23,0,0,0,.08-.12l.21-.55v0a.9.9,0,0,0-.19-.76,10.26,10.26,0,0,0,1.32-.24,1.22,1.22,0,0,0,.7-.1.8.8,0,0,0,.62,0l.09,0a2.69,2.69,0,0,0,.67.09,1.61,1.61,0,0,1,.45,0l.55.13a2.09,2.09,0,0,1,.83.28.35.35,0,0,0,.24.06h0v0a.68.68,0,0,0,.5.63.5.5,0,0,0,.21,0,1.3,1.3,0,0,0,.52-.49s0-.06.07-.08a.32.32,0,0,0,.06-.17C85.43,65.15,84.78,64.88,84.35,64.69Z" transform="translate(-0.28 -5.21)"/><path class="cls-4" d="M46,75.39a.16.16,0,0,1,0-.06.61.61,0,0,0-.44-.46.32.32,0,0,0-.35.18c-.11.24-.39.26-.84.26h0c-.48-.07-.71-.4-1-.83-.12-.17-.24-.33-.38-.5a7.52,7.52,0,0,0-.45-.78,5.8,5.8,0,0,1-.57-1.07,3.21,3.21,0,0,0-.5-.85,4.37,4.37,0,0,0-.31-.61,3.9,3.9,0,0,1-.31-.61,21.88,21.88,0,0,0,2.44-2.59.29.29,0,0,0,.22-.19s0,0,0,0a1.63,1.63,0,0,0,.29-.3.79.79,0,0,1,.21-.23.32.32,0,0,0,.14-.18,1.49,1.49,0,0,1,.24-.36,1.58,1.58,0,0,0,.26-.36,1.36,1.36,0,0,0,.33-1.47.3.3,0,0,0-.16-.19,3.32,3.32,0,0,0-1.31-.28c-.12,0-.23,0-.34,0a1,1,0,0,0-.84.14s-.07,0-.09.06a.29.29,0,0,0-.17.31.45.45,0,0,0,.26.38l0,.07a8.45,8.45,0,0,1-1.61,2.26,1.67,1.67,0,0,0-.3.29l0,0a.41.41,0,0,0-.05.09h0l-.14.11-.07.11a1.92,1.92,0,0,1-.27.34,3.13,3.13,0,0,1-.2-.49.6.6,0,0,0-.06-.11,3.57,3.57,0,0,1-.49-.78,2.88,2.88,0,0,0-1.1-1.32,2.58,2.58,0,0,0-1.95-.65h-.07a1.49,1.49,0,0,1-.74.14.28.28,0,0,0-.2,0,1,1,0,0,1-.28,0,.81.81,0,0,0-.9.51.36.36,0,0,0,0,.25.28.28,0,0,0,.2.15c.29.07.42.3.6.65a2.14,2.14,0,0,0,.35.57,5,5,0,0,1,.27.44,3.25,3.25,0,0,0,.32.53,4.45,4.45,0,0,1,.45.79,6,6,0,0,0,.66,1.11,3.08,3.08,0,0,0,.31.63,2.37,2.37,0,0,1,.22.41,6,6,0,0,0-.39.49,3.67,3.67,0,0,1-.64.71.73.73,0,0,0-.08.09,9,9,0,0,1-.87,1.18l-.09.11a3.56,3.56,0,0,0-.51.62l-.19.27s0,0,0,0a7.71,7.71,0,0,1-.6.88,7.66,7.66,0,0,0-.82,1.25,2,2,0,0,1-.15.28,2.64,2.64,0,0,0-.47,2.1.08.08,0,0,1,0,0,.61.61,0,0,0,.75.27.28.28,0,0,0,.17-.25,3,3,0,0,1,.65-1.47.34.34,0,0,0,.06-.2c0-.14.21-.34.39-.5s.17-.16.24-.24l0-.08a1.53,1.53,0,0,1,.27-.36,2.61,2.61,0,0,0,.35-.47l1.2-1.26c.57-.61,1.16-1.23,1.72-1.78a3.14,3.14,0,0,1,.18.31,6.39,6.39,0,0,0,.43.68,24.39,24.39,0,0,0,2,2.12,6.58,6.58,0,0,0,1.55.93.4.4,0,0,0,.15,0h0l.15,0a1.72,1.72,0,0,0,.63.12,1.85,1.85,0,0,0,.68.06h.25l.09,0a2.43,2.43,0,0,0,.81-.35.87.87,0,0,0,.7-.59.92.92,0,0,1,.14-.23A.41.41,0,0,0,46,75.39Z" transform="translate(-0.28 -5.21)"/><path class="cls-4" d="M33,66.73l-.41-.51a.29.29,0,0,0-.16-.11,5.44,5.44,0,0,0-1.58-.25,4.6,4.6,0,0,0-2,0,.84.84,0,0,0-.6,0l-.18,0a.82.82,0,0,1-.3,0,.31.31,0,0,0-.23,0,1,1,0,0,1-.28,0,2.12,2.12,0,0,0-.34,0,1.09,1.09,0,0,0-.25.06,1.24,1.24,0,0,1-.41.09c-.42.07-1.17.22-1.68.34-.33.06-.66.14-1,.23a7.87,7.87,0,0,1-1.11.23h0a2.49,2.49,0,0,1-.33.07.47.47,0,0,0-.17,0h0l-.42,0a.3.3,0,0,0-.21.08.45.45,0,0,0-.09.56,1.26,1.26,0,0,0,1.25.59l.21,0,.13,0A14.4,14.4,0,0,1,22,71.82l-.3.89c0,.13-.08.25-.11.36a2.18,2.18,0,0,0-.14.63,1,1,0,0,0-.08.25,1,1,0,0,1-.1.26.28.28,0,0,0,0,.12,4.45,4.45,0,0,1-.15.81,5.6,5.6,0,0,0-.16,1l0,.07a.6.6,0,0,0,0,.52,1.72,1.72,0,0,0,0,.85l0,.14c0,.08,0,.14.06.21A1.92,1.92,0,0,0,21.46,79l.22.23a2.58,2.58,0,0,0,.91.68,2.93,2.93,0,0,1,.44.21,3.27,3.27,0,0,0,.73.31.58.58,0,0,1,.21.07,1.06,1.06,0,0,0,.42.09h.11a2.11,2.11,0,0,0,1-.13,6.55,6.55,0,0,1,.71-.27,6.85,6.85,0,0,0,.94-.38l0,0a2.47,2.47,0,0,0,.36-.19,1,1,0,0,1,.26-.14.44.44,0,0,0,.15-.05c.61-.42,1.21-.87,1.83-1.33l.79-.58,0,0a.42.42,0,0,0,.19-.22,3.43,3.43,0,0,0,.56-.59,1.82,1.82,0,0,1,.48-.48.33.33,0,0,0,.16-.25.36.36,0,0,0-.07-.22.42.42,0,0,0-.21-.25.32.32,0,0,0-.27,0l-.43.22a2.92,2.92,0,0,1-.5.25.37.37,0,0,0-.12.07,1.68,1.68,0,0,1-.6.29,2.57,2.57,0,0,0-.68.31,4.34,4.34,0,0,0-.84.3,2.82,2.82,0,0,1-.35.14.18.18,0,0,0-.09,0,5.22,5.22,0,0,1-1.4.59l-.12.06a2.82,2.82,0,0,1-.74.37l-.21.08a3.35,3.35,0,0,0-.65.24,1.88,1.88,0,0,1-.79.22c-.34-.16-.33-.39-.21-1a2.58,2.58,0,0,0,.07-.78,2.2,2.2,0,0,0,.26-.8,1.5,1.5,0,0,1,.25-.69.35.35,0,0,0,.06-.26,1.26,1.26,0,0,1,.2-.76,2.43,2.43,0,0,0,.18-.4.48.48,0,0,0,.17-.23.5.5,0,0,0,0-.16H25a1.27,1.27,0,0,0,.53-.06,12.31,12.31,0,0,0,1.63-.26,4.58,4.58,0,0,1,.56-.14,3.68,3.68,0,0,0,.92-.27.88.88,0,0,0,.48-.08.61.61,0,0,1,.21-.06.31.31,0,0,0,.28-.13h.09a1.25,1.25,0,0,0,.3-.05.18.18,0,0,0,.07,0,.75.75,0,0,1,.18-.08,1.75,1.75,0,0,0,.29-.13,1.73,1.73,0,0,0,.86-.49,3,3,0,0,1,.36-.27.31.31,0,0,0,.18-.29.29.29,0,0,0-.12-.23h0a.31.31,0,0,0-.36-.18,9.24,9.24,0,0,1-1.3.16,8.92,8.92,0,0,0-1.63.24,1,1,0,0,0-.51.08c-.15.05-.21.07-.27.05a.26.26,0,0,0-.21,0,6,6,0,0,1-1.5.24h-.07a1.63,1.63,0,0,1-.37.09l.09-.22a3.86,3.86,0,0,0,.24-.75,4.59,4.59,0,0,0,.43-1.41l0-.2c.3-.55-.15-.92-.37-1.11l0,0,1-.15c.3-.06.6-.1.89-.14l.09,0a2.38,2.38,0,0,1,.52-.15l.27-.06a3.55,3.55,0,0,0,.46-.09,7.81,7.81,0,0,1,2.13-.23.44.44,0,0,0,.18.41.8.8,0,0,0,1.1-.25,1.15,1.15,0,0,1,.19-.16A.35.35,0,0,0,33,67S33,66.81,33,66.73Z" transform="translate(-0.28 -5.21)"/><path class="cls-4" d="M72.49,77.24a.33.33,0,0,0-.3-.23H71.13a1.72,1.72,0,0,1-.88-.64,3.82,3.82,0,0,0-.45-.45c-.12-.19-.26-.39-.41-.59a13.68,13.68,0,0,1-1.17-1.91,13.21,13.21,0,0,1-.81-2s0,0,0,.06a.48.48,0,0,0-.12-.27h0a4.72,4.72,0,0,1,.81-.41,3.49,3.49,0,0,0,1.33-.81,2.47,2.47,0,0,0,.62-.41,2.47,2.47,0,0,1,.29-.22.24.24,0,0,0,.11-.09,4,4,0,0,0,.75-1.89,2.26,2.26,0,0,0-.53-1.62l-.1-.13a2.08,2.08,0,0,0-.52-.54c-.11-.1-.22-.2-.33-.32a.27.27,0,0,0-.08-.07l-.31-.19a3.69,3.69,0,0,0-.75-.41,3.17,3.17,0,0,0-.7-.31,3.17,3.17,0,0,1-.4-.14l-.07,0a4.85,4.85,0,0,1-.63-.16,3.65,3.65,0,0,0-.95-.2,5.7,5.7,0,0,0-.58-.06,4.07,4.07,0,0,1-.49,0,1.3,1.3,0,0,0-.51,0h-.65a1.5,1.5,0,0,1-.48,0H63a6,6,0,0,1-.71.09l-.4,0H61.8a2.79,2.79,0,0,0-.8.13.56.56,0,0,0-.51,0l0,0a.6.6,0,0,0-.3.62.32.32,0,0,0,.09.16,4.17,4.17,0,0,0,1.24.78l.06,0a.54.54,0,0,0,0,.11,1.56,1.56,0,0,0-.13.43,4.25,4.25,0,0,0-.24.54l0,.08c-.24.55-.4,1.07-.57,1.58a9.69,9.69,0,0,1-.68,1.79.5.5,0,0,0,0,.13,1.35,1.35,0,0,1-.12.33,1.58,1.58,0,0,0-.16.57,4.69,4.69,0,0,1-.18.69,2.48,2.48,0,0,0-.19,1l0,0a.9.9,0,0,0-.13.53,2.81,2.81,0,0,0-.13,1.21,1,1,0,0,1,0,.17,1.79,1.79,0,0,0,.23,1.14,2.41,2.41,0,0,0,.34.68l0,.06a.31.31,0,0,0,.27.14c.05,0,.07,0,.18.13a.85.85,0,0,0,.64.31.31.31,0,0,0,.19-.06.35.35,0,0,0,.16-.29.28.28,0,0,0-.06-.2c0-.17.09-.34.12-.5a1.64,1.64,0,0,1,.29-.76.44.44,0,0,0,.07-.17,1,1,0,0,1,.06-.22,1.11,1.11,0,0,0,.08-.3,1.55,1.55,0,0,0,.18-.4,1.75,1.75,0,0,1,.2-.43.18.18,0,0,0,0-.1,6.47,6.47,0,0,1,.61-1.41c.15-.32.32-.64.45-1a.11.11,0,0,0,0-.08h.09l0,0,.16.14c.12.23.24.46.35.7a8.31,8.31,0,0,0,1,1.71,4.89,4.89,0,0,0,.85,1.21,6.69,6.69,0,0,1,.62.8l.06.07c.2.19.4.39.58.58a12.56,12.56,0,0,0,1.38,1.26.29.29,0,0,0,.18.07h0a1.33,1.33,0,0,1,.16.12l.09.07a3.5,3.5,0,0,0,.48.33,1.32,1.32,0,0,1,.24.15l.09,0,.29.09a2.65,2.65,0,0,0,.81.16,1.38,1.38,0,0,0,.63,0,1.52,1.52,0,0,0,1.2-.44.4.4,0,0,0,.24-.2A.44.44,0,0,0,72.49,77.24ZM67,68.4a4.08,4.08,0,0,1-1.2.54l-.09,0a1.94,1.94,0,0,1-.46.14,3,3,0,0,0-.61.17l-.37.07a3.76,3.76,0,0,1-.74.1.64.64,0,0,0,.08-.14.48.48,0,0,0,.22-.5A.34.34,0,0,0,64,68.6a1.73,1.73,0,0,1,.18-.47,2.67,2.67,0,0,0,.26-.64,4.83,4.83,0,0,0,.24-1.12,1,1,0,0,0-.06-1,.52.52,0,0,0-.11-.1,1.14,1.14,0,0,1-.28-.26h0A1.21,1.21,0,0,0,64.7,65a2.85,2.85,0,0,0,.86.08,2.6,2.6,0,0,1,.4,0l.35,0a.94.94,0,0,1,.44.09.35.35,0,0,0,.14.06l.41.06a3.18,3.18,0,0,1,1.41.64.79.79,0,0,1,.19.69l0,.09c-.14.44-.24.72-.55.83a.42.42,0,0,0-.16.13.29.29,0,0,1-.13.09,1,1,0,0,0-.26.18C67.49,68.11,67.23,68.26,67,68.4Z" transform="translate(-0.28 -5.21)"/><path class="cls-4" d="M58.72,66.58a3.14,3.14,0,0,0-1.37-1.91,1.18,1.18,0,0,0-.5-.33l-.23-.11a9.36,9.36,0,0,0-1.2-.45l-.65-.22-.12,0a3.6,3.6,0,0,1-.58-.07,6.17,6.17,0,0,0-1-.1l-.1,0-.08,0a.33.33,0,0,0-.14,0h-.37a5.64,5.64,0,0,0-1.13.05H51a.46.46,0,0,0-.38,0h-.16a.24.24,0,0,1-.12,0,.29.29,0,0,0-.16,0,1.17,1.17,0,0,1-.23,0l-.3,0a.35.35,0,0,0-.21.06,1.25,1.25,0,0,0-.89.12.68.68,0,0,0-.47,0l-.09,0a.34.34,0,0,0-.28,0,.59.59,0,0,0-.26.64.38.38,0,0,0,.2.21.29.29,0,0,0,.13.14.21.21,0,0,0,.11,0,1.83,1.83,0,0,1,.45.15,2.83,2.83,0,0,0,.58.18,1.07,1.07,0,0,1,0,.31v.13c-.06.24-.15.48-.23.71a4,4,0,0,0-.31,1.18A3.57,3.57,0,0,0,48,68.54a2.65,2.65,0,0,1-.26.81.42.42,0,0,0,0,.16,3.24,3.24,0,0,1-.33,1.27,6.39,6.39,0,0,0-.27.73v0a2.16,2.16,0,0,1,0,.27,3.6,3.6,0,0,1-.15.7.24.24,0,0,0,0,.08c0,.19-.06.35-.09.52a2.7,2.7,0,0,0-.11.71,5.6,5.6,0,0,0,0,.71.77.77,0,0,0,.09.42,2.58,2.58,0,0,0,.71,1.6A.55.55,0,0,0,48,77H48a.31.31,0,0,0,.19.18A.89.89,0,0,0,49,77l0,0a.49.49,0,0,0,.13-.42.67.67,0,0,0-.2-.39,1.28,1.28,0,0,0,0-.46,1.34,1.34,0,0,1,0-.35c.09-.25.18-.53.26-.8A14.66,14.66,0,0,1,49.88,73a.3.3,0,0,0,0-.26,1.25,1.25,0,0,0,.16-.47v0a.26.26,0,0,0,.14.11.25.25,0,0,0,.24,0h.1a.91.91,0,0,0,.27,0h-.05a7.59,7.59,0,0,0,1.9,0l.51-.06a.2.2,0,0,0,.11,0,1,1,0,0,1,.32-.07A1.71,1.71,0,0,0,54.1,72l.3,0,.1,0a.32.32,0,0,0,.14,0,2.49,2.49,0,0,1,.45-.18,2.1,2.1,0,0,0,.8-.41,3.62,3.62,0,0,0,1.29-.87,4.14,4.14,0,0,0,1.47-2s0,0,0,0v-.07A4.35,4.35,0,0,0,58.72,66.58ZM55.6,68l-.22.36-.35.39a4.71,4.71,0,0,1-1,.93l-.06,0a7.09,7.09,0,0,1-1.82,1,1.27,1.27,0,0,0-.39.15.55.55,0,0,1-.31.09.37.37,0,0,0-.15,0,1.35,1.35,0,0,1-.68.05.31.31,0,0,0-.13,0,1.14,1.14,0,0,0,.1-.37.57.57,0,0,1,.1-.28.31.31,0,0,0,.05-.1l.15-.43c.21-.59.41-1.2.66-1.77a1.24,1.24,0,0,0,.1-.39.24.24,0,0,1,0-.14.08.08,0,0,1,0,0l.14-.4s0,0,0,0a2,2,0,0,1,.16-.39,1.28,1.28,0,0,0,.09-1.2h.11a2,2,0,0,1,.85,0,.36.36,0,0,0,.23,0s0,0,.08,0a.35.35,0,0,0,.17,0,6.52,6.52,0,0,1,1.6.18,1.86,1.86,0,0,0,.45.1c.2,0,.25,0,.31.11l0,0C56.41,66.55,56.11,67.15,55.6,68Z" transform="translate(-0.28 -5.21)"/><path class="cls-4" d="M110.9,51.86a.45.45,0,0,0-.51-.09,2.51,2.51,0,0,0-1.17.3l-.09,0a1.12,1.12,0,0,0-.56.24.58.58,0,0,1-.2.11,4,4,0,0,0-1.2.61c-.15.1-.3.21-.45.29a1.89,1.89,0,0,0-.53.37.68.68,0,0,1-.34.23.56.56,0,0,0-.19.09l-.15.15a4.5,4.5,0,0,1-.7.61.31.31,0,0,0-.13.17.46.46,0,0,1-.16.13,1.49,1.49,0,0,0-.37.35.46.46,0,0,1-.17.17c.23-.61.46-1.32.66-2,.14-.45.28-.88.4-1.24a.09.09,0,0,0,0,.05,2.47,2.47,0,0,0,.15-.43,2.09,2.09,0,0,1,.11-.3s0-.06,0-.09a8.38,8.38,0,0,1,.51-1.35l.06-.14c0-.11.1-.27.15-.43s.14-.42.18-.51,0,0,0-.06a1.78,1.78,0,0,1,.1-.23,1.31,1.31,0,0,0,.19-.41c0-.12.09-.24.14-.36s.13-.37.18-.56a4,4,0,0,0,.73-1.65.55.55,0,0,0,.17-.34,1.94,1.94,0,0,0,.17-.45.74.74,0,0,1,.11-.28.37.37,0,0,0,.06-.25.89.89,0,0,1,.06-.37,1.44,1.44,0,0,0,.08-.63.46.46,0,0,0,0-.42,3.42,3.42,0,0,0-.58-1.91c-.1-.18-.19-.36-.27-.53a.37.37,0,0,0-.13-.15,2.49,2.49,0,0,1-.47-.45,2.37,2.37,0,0,0-.88-.71l-.06,0a.94.94,0,0,1-.33-.14,1.79,1.79,0,0,0-.62-.22,1.7,1.7,0,0,0-1-.18,1.72,1.72,0,0,1-.4,0h-.1a2.66,2.66,0,0,0-.5.16,1.39,1.39,0,0,1-.46.13.37.37,0,0,0-.24.12.83.83,0,0,1-.34.16,2,2,0,0,0-.36.13l-.16.1a12.32,12.32,0,0,0-1.52,1h0c-.25,0-.37.15-.41.26a9.73,9.73,0,0,1-.91.77c-.2.15-.4.31-.59.48l-.4.36a7.58,7.58,0,0,0-.85.85,2.26,2.26,0,0,1-.23.29c.11-.2.22-.4.34-.6a.37.37,0,0,0,0-.23s0,0,.05-.05a.75.75,0,0,0,.25-.5,3.36,3.36,0,0,1,.22-.42,4.34,4.34,0,0,0,.23-.43s0,0,0,0a3,3,0,0,1,.25-.51,3.24,3.24,0,0,0,.26-.49l0-.15s0,0,0-.06a.32.32,0,0,0,.08-.14l.05-.05a2.28,2.28,0,0,0,.4-.77,1.37,1.37,0,0,1,.25-.53s0,0,0,0a1.55,1.55,0,0,0,.42-.67,1.24,1.24,0,0,1,.2-.38.26.26,0,0,0,.08-.13A2.73,2.73,0,0,1,100,37a3.75,3.75,0,0,0,.44-.79,2.22,2.22,0,0,1,.37-.69,3,3,0,0,0,.48-1,1,1,0,0,0,.46-.8.47.47,0,0,0,0-.44,1,1,0,0,0,.14-.23.24.24,0,0,1,0-.07h0a.32.32,0,0,0,.14-.2,2.27,2.27,0,0,0,.09-.89,2.78,2.78,0,0,0-1.41-2.46,1.13,1.13,0,0,0-.52-.42l-.23-.13,0,0a1,1,0,0,0-.62-.4.85.85,0,0,1-.23-.09A.31.31,0,0,0,99,28.3a3.73,3.73,0,0,1-.44-.14,2.81,2.81,0,0,0-.84-.22.47.47,0,0,0-.26.08h-.07a.68.68,0,0,0-.56.3.35.35,0,0,0,0,.39.8.8,0,0,0,.44.29l.11.05,0,0c0,.07,0,.14-.09.4,0,.09-.08.18-.12.29a.11.11,0,0,1,0,.05,1.07,1.07,0,0,1-.2.42,1.74,1.74,0,0,0-.28.68A2.84,2.84,0,0,0,96.27,32c0,.18-.11.36-.2.6a1.25,1.25,0,0,0-.17.35l0,.11a.3.3,0,0,0-.15.18,8,8,0,0,1-.61,1.25,10.32,10.32,0,0,0-.66,1.38s0,.11-.09.18a3.67,3.67,0,0,0-.22.53,9.06,9.06,0,0,0-.82,1.61c-.1.25-.21.5-.32.74a8.62,8.62,0,0,0-.65,1.39,9.89,9.89,0,0,1-.59,1.28.12.12,0,0,0,0,.08,5,5,0,0,1-.23.55,4.27,4.27,0,0,0-.29.73,6.67,6.67,0,0,0-.52,1.36,2.1,2.1,0,0,0-.29.61c-.2.41-.37.85-.54,1.28l-.23.58s0,0,0,0a3,3,0,0,0-.23.68,2.13,2.13,0,0,1-.22.6l-.06.13a3.13,3.13,0,0,1-.32.88,4.2,4.2,0,0,0-.38,1.1,2.07,2.07,0,0,0-.3.69l-.09.27a2.63,2.63,0,0,0-.35,1,3.16,3.16,0,0,1-.15.57.45.45,0,0,0-.15.37.42.42,0,0,0-.09.16,2.77,2.77,0,0,1-.14.46,2.31,2.31,0,0,0-.18.92,1.61,1.61,0,0,0-.2.8.89.89,0,0,1-.1.49.37.37,0,0,0,0,.34,1.65,1.65,0,0,1,.05.37c0,.09,0,.18,0,.27a.21.21,0,0,0,0,.11c.05.11.1.23.14.34a4,4,0,0,0,.74,1.24l0,0,.16.12a6.13,6.13,0,0,1,.54.45.36.36,0,0,0,.24.09h.26a.31.31,0,0,0,.11.09.66.66,0,0,0,.72-.11.91.91,0,0,0,.37-.24l.07-.06a.39.39,0,0,0,.28-.2,1.17,1.17,0,0,1,.2-.29,1.35,1.35,0,0,0,.39-.83,2.07,2.07,0,0,0,.32-.54,1.13,1.13,0,0,1,.17-.33l.06-.09.09-.26a2.27,2.27,0,0,1,.16-.39,3.5,3.5,0,0,0,.32-.52s0-.09.07-.13,0,0,0-.08.14-.36.21-.55a4.34,4.34,0,0,0,.17-.4,5.1,5.1,0,0,0,.38-.78,4.72,4.72,0,0,1,.32-.68.2.2,0,0,1,0-.08,2.8,2.8,0,0,1,.25-.53,3,3,0,0,0,.31-.68,7.31,7.31,0,0,0,.42-.77c.1-.22.2-.4.31-.6s.12-.24.18-.35a3.37,3.37,0,0,1,.61-.95.43.43,0,0,0,.1-.22,1.48,1.48,0,0,1,.25-.55,2.33,2.33,0,0,0,.24-.41,2.51,2.51,0,0,0,.54-.72,3.23,3.23,0,0,1,.27-.41s0,0,0,0l0,0a.55.55,0,0,0,.25-.36,1.74,1.74,0,0,0,.11-.18,3.24,3.24,0,0,1,.37-.5,1.88,1.88,0,0,0,.27-.38,8,8,0,0,0,.83-.93,6,6,0,0,1,.82-.92s.44-.45.68-.64a4.37,4.37,0,0,0,.63-.59.39.39,0,0,0,.23-.16.05.05,0,0,0,0,0,6.87,6.87,0,0,1,2.31-1.29l.1-.05a.46.46,0,0,1,.23-.09l.18,0H104c.22,0,.32,0,.37.06a2.64,2.64,0,0,1-.2,1.51.57.57,0,0,0-.1.21.35.35,0,0,0-.07.12,5.41,5.41,0,0,1-.5,1c-.13.24-.27.49-.39.75s-.18.34-.26.49a4,4,0,0,1-.39.68l0,.06c-.14.33-.26.66-.37,1a9.34,9.34,0,0,1-.43,1.08.19.19,0,0,0,0,.07,35.29,35.29,0,0,1-1.33,3.82,14.35,14.35,0,0,0-.67,2,6.22,6.22,0,0,0-.37,1.33c0,.28-.11.57-.19.86a.29.29,0,0,0,0,.09,2.4,2.4,0,0,1-.09.65.49.49,0,0,0,0,.12c0,.05,0,.12,0,.19a1,1,0,0,0-.05.52,2.63,2.63,0,0,0,0,.68c0,.13,0,.24,0,.35v.08A2.88,2.88,0,0,0,100,60.3a2.35,2.35,0,0,0,2.37.63.39.39,0,0,0,.14-.08,8.62,8.62,0,0,0,1.69-2.31l.23-.35a3.11,3.11,0,0,1,.63-.76.34.34,0,0,0,.08-.09,6.88,6.88,0,0,1,1.38-1.75l.07-.08a7.64,7.64,0,0,1,1.65-1.6.81.81,0,0,0,.35-.2s0,0,0,0a1.64,1.64,0,0,0,.43-.26.23.23,0,0,1,.1-.07l.28-.14a.88.88,0,0,1,.19-.1.34.34,0,0,0,.12-.06,1.88,1.88,0,0,1,.4-.21,1.45,1.45,0,0,0,.78-.6A.32.32,0,0,0,110.9,51.86Z" transform="translate(-0.28 -5.21)"/><path class="cls-4" d="M89.9,40.12a.41.41,0,0,0,0-.08.85.85,0,0,0-.3-.46.72.72,0,0,0-.3-.35l0,0a.35.35,0,0,0-.26-.33,1,1,0,0,0-.8.2.66.66,0,0,1-.27.13.37.37,0,0,0-.14,0,2.77,2.77,0,0,0-.31.22l-.14.1-.66-.49a.21.21,0,0,0-.13,0,.33.33,0,0,0-.28-.2h0l-.09-.08A1.14,1.14,0,0,0,86,38.6a.4.4,0,0,0-.19-.07h0a1.72,1.72,0,0,1-.22-.12,2,2,0,0,0-.49-.24l-.08,0a.92.92,0,0,1-.24-.09,1.16,1.16,0,0,0-.66-.14h0a1.28,1.28,0,0,0-.87-.08,1.06,1.06,0,0,0-.24,0h-.18a.37.37,0,0,0-.34,0,1.71,1.71,0,0,1-.62,0,2.84,2.84,0,0,0-.59,0h0a1.89,1.89,0,0,1-.38.06,2.87,2.87,0,0,0-.6.14,2.38,2.38,0,0,0-.9.24,2.59,2.59,0,0,1-.6.19.35.35,0,0,0-.11,0,6.14,6.14,0,0,0-2,1.37A4.59,4.59,0,0,0,75.5,42a.47.47,0,0,0,0,.22.39.39,0,0,0-.08.14.59.59,0,0,0,0,.23,1.28,1.28,0,0,0,0,.26V43s0,0,0,.06a.91.91,0,0,0,0,.59.65.65,0,0,1,0,.26.2.2,0,0,0,0,.15.28.28,0,0,0,0,.13c0,.05,0,.09,0,.13a5.39,5.39,0,0,0,.35,1.14c.08.2.16.4.22.59a.34.34,0,0,0,.15.18s0,0,.07.11a.85.85,0,0,0,.26.36,3.18,3.18,0,0,1,.55.85.36.36,0,0,0,.11.14,2.71,2.71,0,0,1,.62.78,3.94,3.94,0,0,0,.5.7c.13.19.28.37.43.55a3,3,0,0,1,.54.79.64.64,0,0,0,.1.13,2.31,2.31,0,0,1,.49.76,3.31,3.31,0,0,0,.29.56V52a1,1,0,0,0,.17.65.88.88,0,0,1-.09.44,3.18,3.18,0,0,0-.09.33,5.05,5.05,0,0,1-1.68,2,5.81,5.81,0,0,0-.88.49c-.22.14-.44.26-.65.37a4.21,4.21,0,0,0-.68.18,2.3,2.3,0,0,1-.94.16.38.38,0,0,0-.25.08.9.9,0,0,1-.47.07,1.94,1.94,0,0,0-.34,0l-.08,0-.11,0h0a.82.82,0,0,0-.49,0,1.21,1.21,0,0,0-.54-.14,1,1,0,0,0-.38-.17l-.16,0a.38.38,0,0,0-.23-.11c-.24,0-.43-.23-.67-.51a.27.27,0,0,0-.12-.09s-.06-.11-.09-.16a1.19,1.19,0,0,0-.37-.54.36.36,0,0,0-.3,0c-.35.09-.49.34-.43.76a.2.2,0,0,1,0,.07v0a.25.25,0,0,0,0,.08c0,.08,0,.17,0,.27a1.22,1.22,0,0,0,.21,1.05,3.37,3.37,0,0,0,1.23,1.26.45.45,0,0,0,.12.06.49.49,0,0,1,.17.08,2.15,2.15,0,0,0,.3.14.81.81,0,0,0,.41.13h0a.38.38,0,0,0,.18.13l.47.14a.88.88,0,0,0,.41.17l.15,0a.34.34,0,0,0,.28,0h0a.94.94,0,0,1,.22,0,1.16,1.16,0,0,0,.46,0h.33a.92.92,0,0,0,.33,0,1.07,1.07,0,0,1,.18,0,.31.31,0,0,0,.28,0,.86.86,0,0,1,.37,0h.35a.35.35,0,0,0,.16-.06h0a.57.57,0,0,1,.23,0h.1a.38.38,0,0,0,.21-.07h.09a.78.78,0,0,0,.48-.1,6.16,6.16,0,0,0,2-.37,7.66,7.66,0,0,1,.87-.25.38.38,0,0,0,.13-.06,2,2,0,0,1,.66-.27,2,2,0,0,0,1.09-.57,4.06,4.06,0,0,0,2.21-2.85.28.28,0,0,0,0-.2.81.81,0,0,0,0-.65.58.58,0,0,1-.06-.17.21.21,0,0,0,0-.13,3.09,3.09,0,0,1-.14-.46A2,2,0,0,0,84,52l-.07-.12a1.17,1.17,0,0,0-.28-.4,1.56,1.56,0,0,0-.23-.3l-.09-.09a.34.34,0,0,0-.09-.24,2.42,2.42,0,0,1-.27-.36,2.66,2.66,0,0,0-.5-.59,2.22,2.22,0,0,0-.25-.44,1.55,1.55,0,0,1-.2-.32,3.81,3.81,0,0,0-.55-.76,2,2,0,0,1-.51-.79.29.29,0,0,0,0-.08l-.06-.1a2.68,2.68,0,0,0-.6-.77,1.42,1.42,0,0,0-.12-.41,1.88,1.88,0,0,1-.09-.3.37.37,0,0,0-.07-.2.94.94,0,0,1-.11-.49,2.71,2.71,0,0,0-.06-.38,1.29,1.29,0,0,0,0-.19,2.74,2.74,0,0,1,.33-1l.06-.1a2.13,2.13,0,0,1,.88-1l.36-.28h0a.75.75,0,0,0,.13-.06,5,5,0,0,1,1.23-.67l.09,0,.12,0a.92.92,0,0,0,.45-.15c.25,0,.49-.1.73-.15l.62-.14A.25.25,0,0,0,85,41h.06a.73.73,0,0,0,.4-.09h.21A2.89,2.89,0,0,0,85.05,42l-.07.14a2,2,0,0,0,0,1.17,2.25,2.25,0,0,1,0,.22.37.37,0,0,0,.14.23.85.85,0,0,0,.77.2.34.34,0,0,0,.25-.29l0-.2.28-.35a2.24,2.24,0,0,1,1-.88.46.46,0,0,0,.18-.13,1.23,1.23,0,0,1,.88-.45l.12,0a.92.92,0,0,1,.25-.06,1.6,1.6,0,0,0,.58-.22s0,0,.07-.06A1.34,1.34,0,0,0,90,40.21S89.92,40.15,89.9,40.12Z" transform="translate(-0.28 -5.21)"/><path class="cls-4" d="M64.82,36a.41.41,0,0,1,0-.08.36.36,0,0,0-.1-.14.64.64,0,0,1-.14-.33,1.27,1.27,0,0,0-.22-.55.33.33,0,0,0-.19-.13.34.34,0,0,0-.24-.25c-.08,0-.12-.07-.22-.2a1.23,1.23,0,0,0-.25-.27.38.38,0,0,0-.17-.08.36.36,0,0,1-.14-.1,1.12,1.12,0,0,0-.38-.22.28.28,0,0,0-.18,0l-.07,0a1.11,1.11,0,0,0-.28,0,4.44,4.44,0,0,0-1.77-.17l-.62,0h-.09l-.09,0a1.22,1.22,0,0,0-.37.12,2.46,2.46,0,0,0-.71.12l-.09,0a.32.32,0,0,1-.14.05,1.22,1.22,0,0,0-.35.14,1.3,1.3,0,0,0-.33.14l0,0h0a4.7,4.7,0,0,0-.84.39,4.39,4.39,0,0,1-.66.31.36.36,0,0,0-.14.1.28.28,0,0,0-.21.08l-.68.53a19.59,19.59,0,0,0-1.73,1.43.23.23,0,0,0-.07.1.52.52,0,0,1-.15.15,1.1,1.1,0,0,0-.32.35.55.55,0,0,0-.23.22,1.79,1.79,0,0,0-.3.33l-.16.19-.06.07a8.38,8.38,0,0,1-.52.66,6.81,6.81,0,0,0-.74,1,.46.46,0,0,0-.12.12,10.66,10.66,0,0,1-1,1.58l-.06.1a5.45,5.45,0,0,1-.7,1.23c-.17.25-.34.51-.49.78.2-.69.38-1.35.56-2.1a1.4,1.4,0,0,0,0-.45A2,2,0,0,1,49,41a.36.36,0,0,0,.07-.26,1.91,1.91,0,0,0-.51-.92,2.27,2.27,0,0,1-.25-.31.25.25,0,0,0-.12-.11L48,39.3a3.87,3.87,0,0,0-2.2-.71,2.51,2.51,0,0,0-.76-.12,1.52,1.52,0,0,1-.32,0h-.09A5.48,5.48,0,0,1,43,38.35h-.05a.49.49,0,0,0-.4.13.51.51,0,0,0-.15.4v0a.32.32,0,0,0,.09.26l.06.08a.87.87,0,0,0,.64.37c.13.07.27.12.38.17a1.49,1.49,0,0,1,.28.11,1.67,1.67,0,0,1,0,.4,2,2,0,0,0,0,.47.77.77,0,0,0-.05.34v0a.37.37,0,0,0,0,.15,7.25,7.25,0,0,1-.35,1.65,2.17,2.17,0,0,0-.12.56,1.29,1.29,0,0,1,0,.23c-.08.38-.19.75-.29,1.12-.06.21-.13.43-.18.65a7,7,0,0,0-.28.85,5.52,5.52,0,0,1-.4,1.1.45.45,0,0,0,0,.2,1.41,1.41,0,0,1-.14.6,2.41,2.41,0,0,0-.15.43.19.19,0,0,0,0,.08,1.24,1.24,0,0,1-.15.45,1.82,1.82,0,0,0-.21.75l-.33,1-.21.63,0,.11a2.49,2.49,0,0,0-.22.56v0a4.92,4.92,0,0,1-.34,1.32,1,1,0,0,0-.06.14l-.1.2a.43.43,0,0,0,0,.17,1.63,1.63,0,0,1-.08.29l0,.09a.34.34,0,0,0,0,.1,1.68,1.68,0,0,1-.13.62.32.32,0,0,0,0,.14.48.48,0,0,0-.11.42,2.35,2.35,0,0,0-.18.69,3.29,3.29,0,0,1-.07.36.86.86,0,0,0,0,.16,3.16,3.16,0,0,0,1.88,2.25.74.74,0,0,0,.46.23h.08l0,0a.43.43,0,0,0,.22.09h.09a1.22,1.22,0,0,0,.69-.08.91.91,0,0,0,.73-.54,1.08,1.08,0,0,1,.14-.21.32.32,0,0,0,.13-.18c.31-1,.71-2.09,1.11-3.1l.26-.64,0,0a1,1,0,0,0,.09-.34s0-.07,0-.09a.37.37,0,0,0,.17-.3,1.06,1.06,0,0,1,.23-.54.26.26,0,0,0,0-.12.84.84,0,0,1,.18-.35A.27.27,0,0,0,46,53a5.77,5.77,0,0,1,.85-1.92.31.31,0,0,0,.06-.22,1.2,1.2,0,0,1,.15-.44,2.77,2.77,0,0,0,.2-.46l.18-.33a2,2,0,0,1,.22-.38.39.39,0,0,0,.08-.14,2.66,2.66,0,0,1,.28-.6,3.1,3.1,0,0,0,.32-.66A3.33,3.33,0,0,0,49,46.79a3.19,3.19,0,0,1,.41-.75.43.43,0,0,0,.07-.25.39.39,0,0,0,.13-.21l0,0s0,0,.05-.07a.7.7,0,0,0,.19-.37,2.68,2.68,0,0,0,.5-.74,2.39,2.39,0,0,1,.41-.62l0,0a.55.55,0,0,0,.2-.32.4.4,0,0,0,.18-.16,9.86,9.86,0,0,1,1.14-1.49l.18-.2a.41.41,0,0,0,.05-.09l0-.05,0-.07a.35.35,0,0,0,.26-.21,1.77,1.77,0,0,1,.48-.6,3.8,3.8,0,0,0,.34-.35.67.67,0,0,0,.33-.27h0L54,40a18,18,0,0,1,1.76-1.47l0,0a1.25,1.25,0,0,0,.27-.23c.06-.06.15-.15.18-.15a.42.42,0,0,0,.21-.06l.07-.05a9.41,9.41,0,0,1,2.61-1.31.21.21,0,0,0,.1,0,3.42,3.42,0,0,1,.8-.31l.39-.13.61-.07c.46,0,.93-.08,1.32-.15a1,1,0,0,0,.44.05.74.74,0,0,1,.15,0,.33.33,0,0,0,.19.06c.36,0,.61.22.87.72a.37.37,0,0,0,.17.16.62.62,0,0,0,.79-.22A.88.88,0,0,0,64.82,36Z" transform="translate(-0.28 -5.21)"/><path class="cls-4" d="M55.9,28.2a.58.58,0,0,0-.06-.41.79.79,0,0,0-.29-.44.75.75,0,0,1-.09-.09h0a.34.34,0,0,0-.32-.23,1,1,0,0,1-.37-.12,1.22,1.22,0,0,0-.33-.14,2.63,2.63,0,0,0-1.16-.35,3.89,3.89,0,0,1-.53-.09.33.33,0,0,0-.17,0,.66.66,0,0,1-.29,0,1.17,1.17,0,0,0-.54,0,2.39,2.39,0,0,0-.74,0,1.52,1.52,0,0,1-.37,0,1.18,1.18,0,0,0-.73,0,1.27,1.27,0,0,0-.52,0l-.21,0h-.11l-1.13.11a1.13,1.13,0,0,0-.77,0l-.08,0a.34.34,0,0,0-.36.08h-.08a.93.93,0,0,0-.37,0,4.41,4.41,0,0,0-1.29.13,4.12,4.12,0,0,1-.72.1.36.36,0,0,0-.24.09h0a.61.61,0,0,1-.25,0,1.51,1.51,0,0,0-.3,0,.29.29,0,0,0-.13.05.81.81,0,0,1-.25,0,1.56,1.56,0,0,0-.41.06.58.58,0,0,0-.51.09H42l-.57.18-.4.11a.57.57,0,0,0-.51.07h0a.4.4,0,0,0-.26,0,1.49,1.49,0,0,1-.5.09l-.26,0-.08,0a4.57,4.57,0,0,1-1.39.33.32.32,0,0,0-.21.08c-.09.07-.16.08-.36.09a1.69,1.69,0,0,0-.55.08s0,0-.08,0a.43.43,0,0,1-.16.05l-.26.07a1,1,0,0,0-.55.21c-.11.07-.13.08-.22.06a.34.34,0,0,0-.33.09.94.94,0,0,1-.26.07,1.36,1.36,0,0,0-.32.08l-.17,0h-.08A2.41,2.41,0,0,0,34,29a5.14,5.14,0,0,0-.59.2h-.08a.28.28,0,0,0-.13,0l0,0a2.09,2.09,0,0,0-.69.24l-.15,0a.46.46,0,0,0-.22.06h0l-.59.15a.34.34,0,0,0-.14.05.63.63,0,0,1-.26.07,1.18,1.18,0,0,0-.55.21h0l-.26.07H30.2a1.53,1.53,0,0,0-.57.19,1,1,0,0,0-.67.17,2,2,0,0,0-.41.11,1,1,0,0,1-.38.07.36.36,0,0,0-.26.11h0a.6.6,0,0,0-.34.09A3.85,3.85,0,0,0,27,31a1.86,1.86,0,0,1-.63.07.44.44,0,0,0-.16,0c-.08,0-.09,0-.26-.12a1.05,1.05,0,0,0-.48-.28.39.39,0,0,0-.31.08l-.26.23a.36.36,0,0,0-.12.3,3.28,3.28,0,0,0,1.79,2.38l.05,0,0,0a.6.6,0,0,0,.38.22.32.32,0,0,0,.13,0,1.66,1.66,0,0,0,.4.08,1,1,0,0,1,.3.07.42.42,0,0,0,.21.06,1.17,1.17,0,0,1,.36,0l.12,0a.4.4,0,0,0,.19,0,.6.6,0,0,1,.35,0,.36.36,0,0,0,.25,0,.39.39,0,0,0,.29,0l.13,0a5.69,5.69,0,0,0,.77-.22l.34-.11a3.11,3.11,0,0,0-.35.71,2,2,0,0,1-.31.6.38.38,0,0,0-.08.25.19.19,0,0,0-.06.07c-.12.22-.21.44-.31.65a3.57,3.57,0,0,1-.33.68s0,0,0,0-.13.31-.2.45a3.48,3.48,0,0,1-.33.7,11.9,11.9,0,0,0-.67,1.65l-.07.19a4.81,4.81,0,0,0-.4.87,3.12,3.12,0,0,1-.41.84l-.05.1c0,.06,0,.12,0,.17a1.51,1.51,0,0,1-.15.39.37.37,0,0,0-.05.23.69.69,0,0,1-.06.24,1.12,1.12,0,0,0-.05.13,2.45,2.45,0,0,0-.38.81,1.81,1.81,0,0,1-.24.57.67.67,0,0,0-.06.12,5.46,5.46,0,0,1-.19.66c0,.1-.07.2-.1.29l-.3.12a3.12,3.12,0,0,1-.65.22l-.05,0h-.12a1.54,1.54,0,0,0-.3.09.41.41,0,0,1-.23.06h-.14l-.37.14a1.32,1.32,0,0,1-.71.26.35.35,0,0,0-.33.25,1,1,0,0,0,.34,1l.12.14a.27.27,0,0,0,.08.07,1.6,1.6,0,0,0,.63.24,1.29,1.29,0,0,1,.28.08.42.42,0,0,0,.25,0,.84.84,0,0,1,.29,0,1.71,1.71,0,0,0,.32,0,7.23,7.23,0,0,0-.26.68,3.26,3.26,0,0,1-.23.6.31.31,0,0,0-.05.17,2.31,2.31,0,0,1-.16.64,2.69,2.69,0,0,0-.2.91,2.34,2.34,0,0,0-.26.62,1.23,1.23,0,0,1-.21.48.38.38,0,0,0-.07.27.92.92,0,0,1-.22.65.39.39,0,0,0-.08.2,1.38,1.38,0,0,1-.12.4,2.66,2.66,0,0,0-.16.56,3.42,3.42,0,0,0-.36,1,2.24,2.24,0,0,1-.14.49.33.33,0,0,0,0,.15,3.05,3.05,0,0,1-.05.45,3.36,3.36,0,0,0,0,.94l0,.07a.94.94,0,0,0-.07.71,5.75,5.75,0,0,0,0,1.17,2.45,2.45,0,0,1,0,.38.46.46,0,0,0,.12.24s0,.06,0,.09a.76.76,0,0,0,.17.5l.06,0a.73.73,0,0,1,.1.2,1.15,1.15,0,0,0,.53.64,1.2,1.2,0,0,0,.61.46.91.91,0,0,1,.24.11l.06,0a1.76,1.76,0,0,0,1,.25l.29,0a4.7,4.7,0,0,0,1.14,0,.34.34,0,0,0,.27-.21l0,0a.62.62,0,0,0,.32-.52.34.34,0,0,0-.09-.24,1.57,1.57,0,0,1-.32-1.3.27.27,0,0,0,0-.13.79.79,0,0,1,.08-.56,1.7,1.7,0,0,0,.13-.87,7.24,7.24,0,0,0,.27-1.4,4.94,4.94,0,0,1,.31-1.49l0-.1a4.06,4.06,0,0,1,.3-1l0-.06.12-.53c.08-.35.16-.68.27-1s.21-.63.32-.93.28-.84.44-1.25c.38-.95.83-2.08,1.33-3.18a1.25,1.25,0,0,0,.23-.37.42.42,0,0,1,.08-.15h0a.37.37,0,0,0,.35-.17s0,0,0-.06l.05,0a5.57,5.57,0,0,0,1.17-.52.64.64,0,0,0,.37-.13l0,0a.37.37,0,0,0,.32-.09h0a.59.59,0,0,0,.33-.09,1,1,0,0,0,.48-.16c.1-.06.14-.08.18-.08a.33.33,0,0,0,.3-.17h.07A1,1,0,0,0,35.1,45a2.74,2.74,0,0,0,.53-.15,1.51,1.51,0,0,1,.51-.14.36.36,0,0,0,.23-.09,1,1,0,0,1,.36-.06,1.23,1.23,0,0,0,.73-.17A6,6,0,0,0,38.77,44a1.82,1.82,0,0,0,.67-.2,1,1,0,0,1,.45-.14.21.21,0,0,0,.12,0,2.3,2.3,0,0,1,.84-.21l.45-.05a.36.36,0,0,0,.25-.18.33.33,0,0,0,0-.32,1.49,1.49,0,0,0-1-.88,2.13,2.13,0,0,0-.9-.15,2.78,2.78,0,0,1-.49,0,.36.36,0,0,0-.23.05,1.13,1.13,0,0,1-.5.08,3.68,3.68,0,0,0-.57.06.75.75,0,0,0-.47.16l-.06,0a.38.38,0,0,0-.37,0,.9.9,0,0,1-.41.08,1.78,1.78,0,0,0-.45.08.5.5,0,0,0-.23.09,1.94,1.94,0,0,0-.7.13,2,2,0,0,1-.52.11.35.35,0,0,0-.24.1h-.1A.84.84,0,0,0,34,43a2.25,2.25,0,0,0-.6.17,1.54,1.54,0,0,1-.24.1l-.65.14-.65.14a.11.11,0,0,0,0,0,4.92,4.92,0,0,1,.57-1.12.25.25,0,0,0,0-.07c.1-.23.23-.47.35-.7a7.69,7.69,0,0,0,.38-.76,1.21,1.21,0,0,0,.2-.39.49.49,0,0,1,.11-.21.41.41,0,0,0,.1-.13l0-.06a1.79,1.79,0,0,1,.3-.53.39.39,0,0,0,.08-.1c.21-.4.38-.8.53-1.17a10.55,10.55,0,0,1,.59-1.29,2.85,2.85,0,0,0,.29-.83,1.65,1.65,0,0,1,.23-.65.35.35,0,0,0,0-.3h0a1,1,0,0,1,.1-.32A1.07,1.07,0,0,0,35.9,34c0-1,.27-1.13.48-1.18a.42.42,0,0,0,.18-.11.89.89,0,0,1,.24,0,1,1,0,0,0,.68-.23h0a.35.35,0,0,0,.31-.09.42.42,0,0,1,.19-.09,1.3,1.3,0,0,0,.37-.19,1.27,1.27,0,0,0,.28-.06L38.9,32a.39.39,0,0,0,.2-.13h.07a.71.71,0,0,0,.54-.15.48.48,0,0,0,.25-.07,1.36,1.36,0,0,0,.71-.23.81.81,0,0,1,.33-.13l.13,0a1.13,1.13,0,0,1,.36-.12h0a.34.34,0,0,0,.4-.06h0a.92.92,0,0,0,.33-.06,1.4,1.4,0,0,0,.67-.18.77.77,0,0,1,.26-.1l.07,0a4.11,4.11,0,0,1,.58-.14,4,4,0,0,0,.68-.17.33.33,0,0,0,.13-.07l.15,0a1,1,0,0,0,.43-.09,1,1,0,0,0,.32-.07l.15,0a.35.35,0,0,0,.39,0A.61.61,0,0,1,46.4,30a1.24,1.24,0,0,0,.48-.08.58.58,0,0,0,.43-.09.3.3,0,0,0,.16,0,.92.92,0,0,1,.25-.05.35.35,0,0,0,.14.06.36.36,0,0,0,.3-.09l.18,0h.29a.52.52,0,0,0,.19-.11.68.68,0,0,1,.25.05.34.34,0,0,0,.31,0,.58.58,0,0,0,.44,0,.42.42,0,0,0,.19,0,1.15,1.15,0,0,0,.38,0,.72.72,0,0,1,.19,0h0a.64.64,0,0,0,.57-.08l.15,0a1.67,1.67,0,0,0,.64,0,.49.49,0,0,0,.29,0l.5.06a1.64,1.64,0,0,1,.52.07l.11,0h.22a.71.71,0,0,1,.22,0h0l.09.05h0a.58.58,0,0,0,0,.1c.05.3.08.51.28.6a.33.33,0,0,0,.32,0A3.57,3.57,0,0,0,56,28.53.42.42,0,0,0,55.9,28.2Z" transform="translate(-0.28 -5.21)"/><path class="cls-4" d="M71.88,48.93v-.06a.37.37,0,0,0-.31-.36.8.8,0,0,0-.82.33,7.66,7.66,0,0,0-.59.86,5.58,5.58,0,0,1-.69,1,3.64,3.64,0,0,0-.34.4,2.21,2.21,0,0,1-.29.33.12.12,0,0,0,0,.05,12.16,12.16,0,0,1-1.2,1.31l-.24.25a7.3,7.3,0,0,1-1,1c-.22.18-.45.37-.71.62a2.85,2.85,0,0,0-.59.49l-.06.06-.22.15a.44.44,0,0,1-.16.11h-.06a1.09,1.09,0,0,0-.39.28.64.64,0,0,1-.15.12h0a.34.34,0,0,0-.19.09,5.7,5.7,0,0,1-1.3.76c-.25.12-.5.24-.75.38a4,4,0,0,1-.76.29.44.44,0,0,0-.15.08h0a.4.4,0,0,1-.17,0,1.23,1.23,0,0,0-.43.09h-.23a.41.41,0,0,0-.19,0,.53.53,0,0,0-.32-.07c-.5-.26-.62-.79-.75-1.6l-.07-.45A16.88,16.88,0,0,1,59,52.84c0-.15.08-.31.11-.47a3.86,3.86,0,0,1,.18-.63h0a1.2,1.2,0,0,0,.25-.09c.12-.06.14-.06.17,0a.3.3,0,0,0,.26,0,1.34,1.34,0,0,1,.36-.09l.18,0,.07,0a4.31,4.31,0,0,1,.64-.21,3.93,3.93,0,0,0,.95-.36l.38-.08a.16.16,0,0,0,.1,0l.16-.07a2.28,2.28,0,0,0,.28-.13,6.07,6.07,0,0,0,1.2-.49,4,4,0,0,0,1.34-.68A5.43,5.43,0,0,1,66.3,49a5.56,5.56,0,0,0,1-.63l.42-.31s0,0,0-.05a.65.65,0,0,1,.22-.16.44.44,0,0,0,.22-.14,2.88,2.88,0,0,1,.44-.4l0,0,.07-.07a1.47,1.47,0,0,1,.25-.23,2.81,2.81,0,0,0,.47-.5l.26-.28a2.89,2.89,0,0,1,.28-.31s0,0,0,0a2.1,2.1,0,0,0,.38-.72,1.64,1.64,0,0,1,.22-.46.36.36,0,0,0,.08-.3c0-.1,0-.17.08-.32a1.14,1.14,0,0,0,.1-.83.89.89,0,0,0,0-.11,1.33,1.33,0,0,0-.36-.83,1.24,1.24,0,0,0-.35-.49c-.08-.07-.16-.14-.17-.2a.34.34,0,0,0-.15-.18,12.41,12.41,0,0,1-1.72-1.47c-.3-.29-.61-.58-.92-.85l-.13-.1a1.76,1.76,0,0,0-.65-.35A1.38,1.38,0,0,0,65,38.43a2.26,2.26,0,0,0-.55.06,1.47,1.47,0,0,1-.27,0h-.09a2.19,2.19,0,0,0-.41.17,1.07,1.07,0,0,1-.38.13.5.5,0,0,0-.13,0c-.12.06-.24.1-.37.15l-.1,0-.09.05a4.56,4.56,0,0,1-.57.35,3.39,3.39,0,0,0-.89.62,1.3,1.3,0,0,0-.41.34,1.6,1.6,0,0,1-.26.22h0l-.05,0-.07,0,.07,0a.39.39,0,0,0-.23.18L60,41a1.57,1.57,0,0,1-.19.18.2.2,0,0,0-.09.09,1.61,1.61,0,0,1-.32.32A3.68,3.68,0,0,0,59,42a1.42,1.42,0,0,0-.39.5,1,1,0,0,1-.23.3.28.28,0,0,0-.13.2,1,1,0,0,1-.21.32,1.84,1.84,0,0,0-.27.38,6.68,6.68,0,0,0-.54.85l-.12.22,0,0a1.43,1.43,0,0,1-.21.34,1.74,1.74,0,0,0-.38.81,4.7,4.7,0,0,0-.67,1.5,1.87,1.87,0,0,0-.31.66,1.1,1.1,0,0,1-.2.45.31.31,0,0,0-.07.29.58.58,0,0,1-.07.22,1.19,1.19,0,0,0-.12.58L55,50l-.14-.07-.1,0a2,2,0,0,1-.69-.35,3.52,3.52,0,0,0-.46-.28,3,3,0,0,1-.43-.34,2.73,2.73,0,0,0-.56-.42.36.36,0,0,0-.43,0,.76.76,0,0,0-.1,1,1.24,1.24,0,0,1,.06.18v0a1.65,1.65,0,0,0,.79,1.14L53,51a.32.32,0,0,0,.24.08.71.71,0,0,1,.38.14,1.42,1.42,0,0,0,.71.24,1,1,0,0,0,.3.09,1.46,1.46,0,0,0,0,.29v.1a.34.34,0,0,0-.08.18.36.36,0,0,0,0,.21.25.25,0,0,0,0,.12v.32a2.21,2.21,0,0,0,0,.72.43.43,0,0,0,0,.28.1.1,0,0,0,0,0,1.27,1.27,0,0,0,0,.36v.05a.83.83,0,0,0,.06.25.66.66,0,0,1,0,.25.11.11,0,0,0,0,.08.55.55,0,0,0,.11.28.3.3,0,0,0,0,.16c.09.31.2.62.3.93a4.15,4.15,0,0,0,1.7,2,.2.2,0,0,0,.09,0,2.23,2.23,0,0,1,.36.2,2.11,2.11,0,0,0,.52.27,1.39,1.39,0,0,0,.81.32,1.9,1.9,0,0,1,.34.08,1.19,1.19,0,0,0,.72.18h.15a.69.69,0,0,0,.54,0h0a.27.27,0,0,0,.12.06.68.68,0,0,0,.45,0,.4.4,0,0,0,.32,0,1,1,0,0,1,.34,0l.3,0a.24.24,0,0,0,.13-.07.45.45,0,0,0,.18,0,2.66,2.66,0,0,0,.45-.07l.18,0,.11,0a3.07,3.07,0,0,1,.7-.26c.18-.06.37-.11.56-.19,0,0,.07,0,.09-.06a5.58,5.58,0,0,1,1.21-.71l.06,0a12.07,12.07,0,0,0,1.74-1.43.37.37,0,0,0,.2-.07.31.31,0,0,0,.12-.24,16.6,16.6,0,0,0,1.58-1.81.77.77,0,0,0,.09-.13c.06-.09.13-.18.19-.29a2.92,2.92,0,0,0,.6-.83,3.09,3.09,0,0,1,.41-.61l.07-.09c.08-.18.17-.36.27-.56s.29-.57.42-.88a6.08,6.08,0,0,0,.46-.92c.08-.19.15-.36.24-.53A.32.32,0,0,0,71.88,48.93ZM60,49.87c0-.07,0-.14.06-.16a.44.44,0,0,0,.08-.2,1.63,1.63,0,0,1,.42-.85.36.36,0,0,0,.06-.3s0-.06.14-.2a1.19,1.19,0,0,0,.3-.47.53.53,0,0,0,.13-.27v-.08c.09-.12.16-.24.26-.36a5.41,5.41,0,0,0,.7-1.1,4.17,4.17,0,0,0,.45-.52A4.54,4.54,0,0,1,62.9,45a.37.37,0,0,0,.07-.14,7,7,0,0,0,.6-.65,5.33,5.33,0,0,1,.46-.49.84.84,0,0,0,.52-.38l.07-.11h0a.41.41,0,0,0,.21-.1,5.82,5.82,0,0,1,.72-.61,7,7,0,0,0,.76-.63l.2-.1a1.92,1.92,0,0,0,.55-.31.83.83,0,0,1,.79.11,1,1,0,0,0,.16.34.24.24,0,0,1,.06.11,2.43,2.43,0,0,0,0,.51c0,.19,0,.29-.08.39a.36.36,0,0,0-.06.28s0,0,0,0a.36.36,0,0,0-.07.18v0a.85.85,0,0,1-.14.3,3.45,3.45,0,0,0-.19.34.68.68,0,0,0-.22.39s0,0,0,0v0a12.76,12.76,0,0,1-1.88,2.06l0,0-.48.47-.27.26a.61.61,0,0,0-.33.25c-.17.1-.34.23-.49.34a1.44,1.44,0,0,1-.21.15.28.28,0,0,0-.09.1l-.22.17-.21.14a1.78,1.78,0,0,0-.57.32.71.71,0,0,1-.41.21.45.45,0,0,0-.18.07,4.24,4.24,0,0,1-1,.52A7.18,7.18,0,0,0,60,50h-.08A.6.6,0,0,0,60,49.87Z" transform="translate(-0.28 -5.21)"/><path class="cls-2" d="M129.24,44.85c-.18-.31-4.42-7.54-14.51-14.78a73.21,73.21,0,0,0-19-9.66c.34-.79.65-1.56.9-2.29-.09.22.16-.72.07-.23a.74.74,0,0,1,.16-.27,2,2,0,0,0,.46-1.22,1.91,1.91,0,0,0-1.84-1.82l-.54,0-.52,0a22.53,22.53,0,0,0-12.15.82,15.53,15.53,0,0,0-2.47,1.27c-1.09-.15-2.21-.29-3.35-.41A17.16,17.16,0,0,0,65.39,6.05c-.13,0-.4-.16-.66-.27s-.81-.35-1.21-.49a1.48,1.48,0,0,0-1.45.32,1.34,1.34,0,0,0-.46,1.29.43.43,0,0,1,0-.05v0a4.61,4.61,0,0,1-.32.92c-.2.49-.45,1.09-.68,1.85a16.36,16.36,0,0,0-.94,6.15c-21.35,1.07-35.84,8.11-44.44,14.08C5.07,36.89.74,43.91.55,44.2a1.88,1.88,0,0,0-.24,1.33l8.6,46.34a1.9,1.9,0,0,0,.89,1.29,1.92,1.92,0,0,0,1.57.17c15-5,38.61-7.59,54.12-7.59,18.35,0,39.28,2.94,53.32,7.5a1.91,1.91,0,0,0,1.55-.18,1.86,1.86,0,0,0,.89-1.29l8.18-45.67A1.73,1.73,0,0,0,129.24,44.85Zm-.78,1.1-8.18,45.66a.94.94,0,0,1-.42.61.91.91,0,0,1-.72.08C105,87.71,84,84.75,65.51,84.75c-15.59,0-39.3,2.62-54.44,7.64a.83.83,0,0,1-.72-.08.88.88,0,0,1-.42-.6L1.32,45.37a1,1,0,0,1,.11-.62c.18-.29,4.4-7.13,14.38-14.07,8.63-6,23.26-13.08,44.95-14a15.62,15.62,0,0,1,.83-6.79,15.79,15.79,0,0,1,.65-1.77,3.4,3.4,0,0,0,.39-1.45.31.31,0,0,1,.12-.3.49.49,0,0,1,.46-.12c.36.12.77.3,1.13.45a6,6,0,0,0,.75.3,16.19,16.19,0,0,1,10.45,9.54h0c0,.19.08.37.12.56,1.51.15,3,.34,4.42.55a14.08,14.08,0,0,1,2.61-1.38,21.66,21.66,0,0,1,11.64-.76l.6,0,.52,0a.89.89,0,0,1,.88.78,1,1,0,0,1-.27.62,1.76,1.76,0,0,0-.34.7v0a25.35,25.35,0,0,1-1.22,3.37,72.54,72.54,0,0,1,19.63,9.83c9.9,7.11,14,14.16,14.21,14.46A.81.81,0,0,1,128.46,46Z" transform="translate(-0.28 -5.21)"/><path class="cls-2" d="M74,17.11A14,14,0,0,0,68.08,9.9l-.47-.3a20,20,0,0,0-3.17-1.47l-.14-.08h0L64.15,8a1.47,1.47,0,0,0-.24-.12h0s0,0,0,0L63.83,8a16.17,16.17,0,0,0-1.19,3c-.92,4-.78,7.25.48,10.1,1.61,3.34,3.67,5,6.66,6.77l0,0v-.05a31.39,31.39,0,0,0-.75-6.63,52.55,52.55,0,0,0-2.59-7.87.12.12,0,0,1,.07-.14c.09-.05.24,0,.39.17A16.59,16.59,0,0,1,70,18.11a20.37,20.37,0,0,1,1.1,4.43l.18,1a17.74,17.74,0,0,1,.24,3.74v.08l0-.07a14.11,14.11,0,0,0,2.63-4.81A9.1,9.1,0,0,0,74,17.11Z" transform="translate(-0.28 -5.21)"/><path class="cls-2" d="M94.86,16.67a.17.17,0,0,0-.13-.1,5.43,5.43,0,0,0-1.28,0h-.11c-8.15-1-13.65,1.28-16.34,6.75l-.17.33A5.06,5.06,0,0,0,76.11,26c0,.11,0,.24,0,.36v.05l0,0,.08-.07.17-.13a36.29,36.29,0,0,1,12-6.05h0a2.28,2.28,0,0,1,.74-.1s.07,0,.1,0l0,.06-.06,0a.06.06,0,0,0,0-.06v0l-.1.1h0l-.13.07a93.43,93.43,0,0,0-12.74,8.28h0v0a3.5,3.5,0,0,0,2.71,1.74,10.28,10.28,0,0,0,5.64-.63,13.38,13.38,0,0,0,4.71-3.29,21.23,21.23,0,0,0,5.09-8.62l.11-.26C94.79,17.21,95,16.84,94.86,16.67Z" transform="translate(-0.28 -5.21)"/><path class="cls-4" d="M108.14,81a1.21,1.21,0,1,1,1.22,1.25A1.2,1.2,0,0,1,108.14,81Zm1.22,1.49A1.49,1.49,0,1,0,107.83,81,1.49,1.49,0,0,0,109.36,82.47ZM109,81.1h.3l.46.75h.29l-.5-.76a.45.45,0,0,0,.45-.48c0-.34-.2-.48-.61-.48h-.65v1.72H109Zm0-.23v-.53h.36c.18,0,.37,0,.37.25s-.19.28-.41.28Z" transform="translate(-0.28 -5.21)"/></svg>