<svg id="hertz" xmlns="http://www.w3.org/2000/svg" viewBox="0 0 127.65 34.56"><defs><style>.cls-1{fill:#fff;}</style></defs><path class="cls-1" d="M123,61.1c-1,1.13-1.78,3.64-.08,4.69,2.5,1.53,5.73-1.62,5.41-3.88C128,59,124.43,59.57,123,61.1m5.89.57A4.47,4.47,0,0,1,126.69,66a4,4,0,0,1-3.71.32,3.17,3.17,0,0,1-1.13-4.36c.89-1.7,3.79-3.63,6-2.1a3.19,3.19,0,0,1,1.05,1.86" transform="translate(-1.26 -32.03)"/><path class="cls-1" d="M124.67,61.83a5,5,0,0,1-.24,1.05c1.29.65,2.43-1.37.24-1.05m1.14,1.62a3.43,3.43,0,0,0,.56,1.21c-.24.08-.56,0-.89.08a5,5,0,0,1-.48-1.13h-.65c-.08.4-.24.72-.32,1.13h-.65c.16-1.21.49-2.34.73-3.56.89.08,1.94-.24,2.5.25s-.08,1.85-.8,2" transform="translate(-1.26 -32.03)"/><path class="cls-1" d="M122.82,44.55,106.74,59.73h12.85c-.41,2.18-.89,4.28-1.38,6.38h-22L97.46,60s1.37-1.21,2-1.86c4.53-4.52,9.54-8.8,14-13.24H100.61c.4-2.18,1-4.2,1.29-6.38H124Z" transform="translate(-1.26 -32.03)"/><path class="cls-1" d="M98.75,38.49c-.41,2.18-.89,4.2-1.29,6.38-2.43-.08-5.17,0-7.52-.08-.72,2.91-1.29,6.46-2.1,9.69-.32,1.37-.8,3.47-.08,4.6,1,1.54,4.12,1.38,6.38,1.13-.4,2-.88,3.88-1.21,5.9-4.84,1.29-9.93-.24-11.71-3.63-1-2.1-1-5.17-.48-7.84C82.19,47.05,84.13,39.46,85.5,32h7.11c-.49,2.1-.89,4.2-1.29,6.3,2.34.08,4.92,0,7.35.08a.08.08,0,0,0,.08.08" transform="translate(-1.26 -32.03)"/><path class="cls-1" d="M81,38.49c-.41,2.18-.89,4.2-1.29,6.3-2.91-.33-5.9.08-7.27,2-1.38,2.66-2,6-2.67,9.29S68.3,62.8,67.65,66H60.54c.65-3.31,1.46-6.7,2.18-10.18A70.92,70.92,0,0,1,65.15,46a12.35,12.35,0,0,1,5.65-6.62,14,14,0,0,1,10.1-1.05c0,.16.08.16.08.16" transform="translate(-1.26 -32.03)"/><path class="cls-1" d="M45.76,44.55a7.68,7.68,0,0,0-3.07,4c3.56.08,7.76,0,11.39.08.73-4.92-5.09-6.13-8.32-4m13.9,9.77H41.16a6.53,6.53,0,0,0,.32,3.79c1.94,4.12,9.86,2.19,12.6.09,1,1.53,1.86,3.15,2.83,4.68a18.51,18.51,0,0,1-7.35,3.23c-4.93,1-9.85.16-12.44-2.58C34.7,60.94,34,56.42,34.7,52.14c1.13-6.22,4.44-11.23,9.93-13.33C49.32,37,55.13,38.08,58,41.07a9.88,9.88,0,0,1,2.5,6.3,21.26,21.26,0,0,1-.8,7" transform="translate(-1.26 -32.03)"/><path class="cls-1" d="M35.1,32.11c-2.5,11.3-4.84,22.69-7.27,34h-7c.8-4,1.61-7.83,2.5-11.79-3.72-.08-8.4-.08-12.44,0-.89,3.88-1.7,7.91-2.5,11.79H1.26c2.34-11.39,4.85-22.61,7.19-34h7.19c-1.13,5.25-2.27,10.5-3.4,15.83,4,.08,8.24,0,12.36.08,1.21-5.25,2.26-10.58,3.39-15.83,2.35-.08,4.77-.16,7.11-.08" transform="translate(-1.26 -32.03)"/></svg>