<?xml version="1.0" encoding="utf-8"?>
<!-- Generator: Adobe Illustrator 24.2.3, SVG Export Plug-In . SVG Version: 6.00 Build 0)  -->
<svg version="1.1" id="Layer_1" xmlns="http://www.w3.org/2000/svg" xmlns:xlink="http://www.w3.org/1999/xlink" x="0px" y="0px"
	 viewBox="0 0 170 57" style="enable-background:new 0 0 170 57;" xml:space="preserve">
<style type="text/css">
	.st0{fill:#FFFFFF;}
</style>
<g>
	<path class="st0" d="M156.5,44.2c-1.3,1.4-2.2,4.5-0.1,5.8c3.1,1.9,7.1-2,6.7-4.8C162.7,41.6,158.3,42.3,156.5,44.2 M163.8,44.9
		c0.3,2.4-1.2,4.4-2.7,5.3c-1.3,0.8-3.2,1.1-4.6,0.4c-1.9-0.9-2.4-3.4-1.4-5.4c1.1-2.1,4.7-4.5,7.4-2.6
		C163.1,43.1,163.6,43.9,163.8,44.9"/>
	<path class="st0" d="M158.6,45.1c-0.1,0.4-0.1,0.9-0.3,1.3C159.9,47.2,161.3,44.7,158.6,45.1 M160,47.1c0.1,0.6,0.4,1,0.7,1.5
		c-0.3,0.1-0.7,0-1.1,0.1c-0.2-0.5-0.5-0.8-0.6-1.4h-0.8c-0.1,0.5-0.3,0.9-0.4,1.4H157c0.2-1.5,0.6-2.9,0.9-4.4
		c1.1,0.1,2.4-0.3,3.1,0.3C161.8,45.3,160.9,46.9,160,47.1"/>
	<path class="st0" d="M156.3,23.7c0,0-14.3,13.5-19.9,18.8h15.9c-0.5,2.7-1.1,5.3-1.7,7.9h-27.3l1.6-7.6c0,0,1.7-1.5,2.5-2.3
		c5.6-5.6,11.8-10.9,17.3-16.4h-15.9c0.5-2.7,1.2-5.2,1.6-7.9c9.1,0,27.4,0,27.4,0L156.3,23.7z"/>
	<path class="st0" d="M126.5,16.2c-0.5,2.7-1.1,5.2-1.6,7.9c-3-0.1-6.4,0-9.3-0.1c-0.9,3.6-1.6,8-2.6,12c-0.4,1.7-1,4.3-0.1,5.7
		c1.3,1.9,5.1,1.7,7.9,1.4c-0.5,2.5-1.1,4.8-1.5,7.3c-6,1.6-12.3-0.3-14.5-4.5c-1.3-2.6-1.2-6.4-0.6-9.7c1.8-9.4,4.2-18.8,5.9-28
		h8.8c-0.6,2.6-1.1,5.2-1.6,7.8c2.9,0.1,6.1,0,9.1,0.1C126.4,16.2,126.5,16.2,126.5,16.2"/>
	<path class="st0" d="M104.5,16.2c-0.5,2.7-1.1,5.2-1.6,7.8c-3.6-0.4-7.3,0.1-9,2.5c-1.7,3.3-2.5,7.5-3.3,11.5
		c-0.8,4.1-1.8,8.3-2.6,12.3h-8.8c0.8-4.1,1.8-8.3,2.7-12.6c0.9-4.2,1.6-8.5,3-12.2c1.3-3.6,3.8-6.4,7-8.2c3.1-1.7,8.1-2.6,12.5-1.3
		C104.4,16.2,104.5,16.2,104.5,16.2"/>
	<path class="st0" d="M60.9,23.7c-2,1.3-3.1,3-3.8,4.9c4.4,0.1,9.6,0,14.1,0.1C72.1,22.6,64.9,21.1,60.9,23.7 M78.1,35.8H55.2
		c-0.3,1.6-0.2,3.6,0.4,4.7c2.4,5.1,12.2,2.7,15.6,0.1c1.2,1.9,2.3,3.9,3.5,5.8c-2.5,1.8-5.5,3.3-9.1,4c-6.1,1.2-12.2,0.2-15.4-3.2
		c-3-3.2-3.9-8.8-3-14.1c1.4-7.7,5.5-13.9,12.3-16.5c5.8-2.2,13-0.9,16.5,2.8c1.7,1.7,2.8,4.3,3.1,7.8
		C79.3,30.5,78.8,33.1,78.1,35.8"/>
	<path class="st0" d="M47.7,8.3c-3.1,14-6,28.1-9,42.1H30c1-4.9,2-9.7,3.1-14.6c-4.6-0.1-10.4-0.1-15.4,0c-1.1,4.8-2.1,9.8-3.1,14.6
		H5.8c2.9-14.1,6-28,8.9-42.1h8.9c-1.4,6.5-2.8,13-4.2,19.6c5,0.1,10.2,0,15.3,0.1c1.5-6.5,2.8-13.1,4.2-19.6
		C41.8,8.3,44.8,8.2,47.7,8.3"/>
</g>
</svg>
