<?xml version="1.0" encoding="utf-8"?>
<!-- Generator: Adobe Illustrator 24.2.3, SVG Export Plug-In . SVG Version: 6.00 Build 0)  -->
<svg version="1.1" id="Layer_1" xmlns="http://www.w3.org/2000/svg" xmlns:xlink="http://www.w3.org/1999/xlink" x="0px" y="0px"
	 viewBox="0 0 203.9 66.22" style="enable-background:new 0 0 203.9 66.22;" xml:space="preserve">
<style type="text/css">
	.st0{fill:#FFFFFF;}
</style>
<g>
	<path class="st0" d="M52.81,44.22c-0.79,1.13-4.07,0.21-7.32-2.05c-3.25-2.27-5.25-5.02-4.46-6.15c0.79-1.13,4.06-0.21,7.32,2.05
		C51.6,40.33,53.6,43.09,52.81,44.22L52.81,44.22z"/>
	<path class="st0" d="M30.21,33.52c1.01,0.7,1.89,1.31,3.32,2.3C49.6,27.5,50.82,20.17,48.8,16.61c-1.9-3.34-8.71-6.63-21.2-1.99
		C14.81,19.37,6.75,31.01,10.21,39.88c3.43,8.83,16.57,11.99,29.57,7.02l0.02-0.01l2.15-5.26c0,0-4.13-2.88-4.13-2.89
		c-10.33,3.92-20.67,1.95-23.16-4.45c-2.52-6.47,3.79-14.91,14.24-19.01c10.52-4.12,24.19,0.57,2.66,14.22
		C30.81,31.7,30.53,32.53,30.21,33.52L30.21,33.52z"/>
	<path class="st0" d="M76.61,33.63h-4.42c0-1.32,0.83-2.58,2.22-2.58C75.89,31.05,76.59,32.4,76.61,33.63L76.61,33.63z M79.03,35.36
		c0-0.27,0-0.49,0-0.65c0-3.3-1.75-5.47-4.57-5.47c-2.87,0-4.64,2.47-4.64,5.49c0,2.89,1.59,5.6,5.16,5.6c1.23,0,2.64-0.38,3.7-1.14
		l-0.61-1.52c-0.83,0.47-1.72,0.74-2.67,0.74c-1.91,0-3.16-1.3-3.18-3.05H79.03L79.03,35.36z"/>
	<path class="st0" d="M87.44,33.63h-4.42c0-1.32,0.83-2.58,2.22-2.58C86.72,31.05,87.42,32.4,87.44,33.63L87.44,33.63z M89.86,35.36
		c0-0.27,0-0.49,0-0.65c0-3.3-1.75-5.47-4.57-5.47c-2.87,0-4.64,2.47-4.64,5.49c0,2.89,1.59,5.6,5.16,5.6c1.23,0,2.65-0.38,3.7-1.14
		l-0.6-1.52c-0.83,0.47-1.73,0.74-2.67,0.74c-1.91,0-3.16-1.3-3.18-3.05H89.86L89.86,35.36z"/>
	<path class="st0" d="M98.56,38.18c-0.31,0.11-0.83,0.2-1.3,0.2c-2.31,0-3.59-1.53-3.59-3.61c0-2.24,1.53-3.61,3.5-3.61
		c0.67,0,1.01,0.07,1.39,0.18V38.18L98.56,38.18z M100.89,39.5V24.52h-2.33v4.85c-0.4-0.07-0.85-0.13-1.48-0.13
		c-3.29,0-5.74,2.38-5.74,5.67c0,3.61,2.55,5.43,5.67,5.43C98.7,40.33,100.02,39.98,100.89,39.5L100.89,39.5z"/>
	<path class="st0" d="M127.72,40.11l-0.43-1.06c-0.76,0.65-1.93,1.28-3.32,1.28c-1.41,0-3.48-0.72-3.48-3.99v-6.84h2.33v6.68
		c0,1.48,0.67,2.24,1.97,2.24c1.01,0,1.84-0.58,2.31-1.05v-7.87h2.33v7.15c0,2.22,0.04,2.97,0.2,3.46H127.72L127.72,40.11z"/>
	<path class="st0" d="M135.06,40.33c-1.68,0-2.82-0.4-3.68-0.94l0.78-1.73c0.69,0.47,1.68,0.88,2.78,0.88
		c1.16,0,1.95-0.47,1.95-1.28c0-2.13-4.87-1.32-4.87-5c0-1.73,1.34-3.03,3.83-3.03c1.28,0,2.17,0.24,2.96,0.56v1.97
		c-0.83-0.36-1.73-0.67-2.87-0.67c-0.97,0-1.66,0.32-1.66,1.05c0,1.91,4.95,1.35,4.95,4.93C139.25,39.41,137.28,40.33,135.06,40.33
		L135.06,40.33z"/>
	<path class="st0" d="M144.18,26.21c0,0.78-0.65,1.46-1.48,1.46c-0.85,0-1.5-0.65-1.5-1.46c0-0.81,0.65-1.46,1.5-1.46
		C143.53,24.75,144.18,25.38,144.18,26.21L144.18,26.21z M141.54,40.11V29.51h2.33v10.61H141.54L141.54,40.11z"/>
	<path class="st0" d="M153.65,40.11v-6.35c0-1.14-0.22-2.44-1.66-2.44c-1.05,0-2.06,0.63-2.89,1.28v7.52h-2.33V29.51h1.95l0.27,1.19
		c1.19-0.9,2.31-1.46,3.77-1.46c1.57,0,3.23,1.03,3.23,3.79v7.09H153.65L153.65,40.11z"/>
	<path class="st0" d="M164.77,33.63h-4.42c0-1.32,0.83-2.58,2.22-2.58C164.05,31.05,164.75,32.4,164.77,33.63L164.77,33.63z
		 M167.19,35.36c0-0.27,0-0.49,0-0.65c0-3.3-1.75-5.47-4.57-5.47c-2.87,0-4.64,2.47-4.64,5.49c0,2.89,1.59,5.6,5.16,5.6
		c1.23,0,2.65-0.38,3.7-1.14l-0.61-1.52c-0.83,0.47-1.72,0.74-2.67,0.74c-1.91,0-3.16-1.3-3.19-3.05H167.19L167.19,35.36z"/>
	<path class="st0" d="M172.01,40.33c-1.68,0-2.83-0.4-3.68-0.94l0.79-1.73c0.69,0.47,1.68,0.88,2.78,0.88
		c1.16,0,1.95-0.47,1.95-1.28c0-2.13-4.87-1.32-4.87-5c0-1.73,1.35-3.03,3.84-3.03c1.28,0,2.17,0.24,2.96,0.56v1.97
		c-0.83-0.36-1.72-0.67-2.87-0.67c-0.96,0-1.66,0.32-1.66,1.05c0,1.91,4.95,1.35,4.95,4.93C176.21,39.41,174.23,40.33,172.01,40.33
		L172.01,40.33z"/>
	<path class="st0" d="M180.96,40.33c-1.68,0-2.82-0.4-3.68-0.94l0.79-1.73c0.69,0.47,1.68,0.88,2.78,0.88
		c1.17,0,1.95-0.47,1.95-1.28c0-2.13-4.87-1.32-4.87-5c0-1.73,1.35-3.03,3.83-3.03c1.28,0,2.18,0.24,2.96,0.56v1.97
		c-0.83-0.36-1.72-0.67-2.87-0.67c-0.96,0-1.66,0.32-1.66,1.05c0,1.91,4.95,1.35,4.95,4.93C185.15,39.41,183.18,40.33,180.96,40.33
		L180.96,40.33z"/>
	<path class="st0" d="M112.69,26.53c1.64,0,2.39,0.97,2.39,2.27c0,1.42-0.84,2.38-2.23,2.38h-1.78v-4.65H112.69L112.69,26.53z
		 M115.56,31.71c1.25-0.59,1.95-1.91,1.95-3.36c0-1.85-1.32-3.83-4.18-3.83h-4.61v15.6h4.48c3.84,0,5.27-2.46,5.27-4.64
		C118.46,33.54,117.13,32.06,115.56,31.71L115.56,31.71z M115.99,35.51c0,1.56-0.98,2.61-2.91,2.61h-2.01v-4.98h2.12
		C114.94,33.14,115.99,34.11,115.99,35.51L115.99,35.51z"/>
	<path class="st0" d="M65.15,29.14c0,1.49-1.15,2.75-2.7,2.75h-1.42V26.6h1.37C64.34,26.6,65.15,27.79,65.15,29.14L65.15,29.14z
		 M69.34,40.12c-2.36-4-3.96-6.77-4.58-7.1v-0.02c1.49-0.61,2.84-1.99,2.84-4.12c0-2.39-1.44-4.36-5.22-4.36h-3.75v15.6h2.4v-6.35
		h1.4c0.6,0.16,1.76,2.33,4.12,6.35H69.34L69.34,40.12z"/>
</g>
</svg>
