<svg id="Reed" xmlns="http://www.w3.org/2000/svg" viewBox="0 0 126.69 26.62"><defs><style>.cls-1{fill:#fff;}</style></defs><path class="cls-1" d="M33,58.39c-.57.82-2.93.15-5.28-1.47S24,53.3,24.54,52.48s2.93-.15,5.28,1.48S33.6,57.58,33,58.39Z" transform="translate(-1.74 -35.4)"/><path class="cls-1" d="M16.74,50.68l2.39,1.66c11.59-6,12.47-11.29,11-13.85s-6.28-4.78-15.28-1.44C5.64,40.48-.17,48.87,2.32,55.26s12,8.65,21.32,5.07h0l1.55-3.79s-3-2.08-3-2.09c-7.45,2.83-14.91,1.41-16.7-3.21s2.73-10.74,10.26-13.7,17.44.41,1.92,10.25c-.54,1.59-.74,2.19-1,2.9Z" transform="translate(-1.74 -35.4)"/><path class="cls-1" d="M50.19,50.76H47a1.61,1.61,0,1,1,3.19,0ZM51.94,52v-.47c0-2.38-1.27-3.95-3.3-3.95s-3.34,1.78-3.34,4,1.14,4,3.72,4a4.71,4.71,0,0,0,2.66-.82l-.44-1.1a3.85,3.85,0,0,1-1.92.53A2.15,2.15,0,0,1,47,52Z" transform="translate(-1.74 -35.4)"/><path class="cls-1" d="M58,50.76H54.81a1.61,1.61,0,1,1,3.19,0ZM59.74,52v-.47c0-2.38-1.26-3.95-3.29-3.95s-3.35,1.78-3.35,4,1.15,4,3.72,4a4.72,4.72,0,0,0,2.67-.82l-.43-1.1a3.89,3.89,0,0,1-1.93.53A2.15,2.15,0,0,1,54.84,52Z" transform="translate(-1.74 -35.4)"/><path class="cls-1" d="M66,54a3.16,3.16,0,0,1-.94.14A2.6,2.6,0,0,1,65,49a3.21,3.21,0,0,1,1,.13V54Zm1.67,1V44.19H66v3.5a5.9,5.9,0,0,0-1.07-.1,4,4,0,0,0-4.14,4.09A3.76,3.76,0,0,0,64.9,55.6,5.89,5.89,0,0,0,67.69,55Z" transform="translate(-1.74 -35.4)"/><path class="cls-1" d="M87,55.43l-.31-.76a3.8,3.8,0,0,1-2.4.92c-1,0-2.5-.52-2.5-2.88V47.78h1.68V52.6c0,1.06.48,1.61,1.42,1.61a2.49,2.49,0,0,0,1.66-.75V47.78h1.68v5.16a10,10,0,0,0,.14,2.49Z" transform="translate(-1.74 -35.4)"/><path class="cls-1" d="M92.33,55.59a4.78,4.78,0,0,1-2.65-.68l.56-1.25a3.63,3.63,0,0,0,2,.64c.84,0,1.41-.34,1.41-.92,0-1.54-3.51-1-3.51-3.61,0-1.25,1-2.18,2.76-2.18A5.38,5.38,0,0,1,95,48v1.42A5,5,0,0,0,93,48.93c-.7,0-1.19.23-1.19.75,0,1.38,3.57,1,3.57,3.56,0,1.69-1.41,2.35-3,2.35Z" transform="translate(-1.74 -35.4)"/><path class="cls-1" d="M98.9,45.41a1.07,1.07,0,1,1-1.06-1,1,1,0,0,1,1.06,1Zm-1.9,10V47.79h1.68v7.65H97Z" transform="translate(-1.74 -35.4)"/><path class="cls-1" d="M105.73,55.43V50.85c0-.82-.16-1.76-1.2-1.76a3.62,3.62,0,0,0-2.08.93v5.42h-1.68V47.79h1.41l.19.86a4.34,4.34,0,0,1,2.72-1.06c1.13,0,2.33.75,2.33,2.74v5.11h-1.69Z" transform="translate(-1.74 -35.4)"/><path class="cls-1" d="M113.75,50.76h-3.19a1.61,1.61,0,1,1,3.19,0ZM115.49,52v-.47c0-2.38-1.26-3.95-3.29-3.95s-3.35,1.78-3.35,4,1.15,4,3.72,4a4.72,4.72,0,0,0,2.67-.82l-.44-1.1a3.85,3.85,0,0,1-1.92.53,2.16,2.16,0,0,1-2.3-2.19Z" transform="translate(-1.74 -35.4)"/><path class="cls-1" d="M119,55.59a4.75,4.75,0,0,1-2.65-.68l.56-1.25a3.66,3.66,0,0,0,2,.64c.84,0,1.4-.34,1.4-.92,0-1.54-3.51-1-3.51-3.61,0-1.25,1-2.18,2.77-2.18a5.44,5.44,0,0,1,2.14.4v1.42a5,5,0,0,0-2.07-.48c-.7,0-1.2.23-1.2.75,0,1.38,3.57,1,3.57,3.56,0,1.69-1.42,2.35-3,2.35Z" transform="translate(-1.74 -35.4)"/><path class="cls-1" d="M125.42,55.59a4.78,4.78,0,0,1-2.65-.68l.57-1.25a3.6,3.6,0,0,0,2,.64c.84,0,1.41-.34,1.41-.92,0-1.54-3.51-1-3.51-3.61,0-1.25,1-2.18,2.76-2.18a5.35,5.35,0,0,1,2.13.4v1.42a5,5,0,0,0-2.07-.48c-.69,0-1.19.23-1.19.75,0,1.38,3.56,1,3.56,3.56,0,1.69-1.41,2.35-3,2.35Z" transform="translate(-1.74 -35.4)"/><path class="cls-1" d="M76.2,45.64A1.68,1.68,0,0,1,76.32,49H75V45.64Zm2.07,3.73A2.59,2.59,0,0,0,79.68,47a2.77,2.77,0,0,0-3-2.76H73.34V55.44h3.23c2.77,0,3.8-1.78,3.8-3.35a2.78,2.78,0,0,0-2.1-2.72Zm.31,2.74c0,1.13-.71,1.89-2.1,1.89H75V50.41h1.53c1.26,0,2,.69,2,1.7Z" transform="translate(-1.74 -35.4)"/><path class="cls-1" d="M41.93,47.52a2,2,0,0,1-2,2H39V45.69h1a1.76,1.76,0,0,1,2,1.83Zm3,7.92c-1.7-2.89-2.86-4.88-3.3-5.12v0a3.15,3.15,0,0,0,2-3c0-1.72-1-3.14-3.76-3.14h-2.7V55.44H39V50.86h1c.43.11,1.27,1.68,3,4.58Z" transform="translate(-1.74 -35.4)"/></svg>