<svg id="WAG" xmlns="http://www.w3.org/2000/svg" viewBox="0 0 127.64 28.33"><defs><style>.cls-1{fill:#fff;}</style></defs><path class="cls-1" d="M15.68,61.25c6.34,1.17,11-5,14-10.28,1.19-2.12,3-7.7,1-9.81-1.85-2-3.28.64-4.38,1.53l.85,1c1.69,2.13.21,6.19-.79,8.37-1.5,2.67-4.35,6.71-7.67,6.15A2.43,2.43,0,0,1,17,56.61a37.58,37.58,0,0,0,5.1-7c1-1.68,2.72-4.93,1.13-6.28-1.32-.92-4,.41-5.39,1.61a14,14,0,0,0-2.12,2.32c-1.83,2.48-3.57,6.73-3.39,10a3.46,3.46,0,0,1-3.07.91C8.11,58,7.9,57,7.74,56.16,7,51.42,11.73,45.43,14.4,42a20.85,20.85,0,0,1-3.64.64c-3.52.15-6.15-1.49-8.06.87a5.84,5.84,0,0,0-1,2.77c.79-.67,1.94-.51,3.05-.45,1.91.17,2.86.4,4.58-.06-1.53,2.17-4.1,6.44-4.57,9.11C4.5,56.64,4.52,59.43,6,60.69c2.51,1.67,5,.5,7.22-1A4.39,4.39,0,0,0,15.68,61.25Zm4.26-14.81c.67-.32.47.67.47.67a10,10,0,0,1-1.5,3.49,17.27,17.27,0,0,1-3.59,4.06c0-1.5,1.64-4.77,2.46-6A6.89,6.89,0,0,1,19.94,46.44Z" transform="translate(-1.69 -40.42)"/><path class="cls-1" d="M120.87,49.37h0c-.35.47-1.53,1.76-1.92,2.16l-.2.19c-3.21,3.22-5.66,5.08-7.08,5.39-1,.21-1.41.27-1.87-.61,0,0,0,0,0,0l-.05-.4c0-1.16,1.51-3.77,3.52-5.51.77-.67.86-1,.88-1a1.76,1.76,0,0,0-.86-.83,4.33,4.33,0,0,0-2,1c-.4.27-1.54,1.32-2.75,2.42-1,.93-2,1.88-2.62,2.36l-1,.8,0-.51a8.35,8.35,0,0,1,1.55-2.94c.33-.49,1.13-1.9,1.23-2.15l0,0,0,0a1.63,1.63,0,0,0-1.16-.78s-.36.28-.36.28c-.67.55-2.12,1.85-3.52,3.12s-2.5,2.25-2.8,2.47a24.31,24.31,0,0,1-6.41,3.6c-.36.1-1.59.4-2.2-.29l-.21-.24.29-.12A22.2,22.2,0,0,0,97,54.46s2.47-2.12,2.47-4.19c0-.09,0-.18,0-.27-.16-.74-.79-1-1.7-1.08a10,10,0,0,0-7,3.39l-.24.26a19.45,19.45,0,0,0-3.38,4.7.69.69,0,0,1,0,.1s-.08,0-.08,0a15.15,15.15,0,0,1-4.39,1.28,3.65,3.65,0,0,1-2.79-.45L79.55,58l3.37-1.8c2.66-1.61,4.45-4.07,4.45-5.36h0C87.31,49.36,85.92,49,84.76,49a8.83,8.83,0,0,0-5.32,2.13,13.23,13.23,0,0,0-4.25,6.49l0,.13-.26.07c-1.27.31-3.41.83-3.81-.41-.63-2,1.39-4,3-5.53L75,51a1,1,0,0,0,.24-.74.36.36,0,0,0-.2-.28,3.34,3.34,0,0,0-2.58.23,5.26,5.26,0,0,1-2.08.42l-.22,0c0-.07,0-.23,0-.23a1.36,1.36,0,0,1,.51-.9l.07-.08a.38.38,0,0,0,.06-.24.71.71,0,0,0-.06-.28.31.31,0,0,0-.25-.22,3.43,3.43,0,0,0-2.18,1.25,3.75,3.75,0,0,0-1.25,2.2v.16c-.09,1.31-1.23,2.57-2.81,4.31l-.69.76-.27.27a10.52,10.52,0,0,0-1.74,2.1l-.05.12.13,0c.67-.2,2.61-1.14,6.08-5.5l.07-.1.13,0a1.24,1.24,0,0,0,.57-.15,1.19,1.19,0,0,1,1.13,0l.22.14-.69.86c-1,1.22-2,2.46-2,3.95a3.52,3.52,0,0,0,.12.89,2,2,0,0,0,1.79,1.38c1.44.25,3.25-.55,4.84-1.25l.81-.35a.49.49,0,0,1,.67.35,1.64,1.64,0,0,0,1,.88c2.33,1,5.74.53,10.16-1.55l.21-.1.09.23a2.59,2.59,0,0,0,1.89,1.67c3.8.5,6.93-1.67,10-3.77l1.61-1.22c.06,0,.31.32.34.36l-1.33,1.88a9.53,9.53,0,0,0-1.13,2l-.08.3,0,.15a.67.67,0,0,0,.47.23c2.31-.32,4.53-2.2,6-3.44l.43-.37a6.87,6.87,0,0,1,1.48-1.12l.14,0,.11.12v0a1.76,1.76,0,0,1-.29.56l-.23.37A4.94,4.94,0,0,0,105.7,59a1.32,1.32,0,0,0,.2.73,2.06,2.06,0,0,0,1.95,1.14h.23c2.72-.17,5.39-2.53,8-4.82L118,54.43l1.87-1.64.11.28a3.53,3.53,0,0,1,.23,1.24l0,.54a5.68,5.68,0,0,1-1,2.4l-.12.06-.38.1c-1.43.36-3,.77-3.63,2.19,0,0-.06.33-.06.33a.8.8,0,0,0,.4.68,6.15,6.15,0,0,0,3-.21l1.18-.25a23,23,0,0,1,2.8.23,17.09,17.09,0,0,0,3.71.16c1.63-.42,2.93-2.28,3.33-3.8l0-.13-.12.06a7.15,7.15,0,0,1-6.25.12l-.19-.1c0-.07.08-.21.08-.21A18.58,18.58,0,0,0,124,50c0-.17,0-.34,0-.5h0a1.13,1.13,0,0,1,0-.25,1.66,1.66,0,0,1,.32-.86,1.43,1.43,0,0,0,.3-.73s0-.08,0-.12,0,0,0,0a.35.35,0,0,1,0-.07s0,0,0,0-.15-.13-.22-.15C122.81,46.84,121.91,48,120.87,49.37Zm-41.69,6.3h0a8.69,8.69,0,0,1,2.09-3.23A5.8,5.8,0,0,1,83.5,51a.83.83,0,0,1,.92.22.61.61,0,0,1,.11.35.94.94,0,0,1-.16.48,11,11,0,0,1-4.9,3.84l-.33.11C79.15,55.92,79.18,55.67,79.18,55.67Zm12.2-.32h0c.18-1.29,2.07-3.21,2.08-3.23a6.06,6.06,0,0,1,2.24-1.41.74.74,0,0,1,.83.08.65.65,0,0,1,.17.45,1.38,1.38,0,0,1-.11.5,13.06,13.06,0,0,1-2.14,2.34,6.8,6.8,0,0,1-2.8,1.54l-.31,0C91.35,55.56,91.38,55.35,91.38,55.35Z" transform="translate(-1.69 -40.42)"/><path class="cls-1" d="M54.39,43.35h0c-2,.18-4,1.33-6.25,3.69-.93.88-5.22,6.23-5.93,10.29a.75.75,0,0,0,0,.11l-.1.06c-.62.33-2.5,1.14-3.68.84a1.18,1.18,0,0,1-.78-.55,2.23,2.23,0,0,1-.27-1.09,4.86,4.86,0,0,1,.91-2.39s.23-.38.24-.4.09,0,.09,0c1.09-.31,2.81-2.41,3.25-3.69l0,0,0,0a6.84,6.84,0,0,0-4.22-.62,14.46,14.46,0,0,0-6.1,2.35,12.27,12.27,0,0,0-4.47,6.44c-.22,1.09-.36,2.2.4,2.71,1.56.91,4.63-.75,6.74-2.76l.44-.41c0,.22-.07.82-.07.82a7.48,7.48,0,0,0-.05.85A2,2,0,0,0,35,61c1.73,1.37,5.3-.13,7.26-1.48l.18-.12.13.17a4.27,4.27,0,0,0,2.21,1.74c2.19.31,3.92-.95,5.44-2.37l.3-.27c0,.16.15.7.15.7a2.26,2.26,0,0,0,.66,1.46c1.11.86,3.59-.31,5-1.31,0,0,.32-.22.5-.36,0,.2-.15.6-.15.6a13.81,13.81,0,0,1-1.11,2.67l-.38.78-.08.11-.11.19c-.6.95-1.71,2.74-2.78,2.9H52.1a.87.87,0,0,1-.54-.46l-.09-.4A4.07,4.07,0,0,1,52,64l0-.09h-.1a5,5,0,0,0-1.44.54,4.18,4.18,0,0,0-2,3.12,1.82,1.82,0,0,0,.13.7,1,1,0,0,0,1,.46c6.82-.64,10.65-8.37,13.44-14l.55-1.11a.73.73,0,0,0,.19-.44v-.06l-.1-.13s-.07-.41-.07-.41C63.65,52,65,50.88,65,50.87l.17-.13c.13-.09.22-.18.22-.25s-.09-.18-.22-.27a6.07,6.07,0,0,0-1.67-.6c-2.05-.58-5.58-.15-8.77,3-.34.32-1,1.1-1.46,1.72l-.64.81c-1.56,1.82-3.17,3.7-5.82,3.18a1.63,1.63,0,0,1-.86-.79.8.8,0,0,1,0-.61l0-.06a30.77,30.77,0,0,0,4.54-4c2.61-2.79,5.8-7.48,5.39-8.64A1.49,1.49,0,0,0,54.39,43.35ZM32.83,52.51a5,5,0,0,1,4.6.13l.23.13-1,1.39c-1.53,1.86-4.48,3.7-5.74,3.58h0a1.12,1.12,0,0,1-1.1-.78l0-.37c0-1.26,1.67-3.2,2.55-3.8ZM49.94,48a8,8,0,0,1,2.2-1.78.32.32,0,0,1,.44.07.4.4,0,0,1,.08.26.49.49,0,0,1-.08.28h0C52,49,48.1,53.52,45.87,55.11l-.42.3.06-.51h0C45.71,53.38,48.59,49.67,49.94,48Zm4.36,9.71,0,0a1.44,1.44,0,0,1-.55-1.77c.23-.84,2.56-3.41,4.41-3.77a2.77,2.77,0,0,1,2.66.51l.26.21-.9,1C58.91,55.59,55.84,58.44,54.3,57.72Z" transform="translate(-1.69 -40.42)"/></svg>