<?xml version="1.0" encoding="utf-8"?>
<!-- Generator: Adobe Illustrator 24.2.3, SVG Export Plug-In . SVG Version: 6.00 Build 0)  -->
<svg version="1.1" id="Layer_1" xmlns="http://www.w3.org/2000/svg" xmlns:xlink="http://www.w3.org/1999/xlink" x="0px" y="0px"
	 viewBox="0 0 304.17 77.08" style="enable-background:new 0 0 304.17 77.08;" xml:space="preserve">
<style type="text/css">
	.st0{fill:#FFFFFF;}
</style>
<g>
	<path class="st0" d="M40.89,53.43c14.14,2.61,24.49-11.09,31.12-22.94c2.65-4.75,6.68-17.19,2.17-21.89
		c-4.13-4.55-7.33,1.42-9.78,3.41l1.89,2.24c3.78,4.77,0.49,13.83-1.75,18.68c-3.36,5.96-9.71,14.98-17.12,13.72
		c-1.61-0.38-2.94-1.94-3.5-3.58c3.99-3.95,8.72-10.89,11.38-15.51c2.22-3.76,6.08-11.01,2.53-14.01c-2.96-2.05-8.87,0.9-12.04,3.58
		c-1.93,1.74-3.23,3.16-4.73,5.19c-4.08,5.53-7.97,15.01-7.56,22.31c-1.96,1.42-4.2,2.83-6.86,2.02c-2.64-0.59-3.11-2.83-3.48-4.59
		c-1.68-10.58,8.92-23.94,14.87-31.61c0,0-4.69,1.27-8.12,1.42c-7.87,0.34-13.72-3.33-17.98,1.94c-1.28,1.87-2.02,3.84-2.26,6.18
		c1.75-1.49,4.33-1.13,6.8-0.99c4.27,0.37,6.38,0.89,10.23-0.15c-3.43,4.84-9.15,14.38-10.2,20.34c-0.56,3.95-0.51,10.18,2.87,12.98
		c5.6,3.73,11.16,1.12,16.12-2.31C36.97,51.56,38.79,53.06,40.89,53.43z M50.39,20.38c1.49-0.73,1.04,1.48,1.04,1.48
		c-0.21,2.51-2.03,5.5-3.33,7.79c-1.33,2.35-6,7.87-8.03,9.07c0.09-3.35,3.67-10.65,5.5-13.44C46.51,23.64,48.9,21.11,50.39,20.38z"
		/>
	<path class="st0" d="M275.62,26.92L275.62,26.92c-0.78,1.03-3.43,3.91-4.29,4.81c-0.04,0.04-0.44,0.42-0.44,0.42
		c-7.16,7.19-12.64,11.35-15.81,12.03c-2.16,0.47-3.15,0.6-4.16-1.35c-0.02-0.04-0.04-0.11-0.04-0.11c0-0.01-0.11-0.91-0.11-0.91
		c0-2.59,3.37-8.4,7.87-12.28c1.72-1.5,1.92-2.17,1.95-2.33c-0.64-1.01-1.03-1.48-1.91-1.84c-1.25-0.07-3.17,1.26-4.44,2.15
		c-0.9,0.61-3.44,2.95-6.13,5.41c-2.25,2.06-4.57,4.19-5.86,5.25c0,0-1.81,1.48-2.19,1.8c0.02-0.38,0.06-1.14,0.06-1.14
		c0.05-1.34,1.45-3.56,3.46-6.56c0.73-1.1,2.52-4.24,2.74-4.79l0.03-0.05l-0.03-0.05c-0.58-0.95-1.7-1.7-2.59-1.74
		c-0.09,0.04-0.8,0.62-0.8,0.62c-1.51,1.23-4.74,4.14-7.86,6.96c-2.87,2.59-5.57,5.03-6.24,5.52c-5.26,3.9-9.82,6.45-14.31,8.03
		c-0.81,0.23-3.55,0.89-4.91-0.64c0,0-0.31-0.34-0.47-0.54c0.2-0.09,0.65-0.28,0.65-0.28c3.93-1.67,8.88-3.97,12.47-7.05
		c0.05-0.05,5.51-4.73,5.51-9.34c0-0.2-0.01-0.4-0.03-0.6c-0.34-1.66-1.76-2.16-3.78-2.42c-6.6,0.04-12.54,4.1-15.62,7.57
		l-0.54,0.59c-1.43,1.55-5.78,6.28-7.54,10.48c0,0-0.08,0.19-0.1,0.22c-0.01-0.01-0.16,0.05-0.16,0.05
		c-2.98,1.26-6.21,2.47-9.81,2.85c-1.94,0.24-4.69,0.41-6.23-1c0,0-0.38-0.33-0.54-0.49c0.3-0.16,7.51-4.01,7.51-4.01
		c5.94-3.61,9.92-9.1,9.92-11.96l0,0c-0.13-3.32-3.23-4.07-5.82-4.11c-3.85,0.02-7.39,1.44-11.87,4.74
		c-2.59,1.92-8.03,8.12-9.48,14.49c0,0-0.04,0.21-0.07,0.3c-0.12,0.04-0.57,0.14-0.57,0.14c-2.84,0.71-7.62,1.86-8.5-0.91
		c-1.42-4.51,3.1-8.85,6.72-12.34l2.04-2c0.28-0.32,0.63-1.06,0.53-1.65c-0.04-0.28-0.18-0.49-0.43-0.64
		c-1.94-0.85-3.8-0.19-5.77,0.51c-1.48,0.52-3.01,1.06-4.63,0.94c0,0-0.32-0.04-0.51-0.05c0.02-0.17,0.05-0.52,0.05-0.52
		c0.08-0.95,0.64-1.52,1.14-2.02c0.01,0,0.16-0.17,0.16-0.17c0.09-0.1,0.13-0.3,0.13-0.53c0-0.2-0.04-0.42-0.12-0.62
		c-0.13-0.3-0.32-0.48-0.56-0.5c-1.14-0.14-3.09,0.98-4.88,2.78c-1.71,1.74-2.78,3.62-2.78,4.91l0.02,0.26
		c0.01,0.03,0.01,0.11,0.01,0.11c-0.21,2.92-2.76,5.73-6.29,9.62l-1.54,1.69c0.01,0-0.59,0.61-0.59,0.61
		c-2.12,2.16-3.46,3.78-3.88,4.68l-0.12,0.26l0.29-0.08c1.5-0.45,5.82-2.54,13.56-12.28c0,0,0.11-0.14,0.16-0.22
		c0.1,0.01,0.29,0.04,0.29,0.04c0.36,0.04,0.8-0.14,1.27-0.32c0.79-0.31,1.69-0.66,2.54-0.1c0,0,0.33,0.21,0.47,0.31
		c-0.15,0.18-1.52,1.93-1.52,1.93c-2.16,2.71-4.38,5.48-4.38,8.81c0,0.64,0.08,1.3,0.27,1.98c0.41,1.95,2.41,2.88,4,3.08
		c3.21,0.56,7.24-1.22,10.8-2.78l1.8-0.79c1.01-0.28,1.29,0.34,1.5,0.78c0.25,0.53,0.6,1.28,2.16,1.96
		c5.19,2.35,12.81,1.19,22.66-3.45c0,0,0.29-0.14,0.48-0.23c0.07,0.17,0.2,0.52,0.2,0.52c0.71,1.91,2.04,3.09,4.22,3.72
		c8.48,1.13,15.47-3.72,22.23-8.41c0.01,0,3.09-2.34,3.59-2.73c0.12,0.12,0.68,0.72,0.75,0.82c-0.11,0.16-2.97,4.19-2.97,4.19
		c-1,1.46-1.93,2.83-2.52,4.38c0-0.01-0.17,0.65-0.17,0.65l0.07,0.34c0.15,0.26,0.51,0.44,1.04,0.52
		c5.15-0.71,10.11-4.91,13.38-7.68l0.98-0.83c1.41-1.23,2.75-2.38,3.29-2.49c0,0,0.2-0.06,0.31-0.09c0.08,0.09,0.24,0.27,0.24,0.27
		c0.02,0.02,0.02,0.05,0.02,0.08c0,0.25-0.38,0.85-0.65,1.26l-0.52,0.83c-0.44,0.92-1.31,2.72-1.31,4.32c0,0.58,0.12,1.15,0.44,1.63
		c1.54,2.38,2.89,2.46,4.34,2.54l0.52,0.03c6.07-0.39,12.04-5.66,17.81-10.76l4.3-3.72c0,0,3.47-3.04,4.18-3.67
		c0.09,0.22,0.24,0.63,0.24,0.63c0.43,1.11,0.53,2.12,0.53,2.77l-0.11,1.21c-0.07,0.54-1.03,4.28-2.34,5.34
		c-0.01,0-0.27,0.15-0.27,0.15c-0.01,0-0.84,0.21-0.84,0.21c-3.18,0.81-6.77,1.73-8.11,4.9c-0.01,0.01-0.12,0.72-0.12,0.72
		c0,0.43,0.16,1.04,0.88,1.52c2.24,0.58,4.57,0.02,6.61-0.47l2.63-0.56c2.15,0.01,4.24,0.27,6.26,0.51
		c2.81,0.33,5.46,0.66,8.27,0.37c3.64-0.95,6.54-5.08,7.43-8.49l0.08-0.28l-0.27,0.13c-4.52,2.23-9.73,2.33-13.95,0.26
		c0,0-0.29-0.15-0.43-0.22c0.06-0.14,0.19-0.47,0.19-0.47c0.03-0.06,2.61-6.35,2.61-14.5c0-0.37-0.01-0.75-0.02-1.12h0.02
		c-0.05-0.2-0.08-0.38-0.08-0.56c0-0.75,0.38-1.36,0.73-1.92s0.65-1.04,0.65-1.62c0-0.09-0.01-0.17-0.01-0.26
		c-0.02-0.01-0.02-0.03-0.02-0.05c0-0.07,0.02-0.16,0.02-0.16c0.01-0.01,0.01-0.02,0.01-0.04c0-0.2-0.32-0.3-0.47-0.34
		C279.94,21.26,277.93,23.88,275.62,26.92z M182.59,40.98L182.59,40.98c0.23-1.93,3.11-5.66,4.65-7.22c1.4-1.41,3.22-2.55,4.98-3.13
		c0.93-0.22,1.67-0.04,2.06,0.5c0.15,0.23,0.24,0.49,0.24,0.77c0,0.35-0.13,0.72-0.35,1.08c-1.92,3.02-6.89,7.28-10.93,8.56
		c0,0-0.47,0.15-0.74,0.25C182.52,41.52,182.59,40.98,182.59,40.98z M209.81,40.25L209.81,40.25c0.41-2.88,4.61-7.16,4.65-7.2
		c1.4-1.41,3.22-2.55,4.99-3.14c0.72-0.31,1.42-0.25,1.85,0.17c0.16,0.17,0.39,0.49,0.39,1.01c0,0.3-0.07,0.65-0.25,1.1
		c-0.45,1.12-3.83,4.4-4.79,5.24c-1.07,1.02-4,3.05-6.25,3.42c0,0-0.42,0.07-0.68,0.1C209.74,40.72,209.81,40.25,209.81,40.25z"/>
	<path class="st0" d="M127.27,13.47L127.27,13.47c-4.58,0.42-8.88,2.97-13.95,8.25c-2.07,1.96-11.66,13.89-13.24,22.96
		c0,0-0.03,0.17-0.04,0.25c-0.07,0.03-0.22,0.12-0.22,0.12c-1.39,0.75-5.57,2.54-8.22,1.87c-0.79-0.2-1.39-0.61-1.74-1.22
		c-0.41-0.79-0.6-1.59-0.6-2.44c0-1.98,1.09-3.74,2.04-5.33c0.01,0,0.51-0.84,0.54-0.89c0.02,0.02,0.18-0.04,0.18-0.04
		c2.45-0.7,6.29-5.38,7.27-8.24l0.03-0.08l-0.07-0.05c-2.86-1.75-6.7-1.71-9.41-1.38c-4.47,0.52-9.55,2.49-13.61,5.25
		c-4.88,3.33-9.1,10.12-9.98,14.37c-0.48,2.43-0.79,4.89,0.89,6.03c3.49,2.03,10.35-1.66,15.04-6.14c0,0,0.61-0.58,0.98-0.93
		c-0.04,0.5-0.15,1.83-0.15,1.83c-0.06,0.58-0.11,1.24-0.11,1.9c0,1.24,0.21,2.48,1.03,3.25c3.86,3.07,11.82-0.29,16.21-3.29
		c0,0,0.26-0.18,0.39-0.27c0.11,0.13,0.3,0.37,0.3,0.37c1.4,1.73,3.04,3.59,4.92,3.9c4.9,0.69,8.74-2.14,12.15-5.29
		c0,0,0.45-0.41,0.67-0.62c0.07,0.36,0.33,1.58,0.33,1.58c0.25,1.26,0.48,2.46,1.46,3.24c2.48,1.92,8.02-0.69,11.14-2.91
		c0,0,0.72-0.5,1.13-0.81c-0.1,0.44-0.34,1.35-0.34,1.35c-0.53,2.06-1.52,4.04-2.48,5.95l-0.86,1.75L128.78,58l-0.25,0.41
		c-1.33,2.13-3.8,6.12-6.2,6.47l-0.17,0.03c-0.62-0.23-1.01-0.57-1.22-1.03l-0.18-0.89c0-1.08,0.57-2.3,1.06-3.38l0.1-0.21
		l-0.23,0.01c-1.12,0.17-2.11,0.64-3.21,1.2c-2.22,1.31-4.51,4.28-4.51,6.96c0,0.55,0.09,1.08,0.28,1.56
		c0.46,1.02,1.67,1.05,2.17,1.02c15.22-1.42,23.76-18.68,29.99-31.29l1.22-2.49c0.38-0.5,0.44-0.8,0.44-0.97l-0.01-0.15
		c-0.02-0.02-0.23-0.29-0.23-0.29c0.02,0.02-0.15-0.9-0.15-0.9c0.25-1.22,3.21-3.78,3.24-3.81c0,0.01,0.37-0.28,0.37-0.28
		c0.3-0.2,0.49-0.4,0.5-0.56c0-0.18-0.2-0.41-0.5-0.6c-0.6-0.39-1.25-0.66-3.72-1.35c-4.57-1.28-12.44-0.32-19.57,6.59
		c-0.75,0.72-2.13,2.46-3.25,3.85l-1.44,1.8c-3.48,4.06-7.06,8.26-12.98,7.09c-0.78-0.32-1.6-0.97-1.91-1.77
		c-0.17-0.46-0.16-0.92,0.04-1.34l0.07-0.15c3.29-2.31,6.66-5.29,10.12-8.92c5.82-6.22,12.95-16.69,12.02-19.29
		C129.98,13.5,127.9,13.44,127.27,13.47z M79.16,33.91c3.23-1.58,7.26-1.46,10.26,0.29c0,0,0.34,0.2,0.52,0.3
		c-0.14,0.2-2.21,3.09-2.21,3.09c-3.41,4.15-10,8.26-12.81,8v-0.01c-1.31-0.11-2.23-0.76-2.46-1.73l-0.05-0.83
		c0-2.81,3.73-7.14,5.69-8.47C78.08,34.57,79.16,33.91,79.16,33.91z M117.34,23.87c1.57-1.92,4.13-3.62,4.9-3.97
		c0.59-0.28,0.91,0.05,0.99,0.16c0.13,0.16,0.17,0.38,0.17,0.59c0,0.25-0.08,0.51-0.17,0.61l0.03,0.01
		c-1.37,4.78-10.02,14.91-15,18.46c0,0-0.6,0.42-0.95,0.67c0.05-0.38,0.15-1.15,0.15-1.15l0,0
		C107.89,35.85,114.32,27.57,117.34,23.87z M127.07,45.55l-0.08-0.05c-1.34-0.97-1.77-2.34-1.21-3.95c0.5-1.87,5.71-7.62,9.82-8.42
		c3.74-0.72,5.23,0.54,5.95,1.14c0,0.01,0.39,0.32,0.58,0.48c-0.16,0.17-2.02,2.17-2.02,2.17
		C137.36,40.78,130.49,47.14,127.07,45.55z"/>
</g>
</svg>
