<?xml version="1.0" encoding="utf-8"?>
<!-- Generator: Adobe Illustrator 24.2.3, SVG Export Plug-In . SVG Version: 6.00 Build 0)  -->
<svg version="1.1" id="Layer_1" xmlns="http://www.w3.org/2000/svg" xmlns:xlink="http://www.w3.org/1999/xlink" x="0px" y="0px"
	 viewBox="0 0 300 100" style="enable-background:new 0 0 300 100;" xml:space="preserve">
<style type="text/css">
	.st0{fill:#4DBFF7;}
	.st1{fill:#FFFFFF;}
	.st2{fill:none;stroke:#4DBFF7;stroke-width:1.25;stroke-miterlimit:10;}
</style>
<path class="st0" d="M94.39,37.11c-2.31-2.28-5.54-3.41-8.53-3.41c-7.78,0-11.76,5.69-11.72,11.83c0,6.26,3.98,11.65,11.72,11.65
	c2.85,0,5.8-0.99,8.08-3.07v-7.44h-9.26v-1.78h11.19v9.94c-2.77,2.77-6.07,4.29-10.01,4.29c-9.03,0-13.69-6.3-13.69-13.54
	c-0.04-8.31,5.61-13.73,13.69-13.73c3.49,0,7.02,1.33,9.71,3.98L94.39,37.11z"/>
<g>
	<g>
		<path class="st1" d="M113.35,70.15c-0.47-0.45-1.17-0.7-1.78-0.7c-1.5,0-2.41,1.14-2.41,2.58c0,1.15,0.67,2.34,2.41,2.34
			c0.55,0,1.03-0.12,1.58-0.56v-1.24h-1.79v-1.18h3v2.95c-0.69,0.79-1.56,1.26-2.79,1.26c-2.63,0-3.7-1.73-3.7-3.57
			c0-1.97,1.23-3.79,3.7-3.79c0.94,0,1.88,0.36,2.6,1.07L113.35,70.15z"/>
		<path class="st1" d="M122.05,75.44h-1.57l-2.04-2.34h-1.27v2.34h-1.32v-7.01c1.11,0,2.22,0.01,3.33,0.01
			c1.65,0.01,2.52,1.11,2.52,2.32c0,0.96-0.44,1.93-1.77,2.2l2.12,2.39V75.44z M117.17,69.67v2.24h2.01c0.84,0,1.2-0.56,1.2-1.12
			s-0.37-1.12-1.2-1.12H117.17z"/>
		<path class="st1" d="M128.06,74.12h-3.66l-0.6,1.32h-1.43l3.14-7h1.44l3.14,7h-1.44L128.06,74.12z M126.23,69.91l-1.3,2.98h2.6
			L126.23,69.91z"/>
		<path class="st1" d="M134.38,73.38h-1.98v2.06h-1.32v-7c1.1,0,2.2-0.01,3.3-0.01C137.8,68.43,137.81,73.38,134.38,73.38z
			 M132.4,72.17h1.98c1.69,0,1.68-2.48,0-2.48h-1.98V72.17z"/>
		<path class="st1" d="M143.11,75.45v-2.83h-3.44v2.83h-1.32v-7h1.32v2.95h3.44v-2.95h1.31v7H143.11z"/>
		<path class="st1" d="M146.17,75.44v-7h1.31v7H146.17z"/>
		<path class="st1" d="M155.39,74.56c-0.72,0.71-1.65,1.04-2.66,1.04c-2.6,0-3.7-1.79-3.71-3.61c-0.01-1.83,1.18-3.69,3.71-3.69
			c0.95,0,1.85,0.36,2.57,1.07l-0.88,0.85c-0.46-0.45-1.08-0.66-1.69-0.66c-1.69,0-2.42,1.26-2.41,2.43
			c0.01,1.16,0.68,2.37,2.41,2.37c0.61,0,1.3-0.25,1.76-0.71L155.39,74.56z"/>
		<path class="st1" d="M161.06,70.13c-0.24-0.4-0.9-0.78-1.66-0.78c-0.98,0-1.45,0.41-1.45,0.93c0,0.61,0.72,0.78,1.56,0.88
			c1.46,0.18,2.82,0.56,2.82,2.23c0,1.56-1.38,2.23-2.94,2.23c-1.43,0-2.53-0.44-3.05-1.72l1.1-0.57c0.31,0.77,1.12,1.11,1.97,1.11
			c0.83,0,1.61-0.29,1.61-1.05c0-0.66-0.69-0.93-1.62-1.03c-1.43-0.17-2.75-0.55-2.75-2.12c0-1.44,1.42-2.03,2.71-2.04
			c1.09,0,2.22,0.31,2.75,1.39L161.06,70.13z"/>
		<path class="st1" d="M172.47,70.37l-2.28,3.04h-0.26l-2.23-3.05v5.09h-1.32v-7h1.52l2.19,3.01l2.19-3.01h1.51v7h-1.32V70.37z"/>
		<path class="st1" d="M180.75,75.44h-5.24c0-2.33,0-4.67,0-7h5.24v1.28h-3.93v1.61h3.79v1.23h-3.79v1.58h3.93V75.44z"/>
		<path class="st1" d="M187.49,75.44h-5.24c0-2.33,0-4.67,0-7h5.24v1.28h-3.93v1.61h3.79v1.23h-3.79v1.58h3.93V75.44z"/>
		<path class="st1" d="M191.23,69.64h-2.22v-1.2c2.02,0,3.73,0,5.76,0v1.2h-2.22v5.8h-1.32V69.64z"/>
		<path class="st1" d="M200.39,70.13c-0.24-0.4-0.9-0.78-1.66-0.78c-0.98,0-1.45,0.41-1.45,0.93c0,0.61,0.72,0.78,1.56,0.88
			c1.46,0.18,2.82,0.56,2.82,2.23c0,1.56-1.38,2.23-2.94,2.23c-1.43,0-2.53-0.44-3.05-1.72l1.1-0.57c0.31,0.77,1.12,1.11,1.97,1.11
			c0.83,0,1.61-0.29,1.61-1.05c0-0.66-0.69-0.93-1.62-1.03c-1.43-0.17-2.75-0.55-2.75-2.12c0-1.44,1.42-2.03,2.71-2.04
			c1.09,0,2.22,0.31,2.75,1.39L200.39,70.13z"/>
		<path class="st1" d="M207.51,69.64h-2.22v-1.2c2.02,0,3.73,0,5.76,0v1.2h-2.22v5.8h-1.32V69.64z"/>
		<path class="st1" d="M217.57,75.44h-5.24c0-2.33,0-4.67,0-7h5.24v1.28h-3.93v1.61h3.79v1.23h-3.79v1.58h3.93V75.44z"/>
		<path class="st1" d="M225.26,74.56c-0.72,0.71-1.65,1.04-2.66,1.04c-2.6,0-3.7-1.79-3.71-3.61c-0.01-1.83,1.18-3.69,3.71-3.69
			c0.95,0,1.85,0.36,2.57,1.07l-0.88,0.85c-0.46-0.45-1.08-0.66-1.69-0.66c-1.69,0-2.42,1.26-2.41,2.43
			c0.01,1.16,0.68,2.37,2.41,2.37c0.61,0,1.3-0.25,1.76-0.71L225.26,74.56z"/>
		<path class="st1" d="M231.27,75.45v-2.83h-3.44v2.83h-1.32v-7h1.32v2.95h3.44v-2.95h1.31v7H231.27z"/>
		<path class="st1" d="M238.92,68.43h1.32v7.01h-0.82v0.01l-3.68-4.73v4.72h-1.32v-7h1.07l3.43,4.34V68.43z"/>
		<path class="st1" d="M248.93,71.98c-0.02,1.81-1.13,3.62-3.59,3.62s-3.6-1.77-3.6-3.61c0-1.84,1.18-3.69,3.6-3.69
			C247.75,68.3,248.95,70.15,248.93,71.98z M243.04,72.01c0.03,1.15,0.65,2.38,2.3,2.38c1.65,0,2.27-1.24,2.29-2.39
			c0.02-1.18-0.64-2.5-2.29-2.5C243.69,69.5,243.01,70.83,243.04,72.01z"/>
		<path class="st1" d="M251.72,68.44v5.78h3.6v1.22h-4.92v-7H251.72z"/>
		<path class="st1" d="M263.42,71.98c-0.02,1.81-1.13,3.62-3.59,3.62s-3.6-1.77-3.6-3.61c0-1.84,1.18-3.69,3.6-3.69
			C262.24,68.3,263.44,70.15,263.42,71.98z M257.53,72.01c0.03,1.15,0.65,2.38,2.3,2.38c1.65,0,2.27-1.24,2.29-2.39
			c0.02-1.18-0.64-2.5-2.29-2.5C258.18,69.5,257.5,70.83,257.53,72.01z"/>
		<path class="st1" d="M270.09,70.15c-0.47-0.45-1.17-0.7-1.78-0.7c-1.5,0-2.41,1.14-2.41,2.58c0,1.15,0.67,2.34,2.41,2.34
			c0.55,0,1.03-0.12,1.58-0.56v-1.24h-1.79v-1.18h3v2.95c-0.69,0.79-1.56,1.26-2.79,1.26c-2.63,0-3.7-1.73-3.7-3.57
			c0-1.97,1.23-3.79,3.7-3.79c0.94,0,1.88,0.36,2.6,1.07L270.09,70.15z"/>
		<path class="st1" d="M275.21,71.33l1.86-2.89h1.59v0.06l-2.79,4.05v2.89h-1.32v-2.89l-2.69-4.05v-0.06h1.57L275.21,71.33z"/>
		<path class="st1" d="M281.06,74.81c0,0.95-1.44,0.95-1.44,0C279.62,73.86,281.06,73.86,281.06,74.81z"/>
	</g>
	<g>
		<path class="st1" d="M125.06,58.77h-2.69l-9.18-10.05h-7.24v10.05h-2.05V32.21c3.91,0,7.78,0,11.68,0c5.77,0,8.69,4.13,8.72,8.27
			c0.04,4.32-2.81,8.12-8.61,8.12L125.06,58.77z M105.95,46.78h9.41c4.63,0,6.68-2.62,6.71-6.33c0.04-3.11-2.09-6.33-6.49-6.33
			h-9.63V46.78z"/>
		<path class="st1" d="M152.44,58.77l-2.92-6.52h-15.86l-2.88,6.52h-2.2l11.91-26.55h2.24l11.91,26.55H152.44z M148.73,50.35
			l-7.13-16.16l-7.13,16.16H148.73z"/>
		<path class="st1" d="M162.52,49.59v9.18h-2.05V32.21c3.87,0,7.78,0,11.65,0c11.53,0,11.53,17.37,0,17.37H162.52z M162.52,34.11
			v13.62h9.6c8.84,0,8.84-13.62,0-13.62H162.52z"/>
		<path class="st1" d="M207.12,58.77V46.7H190.2v12.06h-2.05V32.21h2.05v12.63h16.92V32.21h2.05v26.55H207.12z"/>
		<path class="st1" d="M217.89,58.77V32.21h2.01v26.55H217.89z"/>
		<path class="st1" d="M250.5,55.09c-2.65,2.65-6.18,3.98-9.67,3.98c-8.95,0-13.62-6.26-13.66-13.43
			c-0.08-7.09,4.55-13.73,13.66-13.73c3.49,0,7.02,1.33,9.67,3.98l-1.4,1.21c-2.28-2.28-5.27-3.38-8.27-3.38
			c-7.74,0-11.72,5.46-11.68,11.84c0.08,6.22,4.02,11.61,11.68,11.61c3,0,6.03-1.14,8.31-3.38L250.5,55.09z"/>
		<path class="st1" d="M278.07,58.77l-2.92-6.52h-15.86l-2.88,6.52h-2.2l11.91-26.55h2.24l11.91,26.55H278.07z M274.35,50.35
			l-7.13-16.16l-7.13,16.16H274.35z"/>
		<g>
			<g>
				<line class="st2" x1="72.95" y1="26.44" x2="72.95" y2="61.18"/>
				<circle class="st0" cx="72.95" cy="62.54" r="2.14"/>
				<circle class="st0" cx="72.95" cy="26.85" r="2.14"/>
			</g>
			<path class="st0" d="M95.76,38.05h-2.69c-0.61,0-1.11-0.5-1.11-1.11V34.4c0-0.61,0.5-1.11,1.11-1.11h2.69
				c0.61,0,1.11,0.5,1.11,1.11v2.54C96.87,37.55,96.37,38.05,95.76,38.05z"/>
			<path class="st0" d="M95.76,48.21h-2.69c-0.61,0-1.11-0.5-1.11-1.11v-2.54c0-0.61,0.5-1.11,1.11-1.11h2.69
				c0.61,0,1.11,0.5,1.11,1.11v2.54C96.87,47.71,96.37,48.21,95.76,48.21z"/>
			<path class="st0" d="M95.76,56.65h-2.69c-0.61,0-1.11-0.5-1.11-1.11V53c0-0.61,0.5-1.11,1.11-1.11h2.69
				c0.61,0,1.11,0.5,1.11,1.11v2.54C96.87,56.16,96.37,56.65,95.76,56.65z"/>
			<path class="st0" d="M87.42,48.21h-2.69c-0.61,0-1.11-0.5-1.11-1.11v-2.54c0-0.61,0.5-1.11,1.11-1.11h2.69
				c0.61,0,1.11,0.5,1.11,1.11v2.54C88.53,47.71,88.03,48.21,87.42,48.21z"/>
			<path class="st0" d="M74.26,48.21h-2.69c-0.61,0-1.11-0.5-1.11-1.11v-2.54c0-0.61,0.5-1.11,1.11-1.11h2.69
				c0.61,0,1.11,0.5,1.11,1.11v2.54C75.37,47.72,74.87,48.21,74.26,48.21z"/>
		</g>
	</g>
</g>
</svg>
